<svg width="16" height="15" viewBox="0 0 16 15" fill="none" xmlns="http://www.w3.org/2000/svg">
<path d="M5.39563 14.4941C5.55805 14.7174 5.87076 14.7668 6.09409 14.6044C6.31741 14.4419 6.36679 14.1292 6.20437 13.9059L5.39563 14.4941ZM1 7.6L0.595632 7.30591C0.468123 7.48124 0.468123 7.71876 0.595632 7.89409L1 7.6ZM6.20437 1.29409C6.36679 1.07076 6.31741 0.758051 6.09409 0.595632C5.87076 0.433213 5.55805 0.482588 5.39563 0.705914L6.20437 1.29409ZM6.20437 13.9059L1.40437 7.30591L0.595632 7.89409L5.39563 14.4941L6.20437 13.9059ZM1.40437 7.89409L6.20437 1.29409L5.39563 0.705914L0.595632 7.30591L1.40437 7.89409ZM1.6 8.1H16V7.1H1.6V8.1Z" fill="#555555"/>
</svg>
