<svg width="240" height="240" viewBox="0 0 240 240" fill="none" xmlns="http://www.w3.org/2000/svg">
<path opacity="0.5" d="M15.1297 161.687C15.1297 161.687 29.246 198.386 68.8079 212.374C108.37 226.363 151.884 213.264 187.428 203.571C222.973 193.877 242.796 164.954 236.463 133.823C230.129 102.692 200.56 103.164 174.378 74.3114C148.195 45.4583 145.608 33.884 107.885 23.6452C70.1628 13.4063 26.9724 42.7015 14.4038 87.0329C1.83533 131.364 15.1297 161.687 15.1297 161.687Z" fill="#D9F7BE"/>
<path d="M87.9449 117.724C89.3675 118.831 91.073 119.514 92.8661 119.696C94.6591 119.879 96.4672 119.552 98.0833 118.754C99.6993 117.956 101.058 116.719 102.004 115.185C102.949 113.651 103.443 111.881 103.43 110.079C103.416 108.276 102.895 106.515 101.927 104.995C100.958 103.475 99.5809 102.258 97.953 101.485C96.3252 100.712 94.5123 100.412 92.7222 100.621C90.9321 100.831 89.2371 101.54 87.8314 102.668L85.7308 101.045L82.6043 102.023L82.9611 98.8962L80.3253 96.8484L77.2028 97.8216L77.5597 94.6951L75.2928 92.9352L73.3869 93.5272L73.6059 91.6213L72.2718 90.5832L69.2791 90.8752L68.8735 95.4737L84.5507 107.659C84.0636 109.485 84.1258 111.414 84.7295 113.204C85.3333 114.994 86.4517 116.567 87.9449 117.724ZM99.3683 114.452C99.0346 114.881 98.5813 115.202 98.0655 115.373C97.5497 115.545 96.9946 115.56 96.4703 115.416C95.9461 115.272 95.4762 114.976 95.1201 114.566C94.764 114.155 94.5377 113.648 94.4697 113.108C94.4017 112.569 94.4951 112.022 94.7382 111.535C94.9812 111.049 95.3629 110.646 95.8351 110.376C96.3072 110.107 96.8487 109.984 97.3909 110.022C97.9332 110.06 98.452 110.258 98.8816 110.591C99.4567 111.04 99.8308 111.698 99.922 112.421C100.013 113.145 99.8141 113.875 99.3683 114.452Z" fill="#EBEBEB"/>
<path d="M100.581 81.0739C101.192 80.3269 101.58 79.4229 101.702 78.4654C101.823 77.5079 101.672 76.5356 101.266 75.6599C100.86 74.7842 100.216 74.0405 99.4071 73.514C98.5982 72.9876 97.6573 72.6996 96.6923 72.6831C95.7273 72.6666 94.7772 72.9222 93.9507 73.4207C93.1243 73.9192 92.4549 74.6404 92.0194 75.5017C91.5839 76.363 91.3998 77.3296 91.4882 78.2907C91.5766 79.2518 91.9339 80.1686 92.5192 80.936L91.6149 82.039L92.0974 83.7259L90.4267 83.4948L89.3034 84.8816L89.786 86.5686L88.1193 86.3334L87.1461 87.5256L87.4381 88.5516L86.4202 88.4096L85.8566 89.1031L85.9742 90.7251L88.4316 91.0009L95.155 82.7649C96.1255 83.0475 97.1578 83.0378 98.1228 82.7371C99.0878 82.4363 99.9428 81.8578 100.581 81.0739ZM98.9588 74.9181C99.1839 75.1026 99.3494 75.3497 99.4342 75.6281C99.519 75.9066 99.5193 76.204 99.4351 76.4826C99.3509 76.7613 99.186 77.0087 98.9612 77.1937C98.7364 77.3786 98.4618 77.4927 98.1722 77.5217C97.8825 77.5506 97.5908 77.4929 97.3339 77.3561C97.077 77.2192 96.8664 77.0093 96.7288 76.7527C96.5912 76.4962 96.5328 76.2047 96.5608 75.9149C96.5889 75.6252 96.7023 75.3503 96.8866 75.125C97.0088 74.9724 97.1603 74.8459 97.3322 74.7527C97.504 74.6595 97.6927 74.6016 97.8873 74.5823C98.0818 74.5631 98.2782 74.5828 98.465 74.6405C98.6518 74.6982 98.8252 74.7926 98.975 74.9181H98.9588Z" fill="#EBEBEB"/>
<path d="M78.8898 46.2402V75.9969H36.1445L34.6076 46.447L78.8898 46.2402Z" fill="#E0E0E0"/>
<path d="M34.6076 46.4469V75.936H77.3529V46.4469H34.6076Z" fill="white"/>
<path d="M77.5435 76.1396H34.4048V46.245H77.5435V76.1396ZM34.8023 75.734H77.138V46.6505H34.8104L34.8023 75.734Z" fill="#E0E0E0"/>
<path d="M72.7178 50.1087H39.2344V72.2701H72.7178V50.1087Z" fill="white"/>
<path d="M72.7219 50.1087H72.5557H72.0772L70.2442 50.1452H63.3505L39.2467 50.1939L39.344 50.0966C39.344 56.8687 39.344 64.3707 39.344 72.258L39.2386 72.1525L72.726 72.1769L72.6408 72.258C72.6408 65.5142 72.6733 59.9871 72.6854 56.1347C72.6854 54.2085 72.6854 52.7081 72.7057 51.674C72.7057 51.1631 72.7057 50.7738 72.7057 50.5021C72.7057 50.2304 72.7057 50.0966 72.7057 50.0966C72.7057 50.0966 72.7057 50.2263 72.7057 50.5021C72.7057 50.7778 72.7057 51.155 72.7057 51.6578C72.7057 52.6838 72.7057 54.1842 72.7057 56.1185C72.7057 59.983 72.7341 65.5305 72.7503 72.2945V72.3796H72.6692H39.1818H39.0764V72.2701C39.0764 64.3829 39.0764 56.8808 39.0764 50.1087V50.0114H39.1737L63.3424 50.0601L70.2361 50.0885H72.0569H72.5232L72.7219 50.1087Z" fill="#E0E0E0"/>
<path d="M34.6035 46.3618C34.8675 46.4916 35.1153 46.6522 35.3415 46.8403C35.7794 47.1566 36.3715 47.6027 37.0163 48.1177C37.661 48.6327 38.2328 49.1193 38.6383 49.4843C38.8675 49.6663 39.0731 49.8761 39.2507 50.1088C39.2101 50.1534 38.1842 49.2977 36.8987 48.284C36.0943 47.6916 35.3278 47.0497 34.6035 46.3618Z" fill="#E0E0E0"/>
<path d="M77.3489 46.4469C76.6482 47.1363 75.9003 47.7759 75.1104 48.3609C74.3586 48.9983 73.5632 49.5823 72.73 50.1087C73.4333 49.419 74.184 48.7794 74.9766 48.1947C75.7253 47.5571 76.518 46.973 77.3489 46.4469Z" fill="#E0E0E0"/>
<path d="M77.3163 75.94L72.5515 72.0754L77.3163 75.94Z" fill="white"/>
<path d="M72.5515 72.0754C73.4031 72.6365 74.216 73.2543 74.9846 73.9246C75.8006 74.5483 76.5741 75.2257 77.3001 75.9522C76.4477 75.3922 75.6347 74.7744 74.867 74.103C74.0477 73.4834 73.2739 72.8058 72.5515 72.0754Z" fill="#E0E0E0"/>
<path d="M34.6035 75.936C35.2998 75.2529 36.0437 74.62 36.8297 74.0423C37.5738 73.4109 38.361 72.8323 39.1858 72.3107C38.4933 72.9978 37.7505 73.6321 36.9636 74.2085C36.2188 74.8396 35.4301 75.4169 34.6035 75.936Z" fill="#E0E0E0"/>
<path d="M46.035 57.0147V64.4356H67.1055V57.0147H46.035Z" fill="#E0E0E0"/>
<path d="M185.005 215.271C185.005 215.328 150.179 215.376 107.227 215.376C64.275 215.376 29.4372 215.328 29.4372 215.271C29.4372 215.214 64.2588 215.165 107.227 215.165C150.195 215.165 185.005 215.214 185.005 215.271Z" fill="#263238"/>
<path d="M152.479 200.591L162.515 215.186L166.104 215.271L159.527 200.263L152.479 200.591Z" fill="#263238"/>
<path d="M46.5703 201.333L41.2823 215.121H43.9263L53.1599 201.394L46.5703 201.333Z" fill="#263238"/>
<path d="M44.2913 151.24L44.6968 169.083C44.7226 170.297 45.2161 171.454 46.0744 172.313C46.9327 173.172 48.0894 173.666 49.3034 173.693L149.137 175.916C149.765 175.93 150.39 175.818 150.974 175.587C151.559 175.357 152.091 175.011 152.54 174.572C152.989 174.133 153.346 173.608 153.59 173.029C153.833 172.45 153.959 171.828 153.959 171.199V149.707C153.958 146.643 152.849 143.683 150.836 141.373C148.824 139.063 146.044 137.558 143.01 137.136C124.733 134.622 87.0488 130.757 56.5743 136.248C53.0764 136.874 49.9168 138.728 47.6648 141.476C45.4128 144.225 44.2165 147.687 44.2913 151.24Z" fill="#B7EB8F"/>
<path d="M43.8533 157.473C43.8533 157.473 35.6294 153.665 33.9465 157.473C32.2636 161.281 34.1533 165.952 36.0025 168.555C37.8516 171.159 37.8435 203.324 37.8435 203.324L162.572 201.99L164.048 171.062C164.048 171.062 170.029 163.693 169.656 160.518C169.283 157.343 164.234 152.72 158.44 157.461C152.645 162.201 151.14 172.108 151.14 172.108L51.6959 172.858C51.6959 172.858 52.0365 158.945 43.8533 157.473Z" fill="#B7EB8F"/>
<path d="M149.879 178.288C149.879 178.345 127.783 178.393 100.532 178.393C73.2815 178.393 51.185 178.357 51.185 178.288C51.185 178.219 73.2734 178.182 100.532 178.182C127.791 178.182 149.879 178.239 149.879 178.288Z" fill="#263238"/>
<path d="M51.1851 191.913C51.1799 191.881 51.1799 191.848 51.1851 191.816C51.1851 191.739 51.1851 191.642 51.1851 191.528C51.1851 191.274 51.177 190.905 51.1608 190.421C51.1608 189.444 51.1608 188.061 51.1608 186.366C51.1608 182.935 51.1851 178.195 51.0269 172.984C50.996 170.53 50.8064 168.081 50.4592 165.652C50.3862 165.384 50.3132 165.117 50.2443 164.841C50.1753 164.565 50.0415 164.334 49.9361 164.087C49.7212 163.596 49.5022 163.126 49.2629 162.684C48.831 161.861 48.3232 161.08 47.7463 160.352C47.2646 159.755 46.7209 159.212 46.1243 158.73C45.6711 158.369 45.1835 158.054 44.6685 157.789C44.2198 157.582 43.761 157.398 43.2938 157.238H43.387L43.6668 157.315C44.0247 157.417 44.3723 157.553 44.705 157.72C45.2346 157.971 45.7351 158.28 46.1972 158.641C46.8064 159.119 47.3613 159.663 47.8517 160.263C48.4446 160.992 48.966 161.777 49.4089 162.607C49.6563 163.053 49.8793 163.523 50.0983 164.018C50.2078 164.265 50.3092 164.521 50.4105 164.776L50.6417 165.587C51.0035 168.027 51.1999 170.489 51.2297 172.955C51.3878 178.187 51.3351 182.927 51.3027 186.358C51.2783 188.057 51.2581 189.44 51.2459 190.413C51.2459 190.879 51.2459 191.248 51.2459 191.52V191.804C51.1851 191.877 51.1851 191.913 51.1851 191.913Z" fill="#263238"/>
<path d="M42.8841 164.65C42.9809 164.584 43.0954 164.549 43.2126 164.549C43.5386 164.524 43.8629 164.615 44.129 164.805C44.3161 164.935 44.4691 165.109 44.5751 165.311C44.6963 165.549 44.7376 165.819 44.6927 166.082C44.6485 166.385 44.5137 166.667 44.3059 166.891C44.0981 167.116 43.8272 167.272 43.5289 167.339C43.2283 167.382 42.9217 167.335 42.6475 167.205C42.3733 167.074 42.1439 166.866 41.9879 166.605C41.8513 166.378 41.7824 166.116 41.7892 165.851C41.8038 165.572 41.8932 165.302 42.048 165.069C42.2028 164.837 42.4174 164.65 42.6692 164.529C42.7726 164.473 42.8883 164.444 43.0058 164.444C43.0058 164.464 42.8882 164.492 42.7057 164.602C42.4506 164.76 42.2465 164.988 42.1177 165.259C42.0213 165.449 41.9752 165.66 41.9837 165.873C41.9923 166.086 42.0551 166.293 42.1663 166.475C42.3053 166.698 42.5054 166.875 42.7428 166.987C42.9802 167.098 43.2447 167.139 43.5045 167.104C43.7587 167.044 43.9899 166.912 44.1694 166.722C44.3489 166.532 44.4688 166.294 44.5143 166.037C44.55 165.826 44.5257 165.608 44.4439 165.409C44.3622 165.211 44.2264 165.039 44.052 164.914C43.8209 164.73 43.5362 164.626 43.241 164.618C43.0058 164.63 42.8882 164.671 42.8841 164.65Z" fill="#263238"/>
<path d="M43.4478 172.655C43.2114 172.48 43.0185 172.252 42.8841 171.99C42.5139 171.38 42.3141 170.683 42.3056 169.969C42.297 169.256 42.48 168.553 42.8355 167.935C42.9648 167.67 43.1519 167.437 43.3829 167.254C43.4113 167.278 43.2004 167.534 42.9774 168.004C42.6731 168.613 42.5175 169.286 42.5232 169.967C42.5344 170.648 42.7052 171.318 43.022 171.921C43.2572 172.384 43.4803 172.635 43.4478 172.655Z" fill="#263238"/>
<path d="M42.1421 160.616C42.12 160.822 42.0793 161.025 42.0204 161.224C41.8425 162.194 42.0553 163.196 42.6125 164.01C42.7439 164.169 42.8644 164.337 42.9734 164.513C42.9734 164.513 42.7463 164.399 42.4908 164.107C42.1618 163.705 41.9328 163.231 41.8229 162.723C41.7129 162.216 41.725 161.689 41.8582 161.187C41.9036 160.976 42.0012 160.779 42.1421 160.616Z" fill="#263238"/>
<path d="M39.713 165.1C39.7616 165.06 40.1387 165.441 40.7146 165.737C41.2904 166.033 41.8135 166.143 41.8054 166.191C41.3902 166.245 40.9695 166.15 40.6173 165.924C40.2296 165.762 39.9099 165.471 39.713 165.1Z" fill="#263238"/>
<path d="M163.05 191.913C163.05 191.97 134.92 192.019 100.22 192.019C65.52 192.019 37.3976 191.97 37.3976 191.913C37.3976 191.856 65.5241 191.808 100.252 191.808C134.981 191.808 163.05 191.852 163.05 191.913Z" fill="#263238"/>
<path d="M149.445 172.225C149.506 172.225 149.551 176.629 149.551 182.059C149.551 187.489 149.506 191.901 149.445 191.901C149.384 191.901 149.34 187.497 149.34 182.059C149.34 176.621 149.389 172.225 149.445 172.225Z" fill="#263238"/>
<path d="M107.795 138.199H107.6L107.033 138.219L104.855 138.28L96.8339 138.466L70.3781 138.998C67.795 139.058 65.2686 139.05 62.8436 139.212C60.5085 139.313 58.1983 139.734 55.9783 140.465C53.9756 141.138 52.1834 142.322 50.7796 143.9C50.1428 144.613 49.5978 145.404 49.1575 146.252C48.7559 147.033 48.4235 147.847 48.164 148.685C47.7472 150.142 47.4756 151.636 47.353 153.146C47.2273 154.484 47.2151 155.64 47.207 156.589C47.1989 157.538 47.207 158.268 47.2354 158.766C47.2354 159.01 47.2354 159.196 47.2354 159.334C47.2354 159.472 47.2354 159.529 47.2354 159.529C47.2354 159.529 47.2354 159.464 47.2354 159.334C47.2354 159.204 47.2354 159.01 47.2029 158.766C47.1786 158.272 47.1462 157.55 47.1381 156.589C47.1299 155.628 47.1381 154.48 47.2475 153.134C47.3669 151.609 47.6386 150.099 48.0586 148.628C48.3153 147.775 48.6464 146.946 49.048 146.151C49.4845 145.285 50.0296 144.478 50.6701 143.75C52.093 142.148 53.9104 140.945 55.9418 140.263C58.1693 139.519 60.4895 139.089 62.8355 138.985C65.2686 138.823 67.799 138.827 70.3822 138.766L96.842 138.296L104.859 138.178L107.041 138.154H107.608L107.795 138.199Z" fill="#263238"/>
<path d="M75.8647 152.092C75.8647 152.092 75.7308 152.157 75.524 152.315C75.2317 152.539 75.0129 152.845 74.8955 153.195C74.8009 153.444 74.7718 153.713 74.8108 153.976C74.8499 154.239 74.9558 154.488 75.1185 154.699C75.3019 154.977 75.566 155.191 75.8753 155.313C76.1845 155.436 76.5239 155.46 76.8474 155.383C77.1709 155.306 77.4629 155.131 77.6839 154.883C77.9049 154.634 78.0441 154.324 78.0828 153.994C78.1323 153.731 78.1144 153.461 78.0307 153.208C77.9469 152.955 77.8002 152.727 77.6043 152.546C77.3414 152.289 77.0085 152.115 76.6473 152.047C76.3918 152.002 76.2418 152.019 76.2418 152.002C76.3714 151.955 76.5113 151.942 76.6473 151.966C76.978 152.004 77.2927 152.129 77.5598 152.327C77.8268 152.526 78.0366 152.792 78.168 153.097C78.2874 153.393 78.3198 153.717 78.2613 154.03C78.2089 154.393 78.0486 154.732 77.8013 155.002C77.5539 155.273 77.2309 155.463 76.8742 155.548C76.5174 155.633 76.1434 155.609 75.8007 155.478C75.458 155.348 75.1624 155.117 74.9523 154.817C74.7598 154.564 74.6431 154.261 74.6157 153.945C74.5974 153.669 74.6403 153.392 74.7414 153.134C74.8798 152.766 75.1328 152.451 75.4632 152.238C75.5816 152.154 75.7202 152.104 75.8647 152.092Z" fill="#263238"/>
<path d="M74.1575 162.599C74.0031 162.208 73.8995 161.799 73.8493 161.382C73.6514 160.392 73.6736 159.37 73.9142 158.389C74.1741 157.396 74.7979 156.536 75.6619 155.98C75.9231 155.819 76.2096 155.702 76.5094 155.636C76.6168 155.602 76.7301 155.591 76.842 155.603C76.4559 155.727 76.0857 155.896 75.739 156.106C74.94 156.671 74.3656 157.5 74.1169 158.446C73.8882 159.4 73.8469 160.388 73.9953 161.358C74.0926 162.128 74.1899 162.59 74.1575 162.599Z" fill="#263238"/>
<path d="M75.6335 145.847C75.4181 146.133 75.2191 146.43 75.0374 146.739C74.6255 147.498 74.5041 148.381 74.6959 149.222C74.8877 150.064 75.3796 150.807 76.0795 151.313C76.3776 151.514 76.6877 151.697 77.0081 151.86C76.9077 151.86 76.8084 151.839 76.7162 151.8C76.4609 151.71 76.2183 151.587 75.9944 151.435C75.2292 150.935 74.6878 150.158 74.4844 149.266C74.2809 148.375 74.4312 147.44 74.9035 146.658C75.0396 146.423 75.206 146.208 75.3983 146.017C75.5361 145.875 75.6253 145.818 75.6335 145.847Z" fill="#263238"/>
<path d="M75.2604 153.957C74.5192 154.081 73.7855 154.246 73.0625 154.452C72.3624 154.726 71.6774 155.037 71.0106 155.384C72.1825 154.365 73.7107 153.852 75.2604 153.957Z" fill="#263238"/>
<g opacity="0.3">
<path opacity="0.3" d="M62.1583 178.669C66.0952 181.686 70.9973 183.164 75.9458 182.826C74.9185 187.592 73.8939 192.359 72.872 197.128C72.6003 198.397 72.3448 199.813 73.0098 200.932C73.9425 202.501 76.112 202.655 77.9368 202.631C79.9644 202.603 82.0812 202.554 83.8817 201.613C86.4324 200.283 87.803 197.461 88.7925 194.76C89.7819 192.059 90.6376 189.164 92.6733 187.132C95.0101 189.795 98.1732 191.595 101.655 192.246C102.669 192.432 103.821 192.489 104.632 191.84C105.443 191.191 105.674 190.048 105.467 189.042C105.197 188.051 104.748 187.118 104.141 186.289L98.2045 177.084C97.3935 175.839 96.5257 174.525 95.1672 173.933C94.1007 173.466 92.8922 173.527 91.7325 173.58C82.0401 174.144 72.42 175.598 62.9936 177.923" fill="black"/>
</g>
<g opacity="0.3">
<path opacity="0.3" d="M93.8777 133.032C91.477 139.375 82.5233 140.83 79.3643 146.82C76.254 152.757 80.1104 160.607 76.9069 166.512C75.7187 168.693 73.6628 170.319 72.5192 172.517C71.7406 173.993 71.3392 175.761 70.0861 176.852C68.6181 178.13 66.3432 178.105 64.5792 177.278C62.8152 176.451 61.4608 174.967 60.2037 173.478C57.8517 170.689 55.6417 167.671 54.5265 164.188C52.6368 158.199 54.3724 151.422 58.1761 146.418C61.9799 141.414 67.6125 138.036 73.5614 136.013C79.5103 133.989 85.8039 133.227 92.061 132.639" fill="black"/>
</g>
<path d="M65.0455 116.354C65.9543 114.937 67.2108 113.777 68.6952 112.984C70.1901 112.188 71.9377 112.012 73.5613 112.493C74.3592 112.746 75.0776 113.202 75.6462 113.816C76.2149 114.431 76.6143 115.182 76.8055 115.997C77.0609 117.298 76.7122 118.75 77.3854 119.894C78.1558 121.208 80.0171 121.621 80.6741 123C80.8467 123.427 80.9185 123.888 80.884 124.347C80.8496 124.806 80.7097 125.252 80.4754 125.648C80.0026 126.437 79.4008 127.142 78.6952 127.732C79.1202 127.998 79.496 128.336 79.8063 128.73C79.9602 128.928 80.0624 129.162 80.1034 129.41C80.1445 129.658 80.1232 129.912 80.0415 130.149C79.777 130.619 79.341 130.967 78.8249 131.122C76.5594 132.077 74.055 132.312 71.6514 131.796C71.0107 131.658 70.2767 131.483 69.7495 131.873" fill="#263238"/>
<path d="M81.2783 121.167L79.9766 125.137L88.8411 130.17L79.9198 130.457L80.5849 137.688L97.7584 133.47C97.7584 133.47 98.7884 126.467 81.2783 121.167L80.0618 120.875C79.8424 120.824 79.6388 120.72 79.4686 120.572C79.2983 120.424 79.1665 120.237 79.0845 120.028C78.9453 119.686 78.6855 119.408 78.3545 119.245L76.8906 118.483V119.642L77.7017 120.587L77.5719 122.83C77.5379 123.31 77.6758 123.787 77.9611 124.175C78.2464 124.562 78.6604 124.836 79.1291 124.947L79.9401 125.137" fill="#FFBE9D"/>
<path d="M61.8582 135.522C61.5054 135.522 58.2329 136.333 56.3594 138.702C54.4859 141.07 51.7771 150.032 51.7771 150.032L58.6709 151.224L61.6473 158.697C61.6473 158.697 79.267 156.39 78.3302 155.453C77.4247 154.62 76.4773 153.834 75.4916 153.097L79.5468 139.59L84.4129 136.962L82.7706 130.214L72.9693 131.54L61.8582 135.522Z" fill="#FAFAFA"/>
<path d="M78.7032 142.712C78.7032 142.769 73.2085 142.817 66.4364 142.817C59.6643 142.817 54.1655 142.769 54.1655 142.712C54.1655 142.655 59.6603 142.607 66.4364 142.607C73.2126 142.607 78.7032 142.655 78.7032 142.712Z" fill="#B7EB8F"/>
<path d="M77.6044 146.682C77.6044 146.739 72.1096 146.788 65.3375 146.788C58.5654 146.788 53.0667 146.739 53.0667 146.682C53.0667 146.625 58.5573 146.577 65.3375 146.577C72.1177 146.577 77.6044 146.625 77.6044 146.682Z" fill="#B7EB8F"/>
<path d="M77.6043 150.968C77.6043 151.029 73.4438 151.078 68.3099 151.078C63.1761 151.078 59.0196 151.029 59.0196 150.968C59.0196 150.908 63.1802 150.863 68.3099 150.863C73.4397 150.863 77.6043 150.912 77.6043 150.968Z" fill="#B7EB8F"/>
<path d="M79.0277 155.1C79.0277 155.157 74.8671 155.206 69.7374 155.206C64.6076 155.206 60.447 155.157 60.447 155.1C60.447 155.044 64.6036 154.995 69.7374 154.995C74.8712 154.995 79.0277 155.04 79.0277 155.1Z" fill="#B7EB8F"/>
<path d="M83.4275 137.371C83.4275 137.432 80.6781 137.477 77.2921 137.477C73.906 137.477 71.1526 137.432 71.1526 137.371C71.1526 137.311 73.8979 137.266 77.2921 137.266C80.6862 137.266 83.4275 137.331 83.4275 137.371Z" fill="#B7EB8F"/>
<path d="M83.8736 133.162C83.8736 133.223 81.1364 133.333 77.7625 133.41C74.3886 133.487 71.6432 133.507 71.6432 133.45C71.6432 133.393 74.3764 133.28 77.7544 133.199C81.1323 133.118 83.8736 133.105 83.8736 133.162Z" fill="#B7EB8F"/>
<path d="M60.1065 144.772C59.9557 145.891 59.7349 146.998 59.4455 148.089C59.2248 149.197 58.9364 150.29 58.5817 151.362C58.7326 150.244 58.952 149.136 59.2387 148.045C59.4572 146.936 59.747 145.843 60.1065 144.772Z" fill="#263238"/>
<path d="M79.2873 195.405L74.1534 211.597L80.3416 212.221L86.1567 198.15L79.2873 195.405Z" fill="#FFBE9D"/>
<path d="M83.8168 205.92L80.8687 213.219C80.8687 213.219 87.3083 218.673 86.8946 220.076L72.5151 214.882L76.6392 203.3L83.8168 205.92Z" fill="#455A64"/>
<path d="M76.6473 210.997C76.4937 210.989 76.3426 211.038 76.2229 211.134C76.1031 211.231 76.0233 211.368 75.9985 211.52C75.9844 211.673 76.0296 211.825 76.1246 211.946C76.2197 212.067 76.3574 212.146 76.5094 212.169C76.672 212.177 76.8319 212.124 76.9584 212.022C77.0848 211.919 77.169 211.774 77.1948 211.613C77.1948 211.305 76.8906 210.952 76.5865 210.997" fill="#E0E0E0"/>
<path d="M72.5151 214.882L72.9774 213.73L86.5946 219.156C86.5946 219.156 87.1339 219.663 86.8946 220.088L72.5151 214.882Z" fill="#E0E0E0"/>
<path d="M81.1283 213.243C81.0999 213.312 80.7228 213.219 80.3172 213.316C79.9117 213.414 79.5995 213.649 79.5468 213.596C79.494 213.543 79.7414 213.191 80.2605 213.065C80.7795 212.939 81.1648 213.182 81.1283 213.243Z" fill="#263238"/>
<path d="M82.4096 214.411C82.4096 214.488 82.0528 214.496 81.7081 214.707C81.3634 214.918 81.1931 215.19 81.112 215.19C81.0309 215.19 81.1404 214.748 81.5743 214.496C82.0082 214.245 82.434 214.346 82.4096 214.411Z" fill="#263238"/>
<path d="M82.6124 216.528C82.5435 216.528 82.5719 216.122 82.8922 215.814C83.2126 215.506 83.5978 215.461 83.6059 215.53C83.614 215.599 83.3342 215.733 83.0788 215.997C82.8233 216.26 82.6854 216.548 82.6124 216.528Z" fill="#263238"/>
<path d="M81.5986 211.504C81.5459 211.556 81.258 211.341 80.8524 211.224C80.4469 211.106 80.0901 211.122 80.0738 211.049C80.0576 210.976 80.451 210.83 80.9254 210.976C81.3999 211.122 81.6675 211.459 81.5986 211.504Z" fill="#263238"/>
<path d="M82.1827 210.015C81.9242 209.993 81.6764 209.902 81.4649 209.752C81.221 209.612 80.9961 209.442 80.7958 209.245C80.6734 209.132 80.5608 209.008 80.4592 208.876C80.3952 208.802 80.3432 208.718 80.3051 208.628C80.2768 208.562 80.2714 208.488 80.2897 208.418C80.3081 208.349 80.3492 208.287 80.4065 208.243C80.4592 208.207 80.5197 208.184 80.5832 208.175C80.6466 208.167 80.7111 208.173 80.7715 208.195C80.8632 208.228 80.9504 208.273 81.031 208.328C81.1756 208.421 81.3113 208.527 81.4365 208.645C81.6398 208.843 81.8108 209.071 81.9434 209.322C82.0884 209.54 82.1621 209.798 82.1543 210.06C82.1137 210.06 82.0326 209.792 81.7853 209.415C81.6417 209.196 81.4699 208.997 81.2743 208.823C81.1607 208.718 81.0371 208.624 80.9053 208.543C80.7674 208.45 80.6377 208.401 80.5768 208.454C80.516 208.507 80.5484 208.487 80.5768 208.539C80.6086 208.605 80.648 208.666 80.6944 208.722C80.7882 208.846 80.8884 208.965 80.9945 209.079C81.1793 209.269 81.3801 209.442 81.5947 209.598C81.8002 209.723 81.9967 209.862 82.1827 210.015Z" fill="#263238"/>
<path d="M82.0529 210.084C81.991 209.829 82.0138 209.56 82.1177 209.318C82.2512 208.884 82.5025 208.495 82.8436 208.195C82.9165 208.114 83.0088 208.054 83.1118 208.019C83.2147 207.984 83.3248 207.976 83.4316 207.996C83.4954 208.021 83.5508 208.064 83.5916 208.119C83.6324 208.174 83.6571 208.24 83.6628 208.308C83.6699 208.406 83.6617 208.505 83.6384 208.6C83.6056 208.769 83.5467 208.932 83.4641 209.083C83.328 209.338 83.13 209.556 82.8882 209.715C82.4827 209.987 82.1461 209.967 82.1502 209.938C82.3671 209.828 82.577 209.705 82.7787 209.569C82.9785 209.408 83.1405 209.204 83.2532 208.973C83.3164 208.845 83.3628 208.708 83.3911 208.568C83.4235 208.41 83.4113 208.264 83.3465 208.259C83.2816 208.255 83.1113 208.304 83.0099 208.405C82.8932 208.503 82.7859 208.612 82.6895 208.73C82.5249 208.934 82.3885 209.159 82.284 209.399C82.1177 209.796 82.0975 210.088 82.0529 210.084Z" fill="#263238"/>
<path d="M98.7722 180.161L106.436 193.483L112.706 189.46L105.009 175.936L98.7722 180.161Z" fill="#FFBE9D"/>
<path d="M110.54 185.652L114.502 192.481C114.502 192.481 122.758 190.745 123.614 191.933L110.67 200.084L104.064 189.707L110.54 185.652Z" fill="#455A64"/>
<path d="M110.143 194.431C110.04 194.545 109.983 194.694 109.983 194.847C109.983 195.001 110.04 195.149 110.143 195.263C110.254 195.364 110.398 195.42 110.548 195.42C110.699 195.42 110.843 195.364 110.954 195.263C111.06 195.139 111.117 194.98 111.113 194.817C111.11 194.654 111.046 194.498 110.934 194.379C110.805 194.282 110.644 194.239 110.484 194.258C110.324 194.277 110.177 194.356 110.074 194.48" fill="#E0E0E0"/>
<path d="M110.67 200.076L110.046 199.006L122.689 191.593C122.689 191.593 123.423 191.479 123.614 191.925L110.67 200.076Z" fill="#E0E0E0"/>
<path d="M114.668 192.274C114.705 192.339 114.409 192.566 114.226 192.963C114.044 193.361 114.044 193.734 113.971 193.746C113.898 193.758 113.76 193.341 113.971 192.854C114.182 192.367 114.644 192.205 114.668 192.274Z" fill="#263238"/>
<path d="M116.38 191.978C116.432 192.031 116.226 192.311 116.181 192.716C116.136 193.122 116.25 193.438 116.181 193.474C116.112 193.511 115.853 193.182 115.917 192.663C115.982 192.144 116.339 191.921 116.38 191.978Z" fill="#263238"/>
<path d="M118.176 193.118C118.123 193.17 117.839 192.911 117.771 192.461C117.702 192.011 117.925 191.69 117.985 191.723C118.046 191.755 117.985 192.059 118.03 192.428C118.075 192.797 118.233 193.073 118.176 193.118Z" fill="#263238"/>
<path d="M113.594 190.818C113.594 190.895 113.257 190.989 112.917 191.224C112.576 191.459 112.369 191.759 112.3 191.727C112.231 191.694 112.361 191.297 112.767 191.009C113.172 190.721 113.594 190.749 113.594 190.818Z" fill="#263238"/>
<path d="M112.771 189.46C112.771 189.484 112.564 189.683 112.122 189.865C111.86 189.968 111.588 190.042 111.311 190.084C111.145 190.105 110.979 190.117 110.812 190.121C110.714 190.124 110.615 190.113 110.52 190.088C110.451 190.07 110.39 190.028 110.346 189.971C110.303 189.914 110.28 189.844 110.281 189.772C110.284 189.708 110.303 189.645 110.335 189.589C110.368 189.534 110.413 189.486 110.467 189.452C110.55 189.401 110.638 189.362 110.731 189.334C111.16 189.187 111.619 189.152 112.065 189.233C112.543 189.322 112.795 189.496 112.779 189.521C112.762 189.545 112.495 189.452 112.045 189.415C111.782 189.396 111.518 189.409 111.258 189.456C111.108 189.483 110.96 189.522 110.816 189.573C110.654 189.626 110.536 189.699 110.54 189.78C110.544 189.861 110.54 189.821 110.601 189.845C110.671 189.861 110.744 189.868 110.816 189.865C111.236 189.871 111.655 189.812 112.057 189.691C112.289 189.596 112.527 189.519 112.771 189.46Z" fill="#263238"/>
<path d="M112.746 189.602C112.746 189.626 112.462 189.476 112.178 189.083C112.016 188.85 111.895 188.591 111.822 188.316C111.778 188.154 111.749 187.989 111.736 187.822C111.718 187.714 111.728 187.603 111.765 187.5C111.802 187.397 111.865 187.305 111.947 187.234C112.004 187.198 112.07 187.178 112.138 187.178C112.205 187.178 112.271 187.198 112.329 187.234C112.41 187.288 112.484 187.353 112.548 187.428C112.659 187.561 112.752 187.708 112.823 187.866C112.939 188.132 112.987 188.421 112.965 188.71C112.925 189.204 112.71 189.448 112.689 189.427C112.734 189.189 112.765 188.948 112.783 188.706C112.778 188.45 112.717 188.198 112.604 187.968C112.54 187.833 112.457 187.709 112.357 187.599C112.251 187.477 112.13 187.396 112.085 187.444C112.045 187.493 112.015 187.549 111.999 187.61C111.983 187.671 111.981 187.735 111.992 187.797C111.999 187.95 112.02 188.102 112.053 188.251C112.112 188.506 112.208 188.75 112.337 188.977C112.556 189.375 112.775 189.569 112.746 189.602Z" fill="#263238"/>
<path d="M75.958 178.288L91.0107 168.053L100.504 186.532L109.133 181.856C109.133 181.856 99.194 157.607 95.6254 156.836C93.6263 156.398 70.6984 160.774 70.6984 160.774L68.1356 159.488L61.6474 158.697L61.2418 159.748C60.1092 162.616 59.5884 165.689 59.7127 168.77C59.837 171.851 60.6037 174.872 61.9637 177.639L62.28 178.284L75.958 178.288Z" fill="#263238"/>
<path d="M70.6741 165.482C70.7876 165.989 83.245 177.647 83.245 177.647L76.0674 201.771L86.7811 203.819L97.5394 174.76L77.876 155.47L68.8776 159.229L70.6741 165.482Z" fill="#263238"/>
<path d="M91.0106 168.049C91.043 168.097 87.6975 170.425 83.5451 173.251C79.3926 176.078 75.9944 178.328 75.9579 178.288C75.9214 178.247 79.2669 175.908 83.4234 173.081C87.5799 170.255 90.9741 168 91.0106 168.049Z" fill="#455A64"/>
<path d="M98.7357 183.085C98.597 182.912 98.4748 182.726 98.3708 182.53C98.1477 182.165 97.8395 181.625 97.4624 180.96C96.7122 179.626 95.7147 177.761 94.6603 175.689C93.606 173.616 92.6733 171.706 92.0204 170.324C91.6919 169.63 91.4324 169.066 91.258 168.677C91.1556 168.48 91.0727 168.274 91.0107 168.061C91.1331 168.246 91.2415 168.44 91.3351 168.641L92.1461 170.263C92.8517 171.662 93.7966 173.531 94.8387 175.603C95.8809 177.676 96.8663 179.557 97.5841 180.908C97.9288 181.56 98.2167 182.1 98.4357 182.509C98.5504 182.693 98.6508 182.886 98.7357 183.085Z" fill="#455A64"/>
<path d="M85.4794 173.333C85.1594 174.222 84.7745 175.087 84.3277 175.92C83.9419 176.781 83.4933 177.614 82.9855 178.41C83.6897 176.658 84.5233 174.961 85.4794 173.333Z" fill="#455A64"/>
<path d="M51.7771 150.032L49.344 159.018C49.0299 160.18 49.1751 161.419 49.7495 162.477C50.2396 163.387 51.0151 164.11 51.9567 164.536C52.8982 164.961 53.9536 165.066 54.9604 164.833L74.2426 160.084L72.215 156.078L57.0244 157.396L58.6465 151.224L51.7771 150.032Z" fill="#FFBE9D"/>
<path d="M60.3294 163.669L60.5808 162.363L71.0309 160.486L74.0682 144.375L93.4762 142.063L90.2159 159.261L60.3294 163.669Z" fill="#455A64"/>
<path d="M82.7828 153.053C82.5597 153.043 82.3449 152.965 82.1672 152.83C81.9896 152.694 81.8575 152.508 81.7888 152.296C81.7202 152.083 81.7181 151.855 81.7829 151.641C81.8478 151.427 81.9764 151.238 82.1516 151.1C82.3268 150.961 82.5402 150.88 82.7631 150.866C82.986 150.852 83.2078 150.907 83.3987 151.023C83.5896 151.139 83.7405 151.31 83.8312 151.514C83.9219 151.718 83.948 151.945 83.9061 152.165C83.8735 152.431 83.7373 152.673 83.527 152.84C83.3167 153.006 83.0492 153.082 82.7828 153.053Z" fill="#EBEBEB"/>
<path d="M63.1681 117.461L63.2046 118.625L63.6425 136.062C63.6953 138.089 65.4755 139.655 67.6409 139.582C69.8307 139.513 71.5906 137.797 71.5744 135.749C71.5541 133.604 71.5744 131.341 71.5744 131.341C71.5744 131.341 74.336 130.851 74.8672 127.234C75.1308 125.437 75.0051 122.493 74.8266 120.088C74.7886 119.576 74.6471 119.076 74.4108 118.619C74.1744 118.162 73.8481 117.758 73.4514 117.431C73.0548 117.103 72.596 116.86 72.1026 116.714C71.6093 116.569 71.0917 116.525 70.5809 116.585L63.1681 117.461Z" fill="#FFBE9D"/>
<path d="M73.4276 122.112C73.4298 122.233 73.385 122.35 73.3025 122.438C73.22 122.527 73.1064 122.58 72.9855 122.586C72.9275 122.591 72.869 122.585 72.8134 122.567C72.7579 122.549 72.7064 122.521 72.6619 122.483C72.6174 122.445 72.5809 122.399 72.5543 122.347C72.5277 122.296 72.5116 122.239 72.507 122.181C72.5047 122.06 72.549 121.944 72.6306 121.856C72.7123 121.767 72.8249 121.714 72.945 121.706C73.0627 121.696 73.1797 121.733 73.2702 121.809C73.3606 121.885 73.4173 121.994 73.4276 122.112Z" fill="#263238"/>
<path d="M74.2062 121.641C74.1494 121.702 73.8007 121.447 73.2978 121.451C72.795 121.455 72.4381 121.714 72.3814 121.654C72.3246 121.593 72.4138 121.516 72.572 121.398C72.7854 121.247 73.0402 121.165 73.3019 121.163C73.5611 121.16 73.8147 121.238 74.0278 121.386C74.1819 121.516 74.2346 121.613 74.2062 121.641Z" fill="#263238"/>
<path d="M68.5127 122.29C68.516 122.412 68.4715 122.529 68.3889 122.618C68.3062 122.707 68.1919 122.76 68.0707 122.765C67.953 122.775 67.836 122.738 67.7455 122.662C67.6551 122.586 67.5985 122.477 67.5882 122.359C67.5859 122.239 67.6309 122.122 67.7135 122.034C67.796 121.946 67.9097 121.894 68.0302 121.889C68.0883 121.883 68.1469 121.889 68.2026 121.906C68.2584 121.924 68.3102 121.952 68.3551 121.989C68.4 122.026 68.437 122.072 68.464 122.124C68.4911 122.176 68.5076 122.232 68.5127 122.29Z" fill="#263238"/>
<path d="M69.3116 121.792C69.2548 121.852 68.906 121.597 68.4032 121.601C67.9004 121.605 67.5435 121.865 67.4867 121.804C67.43 121.743 67.5151 121.666 67.6733 121.548C67.8882 121.397 68.1443 121.315 68.4073 121.313C68.6652 121.311 68.9175 121.389 69.1291 121.536C69.2832 121.654 69.3399 121.763 69.3116 121.792Z" fill="#263238"/>
<path d="M71.1607 125.461C71.4236 125.377 71.696 125.325 71.9717 125.307C72.1015 125.307 72.2191 125.267 72.2393 125.178C72.2489 125.047 72.2178 124.917 72.1501 124.805L71.7649 123.839C71.4057 123.023 71.1128 122.18 70.889 121.317C71.3149 122.096 71.6743 122.91 71.9636 123.75L72.3367 124.719C72.4172 124.872 72.4429 125.048 72.4097 125.218C72.3914 125.263 72.3634 125.304 72.3277 125.337C72.2919 125.37 72.2493 125.394 72.2028 125.409C72.1314 125.428 72.0579 125.439 71.9839 125.441C71.7115 125.484 71.4348 125.49 71.1607 125.461Z" fill="#263238"/>
<path d="M71.5743 131.354C69.8707 131.408 68.1857 130.987 66.7081 130.137C66.7081 130.137 67.9247 132.603 71.5175 132.221L71.5743 131.354Z" fill="#FFBE9D"/>
<path d="M69.5103 120.968C69.4576 121.102 68.9628 121.017 68.3748 121.058C67.7868 121.098 67.3083 121.24 67.2353 121.114C67.2029 121.053 67.2921 120.932 67.4868 120.81C67.7472 120.657 68.0408 120.57 68.3424 120.555C68.6428 120.532 68.9443 120.581 69.2224 120.697C69.4332 120.794 69.5346 120.908 69.5103 120.968Z" fill="#263238"/>
<path d="M73.9993 119.894C73.9101 120.007 73.5654 119.894 73.1558 119.894C72.7463 119.894 72.3935 119.979 72.3124 119.861C72.2313 119.744 72.3124 119.691 72.4786 119.581C72.6826 119.45 72.9214 119.382 73.1643 119.387C73.4071 119.392 73.6428 119.47 73.8412 119.61C73.9872 119.74 74.0358 119.857 73.9993 119.894Z" fill="#263238"/>
<path d="M71.1079 127.266C70.9619 127.289 70.8123 127.274 70.674 127.221L70.2685 127.108C70.155 127.071 70.0293 127.019 69.8873 126.966C69.745 126.927 69.616 126.85 69.5143 126.743C69.4291 126.633 69.4453 126.439 69.64 126.264C69.7751 126.166 69.9318 126.101 70.097 126.075C70.2622 126.05 70.4311 126.064 70.5898 126.117C70.7484 126.169 70.8922 126.259 71.0091 126.379C71.126 126.498 71.2127 126.644 71.262 126.804C71.3472 127.059 71.2418 127.229 71.1079 127.266Z" fill="#FFBE9D"/>
<path d="M71.1769 127.221C71.1283 127.258 70.885 126.759 70.301 126.609C69.9439 126.558 69.5797 126.598 69.2426 126.727C69.2426 126.727 69.3075 126.597 69.5062 126.495C69.7687 126.365 70.0697 126.333 70.3537 126.406C70.6387 126.478 70.8879 126.651 71.0553 126.893C71.181 127.075 71.2013 127.213 71.1769 127.221Z" fill="#263238"/>
<path d="M67.3448 115.117C67.9018 115.995 68.1408 117.038 68.022 118.071C67.9032 119.104 67.4337 120.065 66.6919 120.794C65.8282 121.605 64.5427 122.225 64.4575 123.401C64.3602 124.703 65.8687 125.676 65.8687 126.982C65.8687 128.288 64.3237 129.18 64.0196 130.49C63.7763 131.544 64.4251 132.599 65.1388 133.397C65.8525 134.196 66.7608 134.902 67.1664 135.891C67.3816 136.449 67.4818 137.044 67.4609 137.641C67.44 138.239 67.2984 138.825 67.0447 139.367C66.5315 140.442 65.8467 141.427 65.0171 142.282C63.9387 141.896 62.8162 141.647 61.6757 141.54C61.7446 141.11 61.8176 140.676 61.8906 140.247C61.8799 140.498 61.7897 140.739 61.633 140.936C61.4763 141.133 61.2613 141.275 61.0188 141.341C60.5299 141.466 60.0185 141.473 59.5265 141.362C58.0065 141.121 56.5129 140.737 55.0658 140.214C55.713 139.631 56.2608 138.946 56.6879 138.186C56.8983 137.802 57.0123 137.373 57.0201 136.935C57.0279 136.497 56.9292 136.064 56.7325 135.672C56.3756 135.064 55.7187 134.675 55.3902 134.05C54.8995 133.118 55.305 131.933 56.0025 131.143C56.7 130.352 57.6489 129.837 58.4802 129.188C59.3115 128.539 60.0739 127.663 60.1388 126.609C60.228 125.247 59.1209 124.002 59.2588 122.643C59.4129 121.094 61.0512 120.145 61.6919 118.726C62.1583 117.7 62.0974 116.435 62.8111 115.563C63.0911 115.252 63.4391 115.009 63.8281 114.855C64.217 114.7 64.6364 114.637 65.0536 114.671C65.8874 114.743 66.6901 115.022 67.3894 115.482" fill="#263238"/>
<path d="M71.8663 131.743C71.2175 132.1 71.254 133.093 71.6514 133.722C72.0488 134.35 72.6855 134.8 73.0788 135.433C73.4113 136.011 73.5273 136.688 73.4062 137.343C73.2851 137.998 72.9348 138.589 72.4178 139.01L73.975 139.598L74.3156 139.407L75.2726 138.864L74.8225 139.971H75.8201C76.35 139.982 76.8724 139.844 77.3281 139.573C77.7838 139.303 78.1546 138.91 78.3986 138.439C78.6425 137.969 78.7498 137.439 78.7084 136.911C78.6669 136.382 78.4783 135.876 78.164 135.449C77.7585 134.882 77.1177 134.431 76.9758 133.746C76.8096 132.915 77.4381 132.165 77.7422 131.378C77.9843 130.713 78.0095 129.989 77.8142 129.309C77.6189 128.63 77.2133 128.029 76.6555 127.594" fill="#263238"/>
<path d="M41.1486 98.9246C41.2399 98.9699 41.3168 99.0399 41.3706 99.1266C41.4243 99.2133 41.4527 99.3133 41.4527 99.4153V102.116C41.4525 102.199 41.433 102.282 41.3958 102.356C41.3585 102.431 41.3044 102.496 41.2378 102.546C41.1715 102.597 41.0939 102.632 41.0114 102.648C40.9288 102.663 40.8438 102.659 40.7633 102.635C40.5407 102.578 40.3088 102.567 40.0816 102.602C39.8545 102.636 39.6367 102.717 39.4413 102.838C39.2613 102.941 39.1043 103.079 38.9802 103.245C38.856 103.411 38.7673 103.601 38.7195 103.803C38.6833 104.008 38.6891 104.218 38.7365 104.421C38.7839 104.624 38.8719 104.815 38.9953 104.983C39.1234 105.173 39.2879 105.337 39.4793 105.463C39.6707 105.59 39.8851 105.677 40.1104 105.721C40.568 105.767 41.0276 105.656 41.4137 105.406C41.7998 105.156 42.0895 104.782 42.2353 104.346C42.2569 104.279 42.2916 104.216 42.3374 104.162C42.3832 104.108 42.4392 104.063 42.5023 104.03C42.5654 103.998 42.6343 103.978 42.705 103.972C42.7757 103.966 42.8469 103.974 42.9146 103.996C42.9822 104.017 43.0449 104.052 43.0992 104.098C43.1534 104.143 43.1981 104.199 43.2306 104.263C43.2632 104.326 43.283 104.394 43.289 104.465C43.2949 104.536 43.2869 104.607 43.2653 104.675C43.0396 105.357 42.5854 105.94 41.9796 106.325C41.3738 106.711 40.6534 106.876 39.9401 106.792C39.569 106.728 39.2148 106.589 38.899 106.384C38.5832 106.18 38.3124 105.912 38.1031 105.599C37.8958 105.309 37.7494 104.98 37.6728 104.631C37.5961 104.283 37.5908 103.922 37.6571 103.572C37.7351 103.225 37.8832 102.898 38.0925 102.611C38.3017 102.323 38.5675 102.082 38.8736 101.901C39.3228 101.631 39.8379 101.491 40.3619 101.496V99.4153C40.3619 99.2712 40.4191 99.133 40.521 99.0311C40.6229 98.9291 40.7611 98.8719 40.9052 98.8719C40.9892 98.8714 41.0723 98.8894 41.1486 98.9246Z" fill="#B7EB8F"/>
<path d="M40.4024 97.7892C40.4008 97.702 40.4251 97.6162 40.4721 97.5428C40.5192 97.4693 40.5869 97.4114 40.6668 97.3764C40.7467 97.3414 40.8352 97.3308 40.9211 97.346C41.007 97.3611 41.0865 97.4014 41.1496 97.4616C41.2127 97.5219 41.2565 97.5995 41.2756 97.6846C41.2947 97.7697 41.2881 97.8586 41.2568 97.94C41.2255 98.0214 41.1707 98.0918 41.0995 98.1421C41.0283 98.1925 40.9437 98.2207 40.8565 98.2231C40.7981 98.2247 40.74 98.2147 40.6855 98.1937C40.631 98.1728 40.5812 98.1412 40.539 98.1008C40.4967 98.0605 40.4629 98.0122 40.4395 97.9587C40.416 97.9052 40.4034 97.8476 40.4024 97.7892Z" fill="#B7EB8F"/>
<path d="M53.6181 112.25C53.6181 112.25 53.4843 112.25 53.2613 112.363C52.9558 112.495 52.6981 112.717 52.5232 113C52.3991 113.194 52.3201 113.413 52.2921 113.641C52.2608 113.902 52.3074 114.168 52.4259 114.403C52.5472 114.683 52.7515 114.918 53.0112 115.078C53.2708 115.238 53.5732 115.314 53.8775 115.296C54.1818 115.279 54.4734 115.168 54.7127 114.979C54.9521 114.79 55.1277 114.533 55.2158 114.241C55.3066 113.993 55.3221 113.723 55.2604 113.466C55.2037 113.243 55.1 113.034 54.9563 112.854C54.7476 112.593 54.4649 112.401 54.1453 112.303C53.9141 112.238 53.7763 112.246 53.7763 112.234H53.8736C53.9141 112.23 53.9548 112.23 53.9952 112.234C54.0486 112.237 54.1016 112.245 54.1534 112.258C54.4967 112.339 54.8042 112.53 55.0293 112.801C55.1894 112.986 55.3046 113.205 55.3659 113.442C55.4325 113.71 55.4198 113.992 55.3294 114.253C55.2303 114.549 55.0505 114.812 54.8103 115.011C54.5544 115.231 54.2346 115.364 53.8979 115.389C53.5613 115.402 53.2291 115.308 52.949 115.121C52.6861 114.952 52.4754 114.713 52.3407 114.431C52.2202 114.179 52.1738 113.898 52.2069 113.62C52.2412 113.378 52.3299 113.147 52.4664 112.943C52.6606 112.647 52.9449 112.421 53.2775 112.298C53.3291 112.28 53.382 112.265 53.4356 112.254C53.4738 112.242 53.5133 112.235 53.5532 112.234C53.5755 112.236 53.5973 112.242 53.6181 112.25Z" fill="#263238"/>
<path d="M57.5759 116.171C57.5759 116.171 57.4908 116.191 57.3569 116.252C57.1641 116.337 57.0015 116.479 56.8906 116.658C56.8068 116.785 56.7575 116.932 56.7475 117.084C56.7376 117.236 56.7673 117.388 56.8338 117.526C56.9094 117.698 57.0358 117.843 57.1962 117.941C57.3566 118.039 57.5431 118.086 57.7308 118.075C57.9185 118.064 58.0983 117.995 58.2461 117.879C58.3938 117.763 58.5024 117.604 58.5573 117.424C58.6077 117.28 58.6197 117.125 58.592 116.975C58.5642 116.825 58.4977 116.685 58.3991 116.569C58.2682 116.403 58.09 116.281 57.8882 116.22C57.7462 116.175 57.6611 116.179 57.6611 116.167C57.7395 116.147 57.8219 116.147 57.9003 116.167C58.0854 116.211 58.2552 116.304 58.3922 116.436C58.5291 116.568 58.6282 116.734 58.6789 116.917C58.7293 117.091 58.7293 117.275 58.6789 117.448C58.6192 117.65 58.4989 117.828 58.3344 117.958C58.1699 118.089 57.9693 118.165 57.7597 118.178C57.5501 118.19 57.3418 118.138 57.1631 118.028C56.9844 117.917 56.8439 117.755 56.7608 117.562C56.6798 117.399 56.6501 117.215 56.6757 117.035C56.6975 116.881 56.7544 116.734 56.8419 116.605C56.9666 116.417 57.1487 116.275 57.361 116.2C57.4297 116.174 57.5031 116.165 57.5759 116.171Z" fill="#263238"/>
<path d="M52.9774 104.213C52.9774 104.213 52.9774 104.144 52.9774 104.01C52.9774 103.876 52.9774 103.673 52.9774 103.414C52.9774 103.28 52.9774 103.134 52.9774 102.972C52.9774 102.809 52.9531 102.635 52.9409 102.444C52.9287 102.254 52.9125 102.039 52.8922 101.828C52.8871 101.715 52.8722 101.602 52.8476 101.491L52.7868 101.135C52.5868 99.9425 52.2081 98.7873 51.6635 97.708C50.9549 96.28 49.9789 95.0012 48.7884 93.9408L48.2815 93.4988C48.1031 93.3609 47.9125 93.2312 47.726 93.0933L47.4381 92.8905C47.3475 92.816 47.2497 92.7508 47.1461 92.6959L46.5216 92.3187C46.4162 92.2579 46.3148 92.193 46.2053 92.1363L45.8687 91.9822L45.1915 91.674C44.9563 91.5767 44.713 91.5037 44.4737 91.4185L44.1088 91.2928L43.9222 91.232L43.7317 91.1874C43.2198 91.0522 42.6996 90.9506 42.1745 90.8832C41.9068 90.8548 41.6351 90.8062 41.3634 90.79L40.5524 90.7656C40.4145 90.7656 40.2767 90.7656 40.1469 90.7656L39.7414 90.7981C39.4575 90.8224 39.1737 90.8305 38.8939 90.867C38.3203 90.9485 37.7527 91.0677 37.1948 91.2239L36.769 91.3455C36.7 91.3455 36.627 91.382 36.5581 91.4063L36.3513 91.4874L35.5159 91.8119C35.2442 91.9335 34.9766 92.0795 34.7049 92.2174C34.5711 92.2904 34.4332 92.3471 34.2994 92.4282L33.8939 92.6756C33.3684 93.0049 32.8657 93.3693 32.3894 93.7664L31.7041 94.4112L31.5297 94.5734L31.3716 94.7518L31.0593 95.1127L30.743 95.4696L30.4592 95.8751L30.1793 96.2806L30.0374 96.4793C29.9928 96.5483 29.9523 96.6172 29.9117 96.6861L29.421 97.5337C29.2872 97.8297 29.1493 98.1257 29.0155 98.4258C27.9601 100.906 27.745 103.663 28.4032 106.277L28.6708 107.225L29.0236 108.134L29.1128 108.361L29.2223 108.576L29.4413 109.01L29.6562 109.436L29.9158 109.841L30.1712 110.247L30.2969 110.445L30.4429 110.632L31.0228 111.378C31.4323 111.844 31.8726 112.281 32.3407 112.688L32.6854 112.992C32.799 113.093 32.9287 113.174 33.0504 113.264C33.2978 113.438 33.537 113.625 33.7884 113.787L34.5589 114.217L34.7495 114.33L34.9523 114.423L35.3578 114.606C35.8846 114.846 36.4264 115.052 36.9798 115.222C37.2556 115.303 37.5354 115.356 37.7909 115.425L38.1964 115.522C38.3343 115.551 38.4721 115.559 38.6019 115.579L39.4129 115.685C39.6846 115.713 39.9563 115.685 40.2239 115.717C40.7545 115.735 41.2856 115.716 41.8136 115.66H42.0082L42.1988 115.628L42.58 115.563C42.8314 115.514 43.0828 115.482 43.3261 115.421L44.048 115.222L44.4048 115.125L44.7454 114.991L45.4145 114.732C45.5252 114.692 45.6324 114.643 45.7349 114.586L46.0512 114.427C46.258 114.322 46.4567 114.225 46.6635 114.115L47.2312 113.754C48.5808 112.891 49.75 111.774 50.6741 110.466C50.7754 110.324 50.8809 110.186 50.9782 110.06L51.2296 109.63L51.4729 109.225C51.5135 109.156 51.554 109.091 51.5905 109.022C51.627 108.953 51.6514 108.88 51.6838 108.811L52.0488 108.024C52.1542 107.773 52.2272 107.517 52.3123 107.286L52.434 106.942C52.4739 106.836 52.5051 106.728 52.5273 106.617L52.6733 106.013C52.7138 105.826 52.7625 105.656 52.7909 105.498C52.8192 105.34 52.8314 105.194 52.8517 105.064C52.8841 104.805 52.9125 104.61 52.9328 104.472C52.9531 104.334 52.9652 104.273 52.9652 104.273C52.9652 104.273 52.9652 104.342 52.9652 104.476L52.8922 105.068C52.8922 105.198 52.8598 105.344 52.8395 105.502C52.8192 105.66 52.7665 105.835 52.726 106.021C52.6854 106.208 52.6368 106.427 52.5881 106.625C52.5665 106.737 52.5352 106.847 52.4948 106.954C52.4543 107.067 52.4178 107.181 52.3772 107.298C52.2921 107.534 52.2231 107.789 52.1136 108.045C52.0042 108.3 51.8784 108.56 51.7568 108.856L51.6595 109.067C51.627 109.135 51.5824 109.204 51.5459 109.273C51.4648 109.407 51.3837 109.549 51.3026 109.679C51.2215 109.809 51.1364 109.967 51.0512 110.117C50.966 110.267 50.8484 110.397 50.7471 110.543C49.8153 111.845 48.6407 112.954 47.288 113.811L46.7162 114.176C46.5175 114.285 46.3107 114.387 46.0999 114.492L45.7876 114.655C45.6834 114.711 45.5749 114.76 45.4632 114.8L44.786 115.064L44.4454 115.198L44.0885 115.299L43.3626 115.502C43.1153 115.563 42.8598 115.595 42.6084 115.644L42.2231 115.713L42.0325 115.745H41.8338C41.3034 115.804 40.7696 115.825 40.2361 115.81C39.9644 115.81 39.6887 115.81 39.4251 115.778L38.6141 115.672C38.4721 115.672 38.3342 115.644 38.2085 115.612L37.803 115.518C37.5273 115.449 37.2434 115.397 36.9677 115.316C36.4132 115.147 35.8713 114.939 35.3456 114.695L34.9401 114.513L34.7373 114.419L34.5427 114.306L33.76 113.852C33.5086 113.689 33.2653 113.499 33.018 113.324C32.8922 113.231 32.7625 113.15 32.6489 113.049L32.3002 112.745C31.8058 112.334 31.341 111.89 30.9093 111.414L30.3213 110.664L30.1753 110.474L30.0455 110.271L29.7901 109.865L29.5305 109.46L29.3115 109.03L29.0885 108.592L28.979 108.373L28.8817 108.134C28.76 107.83 28.6424 107.522 28.5248 107.217C28.4072 106.913 28.3464 106.581 28.2532 106.26C27.5963 103.624 27.817 100.845 28.8817 98.3447L29.2872 97.4404C29.4535 97.1565 29.6197 96.8727 29.7819 96.5888C29.8265 96.5199 29.863 96.4469 29.9077 96.378L30.0496 96.1793L30.3375 95.7737L30.6214 95.3682L30.9417 95.0033L31.258 94.6423L31.4162 94.4639L31.5905 94.2977L32.284 93.6448C32.7651 93.2453 33.2732 92.8794 33.8046 92.5499L34.2102 92.3025C34.3399 92.2174 34.4819 92.1606 34.6157 92.0876C34.8874 91.9538 35.155 91.8037 35.4267 91.6821L36.2702 91.3536L36.481 91.2725L36.6919 91.2117L37.1218 91.0941C37.6834 90.9364 38.2552 90.8172 38.833 90.7372C39.1209 90.7007 39.4048 90.6886 39.6887 90.6642L40.0942 90.6359C40.2321 90.6359 40.374 90.6359 40.4997 90.6359L41.3351 90.6602C41.6108 90.6602 41.8784 90.7251 42.1461 90.7575C42.6761 90.8232 43.2006 90.9275 43.7154 91.0698L43.9101 91.1144C43.9709 91.1144 44.0317 91.1549 44.0926 91.1752L44.4616 91.3009C44.7049 91.3901 44.9523 91.4591 45.1834 91.5564L45.9133 91.9132L46.2499 92.0673L46.5703 92.2498L47.1947 92.6148C47.298 92.6739 47.3969 92.7403 47.4908 92.8135L47.7787 93.0203C47.9652 93.1582 48.1599 93.2879 48.3383 93.4258L48.8492 93.8719C50.0498 94.9458 51.0315 96.2415 51.7406 97.6878C52.2854 98.773 52.6601 99.9355 52.8517 101.135C52.872 101.256 52.8922 101.378 52.9125 101.491C52.9335 101.604 52.9471 101.718 52.9531 101.832C52.9531 102.051 52.9855 102.258 52.9977 102.449C53.0098 102.639 53.0261 102.818 53.0301 102.98C53.0342 103.142 53.0301 103.288 53.0301 103.422C53.0301 103.681 53.0301 103.88 53.0301 104.018L52.9774 104.213Z" fill="#263238"/>
<path d="M191.173 44.1111H107.454V171.195H191.173V44.1111Z" fill="white"/>
<path d="M191.027 50.5832H107.284V105.275H191.027V50.5832Z" fill="#F5F5F5"/>
<path d="M182.414 119.157C182.414 119.218 168.067 119.262 150.378 119.262C132.689 119.262 118.342 119.218 118.342 119.157C118.342 119.096 132.685 119.051 150.378 119.051C168.071 119.051 182.414 119.1 182.414 119.157Z" fill="black"/>
<path d="M168.736 122.583C168.736 122.64 160.516 122.689 150.374 122.689C140.232 122.689 132.008 122.64 132.008 122.583C132.008 122.527 140.232 122.478 150.374 122.478C160.516 122.478 168.736 122.51 168.736 122.583Z" fill="black"/>
<path d="M162.945 83.4339C164.286 82.1828 165.248 80.5792 165.72 78.8069C166.192 77.0345 166.156 75.165 165.614 73.4125C165.073 71.6599 164.049 70.0952 162.66 68.8976C161.271 67.6999 159.573 66.9178 157.76 66.6407C155.946 66.3635 154.092 66.6027 152.408 67.3307C150.725 68.0587 149.28 69.2462 148.241 70.7571C147.201 72.268 146.607 74.0412 146.528 75.8737C146.45 77.7062 146.889 79.5238 147.795 81.1184L145.808 82.9716L146.286 86.2685L143.2 85.425L140.715 87.7445L141.209 91.0211L138.127 90.1573L135.99 92.1484L136.282 94.176L134.401 93.6488L133.16 94.8086L132.973 97.8621L137.527 99.0097L152.308 85.2222C154.061 86.0013 156.004 86.2471 157.896 85.9291C159.787 85.6111 161.543 84.7433 162.945 83.4339ZM161.485 71.4266C161.863 71.8318 162.113 72.3401 162.202 72.8872C162.292 73.4343 162.217 73.9956 161.987 74.5001C161.758 75.0047 161.384 75.4297 160.912 75.7216C160.441 76.0134 159.894 76.1589 159.34 76.1396C158.785 76.1203 158.25 75.9371 157.8 75.6131C157.35 75.2892 157.006 74.8391 156.812 74.3198C156.618 73.8005 156.583 73.2354 156.71 72.6958C156.837 72.1563 157.122 71.6666 157.527 71.2887C158.071 70.7826 158.793 70.5129 159.535 70.5387C160.277 70.5646 160.978 70.8839 161.485 71.4266Z" fill="#263238"/>
<path d="M161.485 71.4266C161.485 71.4266 161.303 71.2563 160.93 71.0211C160.399 70.7041 159.78 70.5689 159.166 70.6359C158.668 70.6896 158.195 70.8809 157.8 71.1883C157.404 71.4958 157.102 71.9072 156.928 72.3765C156.753 72.8458 156.713 73.3545 156.811 73.8456C156.909 74.3366 157.142 74.7907 157.483 75.1568C157.825 75.5229 158.262 75.7867 158.745 75.9185C159.228 76.0503 159.738 76.0451 160.219 75.9033C160.699 75.7614 161.13 75.4887 161.464 75.1156C161.798 74.7425 162.022 74.2837 162.11 73.7908C162.223 73.1832 162.13 72.5555 161.846 72.0065C161.643 71.601 161.465 71.4388 161.485 71.4226C161.506 71.4063 161.538 71.4591 161.619 71.5442C161.738 71.667 161.843 71.8031 161.931 71.9497C162.261 72.509 162.384 73.1662 162.28 73.807C162.22 74.1882 162.083 74.5534 161.879 74.8809C161.674 75.2084 161.406 75.4916 161.091 75.7136C160.775 75.9356 160.418 76.0919 160.04 76.1733C159.663 76.2547 159.273 76.2595 158.894 76.1874C158.283 76.0753 157.724 75.7696 157.301 75.3153C156.877 74.861 156.611 74.2823 156.542 73.6651C156.497 73.282 156.528 72.8937 156.636 72.5232C156.743 72.1527 156.924 71.8074 157.167 71.5079C157.41 71.2085 157.711 70.9608 158.051 70.7797C158.392 70.5985 158.765 70.4876 159.15 70.4534C159.798 70.3935 160.446 70.5629 160.982 70.9319C161.131 71.0271 161.267 71.1402 161.388 71.2685C161.485 71.3739 161.51 71.4226 161.485 71.4266Z" fill="#263238"/>
<path d="M162.945 83.4339C162.945 83.4339 162.9 83.4826 162.803 83.5678L162.373 83.9733C161.79 84.4478 161.157 84.8558 160.483 85.1898C159.202 85.8036 157.803 86.132 156.382 86.1523C154.962 86.1726 153.554 85.8843 152.256 85.3074H152.337L137.58 99.1193L137.539 99.1639H137.479L132.925 98.0203L132.831 98V97.9027C132.888 96.9498 132.949 95.9076 133.014 94.8492V94.7519L133.046 94.7194L134.316 93.5353L134.36 93.4907H134.425L136.307 94.0179L136.157 94.1476C136.063 93.5191 135.966 92.8297 135.865 92.1201V92.0592L135.909 92.0187L138.046 90.0236L138.095 89.9749H138.16L141.242 90.8387L141.092 90.9725C140.942 89.9262 140.78 88.807 140.617 87.6756V87.6108L140.666 87.5702L141.323 86.9538L143.152 85.2507L143.2 85.202H143.265L146.351 86.0657L146.197 86.1996C146.038 85.0884 145.88 83.9895 145.723 82.9027V82.8419L145.767 82.7973L147.754 80.9441L147.734 81.0901C146.965 79.7241 146.53 78.1956 146.465 76.6294C146.427 75.8727 146.481 75.1142 146.627 74.3707C146.76 73.6396 146.978 72.9264 147.276 72.2458C148.028 70.5243 149.257 69.0538 150.817 68.0074C152.377 66.961 154.204 66.3824 156.082 66.3398C157.96 66.2972 159.811 66.7923 161.417 67.7669C163.023 68.7414 164.317 70.1547 165.147 71.8403C165.925 73.4305 166.257 75.2019 166.108 76.966C166.005 78.2809 165.632 79.5606 165.013 80.7251C164.952 80.8468 164.891 80.9603 164.831 81.0739L164.632 81.382C164.498 81.5807 164.389 81.7876 164.259 81.9376C163.995 82.2539 163.792 82.5378 163.594 82.7486L163.107 83.288L162.949 83.4339C162.949 83.4339 162.994 83.3772 163.091 83.2717L163.529 82.8054C163.719 82.6026 163.934 82.3147 164.174 81.9944C164.295 81.8281 164.401 81.6335 164.531 81.4388C164.595 81.3374 164.66 81.2361 164.725 81.1266L164.904 80.7819C165.503 79.6294 165.864 78.3681 165.965 77.0732C166.066 75.7782 165.906 74.4762 165.494 73.2445C165.081 72.0128 164.425 70.8767 163.564 69.9039C162.704 68.9311 161.656 68.1415 160.484 67.582C159.312 67.0226 158.039 66.7048 156.741 66.6476C155.444 66.5904 154.148 66.7949 152.931 67.249C151.714 67.7031 150.601 68.3974 149.658 69.2907C148.715 70.184 147.961 71.2579 147.442 72.4485C147.153 73.1143 146.941 73.8109 146.81 74.5248C146.671 75.2514 146.619 75.9919 146.655 76.7308C146.725 78.2547 147.151 79.741 147.9 81.0698L147.945 81.1509L147.876 81.2158L145.893 83.069L145.93 82.9635C146.086 84.0449 146.245 85.1452 146.404 86.2644L146.432 86.4469L146.25 86.3983L143.168 85.5345L143.286 85.5061L141.457 87.2093L140.804 87.8135L140.84 87.704C141.003 88.8354 141.165 89.9587 141.315 91.0009L141.343 91.1874L141.161 91.1387L138.079 90.2709L138.192 90.2425C137.458 90.9319 136.728 91.6091 136.055 92.2377L136.096 92.1322C136.193 92.8257 136.29 93.515 136.384 94.1598L136.408 94.3382L136.234 94.2896L134.356 93.7624L134.466 93.734L133.221 94.8938L133.257 94.8168C133.192 95.8751 133.127 96.9173 133.071 97.8703L132.986 97.7527L137.539 98.9003L137.438 98.9287L152.239 85.1655L152.276 85.1331H152.32C153.601 85.7091 154.99 86.0023 156.394 85.9925C157.798 85.9827 159.183 85.6702 160.455 85.0763C161.126 84.7566 161.762 84.3679 162.353 83.9165L162.795 83.5475L162.945 83.4339Z" fill="#263238"/>
<path d="M162.617 82.3269C163.957 81.0765 164.919 79.4739 165.391 77.7025C165.863 75.9311 165.826 74.0626 165.286 72.3109C164.745 70.5592 163.722 68.9951 162.334 67.7977C160.946 66.6004 159.249 65.8182 157.437 65.5407C155.625 65.2631 153.771 65.5015 152.088 66.2286C150.405 66.9556 148.961 68.1419 147.921 69.6515C146.881 71.1612 146.287 72.9332 146.208 74.7647C146.128 76.5962 146.566 78.413 147.471 80.0073L145.488 81.8565L145.962 85.1574L142.88 84.2896L140.398 86.6132L140.873 89.91L137.791 89.0462L135.654 91.0414L135.942 93.069L134.064 92.5458L132.819 93.7056L132.633 96.7591L137.187 97.9027L151.968 84.1152C153.722 84.8985 155.668 85.1466 157.562 84.8284C159.456 84.5103 161.215 83.6401 162.617 82.3269ZM161.173 70.3196C161.551 70.7247 161.801 71.233 161.89 71.7801C161.98 72.3272 161.905 72.8885 161.675 73.3931C161.446 73.8976 161.071 74.3227 160.6 74.6145C160.129 74.9063 159.581 75.0518 159.027 75.0325C158.473 75.0132 157.938 74.83 157.488 74.5061C157.038 74.1822 156.694 73.7321 156.5 73.2128C156.306 72.6935 156.27 72.1283 156.398 71.5888C156.525 71.0492 156.809 70.5595 157.215 70.1817C157.484 69.9306 157.799 69.735 158.144 69.606C158.488 69.477 158.855 69.4172 159.223 69.43C159.59 69.4428 159.952 69.528 160.286 69.6806C160.621 69.8333 160.922 70.0504 161.173 70.3196Z" fill="#B7EB8F"/>
<path d="M161.173 70.3197C161.173 70.3197 160.99 70.1494 160.617 69.9142C160.092 69.5867 159.473 69.444 158.857 69.5086C158.361 69.5632 157.889 69.7549 157.495 70.0622C157.101 70.3695 156.801 70.7803 156.627 71.2486C156.453 71.717 156.413 72.2245 156.512 72.7143C156.61 73.2041 156.842 73.6569 157.183 74.0222C157.524 74.3874 157.96 74.6506 158.441 74.7824C158.923 74.9142 159.432 74.9093 159.912 74.7683C160.391 74.6273 160.821 74.3558 161.155 73.9841C161.489 73.6124 161.713 73.1552 161.801 72.6635C161.913 72.0556 161.819 71.4277 161.534 70.8793C161.331 70.4738 161.157 70.3116 161.173 70.2953C161.189 70.2791 161.226 70.3318 161.311 70.417C161.428 70.54 161.532 70.6761 161.619 70.8225C161.95 71.3828 162.073 72.0417 161.968 72.6838C161.907 73.0644 161.77 73.4289 161.566 73.7558C161.361 74.0827 161.094 74.3654 160.779 74.5873C160.463 74.8091 160.107 74.9656 159.73 75.0475C159.354 75.1294 158.965 75.1351 158.586 75.0642C157.975 74.9582 157.414 74.6585 156.987 74.2094C156.56 73.7602 156.289 73.1856 156.213 72.5703C156.169 72.1874 156.202 71.7995 156.31 71.4295C156.417 71.0594 156.598 70.7146 156.841 70.4154C157.084 70.1162 157.384 69.8685 157.724 69.687C158.064 69.5055 158.437 69.3939 158.821 69.3586C159.47 69.2996 160.118 69.4704 160.654 69.8412C160.803 69.9352 160.939 70.0484 161.059 70.1777C161.144 70.267 161.181 70.3156 161.173 70.3197Z" fill="#263238"/>
<path d="M162.616 82.3269C162.616 82.3269 162.572 82.3756 162.479 82.4608L162.049 82.842C161.465 83.3152 160.831 83.7231 160.159 84.0585C158.877 84.6721 157.477 85.0003 156.056 85.0206C154.635 85.0409 153.226 84.7528 151.927 84.1761H152.008L137.256 97.9879L137.211 98.0285H137.154L132.596 96.8849L132.507 96.8606V96.7673C132.564 95.8144 132.629 94.7722 132.689 93.7138V93.6651L132.722 93.6368L133.967 92.4729L134.016 92.4283H134.08L135.958 92.9514L135.808 93.0853C135.719 92.4567 135.617 91.7673 135.516 91.0577V90.9969L135.565 90.9522L137.698 88.9612L137.746 88.9125L137.815 88.9328L140.897 89.7965L140.743 89.9303L140.269 86.6416V86.5767L140.313 86.5321L140.974 85.9198L142.799 84.2166L142.848 84.168L142.917 84.1883L145.998 85.052L145.844 85.1858C145.685 84.0747 145.527 82.9758 145.37 81.889V81.8241L145.419 81.7836L147.406 79.9304L147.381 80.0763C146.612 78.7103 146.177 77.1818 146.112 75.6157C146.076 74.859 146.131 74.1007 146.274 73.357C146.408 72.626 146.626 71.913 146.923 71.2321C147.846 69.087 149.502 67.3402 151.594 66.3044C153.687 65.2686 156.08 65.0113 158.345 65.5785C160.611 66.1458 162.6 67.5006 163.958 69.4005C165.315 71.3004 165.952 73.6214 165.755 75.9482C165.652 77.263 165.279 78.5426 164.66 79.7073L164.478 80.0561L164.279 80.3643C164.145 80.563 164.036 80.7698 163.91 80.9198C163.647 81.2361 163.444 81.52 163.245 81.7308L162.775 82.181C162.673 82.2823 162.616 82.331 162.616 82.331C162.616 82.331 162.665 82.2702 162.762 82.1647L163.196 81.7025C163.387 81.4997 163.602 81.2118 163.841 80.8914C163.963 80.7292 164.072 80.5346 164.202 80.3359L164.397 80.0277L164.571 79.6789C165.17 78.5209 165.528 77.2529 165.621 75.9523C165.794 73.6749 165.155 71.41 163.818 69.5583C162.481 67.7066 160.532 66.3876 158.316 65.8346C156.1 65.2816 153.76 65.5302 151.71 66.5366C149.66 67.543 148.032 69.2421 147.114 71.3334C146.826 71.9993 146.615 72.6959 146.485 73.4097C146.344 74.136 146.293 74.8768 146.331 75.6157C146.399 77.1393 146.824 78.6255 147.572 79.9547L147.621 80.0358L147.552 80.1007L145.565 81.9539L145.601 81.8484C145.761 82.9298 145.919 84.0288 146.076 85.1453L146.104 85.3318L145.926 85.2791L142.831 84.4113L142.945 84.3829L141.12 86.0901L140.459 86.7024L140.496 86.597C140.662 87.7284 140.82 88.8476 140.97 89.8939L140.999 90.0804L140.82 90.0277L137.734 89.1639L137.852 89.1355L135.715 91.1266L135.751 91.0252C135.848 91.7187 135.95 92.404 136.039 93.0325L136.063 93.215L135.889 93.1664L134.011 92.6392L134.121 92.6108L132.88 93.7706L132.917 93.6895C132.852 94.7479 132.787 95.7941 132.726 96.743L132.641 96.6254L137.195 97.7771L137.093 97.8054L151.895 84.0423L151.931 84.0098L151.976 84.0301C153.257 84.6033 154.646 84.8949 156.049 84.8851C157.453 84.8753 158.838 84.5644 160.11 83.9733C160.782 83.6529 161.42 83.2643 162.012 82.8136L162.45 82.4445L162.616 82.3269Z" fill="#263238"/>
<path d="M161.72 81.5645C162.202 81.049 162.641 80.4958 163.034 79.91C163.479 79.2157 163.817 78.4584 164.036 77.6634C164.335 76.6099 164.43 75.5086 164.316 74.4193C164.182 73.103 163.742 71.8362 163.03 70.721C162.21 69.4443 161.065 68.4087 159.713 67.7202C158.989 67.3431 158.21 67.0805 157.406 66.9416C156.992 66.8643 156.573 66.8155 156.153 66.7956C155.723 66.789 155.294 66.8107 154.867 66.8605C153.075 67.066 151.397 67.8405 150.078 69.0704C148.759 70.3002 147.869 71.9206 147.539 73.6935C147.46 74.1154 147.408 74.5421 147.385 74.9708C147.377 75.3921 147.397 75.8135 147.446 76.232C147.528 77.0446 147.736 77.8395 148.063 78.588C148.655 79.9855 149.609 81.1993 150.828 82.1038C151.889 82.8937 153.121 83.4217 154.425 83.6448C155.5 83.8353 156.601 83.8174 157.669 83.5921C158.478 83.4262 159.257 83.1405 159.981 82.7445C160.592 82.3952 161.174 81.9965 161.72 81.5523C161.72 81.5523 161.692 81.5888 161.623 81.6497L161.319 81.9254C161.156 82.0748 160.981 82.2104 160.796 82.3309C160.552 82.5154 160.294 82.6808 160.025 82.8256C159.3 83.2413 158.515 83.5435 157.698 83.7218C155.726 84.1623 153.662 83.8985 151.864 82.9763C150.066 82.0541 148.648 80.5317 147.856 78.6732C147.517 77.9002 147.301 77.0794 147.215 76.2401C147.099 75.3834 147.125 74.5133 147.292 73.6651C147.629 71.8408 148.543 70.1731 149.899 68.9078C151.256 67.6425 152.983 66.8466 154.827 66.6375C155.695 66.5257 156.575 66.5559 157.434 66.7267C158.26 66.8751 159.059 67.1486 159.802 67.5377C161.187 68.2482 162.356 69.3166 163.188 70.6318C163.845 71.6762 164.272 72.8483 164.442 74.0704C164.611 75.2925 164.518 76.5367 164.17 77.7202C163.936 78.5246 163.579 79.2879 163.111 79.983C162.951 80.2409 162.769 80.485 162.568 80.7129C162.433 80.8897 162.284 81.0551 162.122 81.2076L161.826 81.4915C161.761 81.5361 161.724 81.5686 161.72 81.5645Z" fill="#263238"/>
<path d="M161.327 74.6343C161.307 74.6343 161.53 74.4234 161.801 73.9895C162.183 73.3702 162.346 72.6404 162.264 71.9173C162.207 71.3876 162.019 70.8807 161.714 70.4433C161.41 70.006 161.001 69.6524 160.524 69.4153C159.967 69.1301 159.337 69.0185 158.715 69.095C158.227 69.1538 157.76 69.3251 157.349 69.5953C156.939 69.8655 156.597 70.2274 156.35 70.6523C156.103 71.0772 155.958 71.5537 155.927 72.0441C155.895 72.5345 155.978 73.0256 156.169 73.4786C156.392 73.9998 156.747 74.454 157.199 74.7965C157.597 75.0929 158.057 75.294 158.545 75.3845C159.261 75.5165 160.001 75.4037 160.646 75.0641C161.1 74.8249 161.307 74.614 161.327 74.6343C161.347 74.6546 161.282 74.6951 161.181 74.7884C161.033 74.9288 160.868 75.05 160.69 75.1493C160.135 75.4709 159.498 75.6241 158.857 75.5902C158.217 75.5564 157.599 75.337 157.081 74.9587C156.563 74.5836 156.161 74.0687 155.924 73.4742C155.687 72.8797 155.625 72.23 155.743 71.601C155.874 70.8883 156.231 70.2367 156.761 69.7429C157.291 69.2491 157.967 68.9394 158.687 68.8598C159.355 68.779 160.032 68.902 160.629 69.2125C161.168 69.4935 161.622 69.9135 161.943 70.4291C162.282 70.9733 162.456 71.6037 162.446 72.2446C162.435 72.8856 162.239 73.5098 161.882 74.0422C161.766 74.2121 161.63 74.3673 161.477 74.5045C161.388 74.5978 161.331 74.6424 161.327 74.6343Z" fill="#263238"/>
<path d="M135.986 97.3432C135.942 97.2945 139.267 94.099 143.419 90.2426C147.572 86.3861 150.974 83.2718 151.019 83.3204C151.063 83.3691 147.738 86.5646 143.586 90.421C139.433 94.2775 136.031 97.3918 135.986 97.3432Z" fill="#263238"/>
<path d="M137.819 77.9919L137.957 77.6918L138.135 77.9676C138.281 78.1879 138.487 78.3622 138.728 78.4704L139.032 78.6042L138.756 78.7867C138.534 78.9314 138.358 79.1369 138.249 79.3788L138.115 79.6789L137.933 79.4031C137.788 79.1822 137.582 79.0077 137.341 78.9003L137.041 78.7665L137.316 78.584C137.538 78.4403 137.713 78.2344 137.819 77.9919Z" fill="#B7EB8F"/>
<path d="M128.772 75.7373L128.849 75.5629L128.955 75.7211C129.038 75.8503 129.158 75.9519 129.299 76.013L129.474 76.0942L129.312 76.1996C129.184 76.2834 129.083 76.4015 129.02 76.5402L128.942 76.7186L128.837 76.5564C128.754 76.4272 128.634 76.3256 128.492 76.2645L128.318 76.1834L128.476 76.082C128.605 75.9965 128.707 75.8772 128.772 75.7373Z" fill="#B7EB8F"/>
<path d="M157.268 91.159L157.345 90.9846L157.45 91.1468C157.537 91.2731 157.656 91.3739 157.795 91.4388L157.969 91.5158L157.811 91.6213C157.682 91.7048 157.58 91.8247 157.519 91.966L157.438 92.1403L157.333 91.9822C157.249 91.8533 157.131 91.7506 156.992 91.6862L156.813 91.6091L156.976 91.5037C157.105 91.4202 157.207 91.3002 157.268 91.159Z" fill="#B7EB8F"/>
<path d="M171.217 83.2515L171.351 82.9514L171.534 83.2272C171.679 83.4482 171.884 83.6228 172.126 83.73L172.426 83.8638L172.15 84.0463C171.929 84.191 171.754 84.3966 171.647 84.6384L171.509 84.9384L171.331 84.6627C171.184 84.4434 170.979 84.2693 170.739 84.1599L170.435 84.026L170.711 83.8436C170.933 83.6989 171.109 83.4934 171.217 83.2515Z" fill="#B7EB8F"/>
<path d="M169.405 72.1728L169.632 71.6659L169.936 72.1322C170.18 72.503 170.525 72.7969 170.93 72.9798L171.436 73.2028L170.97 73.5069C170.6 73.7537 170.306 74.0993 170.123 74.5045L169.895 75.0114L169.591 74.545C169.347 74.1743 169.002 73.8804 168.598 73.6975L168.091 73.4704L168.557 73.1663C168.928 72.9219 169.222 72.5774 169.405 72.1728Z" fill="#B7EB8F"/>
<path d="M135.009 68.7584L135.236 68.2515L135.54 68.7138C135.783 69.0856 136.128 69.3798 136.534 69.5613L137.041 69.7884L136.578 70.0926C136.206 70.3345 135.911 70.6797 135.731 71.0861L135.504 71.593L135.2 71.1307C134.956 70.7578 134.609 70.4634 134.202 70.2832L133.699 70.0561L134.162 69.7519C134.533 69.5088 134.828 69.1639 135.009 68.7584Z" fill="#B7EB8F"/>
<path d="M178.063 145.972C178.063 145.972 178.192 145.972 178.444 145.94C178.602 145.937 178.759 145.92 178.914 145.887L179.21 145.839L179.547 145.749C180.136 145.598 180.695 145.348 181.201 145.011C182.314 144.283 183.144 143.195 183.553 141.929C183.717 141.412 183.807 140.874 183.821 140.332C183.821 140.048 183.821 139.752 183.821 139.46L183.797 139.014C183.797 138.864 183.752 138.714 183.728 138.564C183.61 137.937 183.392 137.333 183.083 136.775C182.381 135.534 181.244 134.598 179.891 134.148C179.157 133.913 178.387 133.812 177.616 133.848H175.159L122.689 133.88C121.428 133.881 120.202 134.299 119.202 135.068C118.714 135.449 118.287 135.903 117.937 136.414C117.596 136.927 117.34 137.491 117.179 138.085C117.099 138.381 117.04 138.681 117.004 138.985C117.004 139.29 116.964 139.594 116.972 139.906C116.954 140.514 117.028 141.121 117.191 141.706C117.358 142.282 117.611 142.829 117.941 143.328C118.281 143.819 118.691 144.257 119.157 144.63C119.622 144.999 120.142 145.29 120.698 145.494C120.972 145.596 121.253 145.679 121.538 145.741C121.826 145.795 122.117 145.829 122.41 145.843C123.582 145.871 124.766 145.843 125.926 145.843H132.742L156.331 145.863L172.235 145.899L176.558 145.92H177.685H178.067C178.067 145.92 177.937 145.92 177.685 145.92H176.558L172.235 145.94L156.331 145.972L132.742 145.997H125.921C124.758 145.997 123.59 145.997 122.393 145.997C122.091 145.983 121.791 145.949 121.493 145.895C121.197 145.829 120.906 145.743 120.621 145.636C120.045 145.426 119.507 145.125 119.028 144.744C118.044 143.974 117.334 142.91 117 141.706C116.834 141.102 116.757 140.476 116.773 139.849C116.773 139.541 116.773 139.221 116.805 138.908C116.844 138.594 116.905 138.282 116.988 137.976C117.157 137.359 117.422 136.773 117.775 136.24C118.137 135.709 118.58 135.238 119.089 134.845C120.126 134.053 121.396 133.625 122.702 133.629L175.171 133.657H177.629C178.414 133.626 179.199 133.732 179.948 133.969C181.325 134.438 182.48 135.398 183.192 136.666C183.508 137.236 183.728 137.854 183.845 138.495L183.914 138.953C183.914 139.107 183.914 139.257 183.914 139.407C183.914 139.707 183.914 139.995 183.914 140.287C183.896 140.838 183.802 141.384 183.634 141.909C183.475 142.383 183.259 142.835 182.99 143.255C182.538 143.963 181.938 144.564 181.23 145.015C180.714 145.349 180.147 145.596 179.551 145.745L179.21 145.826L178.91 145.871C178.755 145.899 178.597 145.914 178.44 145.916L178.063 145.972Z" fill="#263238"/>
<path d="M178.063 148.58H122.685C119.472 148.58 116.866 151.185 116.866 154.399V154.955C116.866 158.168 119.472 160.774 122.685 160.774H178.063C181.276 160.774 183.882 158.168 183.882 154.955V154.399C183.882 151.185 181.276 148.58 178.063 148.58Z" fill="#B7EB8F"/>
<path d="M130.321 142.307C130.313 142.186 130.313 142.066 130.321 141.946C130.321 141.694 130.321 141.366 130.301 140.96C130.301 140.093 130.277 138.892 130.256 137.444L130.341 137.526L123.095 137.55L123.2 137.444V138.718C123.2 139.123 123.2 139.553 123.2 139.959C123.2 140.77 123.2 141.556 123.2 142.299L123.103 142.201L128.298 142.25L129.798 142.274H130.204H130.35C130.18 142.293 130.009 142.302 129.839 142.299L128.358 142.323L123.087 142.371H122.961V142.274C122.961 141.532 122.961 140.749 122.961 139.934C122.961 139.529 122.961 139.123 122.961 138.693V137.453C122.868 137.546 123.091 137.323 123.067 137.343L130.313 137.367H130.398V137.453C130.378 138.925 130.362 140.141 130.354 141.021C130.354 141.427 130.354 141.743 130.329 141.99C130.334 142.096 130.331 142.201 130.321 142.307Z" fill="#263238"/>
<path d="M130.321 137.445C130.008 137.793 129.669 138.119 129.308 138.418C128.667 139.002 127.767 139.792 126.769 140.66H126.611L126.587 140.64L126.538 140.599L126.445 140.518L126.262 140.36L125.905 140.048L125.228 139.452L124.093 138.438C123.731 138.139 123.393 137.814 123.079 137.465C123.466 137.716 123.834 137.996 124.178 138.304L125.342 139.286L126.027 139.87L126.388 140.178L126.574 140.34L126.664 140.421L126.712 140.457L126.737 140.478H126.611C127.613 139.614 128.525 138.856 129.194 138.284C129.547 137.975 129.924 137.694 130.321 137.445Z" fill="#263238"/>
<path d="M125.69 139.707C125.34 140.212 124.932 140.673 124.474 141.082C124.06 141.538 123.596 141.946 123.091 142.298C123.444 141.796 123.852 141.335 124.308 140.924C124.722 140.469 125.186 140.061 125.69 139.707Z" fill="#263238"/>
<path d="M130.321 142.307C129.838 141.923 129.401 141.485 129.02 141.001C128.586 140.564 128.202 140.079 127.876 139.557C128.358 139.942 128.795 140.38 129.178 140.863C129.613 141.299 129.996 141.783 130.321 142.307Z" fill="#263238"/>
<path d="M134.697 140.847V141.009H133.014V138.576H134.636V138.738H133.184V139.699H134.482V139.857H133.184V140.855L134.697 140.847Z" fill="#263238"/>
<path d="M138.277 139.946V141.009H138.103V139.959C138.103 139.553 137.888 139.33 137.535 139.33C137.443 139.326 137.351 139.342 137.265 139.377C137.18 139.412 137.103 139.465 137.04 139.532C136.977 139.599 136.929 139.68 136.899 139.767C136.87 139.855 136.86 139.948 136.87 140.04V141.009H136.696V139.959C136.696 139.553 136.481 139.33 136.128 139.33C136.036 139.326 135.944 139.342 135.858 139.377C135.773 139.412 135.696 139.465 135.633 139.532C135.569 139.599 135.522 139.68 135.492 139.767C135.463 139.855 135.453 139.948 135.463 140.04V141.009H135.289V139.188H135.455V139.594C135.518 139.464 135.618 139.357 135.742 139.284C135.866 139.212 136.009 139.179 136.153 139.188C136.296 139.176 136.44 139.213 136.561 139.292C136.681 139.372 136.772 139.489 136.818 139.626C136.883 139.488 136.987 139.373 137.118 139.295C137.249 139.217 137.4 139.18 137.552 139.188C137.652 139.181 137.752 139.196 137.846 139.232C137.939 139.268 138.024 139.324 138.093 139.397C138.162 139.469 138.215 139.556 138.247 139.651C138.279 139.746 138.289 139.847 138.277 139.946Z" fill="#263238"/>
<path d="M140.305 139.853V141.009H140.139V140.685C140.071 140.795 139.973 140.886 139.857 140.945C139.742 141.004 139.612 141.031 139.482 141.021C139.076 141.021 138.829 140.814 138.829 140.502C138.829 140.19 139.003 139.995 139.506 139.995H140.131V139.849C140.138 139.777 140.129 139.705 140.104 139.637C140.08 139.569 140.04 139.508 139.988 139.458C139.936 139.408 139.873 139.37 139.804 139.348C139.736 139.326 139.663 139.32 139.591 139.33C139.361 139.328 139.138 139.408 138.963 139.557L138.878 139.431C139.081 139.263 139.339 139.172 139.603 139.176C139.697 139.162 139.792 139.17 139.881 139.199C139.971 139.228 140.053 139.277 140.12 139.342C140.188 139.408 140.24 139.488 140.272 139.576C140.304 139.665 140.315 139.76 140.305 139.853ZM140.131 140.47V140.129H139.51C139.133 140.129 139.003 140.287 139.003 140.494C139.003 140.701 139.186 140.879 139.506 140.879C139.64 140.887 139.774 140.852 139.886 140.778C139.999 140.704 140.085 140.596 140.131 140.47Z" fill="#263238"/>
<path d="M140.966 138.608C140.966 138.59 140.97 138.571 140.977 138.554C140.984 138.537 140.994 138.521 141.008 138.508C141.021 138.495 141.036 138.484 141.054 138.477C141.071 138.47 141.089 138.466 141.108 138.466C141.136 138.466 141.163 138.475 141.187 138.49C141.21 138.506 141.228 138.528 141.239 138.554C141.25 138.58 141.253 138.608 141.247 138.636C141.242 138.664 141.228 138.689 141.208 138.709C141.188 138.729 141.163 138.742 141.136 138.748C141.108 138.753 141.08 138.75 141.054 138.739C141.028 138.729 141.006 138.71 140.99 138.687C140.974 138.664 140.966 138.636 140.966 138.608ZM141.019 139.188H141.209V141.009H141.035L141.019 139.188Z" fill="#263238"/>
<path d="M141.927 138.422H142.102V141.009H141.927V138.422Z" fill="#263238"/>
<path d="M137.02 156.313L136.363 155.393C136.274 155.399 136.185 155.399 136.096 155.393H135.309V156.293H135.127V153.552H136.112C136.801 153.552 137.219 153.896 137.219 154.48C137.228 154.676 137.169 154.869 137.051 155.026C136.934 155.183 136.765 155.294 136.574 155.34L137.264 156.301L137.02 156.313ZM136.096 155.239C136.684 155.239 137 154.963 137 154.492C137 154.022 136.684 153.742 136.096 153.742H135.309V155.239H136.096Z" fill="white"/>
<path d="M139.608 155.336H137.844C137.843 155.447 137.866 155.558 137.91 155.66C137.955 155.762 138.019 155.854 138.101 155.93C138.182 156.006 138.279 156.065 138.384 156.102C138.489 156.139 138.6 156.155 138.711 156.147C138.835 156.151 138.958 156.128 139.072 156.079C139.185 156.03 139.287 155.956 139.368 155.863L139.482 155.993C139.386 156.102 139.266 156.189 139.132 156.247C138.998 156.304 138.853 156.331 138.707 156.325C138.568 156.332 138.429 156.31 138.299 156.26C138.169 156.21 138.05 156.134 137.951 156.036C137.852 155.938 137.774 155.82 137.723 155.691C137.672 155.561 137.648 155.422 137.653 155.283C137.644 155.149 137.663 155.015 137.709 154.889C137.754 154.762 137.825 154.647 137.917 154.549C138.008 154.451 138.119 154.373 138.242 154.319C138.365 154.266 138.498 154.239 138.632 154.239C138.767 154.239 138.899 154.266 139.022 154.319C139.146 154.373 139.256 154.451 139.348 154.549C139.44 154.647 139.511 154.762 139.556 154.889C139.601 155.015 139.62 155.149 139.612 155.283C139.612 155.283 139.608 155.315 139.608 155.336ZM137.848 155.182H139.421C139.421 154.973 139.338 154.773 139.191 154.625C139.043 154.478 138.843 154.395 138.634 154.395C138.426 154.395 138.226 154.478 138.078 154.625C137.931 154.773 137.848 154.973 137.848 155.182Z" fill="white"/>
<path d="M139.92 156.066L140.009 155.908C140.221 156.069 140.481 156.156 140.747 156.155C141.181 156.155 141.355 156.005 141.355 155.77C141.355 155.174 139.993 155.616 139.993 154.809C139.993 154.5 140.252 154.249 140.771 154.249C141.021 154.244 141.266 154.314 141.477 154.448L141.384 154.606C141.203 154.481 140.987 154.416 140.767 154.419C140.362 154.419 140.192 154.586 140.192 154.805C140.192 155.421 141.55 154.987 141.55 155.77C141.55 156.102 141.262 156.329 140.739 156.329C140.444 156.338 140.154 156.245 139.92 156.066Z" fill="white"/>
<path d="M143.833 155.336H142.069C142.069 155.447 142.092 155.558 142.136 155.66C142.18 155.762 142.245 155.854 142.326 155.93C142.408 156.007 142.504 156.065 142.609 156.102C142.714 156.14 142.826 156.155 142.937 156.147C143.061 156.151 143.184 156.128 143.297 156.079C143.411 156.03 143.512 155.956 143.594 155.863L143.707 155.993C143.611 156.102 143.491 156.189 143.357 156.246C143.224 156.304 143.078 156.331 142.933 156.325C142.793 156.332 142.654 156.31 142.524 156.26C142.393 156.21 142.275 156.134 142.175 156.036C142.076 155.938 141.998 155.821 141.946 155.691C141.894 155.562 141.87 155.423 141.874 155.283C141.867 155.149 141.886 155.015 141.933 154.889C141.979 154.763 142.05 154.648 142.142 154.551C142.235 154.453 142.346 154.376 142.469 154.324C142.593 154.271 142.726 154.244 142.86 154.245C142.993 154.244 143.125 154.27 143.248 154.322C143.371 154.374 143.481 154.45 143.573 154.547C143.665 154.644 143.735 154.758 143.781 154.884C143.826 155.009 143.846 155.142 143.837 155.275C143.837 155.275 143.833 155.316 143.833 155.336ZM142.073 155.182H143.642C143.628 154.983 143.539 154.798 143.394 154.662C143.248 154.527 143.057 154.452 142.858 154.452C142.659 154.452 142.467 154.527 142.322 154.662C142.176 154.798 142.087 154.983 142.073 155.182Z" fill="white"/>
<path d="M145.463 156.183C145.35 156.278 145.206 156.33 145.058 156.329C144.983 156.337 144.907 156.328 144.835 156.302C144.764 156.277 144.7 156.236 144.646 156.182C144.593 156.129 144.553 156.064 144.528 155.992C144.503 155.921 144.494 155.845 144.502 155.77V154.432H144.125V154.261H144.502V153.815H144.697V154.261H145.35V154.432H144.697V155.753C144.697 156.017 144.827 156.159 145.078 156.159C145.195 156.162 145.31 156.122 145.398 156.045L145.463 156.183Z" fill="white"/>
<path d="M149.178 154.492C149.178 155.068 148.772 155.413 148.071 155.413H147.292V156.313H147.089V153.552H148.079C148.76 153.552 149.178 153.908 149.178 154.492ZM148.975 154.492C148.975 154.014 148.659 153.742 148.071 153.742H147.292V155.234H148.079C148.659 155.234 148.975 154.963 148.975 154.492Z" fill="white"/>
<path d="M151.254 155.011V156.313H151.063V155.948C150.988 156.074 150.879 156.177 150.749 156.244C150.618 156.311 150.472 156.341 150.325 156.329C149.867 156.329 149.587 156.094 149.587 155.745C149.587 155.397 149.782 155.169 150.354 155.169H151.055V155.007C151.064 154.926 151.054 154.844 151.026 154.767C150.999 154.69 150.954 154.621 150.895 154.564C150.836 154.508 150.765 154.465 150.688 154.44C150.61 154.415 150.528 154.408 150.447 154.419C150.187 154.416 149.934 154.509 149.737 154.679L149.64 154.537C149.868 154.349 150.155 154.248 150.451 154.249C150.557 154.232 150.665 154.24 150.767 154.272C150.869 154.303 150.963 154.358 151.04 154.432C151.118 154.506 151.178 154.596 151.215 154.697C151.252 154.797 151.265 154.905 151.254 155.011ZM151.055 155.709V155.324H150.358C149.932 155.324 149.782 155.502 149.782 155.729C149.782 155.956 149.989 156.159 150.354 156.159C150.503 156.169 150.653 156.131 150.779 156.05C150.905 155.969 151.002 155.849 151.055 155.709Z" fill="white"/>
<path d="M151.753 156.066L151.842 155.908C152.053 156.071 152.313 156.158 152.58 156.155C153.014 156.155 153.184 156.005 153.184 155.77C153.184 155.174 151.826 155.616 151.826 154.809C151.826 154.5 152.085 154.249 152.604 154.249C152.853 154.244 153.097 154.313 153.306 154.448L153.217 154.606C153.035 154.481 152.82 154.416 152.6 154.419C152.195 154.419 152.02 154.586 152.02 154.805C152.02 155.421 153.383 154.987 153.383 155.77C153.383 156.102 153.095 156.329 152.572 156.329C152.276 156.339 151.987 156.246 151.753 156.066Z" fill="white"/>
<path d="M153.638 156.066L153.728 155.908C153.94 156.069 154.199 156.156 154.466 156.155C154.9 156.155 155.074 156.005 155.074 155.77C155.074 155.174 153.711 155.616 153.711 154.809C153.711 154.5 153.971 154.249 154.49 154.249C154.74 154.244 154.985 154.314 155.196 154.448L155.102 154.606C154.921 154.481 154.706 154.416 154.486 154.419C154.08 154.419 153.91 154.586 153.91 154.805C153.91 155.421 155.269 154.987 155.269 155.77C155.269 156.102 154.981 156.329 154.458 156.329C154.162 156.338 153.873 156.245 153.638 156.066Z" fill="white"/>
<path d="M158.711 154.261L157.933 156.313H157.746L157.057 154.533L156.359 156.313H156.181L155.402 154.261H155.589L156.274 156.094L156.976 154.261H157.142L157.839 156.09L158.529 154.261H158.711Z" fill="white"/>
<path d="M158.886 155.287C158.889 155.085 158.952 154.888 159.067 154.721C159.182 154.555 159.343 154.426 159.531 154.351C159.719 154.276 159.925 154.258 160.123 154.3C160.321 154.341 160.502 154.441 160.644 154.585C160.786 154.73 160.882 154.913 160.919 155.112C160.957 155.31 160.935 155.516 160.857 155.702C160.778 155.889 160.646 156.048 160.477 156.159C160.308 156.271 160.11 156.33 159.908 156.329C159.771 156.333 159.634 156.309 159.507 156.258C159.38 156.207 159.265 156.13 159.169 156.032C159.073 155.934 158.998 155.817 158.949 155.689C158.901 155.561 158.879 155.424 158.886 155.287ZM160.735 155.287C160.725 155.129 160.668 154.978 160.573 154.852C160.478 154.726 160.348 154.63 160.199 154.577C160.051 154.523 159.889 154.514 159.736 154.551C159.582 154.588 159.443 154.67 159.334 154.785C159.226 154.9 159.154 155.044 159.127 155.2C159.099 155.356 159.118 155.516 159.181 155.661C159.244 155.806 159.347 155.93 159.479 156.017C159.611 156.104 159.766 156.151 159.924 156.151C160.035 156.151 160.145 156.129 160.247 156.085C160.349 156.041 160.441 155.976 160.517 155.895C160.593 155.814 160.651 155.718 160.689 155.614C160.726 155.509 160.742 155.398 160.735 155.287Z" fill="white"/>
<path d="M162.515 154.249V154.44H162.466C162.012 154.44 161.74 154.744 161.74 155.251V156.317H161.546V154.265H161.732V154.715C161.797 154.565 161.908 154.44 162.048 154.356C162.189 154.272 162.352 154.235 162.515 154.249Z" fill="white"/>
<path d="M164.859 153.397V156.313H164.668V155.83C164.59 155.985 164.47 156.113 164.321 156.202C164.172 156.29 164.002 156.334 163.829 156.329C163.564 156.313 163.316 156.196 163.134 156.003C162.953 155.809 162.852 155.554 162.852 155.289C162.852 155.024 162.953 154.769 163.134 154.576C163.316 154.382 163.564 154.266 163.829 154.249C164 154.245 164.169 154.288 164.317 154.375C164.464 154.462 164.585 154.588 164.664 154.74V153.397H164.859ZM164.664 155.287C164.654 155.129 164.598 154.978 164.503 154.852C164.408 154.726 164.278 154.63 164.129 154.576C163.98 154.523 163.819 154.514 163.665 154.551C163.512 154.588 163.372 154.669 163.264 154.785C163.156 154.9 163.083 155.044 163.056 155.2C163.029 155.356 163.048 155.516 163.11 155.661C163.173 155.806 163.277 155.93 163.409 156.017C163.541 156.104 163.695 156.151 163.853 156.151C163.964 156.151 164.074 156.128 164.176 156.084C164.278 156.04 164.37 155.976 164.446 155.895C164.522 155.814 164.581 155.718 164.618 155.614C164.656 155.509 164.672 155.398 164.664 155.287Z" fill="white"/>
<path d="M191.023 50.5832C191.023 50.64 172.276 50.6887 149.153 50.6887C126.031 50.6887 107.284 50.64 107.284 50.5832C107.284 50.5264 126.027 50.4778 149.153 50.4778C172.28 50.4778 191.023 50.5264 191.023 50.5832Z" fill="#263238"/>
<path d="M112.012 47.258C112.011 47.4591 111.951 47.6555 111.839 47.8224C111.726 47.9892 111.567 48.119 111.381 48.1954C111.195 48.2719 110.991 48.2914 110.793 48.2517C110.596 48.212 110.415 48.1147 110.273 47.9722C110.131 47.8297 110.035 47.6483 109.996 47.451C109.957 47.2537 109.977 47.0492 110.054 46.8635C110.132 46.6777 110.262 46.519 110.429 46.4073C110.597 46.2957 110.793 46.2361 110.994 46.2361C111.128 46.2361 111.261 46.2625 111.385 46.3139C111.509 46.3654 111.621 46.4407 111.716 46.5356C111.81 46.6306 111.885 46.7433 111.936 46.8672C111.987 46.9912 112.013 47.124 112.012 47.258Z" fill="#263238"/>
<path d="M114.956 47.258C114.956 47.4591 114.895 47.6555 114.783 47.8224C114.67 47.9892 114.511 48.119 114.325 48.1954C114.139 48.2719 113.935 48.2914 113.737 48.2517C113.54 48.212 113.359 48.1147 113.217 47.9722C113.075 47.8297 112.979 47.6483 112.94 47.451C112.901 47.2537 112.921 47.0492 112.999 46.8635C113.076 46.6777 113.206 46.519 113.373 46.4073C113.541 46.2957 113.737 46.2361 113.938 46.2361C114.072 46.2361 114.205 46.2625 114.329 46.3139C114.453 46.3654 114.565 46.4407 114.66 46.5356C114.754 46.6306 114.829 46.7433 114.88 46.8672C114.931 46.9912 114.957 47.124 114.956 47.258Z" fill="#263238"/>
<path d="M117.884 47.2579C117.883 47.4596 117.823 47.6564 117.71 47.8235C117.597 47.9906 117.437 48.1205 117.25 48.1965C117.063 48.2725 116.858 48.2914 116.661 48.2507C116.463 48.2099 116.282 48.1115 116.141 47.9677C115.999 47.824 115.904 47.6415 115.866 47.4434C115.829 47.2453 115.851 47.0405 115.93 46.8549C116.009 46.6694 116.141 46.5115 116.31 46.4014C116.479 46.2912 116.677 46.2336 116.879 46.236C117.147 46.2392 117.403 46.3484 117.592 46.5399C117.78 46.7313 117.885 46.9894 117.884 47.2579Z" fill="#263238"/>
<path d="M191.173 171.191C191.173 170.324 191.132 118.904 191.076 44.1112L191.173 44.2085H107.316L107.422 44.1031C107.422 92.0592 107.422 136.273 107.398 171.183L107.316 171.102L191.181 171.183L107.316 171.268H107.231V171.183C107.231 136.273 107.231 92.0592 107.211 44.1031V43.9976H107.325H191.181H191.278V44.0949C191.213 118.904 191.173 170.328 191.173 171.191Z" fill="#263238"/>
<path d="M189.64 205.457C189.621 205.4 189.598 205.345 189.571 205.291C189.514 205.174 189.441 205.019 189.348 204.817C189.076 204.203 188.858 203.566 188.695 202.915C188.171 200.494 188.189 197.988 188.748 195.575C189.097 193.903 189.552 192.254 190.11 190.64C190.686 188.892 191.359 187.035 191.903 185.028C192.522 182.931 192.822 180.753 192.791 178.568C192.706 176.285 192.032 174.006 191.286 171.735C190.54 169.464 189.778 167.242 189.547 165.007C189.288 162.86 189.714 160.686 190.763 158.795C191.749 156.982 192.985 155.429 193.914 153.823C194.779 152.333 195.417 150.724 195.808 149.046C196.364 146.613 196.405 144.091 195.925 141.642C195.755 140.747 195.497 139.87 195.155 139.026C195.165 139.085 195.18 139.144 195.2 139.2C195.24 139.326 195.289 139.492 195.358 139.703C195.551 140.346 195.711 140.998 195.836 141.658C196.278 144.094 196.213 146.595 195.646 149.006C195.25 150.665 194.609 152.256 193.744 153.726C192.819 155.311 191.578 156.856 190.573 158.689C189.489 160.616 189.045 162.836 189.303 165.032C189.535 167.302 190.305 169.541 191.047 171.808C191.789 174.075 192.458 176.333 192.543 178.576C192.577 180.737 192.286 182.892 191.68 184.967C191.14 186.966 190.463 188.823 189.908 190.579C189.353 192.202 188.906 193.86 188.569 195.543C187.945 198.633 188.123 201.244 188.59 202.939C188.764 203.592 188.998 204.227 189.287 204.837L189.535 205.303C189.564 205.358 189.599 205.41 189.64 205.457Z" fill="#263238"/>
<path d="M192.673 155.392C192.673 155.392 194.555 149.375 191.177 145.851C191.151 145.822 191.117 145.801 191.08 145.791C191.042 145.78 191.003 145.781 190.966 145.792C190.928 145.803 190.895 145.824 190.869 145.853C190.843 145.882 190.826 145.918 190.82 145.956C190.642 146.95 190.415 149.975 192.673 155.392Z" fill="#B7EB8F"/>
<path d="M191.546 147.874C191.549 148.248 191.591 148.62 191.672 148.985C191.793 149.752 191.939 150.648 192.102 151.641C192.264 152.635 192.402 153.531 192.507 154.294C192.537 154.665 192.603 155.034 192.706 155.392C192.739 155.019 192.726 154.643 192.669 154.273C192.608 153.588 192.487 152.651 192.316 151.601C192.146 150.551 191.968 149.63 191.818 148.957C191.767 148.587 191.675 148.224 191.546 147.874Z" fill="#263238"/>
<path d="M190.463 169.582C190.463 169.582 189.312 163.385 184.681 161.848C184.644 161.836 184.605 161.835 184.568 161.843C184.53 161.852 184.496 161.871 184.469 161.897C184.441 161.924 184.421 161.958 184.412 161.995C184.402 162.032 184.402 162.071 184.413 162.108C184.717 163.069 185.934 165.851 190.463 169.582Z" fill="#B7EB8F"/>
<path d="M185.942 163.45C186.12 163.777 186.331 164.086 186.57 164.371L188.192 166.516C188.797 167.327 189.34 168.049 189.814 168.665C190.019 168.977 190.25 169.272 190.504 169.545C190.358 169.2 190.173 168.874 189.952 168.572C189.575 167.992 189.024 167.213 188.387 166.374C187.75 165.534 187.17 164.796 186.712 164.269C186.486 163.969 186.228 163.694 185.942 163.45Z" fill="#263238"/>
<path d="M191.712 185.133C191.712 185.133 192.414 178.868 188.427 176.053C188.396 176.031 188.359 176.018 188.321 176.015C188.282 176.013 188.244 176.02 188.21 176.038C188.175 176.056 188.147 176.082 188.126 176.115C188.106 176.148 188.095 176.185 188.095 176.224C188.107 177.233 188.464 180.246 191.712 185.133Z" fill="#B7EB8F"/>
<path d="M189.17 177.951C189.243 178.318 189.356 178.675 189.506 179.018C189.774 179.744 190.086 180.599 190.431 181.54C190.775 182.481 191.088 183.336 191.351 184.066C191.453 184.424 191.589 184.772 191.757 185.105C191.719 184.732 191.636 184.366 191.509 184.014C191.319 183.353 191.019 182.444 190.654 181.459C190.289 180.474 189.932 179.59 189.66 178.957C189.534 178.605 189.369 178.268 189.17 177.951Z" fill="#263238"/>
<path d="M188.225 200.778C188.225 200.778 188.699 194.488 184.616 191.82C184.584 191.798 184.546 191.785 184.507 191.783C184.469 191.781 184.43 191.79 184.396 191.81C184.362 191.829 184.335 191.857 184.316 191.891C184.297 191.925 184.289 191.964 184.291 192.002C184.34 193.008 184.802 196.009 188.225 200.778Z" fill="#B7EB8F"/>
<path d="M185.411 193.697C185.503 194.06 185.629 194.413 185.788 194.752C186.08 195.469 186.424 196.309 186.805 197.238C187.187 198.166 187.523 199.014 187.815 199.727C187.927 200.084 188.075 200.428 188.257 200.753C188.204 200.382 188.107 200.019 187.969 199.671C187.754 199.018 187.422 198.122 187.02 197.148C186.619 196.175 186.234 195.307 185.938 194.683C185.801 194.335 185.624 194.004 185.411 193.697Z" fill="#263238"/>
<path d="M195.378 150.105C195.378 150.105 200.966 147.185 201.076 142.307C201.076 142.268 201.066 142.23 201.047 142.197C201.027 142.164 200.999 142.136 200.965 142.118C200.932 142.099 200.893 142.091 200.855 142.092C200.816 142.094 200.779 142.107 200.747 142.128C199.916 142.704 197.617 144.679 195.378 150.105Z" fill="#B7EB8F"/>
<path d="M199.916 143.985C199.652 144.249 199.418 144.542 199.218 144.857L197.641 147.035C197.053 147.846 196.518 148.584 196.059 149.208C195.823 149.496 195.61 149.803 195.423 150.125C195.711 149.887 195.97 149.614 196.193 149.314C196.635 148.783 197.219 148.028 197.815 147.173C198.411 146.317 198.967 145.551 199.34 144.95C199.565 144.65 199.758 144.326 199.916 143.985Z" fill="#263238"/>
<path d="M189.376 163.028C189.376 163.028 195.143 160.445 195.548 155.579C195.553 155.54 195.546 155.501 195.53 155.466C195.513 155.43 195.486 155.401 195.453 155.38C195.42 155.359 195.382 155.348 195.342 155.348C195.303 155.348 195.265 155.359 195.232 155.38C194.356 155.916 191.939 157.748 189.376 163.028Z" fill="#B7EB8F"/>
<path d="M194.275 157.201C193.999 157.445 193.749 157.717 193.529 158.012L191.822 160.088L190.114 162.165C189.857 162.435 189.625 162.728 189.421 163.04C189.721 162.818 189.993 162.561 190.232 162.274C190.707 161.771 191.335 161.058 192 160.246C192.665 159.435 193.249 158.677 193.655 158.122C193.897 157.84 194.105 157.531 194.275 157.201Z" fill="#263238"/>
<path d="M192.685 177.44C192.685 177.44 196.639 172.53 194.786 168.016C194.772 167.98 194.748 167.949 194.717 167.926C194.686 167.902 194.649 167.888 194.611 167.884C194.572 167.88 194.533 167.887 194.498 167.904C194.463 167.921 194.434 167.947 194.413 167.98C193.882 168.839 192.568 171.577 192.685 177.44Z" fill="#B7EB8F"/>
<path d="M194.393 170.015C194.26 170.364 194.164 170.726 194.105 171.094C193.938 171.852 193.748 172.74 193.533 173.722L192.957 176.345C192.852 176.703 192.778 177.07 192.738 177.44C192.908 177.108 193.035 176.755 193.115 176.39C193.31 175.725 193.545 174.8 193.764 173.774C193.983 172.748 194.17 171.808 194.267 171.126C194.35 170.762 194.392 170.389 194.393 170.015Z" fill="#263238"/>
<path d="M188.772 194.403C188.772 194.403 194.482 191.735 194.806 186.864C194.809 186.826 194.801 186.788 194.784 186.754C194.766 186.72 194.74 186.692 194.707 186.672C194.674 186.652 194.636 186.642 194.598 186.642C194.56 186.643 194.523 186.654 194.49 186.674C193.634 187.209 191.25 189.083 188.772 194.403Z" fill="#B7EB8F"/>
<path d="M193.573 188.491C193.302 188.746 193.056 189.027 192.839 189.33L191.173 191.439C190.544 192.225 189.981 192.935 189.494 193.539C189.243 193.814 189.018 194.112 188.821 194.427C189.122 194.202 189.394 193.94 189.632 193.649C190.098 193.138 190.715 192.412 191.363 191.585C192.012 190.757 192.58 189.995 192.985 189.431C193.215 189.14 193.412 188.825 193.573 188.491Z" fill="#263238"/>
<path d="M177.398 169.618C177.398 169.618 177.398 169.667 177.398 169.756C177.398 169.845 177.398 169.999 177.398 170.161C177.418 170.542 177.438 171.053 177.467 171.69C177.54 173.036 177.645 174.91 177.767 177.152C178.172 179.431 179.336 181.962 180.897 184.415C182.041 186.224 183.241 187.87 184.279 189.399C185.219 190.734 186.065 192.134 186.81 193.588C187.301 194.573 187.699 195.602 187.998 196.662C188.099 197.039 188.172 197.331 188.217 197.534C188.234 197.638 188.262 197.74 188.302 197.838C188.295 197.732 188.282 197.626 188.261 197.521C188.233 197.319 188.172 197.019 188.087 196.637C187.818 195.561 187.44 194.515 186.96 193.515C186.233 192.042 185.396 190.625 184.458 189.277C183.432 187.736 182.235 186.09 181.096 184.289C179.547 181.856 178.391 179.358 177.965 177.112C177.807 174.869 177.673 173 177.58 171.658C177.527 171.021 177.487 170.51 177.458 170.129C177.458 169.971 177.426 169.837 177.418 169.723C177.414 169.688 177.407 169.652 177.398 169.618Z" fill="#263238"/>
<path d="M180.796 183.965C180.796 183.965 178.363 178.142 181.42 174.326C181.444 174.295 181.475 174.271 181.512 174.258C181.548 174.244 181.588 174.241 181.626 174.248C181.664 174.256 181.699 174.274 181.727 174.301C181.755 174.327 181.776 174.361 181.785 174.399C182.057 175.364 182.572 178.357 180.796 183.965Z" fill="#B7EB8F"/>
<path d="M181.238 176.349C181.133 176.709 181.069 177.079 181.047 177.452C180.962 178.134 180.865 179.074 180.788 180.133C180.71 181.191 180.678 182.132 180.678 182.825C180.654 183.199 180.677 183.573 180.747 183.941C180.812 183.574 180.845 183.202 180.844 182.83C180.897 182.055 180.958 181.151 181.023 180.149C181.088 179.147 181.157 178.239 181.213 177.465C181.258 177.095 181.266 176.721 181.238 176.349Z" fill="#263238"/>
<g opacity="0.3">
<path opacity="0.3" d="M180.796 183.965C180.796 183.965 178.363 178.142 181.42 174.326C181.444 174.295 181.475 174.271 181.512 174.258C181.548 174.244 181.588 174.241 181.626 174.248C181.664 174.256 181.699 174.274 181.727 174.301C181.755 174.327 181.776 174.361 181.785 174.399C182.057 175.364 182.572 178.357 180.796 183.965Z" fill="black"/>
</g>
<path d="M188.29 197.988C188.29 197.988 186.351 191.986 189.693 188.43C189.719 188.403 189.753 188.383 189.789 188.373C189.826 188.363 189.865 188.364 189.901 188.374C189.938 188.384 189.971 188.405 189.997 188.432C190.023 188.46 190.041 188.494 190.05 188.531C190.24 189.525 190.496 192.55 188.29 197.988Z" fill="#B7EB8F"/>
<path d="M189.344 190.453C189.211 190.803 189.117 191.166 189.064 191.536C188.922 192.209 188.752 193.158 188.59 194.184C188.428 195.21 188.318 196.171 188.261 196.86C188.215 197.232 188.215 197.608 188.261 197.98C188.355 197.619 188.417 197.252 188.448 196.881C188.561 196.114 188.695 195.214 188.853 194.22C189.012 193.227 189.141 192.331 189.259 191.564C189.325 191.198 189.354 190.826 189.344 190.453Z" fill="#263238"/>
<g opacity="0.3">
<path opacity="0.3" d="M188.29 197.988C188.29 197.988 186.351 191.986 189.693 188.43C189.719 188.403 189.753 188.383 189.789 188.373C189.826 188.363 189.865 188.364 189.901 188.374C189.938 188.384 189.971 188.405 189.997 188.432C190.023 188.46 190.041 188.494 190.05 188.531C190.24 189.525 190.496 192.55 188.29 197.988Z" fill="black"/>
</g>
<path d="M177.706 176.84C177.706 176.84 172.539 173.223 173.062 168.373C173.065 168.334 173.079 168.297 173.102 168.266C173.125 168.235 173.156 168.211 173.192 168.197C173.228 168.182 173.267 168.178 173.305 168.185C173.343 168.192 173.378 168.209 173.407 168.235C174.17 168.912 176.197 171.171 177.706 176.84Z" fill="#B7EB8F"/>
<g opacity="0.3">
<path opacity="0.3" d="M177.706 176.84C177.706 176.84 172.539 173.223 173.062 168.373C173.065 168.334 173.079 168.297 173.102 168.266C173.125 168.235 173.156 168.211 173.192 168.197C173.228 168.182 173.267 168.178 173.305 168.185C173.343 168.192 173.378 168.209 173.407 168.235C174.17 168.912 176.197 171.171 177.706 176.84Z" fill="black"/>
</g>
<path d="M174.007 170.177C174.112 170.536 174.256 170.881 174.437 171.208C174.729 171.832 175.159 172.684 175.654 173.608C176.149 174.533 176.635 175.36 177.004 175.94C177.187 176.267 177.407 176.572 177.661 176.848C177.523 176.502 177.351 176.169 177.15 175.855C176.777 175.177 176.339 174.379 175.861 173.499L174.579 171.134C174.421 170.797 174.23 170.476 174.007 170.177Z" fill="#263238"/>
<path d="M186.222 192.039C186.222 192.039 179.993 191.066 178.326 186.483C178.312 186.447 178.308 186.408 178.315 186.37C178.321 186.333 178.339 186.297 178.364 186.269C178.39 186.24 178.423 186.219 178.46 186.208C178.497 186.197 178.536 186.197 178.574 186.207C179.531 186.483 182.345 187.615 186.222 192.039Z" fill="#B7EB8F"/>
<g opacity="0.3">
<path opacity="0.3" d="M186.222 192.039C186.222 192.039 179.993 191.066 178.326 186.483C178.312 186.447 178.308 186.408 178.315 186.37C178.321 186.333 178.339 186.297 178.364 186.269C178.39 186.24 178.423 186.219 178.46 186.208C178.497 186.197 178.536 186.197 178.574 186.207C179.531 186.483 182.345 187.615 186.222 192.039Z" fill="black"/>
</g>
<path d="M179.944 187.696C180.195 187.973 180.476 188.221 180.784 188.434C181.323 188.864 182.081 189.439 182.937 190.056C183.792 190.672 184.591 191.195 185.179 191.552C185.487 191.767 185.819 191.944 186.169 192.079C185.891 191.829 185.589 191.607 185.269 191.414L183.075 189.865L180.885 188.304C180.592 188.071 180.277 187.867 179.944 187.696Z" fill="#263238"/>
<path d="M193.578 203.503L191.789 215.222L184.656 215.21L182.251 203.503H193.578Z" fill="#455A64"/>
<path d="M187.065 207.266C187.259 206.974 187.372 206.635 187.393 206.285C187.415 206.089 187.381 205.891 187.295 205.713C187.21 205.535 187.077 205.385 186.911 205.279C186.722 205.184 186.51 205.142 186.299 205.159C186.088 205.177 185.886 205.252 185.715 205.376C185.36 205.636 185.117 206.02 185.033 206.451C184.938 206.886 184.908 207.333 184.944 207.777C184.966 208.24 185.064 208.696 185.232 209.127C185.402 209.581 185.681 209.986 186.043 210.307C186.425 210.646 186.908 210.849 187.418 210.883C187.923 210.894 188.421 210.753 188.845 210.478C189.252 210.217 189.612 209.891 189.912 209.513C190.217 209.148 190.405 208.7 190.451 208.227C190.469 207.994 190.432 207.761 190.344 207.545C190.256 207.329 190.119 207.136 189.944 206.982C189.763 206.849 189.547 206.771 189.323 206.757C189.098 206.743 188.875 206.795 188.679 206.905C188.492 206.999 188.33 207.133 188.203 207.299C188.077 207.465 187.99 207.658 187.949 207.862C187.896 208.226 187.954 208.598 188.115 208.928C188.276 209.259 188.534 209.533 188.853 209.715C189.379 210.002 189.991 210.091 190.577 209.967C191.006 209.876 191.418 209.712 191.793 209.484C192.032 209.344 192.262 209.19 192.483 209.022C192.563 208.968 192.637 208.904 192.702 208.831C192.618 208.88 192.536 208.932 192.458 208.989C192.3 209.091 192.053 209.249 191.757 209.419C191.378 209.631 190.967 209.779 190.54 209.857C189.986 209.961 189.412 209.87 188.918 209.598C188.629 209.426 188.398 209.173 188.254 208.869C188.109 208.566 188.058 208.227 188.107 207.895C188.145 207.715 188.224 207.547 188.336 207.403C188.448 207.258 188.592 207.141 188.756 207.059C188.922 206.966 189.112 206.922 189.303 206.933C189.493 206.945 189.677 207.011 189.83 207.124C189.982 207.26 190.1 207.429 190.175 207.619C190.25 207.808 190.281 208.012 190.264 208.215C190.219 208.65 190.042 209.062 189.757 209.395C189.472 209.753 189.129 210.063 188.744 210.311C188.353 210.568 187.894 210.702 187.426 210.697C186.961 210.662 186.519 210.477 186.169 210.169C185.826 209.869 185.56 209.491 185.394 209.066C185.232 208.653 185.138 208.216 185.114 207.773C185.078 207.348 185.104 206.921 185.191 206.504C185.262 206.113 185.478 205.764 185.796 205.526C185.94 205.419 186.111 205.352 186.29 205.335C186.47 205.317 186.651 205.348 186.813 205.425C186.954 205.518 187.066 205.647 187.137 205.8C187.209 205.952 187.237 206.121 187.219 206.289C187.203 206.612 187.1 206.926 186.923 207.197C186.599 207.665 186.132 208.015 185.593 208.195C185.187 208.337 184.755 208.388 184.328 208.345C183.961 208.301 183.605 208.195 183.273 208.032C183.273 208.032 183.273 208.032 183.33 208.077C183.392 208.115 183.455 208.151 183.521 208.182C183.776 208.307 184.05 208.388 184.332 208.422C184.774 208.481 185.223 208.438 185.646 208.296C186.214 208.118 186.71 207.759 187.057 207.274" fill="#263238"/>
</svg>
