<svg width="10" height="16" viewBox="0 0 10 16" fill="none" xmlns="http://www.w3.org/2000/svg">
<path
        d="M10 1.80103V0.169222C10 0.0277846 9.83823 -0.0503227 9.72899 0.0362286L0.258433 7.46908C0.177967 7.53196 0.112857 7.61248 0.0680697 7.70449C0.0232821 7.7965 0 7.89757 0 8C0 8.10243 0.0232821 8.2035 0.0680697 8.29551C0.112857 8.38752 0.177967 8.46804 0.258433 8.53092L9.72899 15.9638C9.84034 16.0503 10 15.9722 10 15.8308V14.199C10 14.0955 9.95168 13.9963 9.87185 13.933L2.30885 8.00106L9.87185 2.06702C9.95168 2.00369 10 1.90447 10 1.80103Z" fill="#bfbfbf"/>
</svg>
