<svg width="10" height="16" viewBox="0 0 10 16" fill="none" xmlns="http://www.w3.org/2000/svg">
<path
        d="M1.57451e-07 14.199L1.47939e-08 15.8308C2.42901e-09 15.9722 0.161765 16.0503 0.271008 15.9638L9.74157 8.53092C9.82203 8.46804 9.88714 8.38752 9.93193 8.29551C9.97672 8.2035 10 8.10243 10 8C10 7.89757 9.97672 7.7965 9.93193 7.70449C9.88714 7.61248 9.82203 7.53196 9.74157 7.46908L0.27101 0.0362273C0.159666 -0.0503243 1.39634e-06 0.0277835 1.38397e-06 0.169221L1.24131e-06 1.80103C1.23227e-06 1.90447 0.0483201 2.00369 0.128151 2.06702L7.69115 7.99894L0.12815 13.933C0.048319 13.9963 1.66494e-07 14.0955 1.57451e-07 14.199Z" fill="current"/>
</svg>
