<svg width="32" height="32" viewBox="0 0 32 32" fill="none" xmlns="http://www.w3.org/2000/svg">
<path d="M22.4963 11.0853C22.3577 10.7259 22.1453 10.3996 21.8729 10.1272C21.6006 9.8548 21.2742 9.64245 20.9148 9.5038C20.4193 9.32016 19.8959 9.22309 19.3675 9.21684C18.4886 9.17674 18.2252 9.1683 16 9.1683C13.7749 9.1683 13.5114 9.17674 12.6326 9.21682C12.1042 9.22308 11.5808 9.32015 11.0853 9.50379C10.7259 9.64244 10.3995 9.85478 10.1271 10.1272C9.85475 10.3995 9.6424 10.7259 9.50376 11.0853C9.32012 11.5808 9.22305 12.1042 9.21679 12.6327C9.17671 13.5115 9.16827 13.7751 9.16827 16.0001C9.16827 18.2251 9.17672 18.4887 9.21679 19.3675C9.22304 19.8959 9.32011 20.4193 9.50376 20.9148C9.6424 21.2742 9.85475 21.6006 10.1271 21.873C10.3995 22.1454 10.7259 22.3577 11.0853 22.4964C11.5808 22.68 12.1042 22.7771 12.6326 22.7833C13.5112 22.8233 13.7748 22.8318 16 22.8318C18.2253 22.8318 18.4889 22.8234 19.3675 22.7833C19.8959 22.7771 20.4193 22.68 20.9148 22.4964C21.2742 22.3577 21.6006 22.1454 21.8729 21.873C22.1453 21.6006 22.3577 21.2742 22.4963 20.9148C22.68 20.4193 22.777 19.8959 22.7833 19.3675C22.8233 18.4887 22.8318 18.2252 22.8318 16.0001C22.8318 13.7749 22.8234 13.5115 22.7833 12.6327C22.777 12.1042 22.68 11.5808 22.4963 11.0853ZM16 20.2794C15.1537 20.2794 14.3263 20.0284 13.6226 19.5582C12.9189 19.0879 12.3704 18.4196 12.0465 17.6377C11.7226 16.8557 11.6379 15.9953 11.803 15.1652C11.9681 14.3351 12.3757 13.5726 12.9741 12.9742C13.5726 12.3757 14.3351 11.9681 15.1652 11.803C15.9953 11.6379 16.8557 11.7226 17.6377 12.0465C18.4196 12.3704 19.0879 12.9189 19.5581 13.6226C20.0283 14.3264 20.2793 15.1537 20.2793 16.0001C20.2793 16.562 20.1686 17.1185 19.9536 17.6377C19.7385 18.1569 19.4233 18.6286 19.026 19.026C18.6286 19.4234 18.1568 19.7386 17.6377 19.9536C17.1185 20.1687 16.562 20.2794 16 20.2794ZM20.4484 12.5517C20.2506 12.5517 20.0573 12.4931 19.8928 12.3832C19.7284 12.2733 19.6002 12.1171 19.5245 11.9344C19.4488 11.7517 19.429 11.5506 19.4676 11.3566C19.5062 11.1627 19.6014 10.9845 19.7413 10.8446C19.8811 10.7048 20.0593 10.6095 20.2533 10.571C20.4473 10.5324 20.6483 10.5522 20.8311 10.6279C21.0138 10.7035 21.17 10.8317 21.2798 10.9962C21.3897 11.1606 21.4484 11.354 21.4484 11.5517C21.4484 11.817 21.343 12.0713 21.1555 12.2588C20.9679 12.4464 20.7136 12.5517 20.4484 12.5517Z" fill="white"/>
<path d="M16 18.7775C17.5342 18.7775 18.7779 17.5338 18.7779 15.9996C18.7779 14.4655 17.5342 13.2218 16 13.2218C14.4659 13.2218 13.2222 14.4655 13.2222 15.9996C13.2222 17.5338 14.4659 18.7775 16 18.7775Z" fill="white"/>
<path d="M16 -3.05074e-05C12.8355 -3.05074e-05 9.74207 0.938353 7.11088 2.69646C4.4797 4.45456 2.42894 6.95341 1.21793 9.87703C0.00693252 12.8006 -0.309921 16.0177 0.307443 19.1214C0.924806 22.2251 2.44866 25.076 4.6863 27.3137C6.92394 29.5513 9.77486 31.0752 12.8786 31.6925C15.9823 32.3099 19.1993 31.993 22.1229 30.782C25.0466 29.571 27.5454 27.5203 29.3035 24.8891C31.0616 22.2579 32 19.1645 32 16C32 13.8988 31.5862 11.8182 30.7821 9.87702C29.978 7.93581 28.7995 6.17197 27.3137 4.68624C25.828 3.2005 24.0642 2.02195 22.1229 1.21787C20.1817 0.413803 18.1012 -4.1451e-05 16 -3.05074e-05ZM24.2832 19.4358C24.2693 20.1271 24.1383 20.8111 23.8958 21.4586C23.6818 22.0122 23.3544 22.5149 22.9347 22.9346C22.515 23.3543 22.0123 23.6817 21.4587 23.8957C20.8112 24.1382 20.1272 24.2692 19.4359 24.2831C18.547 24.3237 18.2632 24.3333 16 24.3333C13.7368 24.3333 13.453 24.3237 12.5641 24.2831C11.8728 24.2693 11.1889 24.1383 10.5413 23.8958C9.98775 23.6817 9.48499 23.3544 9.0653 22.9347C8.64562 22.515 8.31825 22.0122 8.10421 21.4586C7.86169 20.8111 7.73071 20.1272 7.71684 19.4358C7.67624 18.547 7.66667 18.2631 7.66667 16C7.66667 13.7368 7.67624 13.453 7.71682 12.5641C7.7307 11.8728 7.86167 11.1888 8.10419 10.5413C8.31823 9.98771 8.6456 9.48495 9.06529 9.06526C9.48497 8.64557 9.98773 8.3182 10.5413 8.10415C11.1888 7.86164 11.8728 7.73066 12.5641 7.71678C13.453 7.6762 13.7368 7.66663 16 7.66663C18.2632 7.66663 18.547 7.6762 19.4359 7.71678C20.1272 7.73066 20.8111 7.86164 21.4587 8.10415C22.0123 8.3182 22.515 8.64556 22.9347 9.06525C23.3544 9.48494 23.6818 9.98769 23.8958 10.5413C24.1383 11.1888 24.2693 11.8728 24.2832 12.5641C24.3238 13.453 24.3333 13.7368 24.3333 16C24.3333 18.2631 24.3238 18.547 24.2832 19.4358V19.4358Z" fill="white"/>
</svg>
