<svg width="32" height="32" viewBox="0 0 32 32" fill="none" xmlns="http://www.w3.org/2000/svg">
<path d="M7.11111 3.55556C7.11111 5.51111 5.86667 7.11111 3.55556 7.11111C1.42222 7.11111 0 5.51111 0 3.73333C0 1.77778 1.42222 0 3.55556 0C5.68889 0 7.11111 1.6 7.11111 3.55556ZM0 32H7.11111V8.88889H0V32ZM24.1778 9.24444C20.4444 9.24444 18.3111 11.3778 17.4222 12.8H17.2444L16.8889 9.77778H10.4889C10.4889 11.7333 10.6667 14.0444 10.6667 16.7111V32H17.7778V19.3778C17.7778 18.6667 17.7778 18.1333 17.9556 17.6C18.4889 16.3556 19.3778 14.7556 21.3333 14.7556C23.8222 14.7556 24.8889 16.8889 24.8889 19.7333V32H32V18.8444C32 12.2667 28.6222 9.24444 24.1778 9.24444Z" fill="white"/>
</svg>
