<svg width="117" height="169" viewBox="0 0 117 169" fill="none" xmlns="http://www.w3.org/2000/svg">
<path d="M21.8919 29.82C23.222 32.8061 28.7416 37.6017 28.7416 37.6017C28.7416 37.6017 30.7915 33.0007 30.8469 32.7315C31.9748 29.2153 31.8894 21.6723 28.4527 19.3055C27.8715 18.9355 27.2195 18.6907 26.5384 18.5869C25.8572 18.483 25.1619 18.5224 24.4969 18.7025C23.8318 18.8825 23.2116 19.1994 22.676 19.6327C22.1403 20.066 21.7009 20.6063 21.3858 21.219C19.9659 23.7108 20.754 27.2987 21.8919 29.82Z" fill="#D3E9CB" fill-opacity="0.3"/>
<path d="M9.51124 47.1853C11.5122 49.6034 17.6068 52.5823 18.0883 52.8221C16.373 56.3098 14.8923 59.9079 13.6559 63.5926C12.9208 65.7147 12.2566 67.906 11.604 70.0855C11.7558 69.0561 11.9082 68.0735 11.8492 68.0157C11.9239 64.3013 9.92669 57.0602 5.99907 55.6916C5.33909 55.4844 4.64303 55.4177 3.9557 55.4958C3.26837 55.5738 2.60501 55.795 2.00832 56.1449C1.41164 56.4949 0.894865 56.966 0.491267 57.5278C0.0876702 58.0896 -0.193816 58.7297 -0.335038 59.4069C-1.01517 62.2524 0.644752 65.4917 2.39721 67.6206C4.14965 69.7495 9.33033 72.4585 10.7161 73.1435L9.98556 75.6625C8.85212 79.7276 7.74176 83.7691 6.52513 87.7067C6.10884 89.1011 5.63353 90.4378 5.15846 91.7978C5.29981 90.8736 5.39601 90.0901 5.39469 89.9734C5.49276 86.2587 3.47223 79.0178 -0.455397 77.6493C-1.11384 77.4438 -1.80794 77.3781 -2.49324 77.4564C-3.17854 77.5346 -3.83995 77.7551 -4.43512 78.1038C-5.03029 78.4524 -5.54613 78.9215 -5.94956 79.4809C-6.353 80.0404 -6.63512 80.6779 -6.77795 81.3527C-7.45781 84.2215 -5.79818 87.4376 -4.03392 89.578C-2.26966 91.7184 2.39408 94.153 4.0265 94.9637C3.49318 96.336 2.9832 97.7081 2.39057 98.9994C1.99181 99.8798 1.66311 100.759 1.19403 101.617C0.724948 102.475 0.337763 103.344 -0.0964223 104.189C-0.977394 105.799 -1.86968 107.444 -2.76299 108.996C-3.38136 110.077 -4.00051 111.088 -4.60786 112.111C-4.16795 110.74 -3.35792 108.022 -3.31385 107.787C-2.66634 104.125 -3.55651 96.6728 -7.23386 94.7175C-7.85452 94.4147 -8.53164 94.2449 -9.22176 94.2192C-9.91188 94.1935 -10.5998 94.3123 -11.2413 94.5681C-11.8828 94.8239 -12.4637 95.211 -12.9467 95.7045C-13.4298 96.198 -13.8044 96.7871 -14.0464 97.4339C-15.1485 100.144 -14.0118 103.588 -12.5833 105.977C-11.0237 108.611 -5.69125 112.345 -5.02026 112.817C-6.02875 114.51 -7.02623 116.144 -8.00167 117.662C-10.8123 122.12 -13.3627 125.839 -15.3739 128.699L-13.3092 130.556C-11.3106 127.614 -8.73925 123.684 -5.90819 118.969C-4.87661 117.253 -3.78808 115.407 -2.70037 113.491C-0.740248 114.23 1.26357 114.847 3.29967 115.338C3.72664 118.602 4.60378 121.791 5.90608 124.815C4.11742 125.676 2.38647 126.478 0.736611 127.22C-3.96896 129.341 -8.08389 131.022 -11.3162 132.273L-9.06262 134.315C-6.04075 133.043 -2.3687 131.436 1.76618 129.451C3.57845 128.613 5.49436 127.645 7.4567 126.654C7.93117 127.303 11.7862 132.572 14.4426 134.084C16.8638 135.458 20.3209 136.528 23.0287 135.364C23.6698 135.108 24.2503 134.72 24.7327 134.226C25.2152 133.732 25.589 133.142 25.8302 132.495C26.0714 131.848 26.1746 131.158 26.1332 130.468C26.0919 129.779 25.9069 129.106 25.5901 128.492C23.5635 124.848 16.0459 124.081 12.4347 124.869C12.2132 124.907 9.93258 125.633 8.51334 126.116C9.30284 125.71 10.0692 125.328 10.9049 124.875C12.5186 124.027 14.1201 123.145 15.8377 122.191C16.6495 121.692 17.4731 121.204 18.2849 120.704C19.0967 120.204 19.9541 119.611 20.7888 119.064C22.6892 117.758 24.5767 116.347 26.4285 114.878C27.1686 116.294 29.8877 121.285 32.0793 123.012C34.271 124.739 37.512 126.313 40.3647 125.569C41.0358 125.412 41.6667 125.117 42.2173 124.702C42.7678 124.287 43.2257 123.762 43.5618 123.161C43.8979 122.559 44.1048 121.894 44.1692 121.208C44.2336 120.521 44.1541 119.829 43.9358 119.176C42.4902 115.268 35.2054 113.412 31.5055 113.582C31.2604 113.597 28.6142 114.012 27.1574 114.274C28.2683 113.374 29.3795 112.497 30.4783 111.562C33.6357 108.852 36.7447 106.003 39.8659 103.188C40.7664 102.267 41.7734 101.473 42.7329 100.61C42.9956 101.12 46.0999 107.134 48.5509 109.069C50.7307 110.784 53.9835 112.37 56.8246 111.637C57.4982 111.482 58.1317 111.187 58.6846 110.773C59.2374 110.358 59.6974 109.832 60.0348 109.229C60.3722 108.625 60.5797 107.958 60.6438 107.27C60.708 106.582 60.6274 105.888 60.4073 105.232C58.9501 101.337 51.677 99.4689 47.9536 99.6395C47.6852 99.6542 43.8616 100.258 42.9063 100.456C45.0221 98.575 47.1381 96.7176 49.3022 94.9764C52.2176 92.6155 55.2781 90.4396 58.4657 88.4614C58.5969 88.7052 61.8094 94.9866 64.3191 96.9551C66.4874 98.6822 69.7517 100.257 72.5928 99.524C73.2664 99.3686 73.8999 99.074 74.4528 98.6591C75.0056 98.2443 75.4656 97.7183 75.803 97.1151C76.1404 96.5118 76.3479 95.8446 76.412 95.1564C76.4762 94.4681 76.3956 93.7741 76.1755 93.1189C74.7184 89.2233 67.4452 87.3554 63.7336 87.5376C63.4886 87.552 60.5742 88.0054 59.199 88.2546L59.1148 88.0336C62.3856 86.1297 65.8228 84.5273 69.3839 83.2462C71.3258 82.5118 73.2226 81.9181 75.085 81.3832C75.5661 82.6156 77.8135 88.2306 79.88 90.2508C81.9465 92.2711 84.9222 94.1409 87.825 93.6993C88.5089 93.6172 89.1682 93.3933 89.7607 93.042C90.3532 92.6908 90.866 92.2198 91.2662 91.6592C91.6665 91.0986 91.9455 90.4607 92.0853 89.7863C92.2251 89.1118 92.2228 88.4156 92.0784 87.7421C91.0634 83.7013 84.0384 81.0599 80.3226 80.8684C80.124 80.859 77.9873 80.8949 76.5525 81.0396C77.3909 80.8199 78.2638 80.5648 79.0791 80.3687C82.1416 79.5983 84.9618 79.0759 87.491 78.6385C88.9247 78.4004 90.2188 78.2106 91.4549 78.0564C92.4941 79.0723 97.0212 82.8514 99.7753 83.7194C102.53 84.5874 106.036 84.828 108.422 83.1193C108.993 82.7311 109.477 82.2278 109.843 81.6415C110.208 81.0552 110.447 80.3989 110.543 79.7149C110.64 79.0309 110.593 78.3342 110.404 77.6696C110.216 77.0049 109.891 76.3871 109.449 75.8557C106.693 72.7455 99.2289 73.6242 95.8242 75.1225C95.5338 75.2542 91.1718 77.8027 91.2308 77.8604L91.2898 77.9181C90.1117 78.0366 88.8522 78.191 87.4765 78.3934C84.935 78.7725 82.0555 79.2139 79.0161 79.9607C75.6902 80.6851 72.4095 81.6035 69.191 82.7112C65.5752 83.9319 62.0754 85.4722 58.733 87.3139C58.733 87.3139 58.6637 87.3848 58.6406 87.4084C59.4948 86.5346 61.7313 83.9634 61.9267 83.6926C64.0526 80.644 66.3657 73.5059 63.8525 70.1944C63.4164 69.6584 62.873 69.2196 62.2572 68.9061C61.6414 68.5927 60.9669 68.4114 60.2769 68.3742C59.5869 68.3369 58.8967 68.4444 58.2508 68.6897C57.6048 68.935 57.0173 69.3127 56.5259 69.7986C54.3766 71.8082 53.9736 75.4096 54.2617 78.1623C54.589 81.2766 58.0302 87.135 58.3042 87.6107C54.9513 89.5655 51.7339 91.7439 48.6737 94.131C46.8793 95.5177 45.1206 96.9623 43.3621 98.4303C44.101 97.6745 44.6882 96.9322 44.7569 96.8146C46.8828 93.7659 49.196 86.6278 46.6827 83.3164C46.2474 82.7589 45.6977 82.3011 45.0706 81.9738C44.4436 81.6464 43.7537 81.4572 43.0474 81.4187C42.3412 81.3803 41.6348 81.4935 40.9759 81.7508C40.317 82.0081 39.7209 82.4035 39.2275 82.9104C37.0897 84.9082 36.6868 88.5095 36.9633 91.2741C37.2399 94.0386 40.1002 99.1212 40.8625 100.444C40.2507 101.07 39.5326 101.592 38.8617 102.16C35.6815 104.917 32.5246 107.674 29.3428 110.29C28.2206 111.226 27.0743 112.091 25.9513 112.956C26.5978 112.295 27.0349 111.706 27.1501 111.565C29.276 108.516 31.6007 101.366 29.0641 98.055C28.6272 97.5217 28.0837 97.0854 27.4686 96.7741C26.8534 96.4629 26.18 96.2834 25.4916 96.2472C24.8031 96.2111 24.1146 96.319 23.4702 96.5641C22.8258 96.8092 22.2397 97.1862 21.7493 97.6708C19.6115 99.6686 19.2085 103.27 19.4966 106.023C19.7847 108.775 22.3246 113.406 23.2415 114.972C22.06 115.826 20.867 116.692 19.6729 117.465C18.8496 117.977 18.085 118.522 17.2262 118.999L14.7315 120.417C13.1064 121.276 11.4465 122.171 9.89114 123.006C8.78808 123.567 7.71941 124.07 6.65099 124.596C7.77343 123.684 9.94825 121.861 10.1099 121.696C12.2748 119.247 13.7734 116.282 14.4617 113.086C14.7182 112.826 14.9496 112.542 15.1527 112.238C15.5474 111.67 15.819 111.027 15.9501 110.348C16.0812 109.67 16.0689 108.971 15.9139 108.297C15.7589 107.624 15.4646 106.99 15.0501 106.437C14.6355 105.884 14.1099 105.424 13.5069 105.086C9.80671 103.178 3.16665 106.686 0.533768 109.309C0.383693 109.462 -1.12519 111.313 -2.04582 112.514C-1.62265 111.727 -1.22202 111.01 -0.741129 110.164C0.151651 108.566 0.985641 106.933 1.85295 105.148C2.26378 104.303 2.67437 103.434 3.08494 102.565C3.49551 101.696 3.8701 100.746 4.25678 99.8308C5.13167 97.6838 5.91237 95.4678 6.65762 93.2172C8.05599 93.9838 13.0845 96.6595 15.8664 96.8849C18.6483 97.1103 22.2165 96.6495 24.1769 94.4552C24.6529 93.9545 25.019 93.3599 25.2515 92.7094C25.4841 92.0589 25.578 91.367 25.5273 90.678C25.4766 89.9891 25.2824 89.3183 24.9572 88.7089C24.6319 88.0994 24.1828 87.5648 23.6386 87.1392C20.2593 84.69 13.187 87.1524 10.1754 89.3353C10.0138 89.5006 8.00222 91.2984 6.93935 92.3148C7.36772 90.9553 7.80791 89.6074 8.20085 88.2132C9.33508 84.2182 10.3748 80.1308 11.403 76.0552L12.3539 72.3659C12.8475 72.6406 18.7589 75.9486 21.8565 76.2054C24.9541 76.4623 28.2182 75.9582 30.1904 73.7754C30.6651 73.2732 31.0294 72.6773 31.26 72.026C31.4907 71.3746 31.5825 70.6822 31.5296 69.9932C31.4767 69.3042 31.2802 68.634 30.9529 68.0254C30.6255 67.4169 30.1745 66.8836 29.6288 66.4597C26.2728 64.0103 19.1772 66.473 16.1774 68.6674C15.9812 68.8681 13.1024 71.4348 12.4097 72.1434C13.1379 69.4142 13.901 66.6729 14.7236 64.036C15.8569 60.457 17.2095 56.9511 18.7737 53.5384C18.9627 53.7231 25.1557 57.1446 28.3352 57.4123C31.1171 57.6377 34.6969 57.165 36.6573 54.9707C37.1307 54.4695 37.4942 53.875 37.7247 53.2252C37.9551 52.5754 38.0475 51.8847 37.9957 51.1972C37.944 50.5097 37.7493 49.8406 37.4241 49.2326C37.099 48.6247 36.6505 48.0913 36.1074 47.6665C32.7515 45.2171 25.6558 47.6798 22.6442 49.8626C22.4826 50.028 20.286 51.9914 19.2811 52.9721L19.104 52.7989C20.7858 49.4152 22.7659 46.1881 25.0207 43.1559C26.2393 41.4605 27.4947 39.9165 28.7628 38.454C29.8457 39.2125 34.801 42.6481 37.6452 43.2115C40.4893 43.7749 43.9915 43.6651 46.188 41.7017C46.7154 41.2546 47.1434 40.702 47.4443 40.0795C47.7453 39.4571 47.9127 38.7785 47.9356 38.0875C47.9586 37.3964 47.8367 36.7083 47.5777 36.0672C47.3187 35.4261 46.9284 34.8463 46.4319 34.3652C43.3522 31.5623 36.0138 33.2103 32.8117 35.0683C32.6732 35.21 30.9583 36.3972 29.754 37.2984C30.3658 36.6725 30.9181 35.9422 31.4835 35.3402C33.6058 33.004 35.7087 31.0183 37.5571 29.2456C38.573 28.2065 39.603 27.389 40.5282 26.5844C41.9784 26.7782 47.8257 27.5061 50.5608 26.6927C53.2959 25.8793 56.4064 24.1858 57.4379 21.4298C57.6999 20.792 57.826 20.1065 57.808 19.4173C57.79 18.728 57.6283 18.05 57.3332 17.4268C57.0382 16.8036 56.6163 16.2489 56.0945 15.7981C55.5728 15.3473 54.9627 15.0103 54.3033 14.8088C50.2739 13.7334 44.5484 18.5979 42.5054 21.7507C42.286 21.9751 40.1076 26.5658 40.1306 26.5422C39.2168 27.3116 38.2452 28.1401 37.2162 29.051C35.3088 30.7659 33.1589 32.7288 30.9894 35.0189C28.6107 37.4559 26.3781 40.0314 24.3035 42.732C21.9682 45.7512 19.8986 48.9669 18.1179 52.343L18.0256 52.4374C18.2338 51.2322 18.6976 47.852 18.7063 47.5834C18.8043 43.8686 16.7956 36.6394 12.868 35.2708C12.2096 35.0654 11.5155 34.9997 10.8302 35.0779C10.1449 35.1562 9.48345 35.3767 8.88829 35.7253C8.29312 36.0739 7.77731 36.543 7.37387 37.1024C6.97044 37.6619 6.68826 38.2995 6.54544 38.9743C6.09884 41.8171 7.75852 45.0331 9.51124 47.1853Z" fill="#D3E9CB" fill-opacity="0.3"/>
</svg>
