<svg width="113" height="173" viewBox="0 0 113 173" fill="none" xmlns="http://www.w3.org/2000/svg">
<path d="M103.365 140.132C101.553 137.309 95.2117 133.301 95.2117 133.301C95.2117 133.301 93.8458 138.285 93.8314 138.567C93.2325 142.308 94.4883 149.945 98.3407 151.813C98.9875 152.098 99.6867 152.245 100.394 152.245C101.1 152.244 101.8 152.097 102.446 151.811C103.093 151.525 103.673 151.108 104.149 150.585C104.625 150.063 104.987 149.447 105.211 148.776C106.265 146.029 104.91 142.512 103.365 140.132Z" fill="#F2F8EF"/>
<path d="M113.229 120.601C110.825 118.459 104.182 116.382 103.657 116.214C104.856 112.411 105.8 108.532 106.483 104.603C106.899 102.337 107.233 100.012 107.557 97.7001C107.563 98.7676 107.561 99.7878 107.63 99.8372C108.129 103.616 111.277 110.65 115.473 111.43C116.174 111.537 116.891 111.497 117.576 111.311C118.261 111.126 118.899 110.799 119.45 110.351C120.001 109.904 120.452 109.346 120.774 108.714C121.097 108.081 121.283 107.388 121.321 106.68C121.57 103.688 119.384 100.66 117.277 98.7729C115.17 96.8854 109.495 94.941 107.984 94.461L108.334 91.793C108.854 87.4945 109.353 83.2235 109.977 79.0415C110.183 77.5627 110.458 76.1335 110.729 74.6805C110.729 75.6397 110.753 76.4492 110.772 76.5674C111.248 80.3501 114.42 87.3805 118.616 88.1597C119.315 88.266 120.029 88.225 120.712 88.0394C121.395 87.8538 122.032 87.5277 122.581 87.0819C123.131 86.6361 123.581 86.0804 123.904 85.4504C124.226 84.8205 124.414 84.1302 124.454 83.4236C124.699 80.4087 122.517 77.4043 120.396 75.5069C118.275 73.6096 113.167 71.8633 111.386 71.2942C111.714 69.8197 112.019 68.3491 112.42 66.9476C112.688 65.9929 112.885 65.0499 113.228 64.1072C113.57 63.1645 113.828 62.2236 114.138 61.2986C114.782 59.5293 115.432 57.7226 116.097 56.0105C116.557 54.8179 117.028 53.6963 117.485 52.5647C117.252 54.0237 116.851 56.9063 116.843 57.1506C116.754 60.9655 118.812 68.3854 122.845 69.7985C123.521 70.0094 124.234 70.0766 124.938 69.9957C125.642 69.9148 126.321 69.6876 126.932 69.3288C127.543 68.9699 128.072 68.4873 128.486 67.9119C128.899 67.3365 129.188 66.681 129.333 65.9875C130.03 63.0681 128.344 59.7516 126.525 57.5496C124.535 55.1208 118.548 52.1594 117.794 51.7855C118.554 49.9121 119.313 48.0997 120.067 46.4094C122.226 41.4527 124.236 37.2855 125.833 34.0726L123.451 32.5095C121.88 35.8032 119.881 40.1871 117.741 45.4078C116.961 47.3088 116.143 49.3495 115.337 51.4611C113.234 51.0159 111.106 50.7008 108.965 50.5176C108.026 47.2735 106.642 44.1751 104.853 41.3108C106.533 40.1602 108.165 39.0785 109.723 38.0695C114.167 35.1897 118.079 32.8465 121.164 31.0766L118.561 29.3554C115.694 31.114 112.219 33.3124 108.333 35.9669C106.625 37.0977 104.832 38.376 102.995 39.6858C102.413 39.1015 97.6868 34.3544 94.7585 33.2333C92.0899 32.2152 88.4178 31.6656 85.8519 33.2653C85.2414 33.6249 84.7129 34.1081 84.3001 34.6841C83.8874 35.26 83.5997 35.9159 83.4554 36.6096C83.3111 37.3033 83.3134 38.0195 83.4622 38.7122C83.611 39.4049 83.903 40.0589 84.3194 40.6322C86.9395 44.0137 94.6828 43.6267 98.2231 42.2674C98.4419 42.195 100.642 41.1047 102.007 40.3947C101.269 40.9288 100.551 41.4354 99.7737 42.0246C98.2685 43.1342 96.781 44.2772 95.1869 45.5107C94.441 46.1433 93.6814 46.766 92.9355 47.3986C92.1896 48.0312 91.412 48.7662 90.6503 49.4499C88.9254 51.0691 87.2298 52.7928 85.5794 54.5697C84.6092 53.248 81.0779 48.6079 78.5875 47.1962C76.097 45.7845 72.5659 44.6897 69.7882 45.8871C69.1319 46.1503 68.5377 46.5475 68.0437 47.0534C67.5496 47.5593 67.1665 48.1627 66.9189 48.825C66.6713 49.4874 66.5646 50.1941 66.6057 50.9C66.6467 51.6059 66.8346 52.2955 67.1574 52.9247C69.2292 56.6635 76.905 57.4168 80.6311 56.6705C80.8774 56.6178 83.4968 55.7864 84.9337 55.2951C83.9466 56.3802 82.9555 57.4417 81.986 58.5603C79.2039 61.7982 76.4924 65.1701 73.7632 68.5086C72.9927 69.5823 72.0944 70.5435 71.2552 71.5679C70.9095 71.0905 66.8289 65.4722 64.0434 63.8905C61.5667 62.4887 58.0218 61.384 55.254 62.5677C54.595 62.8297 53.9981 63.2266 53.5017 63.7331C53.0053 64.2396 52.6204 64.8443 52.3716 65.5084C52.1229 66.1725 52.016 66.8813 52.0576 67.5893C52.0992 68.2972 52.2885 68.9886 52.6133 69.619C54.6949 73.344 62.3609 74.1111 66.1107 73.3609C66.3806 73.3044 70.1648 72.0992 71.1031 71.7507C69.2488 73.9861 67.3907 76.1979 65.4658 78.2992C62.8749 81.1455 60.1082 83.8267 57.182 86.3271C57.0112 86.1002 52.7794 80.2276 49.9289 78.6201C47.4621 77.2046 43.9074 76.1136 41.1396 77.2972C40.4806 77.5592 39.8837 77.9562 39.3873 78.4627C38.8909 78.9691 38.5059 79.5738 38.2572 80.2379C38.0085 80.9021 37.9016 81.6109 37.9432 82.3188C37.9848 83.0268 38.174 83.7182 38.4988 84.3486C40.5805 88.0737 48.2465 88.8406 51.9825 88.0806C52.2288 88.0279 55.1142 87.1164 56.4703 86.6505L56.59 86.8615C53.5679 89.2995 50.3303 91.4574 46.9172 93.3087C45.0615 94.3545 43.2299 95.2507 41.4239 96.0819C40.745 94.9065 37.5953 89.5601 35.1863 87.8315C32.7773 86.1029 29.4695 84.6678 26.594 85.5656C25.9131 85.755 25.2792 86.0842 24.7327 86.5323C24.1862 86.9804 23.7392 87.5375 23.4201 88.1681C23.1011 88.7987 22.917 89.4889 22.8798 90.1946C22.8425 90.9003 22.9528 91.6061 23.2036 92.2668C24.8594 96.2076 32.3936 97.7975 36.1918 97.4158C36.3947 97.3945 38.5561 97.027 39.9888 96.6578C39.1726 97.0106 38.3268 97.4046 37.5304 97.7299C34.5438 98.9859 31.7645 99.9529 29.2673 100.788C27.8501 101.252 26.5671 101.645 25.3373 101.993C24.1259 101.124 18.9487 97.993 16.0209 97.5396C13.0931 97.0862 9.49991 97.3856 7.34456 99.4884C6.82517 99.9707 6.41241 100.556 6.13273 101.208C5.85305 101.859 5.7127 102.561 5.72063 103.27C5.72855 103.979 5.8846 104.678 6.17877 105.323C6.47295 105.968 6.89871 106.544 7.42875 107.014C10.7062 109.742 18.1399 107.693 21.3607 105.646C21.6348 105.467 25.6638 102.207 25.5949 102.157L25.5261 102.108C26.7026 101.805 27.956 101.453 29.3199 101.035C31.8387 100.256 34.6907 99.3624 37.6576 98.1339C40.9183 96.8836 44.1032 95.4437 47.1958 93.8214C50.6736 92.0229 53.9844 89.9182 57.0888 87.5323C57.0888 87.5323 57.1481 87.4496 57.1679 87.4221C56.4369 88.4408 54.5673 91.3951 54.411 91.7C52.7275 95.1215 51.488 102.719 54.5502 105.688C55.0755 106.164 55.6947 106.525 56.3678 106.748C57.0409 106.97 57.7532 107.049 58.4587 106.98C59.1643 106.911 59.8476 106.695 60.4647 106.346C61.0818 105.997 61.6191 105.523 62.0421 104.954C63.9105 102.583 63.7609 98.8679 63.0421 96.1208C62.2275 93.013 57.8292 87.6048 57.4776 87.1648C60.5751 84.6626 63.5006 81.9546 66.2342 79.0592C67.8391 77.3747 69.3989 75.6369 70.9547 73.8756C70.3226 74.7566 69.8421 75.6005 69.7906 75.7304C68.1071 79.1519 66.8676 86.7498 69.9298 89.7187C70.4577 90.2166 71.0862 90.5957 71.7728 90.8305C72.4595 91.0653 73.1885 91.1503 73.9108 91.0798C74.6331 91.0094 75.3319 90.7851 75.9602 90.422C76.5886 90.0589 77.132 89.5655 77.5537 88.9749C79.4122 86.6174 79.2626 82.9024 78.5536 80.1415C77.8446 77.3806 74.156 72.6692 73.1777 71.446C73.7013 70.7164 74.3487 70.0757 74.941 69.3955C77.739 66.1064 80.5134 62.8212 83.3348 59.674C84.3279 58.5515 85.3564 57.4961 86.3612 56.4445C85.808 57.2154 85.456 57.8804 85.3611 58.0417C83.6775 61.4631 82.4281 69.0749 85.514 72.0399C86.0397 72.5131 86.6585 72.8713 87.3307 73.0916C88.0028 73.312 88.7136 73.3896 89.4174 73.3196C90.1213 73.2496 90.8028 73.0334 91.4184 72.6849C92.0339 72.3364 92.5699 71.8633 92.9922 71.2958C94.8506 68.9382 94.7011 65.2233 93.9822 62.4761C93.2634 59.729 89.9697 55.4262 88.7969 53.9799C89.8628 52.9305 90.9385 51.8672 92.0298 50.8986C92.7856 50.2522 93.4764 49.5801 94.2734 48.9634L96.5837 47.1387C98.0988 46.0153 99.6435 44.8507 101.092 43.7627C102.123 43.0224 103.129 42.347 104.131 41.648C103.134 42.7468 101.211 44.9329 101.073 45.1256C99.2568 47.945 98.1965 51.1841 97.9937 54.5316C97.7739 54.8356 97.5833 55.1596 97.4244 55.4994C97.1121 56.136 96.9363 56.8309 96.9086 57.5395C96.8808 58.248 97.0016 58.9546 97.2632 59.6137C97.5249 60.2728 97.9215 60.8698 98.4276 61.3665C98.9338 61.8631 99.5382 62.2484 100.202 62.4975C104.251 63.8593 110.441 59.2717 112.705 56.2041C112.833 56.0251 114.077 53.9144 114.824 52.5531C114.517 53.4171 114.222 54.2062 113.865 55.1391C113.208 56.8984 112.615 58.6836 112.012 60.6282C111.726 61.5494 111.445 62.4942 111.163 63.439C110.881 64.3838 110.648 65.4055 110.398 66.3937C109.844 68.7068 109.395 71.0752 108.988 73.4733C107.451 72.9126 101.937 70.9783 99.0804 71.1809C96.2241 71.3835 92.6766 72.404 91.0285 74.9333C90.6233 75.5148 90.3443 76.1747 90.2093 76.8705C90.0742 77.5662 90.0862 78.2825 90.2444 78.9734C90.4026 79.6643 90.7035 80.3144 91.1279 80.8821C91.5522 81.4498 92.0906 81.9224 92.7084 82.2697C96.5154 84.2298 103.306 80.6362 106.022 77.9556C106.161 77.7629 107.922 75.6277 108.843 74.4322C108.619 75.8774 108.381 77.3127 108.199 78.7875C107.668 83.0151 107.247 87.3217 106.836 91.6145L106.443 95.5036C105.9 95.3015 99.392 92.8628 96.2107 93.0825C93.0293 93.3021 89.7969 94.3193 88.1351 96.8388C87.7315 97.4217 87.4544 98.0825 87.3215 98.7789C87.1885 99.4752 87.2027 100.192 87.3632 100.882C87.5236 101.573 87.8267 102.222 88.2531 102.789C88.6794 103.355 89.2195 103.826 89.8387 104.171C93.6219 106.135 100.437 102.538 103.139 99.8472C103.307 99.6132 105.828 96.5638 106.421 95.7379C106.106 98.6187 105.757 101.517 105.331 104.319C104.736 108.125 103.908 111.89 102.851 115.593C102.63 115.435 95.8191 112.925 92.5531 113.147C89.6967 113.349 86.1393 114.383 84.4912 116.913C84.0888 117.495 83.8123 118.154 83.6793 118.849C83.5462 119.543 83.5597 120.258 83.7187 120.947C83.8778 121.637 84.1789 122.285 84.6029 122.851C85.0269 123.417 85.5644 123.889 86.1811 124.235C89.9643 126.199 96.779 122.602 99.495 119.921C99.6333 119.729 101.557 117.397 102.424 116.246L102.63 116.395C101.449 120.087 99.9412 123.667 98.1244 127.092C97.1512 129 96.1173 130.761 95.058 132.44C93.8421 131.839 88.2839 129.123 85.312 128.992C82.3402 128.862 78.8053 129.516 76.8819 131.848C76.4164 132.383 76.068 133.009 75.8592 133.687C75.6505 134.365 75.5859 135.08 75.6697 135.784C75.7535 136.488 75.9839 137.167 76.3459 137.777C76.7079 138.387 77.1936 138.915 77.7718 139.326C81.3296 141.691 88.5169 138.882 91.4764 136.502C91.5949 136.337 93.1501 134.867 94.2318 133.766C93.7083 134.496 93.2614 135.322 92.7813 136.02C90.991 138.718 89.166 141.058 87.5662 143.143C86.6969 144.354 85.7789 145.343 84.9654 146.302C83.4645 146.33 77.4214 146.499 74.7736 147.747C72.1257 148.996 69.2336 151.196 68.6146 154.151C68.4477 154.838 68.4261 155.553 68.5512 156.249C68.6763 156.946 68.9454 157.608 69.3412 158.195C69.7371 158.781 70.251 159.278 70.85 159.654C71.449 160.031 72.12 160.278 72.82 160.38C77.0733 160.846 82.1261 155.025 83.7094 151.511C83.897 151.249 85.3949 146.256 85.3751 146.283C86.1827 145.361 87.0396 144.37 87.9421 143.287C89.6108 141.252 91.4869 138.928 93.3322 136.269C95.367 133.429 97.232 130.471 98.9175 127.41C100.818 123.986 102.418 120.404 103.701 116.704L103.78 116.594C103.756 117.849 103.809 121.349 103.842 121.623C104.318 125.405 107.476 132.426 111.672 133.205C112.371 133.311 113.086 133.27 113.768 133.085C114.451 132.899 115.088 132.573 115.638 132.127C116.187 131.681 116.638 131.126 116.96 130.496C117.282 129.866 117.47 129.175 117.51 128.469C117.522 125.517 115.341 122.512 113.229 120.601Z" fill="#F2F8EF"/>
</svg>
