<svg width="277" height="272" viewBox="0 0 277 272" fill="none" xmlns="http://www.w3.org/2000/svg">
<path opacity="0.5" d="M65.1534 251.898C79.0597 266.573 113.201 261.201 127.985 251.898C175.985 221.7 260.124 171.443 263.931 98.6277C265.551 67.6755 238.257 51.4276 226.849 46.6557C199.502 35.2092 169.451 31.7687 139.764 30.4432C108.787 29.0588 75.536 30.1369 47.6586 45.2478C37.0933 50.9563 27.1232 58.3144 20.2997 68.3353C13.3643 78.5152 9.37504 90.6334 8.32029 102.869C6.61146 122.605 11.9206 142.393 19.9521 160.503C27.9835 178.612 38.6961 195.384 48.5248 212.581C54.9358 223.803 53.4509 239.527 65.1534 251.898Z" fill="#D9F7BE"/>
<path d="M80.8895 123.577H45.8195V225.367H80.8895V123.577Z" fill="#E0E0E0"/>
<path d="M26.9999 225.371H65.3948L65.3948 123.582H26.9999L26.9999 225.371Z" fill="#F5F5F5"/>
<path d="M50.6974 203.432H40.937C40.8073 203.432 40.6787 203.407 40.5588 203.358C40.4389 203.308 40.33 203.235 40.2384 203.143C40.1469 203.051 40.0745 202.942 40.0256 202.822C39.9766 202.702 39.952 202.573 39.9533 202.443V202.084H51.6767V202.443C51.6779 202.573 51.6534 202.701 51.6047 202.821C51.5561 202.941 51.4841 203.05 51.3931 203.142C51.302 203.234 51.1937 203.307 51.0743 203.356C50.9549 203.406 50.8268 203.432 50.6974 203.432Z" fill="#E0E0E0"/>
<path d="M29.0678 202.093C29.0678 202.093 29.0678 202.216 29.0678 202.462V203.55C29.0678 204.52 29.0678 205.937 29.0678 207.75C29.0678 211.393 29.0405 216.667 29.0268 223.107V223.185H29.1042L63.318 223.208H63.4364V223.121C63.4364 215.684 63.4364 208.592 63.4364 202.138V202.047H63.3453L38.6597 202.07H31.6138H29.7464H29.7692H31.6548L38.7189 202.102L63.3453 202.17L63.2588 202.079C63.2588 208.533 63.2588 215.624 63.2588 223.062L63.3544 222.966H29.1407L29.2135 223.044C29.2135 216.626 29.1862 211.379 29.1725 207.736C29.1725 205.914 29.1725 204.493 29.1725 203.518C29.1725 203.036 29.1725 202.667 29.1725 202.412C29.1725 202.157 29.0678 202.093 29.0678 202.093Z" fill="#E0E0E0"/>
<path d="M40.4132 209.977H50.6017V207.226H40.4132V209.977Z" fill="#E0E0E0"/>
<path d="M50.4605 177.125H40.7001C40.5715 177.125 40.4442 177.099 40.3254 177.05C40.2066 177.001 40.0986 176.929 40.0077 176.838C39.9168 176.747 39.8447 176.639 39.7955 176.52C39.7462 176.401 39.7209 176.274 39.7209 176.146V175.786H51.4398V176.146C51.4398 176.405 51.3366 176.654 51.1529 176.838C50.9693 177.022 50.7202 177.125 50.4605 177.125Z" fill="#E0E0E0"/>
<path d="M28.4621 175.781C28.4621 175.781 28.4621 175.904 28.4621 176.15C28.4621 176.396 28.4621 176.765 28.4621 177.243C28.4621 178.209 28.4621 179.625 28.4621 181.442C28.4621 185.086 28.4393 190.356 28.4211 196.8V196.873H28.4985L62.7169 196.896H62.8307V196.8C62.8307 189.363 62.8307 182.267 62.8307 175.813V175.722H62.685L37.9993 175.745H30.9534H29.0861H28.6306H29.118H31.0035L38.0722 175.772L62.6986 175.84L62.6075 175.749C62.6075 182.203 62.6075 189.299 62.6075 196.737L62.685 196.705H28.4621L28.5395 196.782C28.5395 190.36 28.5076 185.118 28.4985 181.47C28.4985 179.648 28.4985 178.227 28.4985 177.252C28.4985 176.774 28.4985 176.405 28.4985 176.145C28.4985 175.886 28.4621 175.781 28.4621 175.781Z" fill="#E0E0E0"/>
<path d="M40.4861 183.506H50.6746V180.755H40.4861V183.506Z" fill="#E0E0E0"/>
<path d="M50.3376 127.694H40.5772C40.3207 127.689 40.0763 127.584 39.8965 127.401C39.7168 127.218 39.6162 126.972 39.6162 126.715V126.355H51.3168V126.715C51.3168 126.975 51.2137 127.224 51.03 127.407C50.8464 127.591 50.5973 127.694 50.3376 127.694Z" fill="#E0E0E0"/>
<path d="M28.708 126.355C28.708 126.355 28.708 126.474 28.708 126.72C28.708 126.965 28.708 127.339 28.708 127.813C28.708 128.783 28.708 130.199 28.708 132.012C28.708 135.656 28.6852 140.93 28.667 147.37V147.447H28.7444H62.9627H63.0811V147.347C63.0811 139.91 63.0811 132.818 63.0811 126.364V126.273H62.99H38.3044H31.2585H29.3911H28.9129H29.4094H31.2949L38.3636 126.305L62.99 126.369L62.8989 126.282C62.8989 132.736 62.8989 139.828 62.8989 147.265L62.9946 147.169H28.7763L28.8537 147.247C28.8537 140.825 28.8218 135.583 28.8127 131.939C28.8127 130.117 28.8127 128.692 28.8127 127.722C28.8127 127.239 28.8127 126.87 28.8127 126.615C28.8127 126.36 28.708 126.355 28.708 126.355Z" fill="#E0E0E0"/>
<path d="M40.5453 133.583H50.7338V130.832H40.5453V133.583Z" fill="#E0E0E0"/>
<path d="M50.3376 151.952H40.5772C40.3199 151.947 40.0748 151.841 39.8949 151.657C39.7151 151.473 39.615 151.225 39.6162 150.968V150.608H51.3168V150.968C51.3174 151.097 51.2925 151.225 51.2436 151.344C51.1947 151.463 51.1226 151.572 51.0316 151.663C50.9406 151.755 50.8325 151.827 50.7134 151.877C50.5943 151.926 50.4666 151.952 50.3376 151.952Z" fill="#E0E0E0"/>
<path d="M28.708 150.608C28.708 150.608 28.708 150.731 28.708 150.977C28.708 151.223 28.708 151.592 28.708 152.07C28.708 153.036 28.708 154.452 28.708 156.269C28.708 159.913 28.6852 165.187 28.667 171.627V171.705H28.7444H62.9627H63.0811V171.609C63.0811 164.172 63.0811 157.076 63.0811 150.622V150.531H62.99H38.3044H31.2585H29.3911H28.708H28.8765H29.3638H31.2494L38.318 150.558L62.9445 150.626L62.8534 150.535C62.8534 156.989 62.8534 164.085 62.8534 171.523L62.949 171.422H28.7307L28.8082 171.5C28.8082 165.078 28.7763 159.836 28.7672 156.188C28.7672 154.366 28.7672 152.945 28.7672 151.97C28.7672 151.492 28.7672 151.123 28.7672 150.868C28.7672 150.613 28.708 150.608 28.708 150.608Z" fill="#E0E0E0"/>
<path d="M40.5453 157.841H50.7338V155.09H40.5453V157.841Z" fill="#E0E0E0"/>
<path d="M170.259 55.573H153.812V88.179H170.259V55.573Z" fill="#F5F5F5"/>
<path d="M170.259 90.4562H153.812V121.96H170.259V90.4562Z" fill="#F5F5F5"/>
<path d="M170.259 122.525H153.812V150.913H170.259V122.525Z" fill="#F5F5F5"/>
<path d="M159.045 212.186V225.849H179.026H201.057V212.186H159.045Z" fill="#F5F5F5"/>
<path d="M157.283 208.369V212.186H202.528V208.369H179.026H157.283Z" fill="#E0E0E0"/>
<path d="M179.905 225.849H201.057V212.186H202.528V208.369H179.026V211.835L179.905 225.849Z" fill="#E0E0E0"/>
<path d="M173.442 214.39H164.921V216.444H173.442V214.39Z" fill="#E0E0E0"/>
<path d="M174.768 219.017H163.828V223.358H174.768V219.017Z" fill="white"/>
<path d="M165.508 194.724V208.387H185.489H207.519V194.724H165.508Z" fill="#F5F5F5"/>
<path d="M163.746 190.907V194.724H208.991V190.907H185.489H163.746Z" fill="#E0E0E0"/>
<path d="M186.368 208.387H207.519V194.724H208.991V190.907H185.489V194.373L186.368 208.387Z" fill="#E0E0E0"/>
<path d="M179.905 196.928H171.384V198.982H179.905V196.928Z" fill="#E0E0E0"/>
<path d="M181.231 201.555H170.291V205.896H181.231V201.555Z" fill="white"/>
<path d="M228.101 225.357C228.101 225.421 183.608 225.476 128.73 225.476C73.8526 225.476 29.3502 225.421 29.3502 225.357C29.3502 225.294 73.8344 225.234 128.73 225.234C183.626 225.234 228.101 225.289 228.101 225.357Z" fill="#263238"/>
<path d="M193.109 204.698L196.224 225.184H214.338L218.541 204.994L193.109 204.698Z" fill="#B7EB8F"/>
<path d="M216.009 217.824C216.009 217.883 211.368 217.933 205.643 217.933C199.918 217.933 195.281 217.883 195.281 217.824C195.281 217.765 199.918 217.719 205.643 217.719C211.368 217.719 216.009 217.765 216.009 217.824Z" fill="#FAFAFA"/>
<path d="M216.077 216.818C216.077 216.877 211.409 216.922 205.643 216.922C199.877 216.922 195.208 216.877 195.208 216.818C195.208 216.758 199.881 216.713 205.643 216.713C211.404 216.713 216.077 216.745 216.077 216.818Z" fill="#FAFAFA"/>
<path d="M216.046 215.679C216.046 215.738 211.373 215.788 205.611 215.788C199.85 215.788 195.172 215.738 195.172 215.679C195.172 215.62 199.845 215.574 205.611 215.574C211.377 215.574 216.046 215.62 216.046 215.679Z" fill="#FAFAFA"/>
<path d="M198.306 224.032C198.054 223.188 197.868 222.326 197.75 221.454C197.568 220.591 197.453 219.716 197.404 218.835C197.846 220.54 198.151 222.278 198.315 224.032H198.306Z" fill="#FAFAFA"/>
<path d="M199.54 223.795C199.414 222.969 199.341 222.135 199.321 221.299C199.228 220.46 199.19 219.616 199.207 218.771C199.4 219.595 199.51 220.436 199.535 221.281C199.622 222.117 199.623 222.959 199.54 223.795Z" fill="#FAFAFA"/>
<path d="M201.785 223.795C201.542 222.953 201.39 222.087 201.33 221.213C201.195 220.347 201.15 219.469 201.193 218.594C201.36 219.452 201.478 220.319 201.544 221.19C201.673 222.053 201.753 222.923 201.785 223.795Z" fill="#FAFAFA"/>
<path d="M203.361 223.904C203.187 223.041 203.103 222.162 203.111 221.281C203.048 220.403 203.074 219.521 203.188 218.648C203.287 219.521 203.331 220.399 203.32 221.276C203.386 222.151 203.4 223.028 203.361 223.904Z" fill="#FAFAFA"/>
<path d="M206.153 223.795C206.018 222.973 205.954 222.141 205.962 221.308C205.899 220.477 205.906 219.642 205.985 218.812C206.108 219.635 206.165 220.467 206.153 221.299C206.222 222.13 206.222 222.965 206.153 223.795Z" fill="#FAFAFA"/>
<path d="M208.189 223.904C208.06 222.191 208.074 220.469 208.23 218.758C208.359 220.472 208.345 222.193 208.189 223.904Z" fill="#FAFAFA"/>
<path d="M210.102 223.631C210.135 221.833 210.308 220.041 210.621 218.27C210.588 220.068 210.415 221.861 210.102 223.631Z" fill="#FAFAFA"/>
<path d="M212.566 223.362C212.644 221.821 212.975 220.302 213.545 218.867C213.433 219.625 213.281 220.376 213.09 221.117C212.958 221.875 212.783 222.625 212.566 223.362Z" fill="#FAFAFA"/>
<path d="M210.822 164.272C210.819 164.306 210.811 164.34 210.799 164.372L210.712 164.663C210.63 164.932 210.516 165.301 210.371 165.766C210.225 166.23 210.029 166.831 209.838 167.519C209.646 168.207 209.382 168.981 209.186 169.856C208.991 170.73 208.704 171.677 208.48 172.707C208.257 173.736 208.025 174.843 207.779 176.009C207.346 178.341 206.95 180.928 206.672 183.651C206.394 186.375 206.285 188.994 206.249 191.367C206.249 192.556 206.249 193.685 206.281 194.742C206.313 195.798 206.353 196.782 206.408 197.675C206.463 198.568 206.531 199.383 206.586 200.093C206.64 200.804 206.704 201.419 206.763 201.915C206.823 202.412 206.85 202.785 206.882 203.067V203.368C206.886 203.401 206.886 203.435 206.882 203.468C206.882 203.468 206.882 203.436 206.859 203.368C206.836 203.3 206.832 203.19 206.809 203.072C206.773 202.794 206.718 202.407 206.654 201.924C206.59 201.441 206.504 200.813 206.44 200.102C206.376 199.392 206.281 198.581 206.231 197.684C206.18 196.787 206.103 195.798 206.076 194.742C206.048 193.685 206.03 192.551 206.026 191.362C206.048 188.98 206.167 186.352 206.431 183.619C206.695 180.887 207.114 178.295 207.56 175.959C207.802 174.793 208.016 173.681 208.28 172.657C208.544 171.632 208.772 170.671 209.013 169.801C209.255 168.931 209.492 168.157 209.697 167.474C209.901 166.79 210.097 166.203 210.266 165.729C210.434 165.256 210.553 164.9 210.648 164.636L210.749 164.349C210.77 164.321 210.794 164.295 210.822 164.272Z" fill="#455A64"/>
<path d="M207.551 176.956C208.049 175.48 209.044 174.223 210.366 173.399C210.573 173.235 210.817 173.125 211.077 173.077C211.336 173.03 211.604 173.046 211.855 173.126C212.488 173.431 212.539 174.319 212.352 174.998C212.026 176.144 211.298 177.135 210.302 177.79C209.418 178.444 208.312 178.724 207.223 178.568" fill="#455A64"/>
<path d="M206.454 185.523C206.909 183.756 208.33 181.242 209.797 180.144C210.019 179.96 210.276 179.822 210.553 179.739C210.693 179.702 210.84 179.698 210.982 179.729C211.124 179.76 211.256 179.824 211.368 179.917C211.494 180.082 211.576 180.276 211.608 180.481C211.64 180.686 211.62 180.896 211.55 181.092C211.25 182.381 210.596 183.562 209.663 184.501C208.73 185.441 207.554 186.102 206.267 186.411" fill="#455A64"/>
<path d="M206.153 193.061C206.88 191.373 208.043 189.91 209.524 188.821C209.682 188.675 209.868 188.563 210.071 188.491C210.273 188.419 210.489 188.389 210.703 188.402C211.341 188.516 211.614 189.313 211.578 189.946C211.459 191.28 210.439 192.351 209.391 193.18C208.425 193.847 207.377 194.385 206.272 194.783" fill="#455A64"/>
<path d="M206.317 198.481C207.024 197.196 208.003 196.081 209.187 195.215C209.441 195.024 209.735 194.891 210.047 194.828C210.205 194.801 210.366 194.816 210.516 194.873C210.665 194.93 210.796 195.026 210.894 195.152C211.181 195.575 210.894 196.145 210.598 196.554C209.584 197.964 208.149 199.015 206.499 199.556" fill="#455A64"/>
<path d="M206.176 196.281C204.941 194.764 203.569 193.365 202.077 192.1C201.845 191.904 201.549 191.695 201.262 191.79C201.152 191.835 201.058 191.912 200.99 192.01C200.923 192.107 200.886 192.223 200.884 192.341C200.883 192.579 200.936 192.815 201.038 193.029C201.529 194.119 202.259 195.084 203.173 195.854C204.088 196.623 205.164 197.177 206.322 197.474" fill="#455A64"/>
<path d="M206.308 189.226L203.083 185.318C202.799 184.925 202.444 184.588 202.036 184.325C201.829 184.202 201.593 184.137 201.353 184.137C201.112 184.137 200.876 184.202 200.669 184.325C200.48 184.478 200.338 184.68 200.257 184.91C200.177 185.139 200.162 185.386 200.214 185.623C200.328 186.093 200.543 186.533 200.842 186.912C201.469 187.878 202.264 188.723 203.188 189.408C204.135 190.06 205.01 190.483 206.135 190.319" fill="#455A64"/>
<path d="M206.754 181.288C206.122 179.406 205.003 177.724 203.511 176.414C203.276 176.18 202.984 176.011 202.664 175.922C202.336 175.898 202.01 175.988 201.74 176.177C201.471 176.367 201.276 176.644 201.189 176.961C201.085 177.317 201.058 177.692 201.108 178.06C201.158 178.428 201.285 178.781 201.48 179.097C201.875 179.724 202.391 180.268 202.997 180.695C204.083 181.525 205.293 182.179 206.581 182.636" fill="#455A64"/>
<path d="M208.043 174.205C207.734 171.928 206.545 170.029 205.169 168.189C204.882 167.797 204.477 167.387 203.999 167.46C203.846 167.491 203.704 167.56 203.586 167.661C203.468 167.763 203.378 167.892 203.325 168.038C203.218 168.33 203.175 168.64 203.197 168.949C203.257 170.328 203.72 171.659 204.53 172.776C205.34 173.894 206.46 174.749 207.752 175.235" fill="#455A64"/>
<path d="M208.945 170.589C208.797 169.422 208.757 168.243 208.827 167.068C208.902 165.886 209.308 164.748 209.997 163.784C210.293 163.37 210.698 163.047 211.168 162.851C211.403 162.757 211.659 162.726 211.91 162.759C212.161 162.793 212.4 162.89 212.602 163.042C212.774 163.203 212.908 163.4 212.993 163.619C213.078 163.838 213.113 164.074 213.094 164.308C213.056 164.781 212.934 165.244 212.734 165.675C211.874 167.742 210.457 170.029 208.945 170.607" fill="#455A64"/>
<path d="M194.903 173.303C194.911 173.4 194.911 173.498 194.903 173.595C194.903 173.804 194.903 174.078 194.903 174.419C194.903 174.761 194.903 175.216 194.903 175.726C194.903 176.237 194.903 176.82 194.967 177.457C195.022 178.742 195.145 180.263 195.341 181.948C195.536 183.633 195.837 185.473 196.251 187.386C196.666 189.299 197.135 191.103 197.618 192.729C198.101 194.355 198.611 195.794 199.075 196.992C199.294 197.593 199.531 198.126 199.713 198.599C199.895 199.073 200.077 199.478 200.223 199.806L200.546 200.567C200.585 200.655 200.618 200.744 200.647 200.836C200.59 200.758 200.542 200.674 200.505 200.585L200.146 199.838C199.991 199.515 199.804 199.119 199.604 198.645C199.403 198.171 199.148 197.647 198.939 197.046C198.456 195.853 197.941 194.409 197.427 192.788C196.912 191.166 196.447 189.354 196.037 187.432C195.628 185.51 195.359 183.66 195.158 181.966C194.958 180.272 194.867 178.746 194.83 177.462C194.799 176.82 194.803 176.237 194.799 175.726C194.794 175.216 194.799 174.775 194.799 174.415C194.799 174.055 194.821 173.8 194.83 173.586C194.843 173.489 194.868 173.394 194.903 173.303Z" fill="#263238"/>
<path d="M195.409 182.645C195.429 181.533 195.835 180.462 196.557 179.616C196.663 179.46 196.805 179.333 196.972 179.245C197.139 179.156 197.325 179.11 197.513 179.11C198.01 179.183 198.237 179.775 198.251 180.276C198.28 181.129 197.998 181.962 197.458 182.622C196.998 183.256 196.306 183.684 195.532 183.811" fill="#263238"/>
<path d="M196.502 188.712C196.438 187.409 196.857 185.396 197.622 184.335C197.732 184.155 197.878 184 198.051 183.879C198.137 183.823 198.237 183.788 198.34 183.779C198.443 183.769 198.547 183.785 198.643 183.824C198.763 183.911 198.86 184.025 198.926 184.158C198.992 184.291 199.024 184.437 199.021 184.585C199.099 185.528 198.913 186.474 198.483 187.317C198.053 188.16 197.397 188.867 196.589 189.358" fill="#263238"/>
<path d="M197.919 193.913C198.043 192.608 198.515 191.361 199.285 190.301C199.361 190.167 199.463 190.051 199.585 189.957C199.707 189.864 199.847 189.797 199.995 189.759C200.451 189.7 200.82 190.169 200.906 190.624C201.116 191.558 200.651 192.505 200.114 193.293C199.601 193.955 199.004 194.548 198.338 195.056" fill="#263238"/>
<path d="M199.203 197.565C199.404 196.538 199.83 195.567 200.451 194.723C200.582 194.534 200.755 194.378 200.956 194.268C201.056 194.214 201.169 194.189 201.283 194.196C201.396 194.202 201.505 194.24 201.599 194.304C201.886 194.528 201.822 194.978 201.699 195.32C201.314 196.499 200.565 197.525 199.558 198.249" fill="#263238"/>
<path d="M198.629 196.099C197.461 195.332 196.225 194.675 194.935 194.136C194.843 194.078 194.737 194.044 194.628 194.038C194.519 194.032 194.41 194.053 194.311 194.1C194.249 194.155 194.203 194.228 194.179 194.308C194.155 194.388 194.153 194.474 194.175 194.555C194.222 194.725 194.309 194.881 194.43 195.01C194.998 195.648 195.702 196.149 196.491 196.476C197.28 196.803 198.132 196.948 198.984 196.901" fill="#263238"/>
<path d="M197.199 191.267L194.161 189.285C193.888 189.079 193.579 188.925 193.25 188.83C193.082 188.786 192.905 188.79 192.738 188.84C192.572 188.891 192.423 188.987 192.307 189.117C192.215 189.263 192.166 189.432 192.166 189.604C192.166 189.777 192.215 189.946 192.307 190.091C192.487 190.388 192.728 190.642 193.013 190.838C193.648 191.361 194.371 191.766 195.149 192.032C195.497 192.179 195.871 192.256 196.249 192.256C196.627 192.256 197.001 192.179 197.349 192.032" fill="#263238"/>
<path d="M195.796 185.774C194.961 184.628 193.837 183.725 192.54 183.155C192.33 183.043 192.094 182.99 191.856 183C191.628 183.055 191.425 183.186 191.282 183.373C191.14 183.56 191.066 183.79 191.073 184.025C191.081 184.29 191.143 184.551 191.257 184.791C191.371 185.031 191.533 185.245 191.733 185.419C192.135 185.759 192.599 186.018 193.1 186.179C194.016 186.513 194.981 186.698 195.956 186.726" fill="#263238"/>
<path d="M195.149 180.664C194.448 179.183 193.232 178.145 191.897 177.188C191.775 177.067 191.622 176.981 191.455 176.937C191.287 176.894 191.112 176.896 190.946 176.943C190.849 176.997 190.768 177.075 190.709 177.169C190.65 177.263 190.616 177.369 190.608 177.48C190.599 177.702 190.636 177.924 190.718 178.131C191.054 179.06 191.657 179.868 192.451 180.454C193.245 181.041 194.195 181.38 195.181 181.429" fill="#263238"/>
<path d="M194.985 178.031C194.631 177.269 194.35 176.474 194.147 175.658C193.944 174.839 193.976 173.978 194.238 173.176C194.344 172.821 194.552 172.504 194.835 172.265C194.974 172.15 195.141 172.072 195.319 172.04C195.497 172.008 195.68 172.023 195.851 172.083C196.002 172.155 196.136 172.261 196.241 172.392C196.347 172.523 196.422 172.675 196.461 172.839C196.532 173.167 196.545 173.504 196.502 173.836C196.361 175.43 195.878 177.293 194.985 178.008" fill="#263238"/>
<path d="M217.799 173.108C217.82 173.202 217.829 173.298 217.826 173.395C217.826 173.604 217.826 173.877 217.858 174.219C217.89 174.56 217.881 175.02 217.858 175.531C217.836 176.041 217.858 176.624 217.826 177.266C217.79 178.55 217.681 180.081 217.498 181.77C217.316 183.46 217.016 185.309 216.619 187.236C216.223 189.162 215.709 190.966 215.23 192.592C214.752 194.218 214.201 195.657 213.718 196.85C213.49 197.452 213.263 197.985 213.053 198.454C212.844 198.923 212.666 199.324 212.511 199.647C212.356 199.97 212.243 200.203 212.151 200.389C212.114 200.479 212.066 200.565 212.01 200.644C212.038 200.551 212.072 200.46 212.11 200.371L212.434 199.61C212.58 199.283 212.757 198.882 212.944 198.408C213.131 197.934 213.363 197.402 213.582 196.796C214.037 195.602 214.543 194.154 215.039 192.537C215.535 190.92 216.005 189.108 216.405 187.195C216.806 185.282 217.089 183.433 217.316 181.752C217.544 180.071 217.635 178.564 217.69 177.266C217.735 176.624 217.735 176.045 217.754 175.535C217.772 175.025 217.754 174.583 217.754 174.228C217.754 173.873 217.754 173.609 217.754 173.399C217.761 173.301 217.776 173.203 217.799 173.108Z" fill="#455A64"/>
<path d="M217.294 182.444C217.273 181.334 216.867 180.265 216.146 179.42C216.04 179.264 215.897 179.136 215.731 179.047C215.564 178.958 215.378 178.911 215.189 178.91C214.693 178.983 214.465 179.58 214.452 180.081C214.422 180.931 214.704 181.764 215.244 182.422C215.704 183.057 216.396 183.486 217.171 183.615" fill="#455A64"/>
<path d="M216.2 188.507C216.264 187.199 215.845 185.186 215.08 184.125C214.972 183.944 214.826 183.789 214.652 183.67C214.566 183.612 214.466 183.577 214.363 183.567C214.259 183.558 214.155 183.574 214.06 183.615C213.94 183.701 213.844 183.815 213.778 183.946C213.712 184.078 213.679 184.224 213.682 184.371C213.609 185.314 213.799 186.259 214.233 187.1C214.667 187.94 215.326 188.643 216.137 189.13" fill="#455A64"/>
<path d="M214.807 193.712C214.682 192.408 214.21 191.161 213.44 190.101C213.365 189.968 213.263 189.851 213.14 189.759C213.018 189.666 212.879 189.6 212.73 189.563C212.274 189.504 211.906 189.973 211.819 190.424C211.609 191.358 212.074 192.305 212.611 193.097C213.112 193.765 213.697 194.365 214.351 194.883" fill="#455A64"/>
<path d="M213.5 197.37C213.299 196.342 212.873 195.371 212.252 194.528C212.122 194.338 211.948 194.182 211.746 194.072C211.646 194.019 211.533 193.995 211.42 194.001C211.307 194.008 211.198 194.045 211.104 194.109C210.817 194.336 210.881 194.783 211.004 195.129C211.387 196.307 212.137 197.331 213.144 198.053" fill="#455A64"/>
<path d="M214.073 195.899C215.242 195.133 216.479 194.476 217.767 193.936C217.861 193.88 217.966 193.847 218.075 193.842C218.184 193.836 218.293 193.857 218.391 193.904C218.454 193.96 218.5 194.032 218.524 194.112C218.548 194.193 218.549 194.278 218.528 194.359C218.476 194.521 218.389 194.668 218.273 194.792C217.703 195.428 216.999 195.928 216.21 196.255C215.422 196.582 214.57 196.728 213.718 196.682" fill="#455A64"/>
<path d="M215.504 191.066L218.541 189.085C218.816 188.881 219.124 188.727 219.452 188.63C219.621 188.587 219.797 188.592 219.964 188.642C220.13 188.693 220.279 188.788 220.395 188.916C220.488 189.063 220.538 189.233 220.538 189.406C220.538 189.58 220.488 189.749 220.395 189.896C220.216 190.191 219.975 190.445 219.689 190.638C219.056 191.163 218.332 191.568 217.553 191.831C217.205 191.979 216.831 192.055 216.453 192.055C216.075 192.055 215.701 191.979 215.353 191.831" fill="#455A64"/>
<path d="M216.906 185.564C217.74 184.419 218.864 183.517 220.163 182.95C220.373 182.838 220.609 182.785 220.846 182.795C221.075 182.85 221.278 182.981 221.42 183.168C221.563 183.355 221.637 183.585 221.629 183.82C221.622 184.085 221.56 184.345 221.446 184.584C221.332 184.823 221.17 185.036 220.969 185.209C220.567 185.55 220.103 185.809 219.603 185.974C218.686 186.306 217.722 186.49 216.747 186.521" fill="#455A64"/>
<path d="M217.539 180.468C218.241 178.983 219.457 177.949 220.791 176.988C221.069 176.788 221.434 176.592 221.743 176.747C221.84 176.801 221.922 176.878 221.981 176.972C222.039 177.066 222.074 177.173 222.08 177.284C222.089 177.505 222.052 177.725 221.971 177.931C221.635 178.853 221.037 179.656 220.249 180.24C219.461 180.825 218.519 181.165 217.539 181.219" fill="#455A64"/>
<path d="M217.717 177.812C218.07 177.049 218.35 176.255 218.555 175.44C218.758 174.618 218.726 173.757 218.464 172.953C218.357 172.598 218.15 172.282 217.867 172.042C217.727 171.928 217.561 171.852 217.383 171.821C217.205 171.79 217.022 171.805 216.852 171.864C216.7 171.937 216.567 172.042 216.461 172.173C216.356 172.304 216.281 172.457 216.241 172.62C216.171 172.946 216.157 173.282 216.2 173.613C216.342 175.207 216.824 177.075 217.717 177.79" fill="#455A64"/>
<path d="M191.032 200.64V204.475C191.032 204.875 191.191 205.258 191.473 205.541C191.756 205.823 192.14 205.982 192.539 205.982H218.765C219.165 205.982 219.549 205.824 219.832 205.541C220.116 205.258 220.275 204.875 220.277 204.475V200.64H191.032Z" fill="#B7EB8F"/>
<g opacity="0.4">
<path opacity="0.4" d="M193.305 205.982L193.523 207.203L217.722 208.925L218.336 205.982H193.305Z" fill="black"/>
</g>
<path d="M91.9661 70.7852C90.5998 68.6491 91.6063 64.96 90.8685 62.5369C90.1306 60.1139 90.2308 58.6155 88.6504 56.657C87.0477 54.8347 84.9416 53.5273 82.5974 52.8995C80.9784 52.5612 79.3059 52.5726 77.6917 52.9332C76.0775 53.2937 74.559 53.995 73.2378 54.9901C71.8715 55.9784 70.5051 57.0897 69.6671 58.5608C68.6332 60.3508 68.4738 62.373 68.5239 64.4817L68.3918 64.3451C67.3805 63.6175 66.1671 63.2242 64.9212 63.2201C64.3371 63.1898 63.7566 63.329 63.2497 63.6209C63.0001 63.7699 62.7963 63.9847 62.6605 64.2417C62.5247 64.4988 62.4623 64.7882 62.48 65.0784C62.5984 65.9893 63.605 66.4447 64.4658 66.7545C63.9559 66.9869 63.554 67.4051 63.342 67.9238C63.1301 68.4425 63.124 69.0225 63.325 69.5455C63.5261 70.0685 63.9192 70.495 64.424 70.7381C64.9288 70.9812 65.5074 71.0225 66.0416 70.8535C67.2668 70.512 67.9181 69.2503 68.6878 68.18C68.8184 69.9293 68.6191 71.6875 68.1003 73.3631C67.408 75.3124 65.9824 77.1206 66.1418 79.1793C66.2147 80.0902 66.5973 81.0284 66.4379 81.9439C66.1555 83.3603 64.6161 84.1528 63.9147 85.4053C62.9537 87.0632 63.6141 89.2949 64.9759 90.6431C66.3377 91.9912 68.2369 92.6425 70.0906 93.1253C74.4858 94.273 79.4867 94.6374 83.2669 92.1187L93.8608 81.3153C94.3026 78.5963 94.3709 74.5837 91.9661 70.7852Z" fill="#263238"/>
<path d="M88.7961 219.15V219.669C88.7961 219.669 97.764 222.975 97.9052 224.656L80.2974 225.075L80.3976 219.209C81.7197 219.802 83.1541 220.104 84.6033 220.094C86.0525 220.084 87.4825 219.762 88.7961 219.15Z" fill="#B7EB8F"/>
<g opacity="0.6">
<path opacity="0.6" d="M82.2422 221.04C82.0774 221.099 81.94 221.216 81.8561 221.37C81.7721 221.524 81.7475 221.703 81.7867 221.873C81.8358 222.043 81.9483 222.187 82.1009 222.276C82.2536 222.365 82.4346 222.392 82.6065 222.351C82.7843 222.292 82.9337 222.169 83.0261 222.006C83.1186 221.842 83.1476 221.651 83.1075 221.468C83.0374 221.296 82.9034 221.157 82.7337 221.082C82.5639 221.006 82.3714 220.999 82.1966 221.063" fill="white"/>
</g>
<g opacity="0.6">
<path opacity="0.6" d="M80.3156 225.075V223.663L97.1674 223.777C97.1674 223.777 97.9599 224.1 97.8825 224.656L80.3156 225.075Z" fill="white"/>
</g>
<path d="M88.8735 219.719C88.8735 219.805 88.4454 219.856 88.031 220.138C87.6165 220.42 87.3979 220.794 87.3159 220.762C87.2339 220.73 87.3523 220.229 87.8624 219.892C88.3725 219.555 88.8918 219.637 88.8735 219.719Z" fill="#263238"/>
<path d="M90.741 220.439C90.7637 220.521 90.3948 220.675 90.1079 221.049C89.8209 221.422 89.7526 221.805 89.6524 221.8C89.5522 221.796 89.4976 221.318 89.8619 220.862C90.2263 220.407 90.7364 220.357 90.741 220.439Z" fill="#263238"/>
<path d="M91.8341 222.625C91.7566 222.625 91.6246 222.219 91.8341 221.741C92.0436 221.263 92.4444 221.067 92.4808 221.14C92.5172 221.213 92.2759 221.468 92.1073 221.86C91.9388 222.251 91.9252 222.616 91.8341 222.625Z" fill="#263238"/>
<path d="M69.5714 127.098L98.8435 133.747L98.2924 137.455L89.9165 203.537L84.1277 203.405L83.5311 208.282L74.3582 208.419C74.3582 208.419 72.9919 191.936 72.632 186.052C72.2722 180.167 72.0809 170.061 70.9787 163.812C69.8765 157.563 62.4845 138.98 69.5714 127.098Z" fill="#263238"/>
<path d="M89.3927 205.09C89.3244 205.609 88.0264 220.147 88.0264 220.147H81.3813L80.2153 205.149L89.3927 205.09Z" fill="#EB996E"/>
<path d="M83.5311 207.868C83.4674 208.387 82.1648 222.925 82.1648 222.925H75.5242L74.3583 207.927L83.5311 207.868Z" fill="#FFBE9D"/>
<path d="M90.9459 200.827L90.0851 205.518L83.6404 205.44L83.7816 200.904L90.9459 200.827Z" fill="#455A64"/>
<path d="M87.029 138.776C87.0343 138.832 87.0343 138.888 87.029 138.944C87.029 139.067 87.029 139.231 87.029 139.44C87.029 139.896 86.9926 140.534 86.9653 141.349C86.897 143.025 86.8013 145.421 86.6783 148.376C86.4142 154.32 86.0498 162.496 85.649 171.555C85.2482 180.614 84.8292 188.794 84.5468 194.737C84.3965 197.689 84.2735 200.084 84.187 201.76C84.1415 202.576 84.105 203.218 84.0777 203.669L84.0413 204.165C84.0459 204.221 84.0459 204.278 84.0413 204.334C84.0363 204.276 84.0363 204.218 84.0413 204.161C84.0413 204.038 84.0413 203.874 84.0413 203.664C84.0413 203.209 84.0777 202.576 84.105 201.756C84.1733 200.08 84.269 197.684 84.392 194.728C84.6561 188.784 85.0205 180.609 85.4213 171.55C85.8221 162.491 86.2411 154.316 86.5235 148.372C86.6738 145.421 86.7968 143.02 86.8833 141.349C86.9288 140.534 86.9653 139.891 86.9926 139.44C86.9926 139.231 87.0199 139.067 87.029 138.944C87.0238 138.888 87.0238 138.832 87.029 138.776Z" fill="#455A64"/>
<path d="M84.7836 205.09L83.9228 209.781H73.8208L73.1058 205.245L84.7836 205.09Z" fill="#455A64"/>
<path d="M75.506 220.757C75.506 220.757 80.1836 224.078 82.4472 221.213L83.0393 222.607L85.6991 232.526C85.7901 232.837 85.7643 233.17 85.6267 233.463C85.4891 233.755 85.2492 233.988 84.9522 234.116C84.7235 234.208 84.4731 234.233 84.2308 234.187C83.9885 234.141 83.7646 234.026 83.5858 233.856C81.6638 232.034 74.6179 225.262 74.6862 224.342L74.7135 221.91C74.7169 221.663 74.7936 221.422 74.9339 221.218C75.0741 221.015 75.2717 220.858 75.5015 220.766L75.506 220.757Z" fill="#B7EB8F"/>
<g opacity="0.6">
<path opacity="0.6" d="M84.7198 234.175L74.6998 223.486V224.032C74.6849 224.249 74.7179 224.467 74.7966 224.67C74.8754 224.873 74.9978 225.057 75.1552 225.207C75.9705 226.3 78.2159 228.751 83.5447 233.861C83.6962 234.008 83.8822 234.116 84.0859 234.173C84.2896 234.23 84.5044 234.236 84.7107 234.189L84.7198 234.175Z" fill="white"/>
</g>
<g opacity="0.6">
<path opacity="0.6" d="M76.1573 221.901C76.3115 222.014 76.4189 222.18 76.4592 222.367C76.4995 222.554 76.4698 222.749 76.3759 222.916C76.2689 223.075 76.105 223.188 75.9179 223.23C75.7307 223.272 75.5345 223.242 75.3693 223.144C75.2055 223.023 75.092 222.846 75.0508 222.647C75.0096 222.448 75.0436 222.24 75.1462 222.064C75.275 221.911 75.4582 221.813 75.6576 221.791C75.857 221.768 76.0572 221.824 76.2165 221.946" fill="white"/>
</g>
<path d="M81.814 228.7C81.8868 228.737 82.1647 228.076 82.9116 227.721C83.3709 227.537 83.8607 227.441 84.3554 227.439C84.3554 227.407 84.2097 227.311 83.8999 227.27C83.513 227.227 83.1219 227.299 82.775 227.475C82.4265 227.646 82.1341 227.913 81.9324 228.245C81.814 228.505 81.814 228.691 81.814 228.7Z" fill="#263238"/>
<path d="M82.7249 230.381C83.0823 230.173 83.4536 229.991 83.8362 229.835C84.2408 229.755 84.65 229.7 85.0614 229.671C85.0978 229.607 84.4921 229.343 83.7543 229.57C83.0164 229.798 82.6657 230.345 82.7249 230.381Z" fill="#263238"/>
<path d="M80.1562 226.555C80.2154 226.615 80.8303 225.977 81.8095 225.599C82.4173 225.398 83.0402 225.245 83.6723 225.143C83.6723 225.075 82.7614 224.902 81.7093 225.326C80.6572 225.749 80.0924 226.519 80.1562 226.555Z" fill="#263238"/>
<path d="M79.933 223.536C79.9649 223.609 80.6572 223.317 81.559 223.281C82.4608 223.244 83.1804 223.458 83.2077 223.381C83.2351 223.303 82.52 222.953 81.5499 223.003C80.5798 223.053 79.892 223.476 79.933 223.536Z" fill="#263238"/>
<path d="M82.0737 223.253C82.0858 223.098 82.0624 222.942 82.0054 222.798C81.8836 222.376 81.6793 221.983 81.4042 221.641C81.2238 221.377 80.9637 221.177 80.6618 221.072C80.5579 221.048 80.4493 221.056 80.3501 221.095C80.2509 221.134 80.1659 221.202 80.1061 221.29C80.0047 221.472 79.9724 221.684 80.015 221.887C80.1201 222.297 80.365 222.658 80.7075 222.908C81.05 223.157 81.4686 223.279 81.8915 223.253C82.3058 223.215 82.6997 223.056 83.0238 222.795C83.3479 222.534 83.5877 222.183 83.7133 221.787C83.7444 221.686 83.7536 221.58 83.7402 221.475C83.7269 221.371 83.6913 221.271 83.6359 221.181C83.5697 221.097 83.4788 221.035 83.3759 221.005C83.2731 220.975 83.1633 220.977 83.062 221.012C82.7706 221.137 82.5175 221.336 82.3287 221.591C82.0437 221.92 81.82 222.298 81.6683 222.707C81.5959 222.848 81.5584 223.004 81.559 223.162C81.7881 222.636 82.0952 222.148 82.4699 221.714C82.6439 221.502 82.8676 221.336 83.1212 221.231C83.176 221.21 83.2361 221.207 83.2927 221.222C83.3493 221.238 83.3994 221.271 83.4355 221.318C83.4669 221.379 83.4856 221.446 83.4903 221.515C83.495 221.584 83.4856 221.653 83.4628 221.718C83.3438 222.059 83.1294 222.358 82.8452 222.58C82.5609 222.802 82.2188 222.938 81.8596 222.971C81.5027 222.993 81.149 222.893 80.8561 222.688C80.5633 222.483 80.3486 222.184 80.2473 221.841C80.2142 221.701 80.2303 221.553 80.2929 221.422C80.3243 221.372 80.3706 221.333 80.4252 221.31C80.4798 221.287 80.5402 221.282 80.598 221.295C80.8505 221.381 81.0721 221.539 81.2356 221.75C81.604 222.196 81.888 222.706 82.0737 223.253Z" fill="#263238"/>
<path d="M129.55 86.6715C129.55 86.6715 132.005 83.1645 132.538 82.8685C133.071 82.5724 137.589 81.6797 137.935 81.8482C138.281 82.0168 143.314 83.7156 142.626 84.2348C141.939 84.754 138.432 83.5289 138.432 83.5289L137.912 83.6928C137.912 83.6928 140.95 84.6766 141.556 85.1594C142.162 85.6422 141.779 86.3117 141.219 86.1614C140.659 86.0111 138.031 85.0638 137.853 85.1503C137.676 85.2368 140.686 86.3436 140.987 86.5941C141.397 86.9311 141.319 87.7373 140.754 87.6097C140.422 87.5323 137.612 86.3163 137.612 86.3163C138.428 86.7727 139.218 87.2729 139.98 87.8147C140.276 88.2018 139.921 88.6618 139.434 88.4751C139.101 88.343 137.58 87.3046 137.134 87.1087C137.134 87.1087 136.678 87.1543 136.154 87.9695C135.631 88.7848 133.057 90.47 133.057 90.47L131.322 91.4948L128.407 87.4594L129.55 86.6715Z" fill="#FFBE9D"/>
<path d="M130.725 86.9129C130.881 87.0659 131.081 87.1663 131.296 87.1998C131.512 87.2333 131.733 87.1983 131.928 87.0996C132.329 86.9357 132.666 86.6442 133.057 86.4438C134.223 85.8699 135.713 86.2798 136.851 85.6513C137.011 85.5602 137.179 85.4053 137.124 85.2277C137.07 85.0501 136.879 85.0182 136.71 85L132.433 84.4352" fill="#FFBE9D"/>
<path d="M132.433 84.4352C132.584 84.4138 132.738 84.4138 132.889 84.4352L134.155 84.5673L136.031 84.7859L136.569 84.8542C136.68 84.8501 136.791 84.8682 136.895 84.9073C136.999 84.9464 137.094 85.0057 137.175 85.082C137.216 85.1415 137.238 85.2122 137.238 85.2846C137.238 85.3571 137.216 85.4278 137.175 85.4873C137.111 85.589 137.023 85.6735 136.919 85.7333C136.732 85.8349 136.536 85.9173 136.332 85.9792C135.57 86.1257 134.798 86.22 134.023 86.2616C133.7 86.3022 133.385 86.3912 133.089 86.5257C132.811 86.6533 132.574 86.8263 132.338 86.9812C132.156 87.1103 131.949 87.1984 131.731 87.2393C131.512 87.2802 131.287 87.273 131.071 87.218C130.766 87.1042 130.689 86.9174 130.703 86.922C130.821 87.0121 130.956 87.08 131.099 87.1224C131.3 87.156 131.506 87.1474 131.703 87.0972C131.901 87.0471 132.086 86.9564 132.247 86.8309C132.489 86.6661 132.74 86.5141 132.998 86.3754C133.311 86.2246 133.646 86.1232 133.991 86.0749C134.755 86.0204 135.515 85.9216 136.268 85.7788C136.453 85.723 136.632 85.6483 136.801 85.5556C136.956 85.4691 137.047 85.3279 136.979 85.2596C136.91 85.1913 136.724 85.1457 136.523 85.1229L135.981 85.0455L134.114 84.7723C133.586 84.6948 133.153 84.6219 132.857 84.5673C132.711 84.5407 132.569 84.4963 132.433 84.4352Z" fill="#EB996E"/>
<path d="M142.613 84.2485C142.295 84.3509 141.961 84.3896 141.629 84.3624C141.269 84.3547 140.911 84.3135 140.559 84.2394C140.167 84.1346 139.748 84.0026 139.302 83.8705L138.359 83.579H138.418C137.648 83.759 136.865 83.8762 136.077 83.9297C136.818 83.6716 137.58 83.4766 138.354 83.3467H138.382H138.413L139.352 83.6245L140.59 84.0071C140.929 84.091 141.273 84.1488 141.62 84.1802C142.235 84.2394 142.608 84.2075 142.613 84.2485Z" fill="#EB996E"/>
<path d="M92.1528 80.3726C92.1528 80.3726 97.6547 80.0765 100.419 81.4338C103.184 82.791 115.363 91.1668 115.363 91.1668L127.842 86.544L132.26 92.5332L121.439 100.413C120.163 101.275 118.692 101.804 117.159 101.95C115.626 102.095 114.081 101.853 112.667 101.246L98.6658 95.6849L92.1528 80.3726Z" fill="#B7EB8F"/>
<path d="M116.082 97.0467C115.9 96.8074 115.759 96.5397 115.663 96.2542C115.396 95.5777 115.22 94.8685 115.14 94.1455C115.061 93.4235 115.081 92.6941 115.199 91.9775C115.231 91.6768 115.311 91.3831 115.436 91.1076C115.311 92.1076 115.283 93.1174 115.354 94.1227C115.501 95.1187 115.745 96.098 116.082 97.0467Z" fill="#263238"/>
<g opacity="0.3">
<path opacity="0.3" d="M115.322 91.2488C114.807 91.7043 114.698 92.4467 114.657 93.1298C114.596 94.1504 114.622 95.1743 114.734 96.1905C114.764 96.7509 114.911 97.2988 115.167 97.7983C115.211 97.8927 115.275 97.9771 115.353 98.046C115.431 98.115 115.523 98.1671 115.623 98.1991C115.978 98.281 116.297 97.8985 116.306 97.5295C116.278 97.1663 116.164 96.8148 115.973 96.5048C115.21 94.973 114.987 93.2284 115.34 91.554" fill="black"/>
</g>
<path d="M72.7642 82.5542C72.4955 82.6453 69.5396 84.5673 67.2122 86.0976C66.4183 86.6208 65.836 87.4089 65.5691 88.3215C65.3022 89.234 65.368 90.2117 65.7547 91.0803L71.5299 104.061L73.5521 111.926L66.9981 129.152L67.4536 131.065L98.8481 133.747L100.378 130.14L98.5566 113.744V93.1572L93.5466 80.327L84.9203 80.4363L72.7642 82.5542Z" fill="#B7EB8F"/>
<g opacity="0.3">
<path opacity="0.3" d="M97.3359 81.2926C97.5276 81.2897 97.7159 81.343 97.8778 81.4457C98.0396 81.5485 98.1679 81.6963 98.2468 81.871C98.3997 82.2296 98.4787 82.6153 98.4791 83.0051C98.848 88.5798 98.634 95.3934 98.5474 101.119L98.9391 118.776C97.2631 115.652 97.1173 111.945 96.9625 108.429C96.8501 105.243 96.7332 102.055 96.6118 98.864C96.4159 93.5807 96.6755 88.2975 96.4797 83.0142C96.4706 82.3219 96.63 81.3791 97.3359 81.2926Z" fill="black"/>
</g>
<g opacity="0.3">
<path opacity="0.3" d="M69.8674 121.441C70.0359 120.885 70.4732 119.851 70.4732 119.851C72.0582 117.26 73.2651 112.979 73.0738 109.95C73.0738 109.95 72.3314 106.821 71.5298 103.888L70.6872 101.97L70.7419 101.998C72.1584 102.649 73.0192 104.589 73.2196 106.133C73.42 107.677 73.6067 109.444 74.7818 110.505C75.5515 111.207 76.6309 111.471 77.469 112.09C77.9591 112.457 78.3553 112.935 78.6253 113.484C78.8952 114.034 79.0312 114.639 79.0221 115.251C79.0221 115.761 78.9173 116.358 79.2862 116.718C79.7417 117.146 80.4294 116.923 80.9987 116.718C81.5681 116.513 82.3378 116.39 82.652 116.909C82.7447 117.122 82.7622 117.36 82.7018 117.584C82.6414 117.809 82.5066 118.006 82.3196 118.143C81.9379 118.406 81.5358 118.637 81.1172 118.836C80.1288 119.432 79.5641 120.525 78.7306 121.322C77.0773 122.917 74.595 123.194 72.3087 123.386C71.6346 123.445 70.8694 123.468 70.3912 122.989C70.1749 122.801 70.0126 122.558 69.9206 122.286C69.8286 122.014 69.8102 121.722 69.8674 121.441Z" fill="black"/>
</g>
<path d="M67.2395 133.898C67.2395 133.857 67.7997 134.021 68.697 134.166C69.868 134.35 71.0586 134.373 72.2358 134.235C73.414 134.09 74.5666 133.784 75.6609 133.324C76.4989 132.973 76.9908 132.686 77.0272 132.723C77.0637 132.759 76.9225 132.818 76.7038 132.959C76.397 133.154 76.0774 133.327 75.7474 133.479C73.5418 134.502 71.0677 134.797 68.6833 134.321C68.3264 134.252 67.9749 134.157 67.6312 134.039C67.4942 134.012 67.3621 133.964 67.2395 133.898Z" fill="#455A64"/>
<path d="M87.2795 116.854L87.1156 116.604C87.1156 116.604 88.072 117.916 87.6849 118.972C87.6299 119.128 87.5431 119.271 87.4298 119.391C87.4308 119.688 87.3543 119.979 87.2082 120.237C87.062 120.495 86.851 120.71 86.5962 120.861C86.3414 121.013 86.0515 121.095 85.7552 121.1C85.4589 121.105 85.1664 121.032 84.9066 120.89C84.7697 120.838 84.6523 120.745 84.5707 120.623C84.4891 120.502 84.4473 120.358 84.4512 120.211C84.4949 120.065 84.5748 119.932 84.6834 119.824C84.7366 119.763 84.7839 119.698 84.8246 119.628L83.6541 119.4C83.6541 119.4 80.8166 119.227 80.0515 117.711C79.9285 117.469 73.8436 117.948 73.8436 117.948L74.2991 111.084L84.483 112.45C84.483 112.45 91.6929 113.284 92.3943 113.279C92.5052 113.264 92.6181 113.276 92.7234 113.314C92.8287 113.352 92.9234 113.415 92.9993 113.497C93.0753 113.579 93.1303 113.678 93.1598 113.786C93.1892 113.894 93.1922 114.008 93.1686 114.117C93.1412 114.573 92.7905 114.764 92.0937 114.791C91.8569 114.791 87.5392 114.942 87.5392 114.942C87.9035 115.479 88.3681 116.344 87.7988 116.659L87.2795 116.854Z" fill="#FFBE9D"/>
<path d="M85.2117 117.665C85.2117 117.633 85.4075 117.629 85.7263 117.665C86.1492 117.7 86.5572 117.838 86.9151 118.066C87.102 118.182 87.2589 118.341 87.3728 118.529C87.4868 118.718 87.5547 118.93 87.5709 119.15C87.5709 119.492 87.4388 119.669 87.4161 119.656C87.3933 119.642 87.4525 119.455 87.4161 119.168C87.3817 118.982 87.3089 118.804 87.2022 118.648C87.0956 118.491 86.9575 118.358 86.7967 118.257C86.462 118.05 86.0935 117.904 85.7081 117.825C85.3939 117.752 85.2026 117.697 85.2117 117.665Z" fill="#EB996E"/>
<path d="M85.2982 115.52C85.2982 115.493 85.5351 115.488 85.8858 115.607C86.3496 115.763 86.7664 116.034 87.0973 116.394C87.427 116.753 87.6591 117.191 87.7713 117.665C87.8579 118.03 87.8351 118.262 87.8078 118.262C87.6262 117.64 87.3245 117.06 86.9196 116.554C86.4531 116.105 85.9019 115.754 85.2982 115.52Z" fill="#EB996E"/>
<path d="M86.1272 114.431C86.1272 114.368 86.5416 114.34 87.0017 114.523C87.4617 114.705 87.7531 114.978 87.7122 115.042C87.6712 115.106 87.3432 114.905 86.9151 114.741C86.487 114.577 86.1226 114.495 86.1272 114.431Z" fill="#EB996E"/>
<path d="M86.0543 119.993C85.9996 120.024 85.822 119.815 85.5214 119.719C85.2208 119.624 84.9521 119.683 84.9248 119.619C84.8974 119.555 85.198 119.364 85.5943 119.496C85.9905 119.628 86.1226 119.974 86.0543 119.993Z" fill="#EB996E"/>
<path d="M70.8376 101.752L67.9227 109.458L78.7853 111.107L78.2478 120.311L63.318 119.678C59.5833 119.523 56.4315 116.604 56.2676 112.846C56.2676 112.687 56.2676 112.523 56.2676 112.355C56.3268 109.622 61.1045 97.2153 63.2952 90.807C63.9846 88.87 65.3236 87.2316 67.0846 86.1705L70.8376 101.752Z" fill="#B7EB8F"/>
<path d="M78.2479 120.311C78.2301 120.078 78.2301 119.843 78.2479 119.61C78.2707 119.123 78.2935 118.471 78.3299 117.674C78.4165 115.994 78.5349 113.707 78.6715 111.102L78.7717 111.225L76.4944 110.897C73.3472 110.442 70.5052 110.014 68.4465 109.695L66.0144 109.303L65.354 109.185C65.2757 109.176 65.199 109.156 65.1263 109.125C65.2034 109.116 65.2814 109.116 65.3586 109.125L66.0281 109.198L68.4693 109.513C70.5371 109.79 73.3837 110.191 76.5263 110.651L78.8036 110.979H78.9083V111.084C78.7398 113.685 78.5895 115.971 78.4848 117.652C78.421 118.444 78.3709 119.095 78.3345 119.583C78.3302 119.828 78.3012 120.072 78.2479 120.311Z" fill="#263238"/>
<path d="M67.2987 89.9098C67.2987 89.9098 67.4216 89.9963 67.6129 90.1876C67.8825 90.4573 68.1335 90.7449 68.3644 91.0484C69.9135 93.0655 70.8012 95.5121 70.9059 98.0533C70.9336 98.4339 70.9336 98.8159 70.9059 99.1965C70.9048 99.3367 70.8849 99.4761 70.8467 99.611C70.8011 99.611 70.8467 99.0143 70.7601 98.0624C70.5665 95.5728 69.699 93.1828 68.2506 91.1486C67.6949 90.3698 67.2668 89.9371 67.2987 89.9098Z" fill="#263238"/>
<path d="M98.3789 93.8722C98.3432 93.4814 98.3432 93.088 98.3789 92.6972C98.4062 91.973 98.4381 90.971 98.4427 89.8688C98.4472 88.7666 98.4153 87.7646 98.3926 87.0404C98.3609 86.6494 98.3609 86.2564 98.3926 85.8653C98.4944 86.246 98.551 86.6374 98.5611 87.0313C98.6294 87.7555 98.6795 88.7575 98.6795 89.8688C98.6795 90.9801 98.6158 91.9821 98.5474 92.7063C98.5354 93.1 98.4789 93.4912 98.3789 93.8722Z" fill="#263238"/>
<path d="M73.6159 124.975C73.8715 125.051 74.1211 125.145 74.3629 125.258C74.8183 125.458 75.5243 125.736 76.376 126.068C78.6015 126.927 80.8732 127.662 83.1805 128.268C85.4902 128.865 87.8319 129.331 90.1945 129.662C91.1054 129.789 91.8386 129.88 92.3488 129.94C92.6137 129.959 92.877 129.997 93.1367 130.054C92.8709 130.069 92.6042 130.061 92.3396 130.031C91.825 130.003 91.0871 129.935 90.1717 129.83C87.7929 129.543 85.436 129.097 83.1167 128.496C80.7904 127.893 78.5078 127.132 76.2849 126.219C75.4377 125.868 74.7591 125.567 74.2945 125.34C74.0584 125.238 73.8314 125.116 73.6159 124.975Z" fill="#263238"/>
<path d="M93.3689 97.2608C93.3689 97.3509 93.3956 97.4389 93.4457 97.5138C93.4957 97.5887 93.5668 97.6471 93.6501 97.6816C93.7333 97.7161 93.8249 97.7251 93.9132 97.7075C94.0016 97.6899 94.0827 97.6466 94.1464 97.5829C94.2101 97.5192 94.2535 97.438 94.2711 97.3497C94.2886 97.2613 94.2796 97.1697 94.2451 97.0865C94.2107 97.0033 94.1523 96.9322 94.0774 96.8821C94.0025 96.8321 93.9144 96.8054 93.8244 96.8054C93.7036 96.8054 93.5877 96.8533 93.5023 96.9388C93.4169 97.0242 93.3689 97.14 93.3689 97.2608Z" fill="#263238"/>
<path d="M124.331 93.8722C124.331 93.9623 124.357 94.0503 124.407 94.1252C124.457 94.2001 124.529 94.2585 124.612 94.293C124.695 94.3275 124.787 94.3365 124.875 94.3189C124.963 94.3013 125.045 94.258 125.108 94.1943C125.172 94.1306 125.215 94.0494 125.233 93.9611C125.25 93.8727 125.241 93.7811 125.207 93.6979C125.172 93.6147 125.114 93.5436 125.039 93.4935C124.964 93.4435 124.876 93.4168 124.786 93.4168C124.665 93.4168 124.55 93.4647 124.464 93.5502C124.379 93.6356 124.331 93.7514 124.331 93.8722Z" fill="#263238"/>
<path d="M109.952 92.1643C109.931 92.2324 109.926 92.3046 109.938 92.375C109.95 92.4454 109.978 92.512 110.02 92.5695C110.063 92.6269 110.118 92.6736 110.182 92.7058C110.245 92.738 110.316 92.7548 110.387 92.7548C110.458 92.7548 110.529 92.738 110.592 92.7058C110.656 92.6736 110.711 92.6269 110.754 92.5695C110.796 92.512 110.824 92.4454 110.836 92.375C110.848 92.3046 110.843 92.2324 110.822 92.1643C110.793 92.0714 110.735 91.9903 110.657 91.9326C110.579 91.875 110.484 91.8439 110.387 91.8439C110.29 91.8439 110.195 91.875 110.117 91.9326C110.039 91.9903 109.981 92.0714 109.952 92.1643Z" fill="#263238"/>
<path d="M102.487 85.8653C102.487 85.9554 102.514 86.0435 102.564 86.1184C102.614 86.1933 102.685 86.2516 102.768 86.2861C102.851 86.3206 102.943 86.3296 103.031 86.312C103.12 86.2945 103.201 86.2511 103.265 86.1874C103.328 86.1237 103.372 86.0425 103.389 85.9542C103.407 85.8658 103.398 85.7743 103.363 85.691C103.329 85.6078 103.27 85.5367 103.196 85.4866C103.121 85.4366 103.033 85.4099 102.943 85.4099C102.822 85.4099 102.706 85.4579 102.62 85.5433C102.535 85.6287 102.487 85.7445 102.487 85.8653Z" fill="#263238"/>
<path d="M92.3442 103.874C92.3442 103.964 92.3709 104.052 92.4209 104.127C92.471 104.202 92.5421 104.26 92.6253 104.295C92.7086 104.329 92.8001 104.338 92.8885 104.321C92.9768 104.303 93.058 104.26 93.1217 104.196C93.1854 104.132 93.2288 104.051 93.2463 103.963C93.2639 103.875 93.2549 103.783 93.2204 103.7C93.1859 103.617 93.1276 103.545 93.0527 103.495C92.9778 103.445 92.8897 103.419 92.7996 103.419C92.6788 103.419 92.563 103.467 92.4776 103.552C92.3922 103.637 92.3442 103.753 92.3442 103.874Z" fill="#263238"/>
<path d="M118.615 92.6015C118.615 92.6916 118.642 92.7797 118.692 92.8546C118.742 92.9295 118.813 92.9878 118.896 93.0223C118.979 93.0568 119.071 93.0658 119.159 93.0482C119.247 93.0306 119.329 92.9873 119.392 92.9236C119.456 92.8599 119.499 92.7787 119.517 92.6904C119.535 92.602 119.526 92.5104 119.491 92.4272C119.457 92.344 119.398 92.2729 119.323 92.2228C119.248 92.1728 119.16 92.1461 119.07 92.1461C118.949 92.1461 118.834 92.1941 118.748 92.2795C118.663 92.3649 118.615 92.4807 118.615 92.6015Z" fill="#263238"/>
<path d="M112.207 99.611C112.185 99.6791 112.181 99.7513 112.192 99.8217C112.204 99.8921 112.233 99.9587 112.275 100.016C112.317 100.074 112.372 100.12 112.436 100.153C112.5 100.185 112.57 100.201 112.642 100.201C112.713 100.201 112.783 100.185 112.847 100.153C112.911 100.12 112.966 100.074 113.008 100.016C113.051 99.9587 113.079 99.8921 113.091 99.8217C113.103 99.7513 113.098 99.6791 113.077 99.611C113.048 99.5181 112.99 99.437 112.912 99.3793C112.833 99.3217 112.739 99.2906 112.642 99.2906C112.544 99.2906 112.45 99.3217 112.371 99.3793C112.293 99.437 112.235 99.5181 112.207 99.611Z" fill="#263238"/>
<path d="M83.5767 98.741C83.5767 98.8311 83.6034 98.9192 83.6534 98.9941C83.7035 99.069 83.7746 99.1274 83.8578 99.1618C83.941 99.1963 84.0326 99.2053 84.121 99.1878C84.2093 99.1702 84.2905 99.1268 84.3542 99.0631C84.4179 98.9994 84.4612 98.9182 84.4788 98.8299C84.4964 98.7415 84.4874 98.65 84.4529 98.5667C84.4184 98.4835 84.3601 98.4124 84.2852 98.3624C84.2103 98.3123 84.1222 98.2856 84.0321 98.2856C83.9113 98.2856 83.7955 98.3336 83.7101 98.419C83.6246 98.5044 83.5767 98.6203 83.5767 98.741Z" fill="#263238"/>
<path d="M81.8504 92.6015C82.0919 92.6015 82.2876 92.4058 82.2876 92.1643C82.2876 91.9228 82.0919 91.727 81.8504 91.727C81.6089 91.727 81.4131 91.9228 81.4131 92.1643C81.4131 92.4058 81.6089 92.6015 81.8504 92.6015Z" fill="#263238"/>
<path d="M89.6205 89.427C89.6205 89.5171 89.6473 89.6051 89.6973 89.68C89.7473 89.7549 89.8185 89.8133 89.9017 89.8478C89.9849 89.8823 90.0765 89.8913 90.1649 89.8737C90.2532 89.8561 90.3344 89.8128 90.3981 89.7491C90.4618 89.6854 90.5051 89.6042 90.5227 89.5159C90.5403 89.4275 90.5313 89.3359 90.4968 89.2527C90.4623 89.1695 90.4039 89.0984 90.329 89.0483C90.2541 88.9983 90.1661 88.9716 90.076 88.9716C89.9552 88.9716 89.8394 89.0195 89.7539 89.105C89.6685 89.1904 89.6205 89.3062 89.6205 89.427Z" fill="#263238"/>
<path d="M104.131 92.6015C104.131 92.6916 104.158 92.7797 104.208 92.8546C104.258 92.9295 104.329 92.9878 104.412 93.0223C104.496 93.0568 104.587 93.0658 104.676 93.0482C104.764 93.0306 104.845 92.9873 104.909 92.9236C104.972 92.8599 105.016 92.7787 105.033 92.6904C105.051 92.602 105.042 92.5104 105.008 92.4272C104.973 92.344 104.915 92.2729 104.84 92.2228C104.765 92.1728 104.677 92.1461 104.587 92.1461C104.466 92.1461 104.35 92.1941 104.265 92.2795C104.179 92.3649 104.131 92.4807 104.131 92.6015Z" fill="#263238"/>
<path d="M91.7156 84.1255C91.9571 84.1255 92.1529 83.9297 92.1529 83.6883C92.1529 83.4468 91.9571 83.251 91.7156 83.251C91.4741 83.251 91.2784 83.4468 91.2784 83.6883C91.2784 83.9297 91.4741 84.1255 91.7156 84.1255Z" fill="#263238"/>
<path d="M76.1573 94.3095C76.3988 94.3095 76.5946 94.1137 76.5946 93.8722C76.5946 93.6308 76.3988 93.435 76.1573 93.435C75.9159 93.435 75.7201 93.6308 75.7201 93.8722C75.7201 94.1137 75.9159 94.3095 76.1573 94.3095Z" fill="#263238"/>
<path d="M83.5767 107.071C83.5767 107.161 83.6034 107.249 83.6534 107.324C83.7035 107.399 83.7746 107.458 83.8578 107.492C83.941 107.527 84.0326 107.536 84.121 107.518C84.2093 107.5 84.2905 107.457 84.3542 107.393C84.4179 107.33 84.4612 107.249 84.4788 107.16C84.4964 107.072 84.4874 106.98 84.4529 106.897C84.4184 106.814 84.3601 106.743 84.2852 106.693C84.2103 106.643 84.1222 106.616 84.0321 106.616C83.9113 106.616 83.7955 106.664 83.7101 106.749C83.6246 106.835 83.5767 106.951 83.5767 107.071Z" fill="#263238"/>
<path d="M96.0379 129.958C96.2794 129.958 96.4751 129.762 96.4751 129.521C96.4751 129.279 96.2794 129.083 96.0379 129.083C95.7964 129.083 95.6006 129.279 95.6006 129.521C95.6006 129.762 95.7964 129.958 96.0379 129.958Z" fill="#263238"/>
<path d="M84.4511 124.306C84.6926 124.306 84.8884 124.11 84.8884 123.868C84.8884 123.627 84.6926 123.431 84.4511 123.431C84.2097 123.431 84.0139 123.627 84.0139 123.868C84.0139 124.11 84.2097 124.306 84.4511 124.306Z" fill="#263238"/>
<path d="M71.5253 128.719C71.5253 128.809 71.552 128.897 71.6021 128.972C71.6521 129.047 71.7233 129.105 71.8065 129.14C71.8897 129.174 71.9813 129.183 72.0696 129.166C72.158 129.148 72.2391 129.105 72.3028 129.041C72.3665 128.977 72.4099 128.896 72.4275 128.808C72.4451 128.72 72.436 128.628 72.4016 128.545C72.3671 128.462 72.3087 128.39 72.2338 128.34C72.1589 128.29 72.0709 128.264 71.9808 128.264C71.86 128.264 71.7441 128.312 71.6587 128.397C71.5733 128.482 71.5253 128.598 71.5253 128.719Z" fill="#263238"/>
<path d="M87.5482 119.587C87.5482 119.677 87.5749 119.765 87.625 119.84C87.675 119.915 87.7462 119.974 87.8294 120.008C87.9126 120.042 88.0042 120.051 88.0925 120.034C88.1809 120.016 88.262 119.973 88.3257 119.909C88.3894 119.846 88.4328 119.764 88.4504 119.676C88.468 119.588 88.4589 119.496 88.4245 119.413C88.39 119.33 88.3316 119.259 88.2567 119.209C88.1818 119.158 88.0938 119.132 88.0037 119.132C87.8829 119.132 87.767 119.18 87.6816 119.265C87.5962 119.351 87.5482 119.466 87.5482 119.587Z" fill="#263238"/>
<path d="M64.8757 93.3485C65.1172 93.3485 65.3129 93.1527 65.3129 92.9112C65.3129 92.6698 65.1172 92.474 64.8757 92.474C64.6342 92.474 64.4385 92.6698 64.4385 92.9112C64.4385 93.1527 64.6342 93.3485 64.8757 93.3485Z" fill="#263238"/>
<path d="M64.4385 114.723C64.4385 114.813 64.4652 114.901 64.5152 114.976C64.5653 115.051 64.6364 115.109 64.7196 115.144C64.8029 115.178 64.8944 115.187 64.9828 115.17C65.0711 115.152 65.1523 115.109 65.216 115.045C65.2797 114.981 65.3231 114.9 65.3406 114.812C65.3582 114.723 65.3492 114.632 65.3147 114.549C65.2802 114.465 65.2219 114.394 65.147 114.344C65.0721 114.294 64.984 114.267 64.8939 114.267C64.7731 114.267 64.6573 114.315 64.5719 114.401C64.4865 114.486 64.4385 114.602 64.4385 114.723Z" fill="#263238"/>
<path d="M71.5253 117.36C71.5253 117.45 71.552 117.538 71.6021 117.613C71.6521 117.688 71.7233 117.746 71.8065 117.781C71.8897 117.815 71.9813 117.824 72.0696 117.807C72.158 117.789 72.2391 117.746 72.3028 117.682C72.3665 117.618 72.4099 117.537 72.4275 117.449C72.4451 117.361 72.436 117.269 72.4016 117.186C72.3671 117.103 72.3087 117.031 72.2338 116.981C72.1589 116.931 72.0709 116.905 71.9808 116.905C71.86 116.905 71.7441 116.953 71.6587 117.038C71.5733 117.123 71.5253 117.239 71.5253 117.36Z" fill="#263238"/>
<path d="M75.2874 112.327C75.3162 112.42 75.374 112.501 75.4523 112.559C75.5305 112.617 75.6252 112.648 75.7224 112.648C75.8196 112.648 75.9142 112.617 75.9925 112.559C76.0707 112.501 76.1285 112.42 76.1573 112.327C76.1785 112.259 76.1833 112.187 76.1715 112.117C76.1596 112.046 76.1314 111.98 76.0891 111.922C76.0468 111.865 75.9915 111.818 75.9278 111.786C75.8641 111.753 75.7937 111.737 75.7224 111.737C75.651 111.737 75.5806 111.753 75.5169 111.786C75.4532 111.818 75.398 111.865 75.3556 111.922C75.3133 111.98 75.2851 112.046 75.2732 112.117C75.2614 112.187 75.2662 112.259 75.2874 112.327Z" fill="#263238"/>
<path d="M66.8205 98.741C66.8205 98.8311 66.8472 98.9192 66.8973 98.9941C66.9473 99.069 67.0184 99.1274 67.1017 99.1618C67.1849 99.1963 67.2765 99.2053 67.3648 99.1878C67.4532 99.1702 67.5343 99.1268 67.598 99.0631C67.6617 98.9994 67.7051 98.9182 67.7227 98.8299C67.7402 98.7415 67.7312 98.65 67.6967 98.5667C67.6623 98.4835 67.6039 98.4124 67.529 98.3624C67.4541 98.3123 67.366 98.2856 67.276 98.2856C67.1552 98.2856 67.0393 98.3336 66.9539 98.419C66.8685 98.5044 66.8205 98.6203 66.8205 98.741Z" fill="#263238"/>
<path d="M96.0379 122.525C96.2794 122.525 96.4751 122.329 96.4751 122.088C96.4751 121.846 96.2794 121.65 96.0379 121.65C95.7964 121.65 95.6006 121.846 95.6006 122.088C95.6006 122.329 95.7964 122.525 96.0379 122.525Z" fill="#263238"/>
<path d="M61.3232 105.541C61.5646 105.541 61.7604 105.345 61.7604 105.104C61.7604 104.862 61.5646 104.667 61.3232 104.667C61.0817 104.667 60.8859 104.862 60.8859 105.104C60.8859 105.345 61.0817 105.541 61.3232 105.541Z" fill="#263238"/>
<path d="M58.5586 112.327C58.5586 112.417 58.5853 112.505 58.6353 112.58C58.6854 112.655 58.7565 112.714 58.8398 112.748C58.923 112.783 59.0146 112.792 59.1029 112.774C59.1913 112.756 59.2724 112.713 59.3361 112.649C59.3998 112.586 59.4432 112.504 59.4607 112.416C59.4783 112.328 59.4693 112.236 59.4348 112.153C59.4004 112.07 59.342 111.999 59.2671 111.949C59.1922 111.899 59.1041 111.872 59.014 111.872C58.8933 111.872 58.7774 111.92 58.692 112.005C58.6066 112.091 58.5586 112.206 58.5586 112.327Z" fill="#263238"/>
<path d="M75.2874 101.556C75.3162 101.649 75.374 101.73 75.4523 101.787C75.5305 101.845 75.6252 101.876 75.7224 101.876C75.8196 101.876 75.9142 101.845 75.9925 101.787C76.0707 101.73 76.1285 101.649 76.1573 101.556C76.1785 101.488 76.1833 101.415 76.1715 101.345C76.1596 101.275 76.1314 101.208 76.0891 101.151C76.0468 101.093 75.9915 101.046 75.9278 101.014C75.8641 100.982 75.7937 100.965 75.7224 100.965C75.651 100.965 75.5806 100.982 75.5169 101.014C75.4532 101.046 75.398 101.093 75.3556 101.151C75.3133 101.208 75.2851 101.275 75.2732 101.345C75.2614 101.415 75.2662 101.488 75.2874 101.556Z" fill="#263238"/>
<g opacity="0.3">
<path opacity="0.3" d="M77.674 85.2322C77.4053 84.3942 77.0364 84.2257 76.2393 83.8431C75.252 83.3571 74.3217 82.7629 73.4656 82.0714L69.5168 84.5809C69.0613 86.2616 69.0204 88.2246 69.8265 89.7412C70.6327 91.2579 72.3725 92.3874 74.085 92.1187C75.1816 91.9079 76.1533 91.2791 76.795 90.3652C77.4297 89.4588 77.8601 88.4254 78.0566 87.3364C78.1932 86.7671 77.8471 85.7833 77.674 85.2322Z" fill="black"/>
</g>
<path d="M89.1013 61.5942C88.6048 58.62 86.2456 55.154 83.2942 55.778L74.2307 59.0892C73.8018 59.1835 73.4236 59.4349 73.1708 59.794C72.9179 60.153 72.8086 60.5938 72.8643 61.0294L76.1709 83.374H76.1072C76.1072 83.374 78.8627 89.4908 84.8246 86.9402C86.0042 86.4301 86.4278 85.041 86.5325 83.6427H86.5963C86.5963 83.4788 86.569 83.3285 86.5553 83.1873C86.571 82.1526 86.4778 81.1191 86.2775 80.1038C86.1135 78.282 86.0361 77.5442 86.0406 77.5624C86.0452 77.5806 89.7981 76.5331 90.076 71.4639C90.1716 68.9498 89.6296 64.8962 89.1013 61.5942Z" fill="#FFBE9D"/>
<path d="M88.1495 65.1194C88.1676 65.2856 88.1202 65.4524 88.0173 65.5842C87.9144 65.7161 87.7641 65.8026 87.5984 65.8253C87.5178 65.8396 87.4352 65.8377 87.3555 65.8197C87.2757 65.8017 87.2003 65.768 87.1337 65.7205C87.0671 65.673 87.0106 65.6127 86.9676 65.5431C86.9247 65.4735 86.896 65.396 86.8833 65.3152C86.8639 65.1494 86.9102 64.9826 87.0124 64.8506C87.1146 64.7186 87.2645 64.632 87.4299 64.6092C87.5107 64.5943 87.5938 64.5956 87.6741 64.6133C87.7544 64.631 87.8304 64.6646 87.8975 64.7122C87.9646 64.7598 88.0215 64.8203 88.0647 64.8902C88.108 64.9602 88.1368 65.0381 88.1495 65.1194Z" fill="#263238"/>
<path d="M88.4136 63.7986C88.3453 63.8896 87.8215 63.5845 87.1338 63.6574C86.446 63.7302 85.9769 64.1128 85.8949 64.0491C85.8129 63.9853 85.8949 63.8532 86.1227 63.671C86.398 63.4343 86.7403 63.2894 87.1019 63.2566C87.461 63.2183 87.8229 63.2949 88.1358 63.4752C88.3635 63.6164 88.45 63.7576 88.4136 63.7986Z" fill="#263238"/>
<path d="M81.6637 65.9255C81.682 66.0923 81.6347 66.2597 81.5319 66.3922C81.429 66.5248 81.2787 66.6122 81.1126 66.636C81.0321 66.6504 80.9495 66.6485 80.8697 66.6305C80.7899 66.6125 80.7145 66.5787 80.6479 66.5312C80.5813 66.4837 80.5249 66.4234 80.4819 66.3538C80.4389 66.2842 80.4102 66.2067 80.3976 66.1259C80.3781 65.9596 80.4243 65.7923 80.5264 65.6595C80.6285 65.5268 80.7784 65.4392 80.9441 65.4154C81.025 65.4004 81.108 65.4018 81.1884 65.4195C81.2687 65.4372 81.3446 65.4708 81.4117 65.5184C81.4788 65.5659 81.5357 65.6265 81.579 65.6964C81.6223 65.7663 81.6511 65.8443 81.6637 65.9255Z" fill="#263238"/>
<path d="M81.6638 64.6229C81.5909 64.714 81.0717 64.4089 80.3839 64.4817C79.6962 64.5546 79.2271 64.9372 79.1406 64.8734C79.054 64.8097 79.1679 64.6821 79.3683 64.4954C79.6464 64.2604 79.9896 64.1158 80.3521 64.0809C80.7097 64.0424 81.0703 64.119 81.3814 64.2995C81.6091 64.4407 81.6957 64.5819 81.6638 64.6229Z" fill="#263238"/>
<path d="M84.6834 69.4735C85.034 69.3204 85.403 69.2133 85.7811 69.1547C85.9541 69.1183 86.1181 69.0682 86.1363 68.9452C86.1314 68.7616 86.071 68.5838 85.9632 68.4351C85.7568 68.0252 85.5381 67.597 85.3074 67.1507C84.3965 65.3289 83.7042 63.8077 83.7816 63.7712C83.859 63.7348 84.6606 65.1877 85.5761 67.0186C85.7993 67.4741 86.0316 67.9022 86.2137 68.3121C86.3452 68.5141 86.4016 68.7559 86.3731 68.9953C86.3536 69.0592 86.3202 69.1181 86.2753 69.1677C86.2305 69.2173 86.1752 69.2564 86.1135 69.2822C86.0177 69.3167 85.9184 69.3412 85.8175 69.3551C85.4457 69.4409 85.0649 69.4807 84.6834 69.4735Z" fill="#263238"/>
<path d="M85.9996 77.5669C83.6547 77.8436 81.2789 77.4653 79.1359 76.4738C79.1359 76.4738 81.108 79.7303 86.0543 78.7511L85.9996 77.5669Z" fill="#EB996E"/>
<path d="M84.5467 71.1587C84.3989 71.0078 84.2153 70.8969 84.0129 70.8364C83.8106 70.7758 83.5962 70.7676 83.3898 70.8125C83.2392 70.843 83.096 70.9029 82.9686 70.9889C82.8412 71.0749 82.7321 71.1852 82.6475 71.3135C82.567 71.4374 82.5268 71.5832 82.5325 71.7308C82.5382 71.8784 82.5895 72.0206 82.6793 72.1379C82.8006 72.2482 82.9519 72.3201 83.1141 72.3444C83.2762 72.3687 83.4419 72.3444 83.5902 72.2746C83.9027 72.1256 84.1828 71.9167 84.4146 71.6597C84.4874 71.5972 84.5477 71.5215 84.5922 71.4365C84.6132 71.396 84.6218 71.3502 84.617 71.3049C84.6121 71.2595 84.594 71.2166 84.5649 71.1815" fill="#EB996E"/>
<path d="M82.725 70.1567C82.8343 70.1567 82.9117 70.8854 83.6085 71.35C84.3054 71.8146 85.0888 71.6506 85.1024 71.7554C85.1161 71.8601 84.943 71.9148 84.606 71.9603C84.1695 72.0126 83.7287 71.9076 83.3626 71.6643C83.0087 71.4316 82.7589 71.0708 82.6657 70.6577C82.5929 70.3526 82.6566 70.1567 82.725 70.1567Z" fill="#263238"/>
<path d="M81.8459 63.3887C81.8003 63.5799 81.1035 63.5663 80.3064 63.7439C79.5094 63.9215 78.8763 64.1994 78.7533 64.0536C78.6987 63.9807 78.7943 63.794 79.0357 63.5982C79.3622 63.336 79.7462 63.155 80.1561 63.0698C80.5636 62.975 80.9875 62.975 81.395 63.0698C81.7047 63.1655 81.8687 63.2976 81.8459 63.3887Z" fill="#263238"/>
<path d="M87.9581 61.8356C87.8488 62.0041 87.3615 61.8902 86.7876 61.9403C86.2137 61.9904 85.7491 62.1544 85.6171 62.0041C85.5624 61.9267 85.6171 61.7627 85.8175 61.5942C86.077 61.3843 86.3953 61.2602 86.7284 61.2389C87.0636 61.2112 87.3992 61.2876 87.6894 61.4575C87.9171 61.5987 88.0036 61.7536 87.9581 61.8356Z" fill="#263238"/>
<path d="M84.4147 54.5118C85.7883 54.7159 87.0497 55.3872 87.9863 56.4125C88.9229 57.4379 89.4775 58.7548 89.5567 60.1413L86.7238 60.2824L86.1363 58.8068C86.4824 59.7177 85.8266 60.7834 84.9475 61.2298C84.0685 61.6761 83.0346 61.6852 82.0463 61.6488L81.8641 60.3826C81.8168 60.8103 81.6558 61.2175 81.3979 61.5619C81.14 61.9063 80.7946 62.1753 80.3975 62.3411C79.6016 62.6622 78.755 62.8396 77.8971 62.8649C77.0378 62.8861 76.1899 63.0668 75.3967 63.3978C75.0661 62.6076 74.9316 61.7493 75.0046 60.896C75.0776 60.0426 75.3558 59.2196 75.8157 58.4971C76.7608 57.0553 78.1601 55.9701 79.7918 55.4136C81.4159 54.8668 83.1256 54.6184 84.8382 54.6804" fill="#263238"/>
<path d="M70.3275 85.1184C70.6008 83.6609 71.0927 82.1944 70.8695 80.7323C70.66 79.366 69.863 77.9996 70.3731 76.7426C70.5471 76.3684 70.8178 76.0474 71.1573 75.8128C71.4967 75.5783 71.8927 75.4385 72.3042 75.4081C70.3913 72.2837 70.0998 68.3303 70.2365 64.6184C70.2395 63.4114 70.405 62.2104 70.7283 61.0476C71.0613 59.8778 71.7886 58.8592 72.787 58.1646C73.2883 57.8272 73.872 57.6329 74.4755 57.6024C75.0789 57.5719 75.6793 57.7064 76.212 57.9915L76.9999 58.0553C77.6638 59.9553 77.5708 62.038 76.7403 63.8714C76.4352 64.5409 76.0253 65.1968 75.9797 65.9301C75.8932 67.4968 77.4736 68.7584 77.4736 70.3207C77.4736 71.5549 76.9134 72.7255 76.3487 73.8231C75.9888 74.5154 75.8568 74.9207 76.4716 75.7315C76.8405 76.2188 79.5232 82.8457 77.5055 86.5531C77.241 87.8424 76.4951 88.9825 75.4195 89.7412C74.0532 90.6066 72.1038 90.5428 71.0335 89.3587C70.0406 88.2474 70.0497 86.5758 70.3275 85.1184Z" fill="#263238"/>
<path d="M43.647 40.2743C43.647 40.2743 43.647 40.3517 43.647 40.4884C43.647 40.625 43.647 40.8436 43.647 41.0941C43.647 41.6361 43.647 42.3967 43.6743 43.3714C43.6743 45.3253 43.7017 48.0762 43.7244 51.3737L43.6242 51.269H54.7009C54.7282 51.2417 54.4777 51.4922 54.5825 51.3828V48.3632C54.5825 47.3885 54.5825 46.4321 54.5825 45.5029C54.5825 43.6401 54.5825 41.8866 54.5825 40.2743L54.6872 40.3791L46.7441 40.3244L44.4668 40.2971H43.8656H43.6516C43.7151 40.2894 43.7793 40.2894 43.8428 40.2971H44.4258L46.6621 40.2698L54.7282 40.2197H54.8284V40.3244C54.8284 41.9367 54.8284 43.6902 54.8284 45.553C54.8284 46.4639 54.8284 47.4386 54.8284 48.4133V51.4011C54.9332 51.2963 54.6827 51.5468 54.71 51.524H43.6333H43.5559V51.4238C43.5787 48.099 43.5969 45.3253 43.606 43.3577C43.606 42.4104 43.6288 41.6543 43.6333 41.1169C43.6333 40.8755 43.6333 40.6842 43.6333 40.5339C43.6261 40.4472 43.6307 40.3598 43.647 40.2743Z" fill="#263238"/>
<path d="M57.0327 37.8012C57.1876 37.9241 54.7554 41.1078 51.6583 44.9108L49.791 47.1517L49.5678 47.4204L49.3082 47.1926C46.6984 44.8744 44.8994 43.1436 44.9996 43.0298C45.0998 42.9159 47.0765 44.4417 49.75 46.6734L49.2945 46.7144L51.1163 44.4371C54.2271 40.6569 56.8824 37.6736 57.0327 37.8012Z" fill="#B7EB8F"/>
<path d="M49.3857 30.0083C49.2949 29.9972 49.2032 29.9972 49.1124 30.0083H48.2972C48.1195 30.0083 47.9191 30.0083 47.7005 30.0357L46.9855 30.1359L46.152 30.2543L45.2411 30.4866C43.6354 30.8909 42.1073 31.5572 40.7184 32.4587C38.8675 33.6436 37.2775 35.1933 36.0454 37.0132C34.5652 39.2395 33.6535 41.7949 33.3901 44.4554C33.3269 45.1823 33.3117 45.9126 33.3446 46.6415C33.3719 47.0105 33.3446 47.3839 33.4175 47.7574C33.4903 48.1309 33.5313 48.5043 33.5905 48.8824C33.8747 50.4321 34.3858 51.9315 35.1072 53.3322C35.8697 54.7989 36.8408 56.1474 37.9902 57.3356C39.226 58.5502 40.6426 59.5657 42.1895 60.3462C43.7871 61.162 45.515 61.6922 47.2952 61.9129C47.7476 61.9808 48.2041 62.0189 48.6615 62.0268C49.1161 62.0607 49.5723 62.0698 50.0279 62.0541C50.9469 62.0129 51.861 61.8956 52.7606 61.7034C54.7172 61.28 56.5781 60.497 58.2488 59.3943H58.0803L63.6688 61.6351L64.0012 61.7672L63.9056 61.4256C63.3408 59.3761 62.7928 57.3842 62.2614 55.45L62.2341 55.6003C63.7515 53.5891 64.7735 51.2486 65.2173 48.7685C65.4314 47.6157 65.5048 46.4411 65.4359 45.2706C65.4225 44.7073 65.3692 44.1457 65.2765 43.59C65.2355 43.3122 65.19 43.0434 65.149 42.7702C65.108 42.4969 65.0169 42.2418 64.9531 41.9777C64.0167 38.3157 61.8123 35.1043 58.7316 32.9141C57.5906 32.0932 56.3414 31.4342 55.0197 30.9557L54.1862 30.6551L53.3937 30.4638L52.665 30.2816C52.4327 30.2406 52.2095 30.2133 52 30.1814C51.5764 30.1267 51.203 30.0539 50.8796 30.0402L50.0598 30.0083H49.5542C49.4983 30.0015 49.4417 30.0015 49.3857 30.0083C49.4413 30.0195 49.4976 30.0272 49.5542 30.0311L50.0552 30.0675L50.8705 30.1267C51.1939 30.1267 51.5628 30.2315 51.9818 30.2953C55.0136 30.8189 57.8282 32.2115 60.0839 34.3039C62.3396 36.3962 63.9393 39.0984 64.689 42.0824C64.7482 42.3375 64.8302 42.5971 64.8757 42.8613L64.9987 43.6629C65.0866 44.2083 65.1353 44.7592 65.1444 45.3116C65.2082 46.4598 65.1317 47.6115 64.9167 48.7412C64.4731 51.1682 63.4653 53.4569 61.9745 55.4227L61.9244 55.4865V55.5684C62.4527 57.4996 62.9962 59.4929 63.5549 61.5486L63.7917 61.3345L58.2079 59.0846L58.1213 59.0527L58.0393 59.1028C56.4091 60.1908 54.5892 60.9632 52.6741 61.38C51.7882 61.5705 50.8877 61.6847 49.9823 61.7216C49.5273 61.7474 49.0711 61.7474 48.616 61.7216C48.1706 61.7135 47.7263 61.6755 47.2861 61.6078C45.5394 61.3974 43.8435 60.8809 42.2761 60.082C40.7678 59.3195 39.3854 58.3303 38.177 57.1489C37.0434 55.9892 36.0818 54.6733 35.3213 53.2411C34.6109 51.8706 34.1046 50.4038 33.8183 48.8869C33.7636 48.5135 33.7044 48.1491 33.6497 47.7847C33.5951 47.4204 33.5996 47.0469 33.5723 46.6871C33.5387 45.972 33.5509 45.2554 33.6087 44.5419C33.8213 42.138 34.5821 39.8148 35.8327 37.7509C37.0834 35.687 38.7906 33.9373 40.8232 32.6363C42.1892 31.7337 43.6917 31.057 45.2729 30.6323L46.1839 30.3864L47.0128 30.2497L47.7187 30.1313C47.9374 30.1085 48.1378 30.104 48.3154 30.0903L49.1215 30.0311C49.2099 30.0282 49.2981 30.0206 49.3857 30.0083Z" fill="#455A64"/>
<path d="M196.953 57.6454C198.269 59.8985 203.067 63.2216 203.067 63.2216C203.067 63.2216 204.291 59.3922 204.312 59.1738C204.9 56.2856 204.174 50.3083 201.24 48.7304C200.747 48.4875 200.208 48.3502 199.659 48.3273C199.109 48.3044 198.561 48.3963 198.049 48.5972C197.537 48.7981 197.073 49.1036 196.686 49.4942C196.298 49.8847 195.997 50.3518 195.8 50.8654C194.891 52.9664 195.83 55.7443 196.953 57.6454Z" fill="#B7EB8F"/>
<path d="M188.645 72.5039C190.444 74.2477 195.54 76.0793 195.942 76.2275C194.886 79.1444 194.025 82.1285 193.366 85.1599C192.968 86.9077 192.632 88.7043 192.305 90.4906C192.335 89.6606 192.37 88.8676 192.318 88.827C192.053 85.8734 189.837 80.3025 186.601 79.5594C186.059 79.4526 185.501 79.4604 184.963 79.5824C184.424 79.7043 183.917 79.9377 183.474 80.2674C183.032 80.5972 182.663 81.016 182.391 81.497C182.12 81.978 181.953 82.5104 181.9 83.0601C181.609 85.377 183.208 87.8023 184.785 89.3384C186.361 90.8746 190.708 92.5718 191.867 92.9943L191.507 95.0567C190.963 98.3809 190.434 101.684 189.813 104.915C189.604 106.057 189.344 107.159 189.086 108.28C189.117 107.534 189.125 106.904 189.114 106.812C188.867 103.856 186.632 98.2873 183.397 97.5443C182.856 97.4388 182.3 97.4472 181.763 97.5691C181.226 97.691 180.72 97.9237 180.279 98.2523C179.837 98.5808 179.469 98.998 179.197 99.4771C178.926 99.9562 178.758 100.487 178.703 101.035C178.414 103.37 180.012 105.777 181.598 107.321C183.185 108.865 187.098 110.39 188.464 110.891C188.16 112.026 187.876 113.159 187.518 114.235C187.279 114.969 187.095 115.695 186.797 116.417C186.5 117.138 186.269 117.861 185.998 118.57C185.439 119.924 184.875 121.307 184.302 122.616C183.905 123.528 183.502 124.385 183.11 125.249C183.339 124.123 183.745 121.895 183.759 121.706C183.953 118.743 182.597 112.909 179.508 111.678C178.989 111.492 178.437 111.416 177.887 111.456C177.338 111.496 176.802 111.65 176.316 111.909C175.829 112.168 175.402 112.526 175.062 112.96C174.721 113.394 174.476 113.894 174.34 114.428C173.702 116.674 174.905 119.308 176.247 121.079C177.714 123.032 182.271 125.53 182.844 125.845C182.192 127.276 181.543 128.66 180.902 129.949C179.061 133.732 177.362 136.905 176.016 139.35L177.816 140.643C179.145 138.134 180.842 134.792 182.677 130.804C183.345 129.352 184.048 127.793 184.744 126.178C186.363 126.593 188.007 126.907 189.665 127.12C190.289 129.672 191.263 132.126 192.561 134.411C191.217 135.25 189.913 136.038 188.669 136.771C185.121 138.864 182.002 140.557 179.547 141.832L181.513 143.255C183.8 141.982 186.573 140.387 189.681 138.451C191.045 137.628 192.481 136.693 193.951 135.735C194.384 136.208 197.903 140.053 200.142 141.02C202.183 141.899 205.02 142.446 207.067 141.287C207.553 141.027 207.98 140.669 208.319 140.235C208.659 139.8 208.904 139.3 209.039 138.766C209.174 138.231 209.195 137.674 209.102 137.131C209.01 136.588 208.804 136.07 208.499 135.611C206.573 132.896 200.542 132.944 197.745 133.884C197.573 133.933 195.827 134.709 194.743 135.216C195.334 134.825 195.908 134.455 196.532 134.022C197.738 133.209 198.932 132.369 200.211 131.463C200.812 130.995 201.423 130.536 202.023 130.069C202.624 129.602 203.252 129.056 203.867 128.549C205.261 127.347 206.635 126.063 207.976 124.736C208.687 125.795 211.28 129.517 213.169 130.696C215.059 131.875 217.768 132.841 219.966 132.002C220.485 131.818 220.96 131.529 221.361 131.152C221.761 130.775 222.079 130.319 222.293 129.812C222.507 129.305 222.613 128.759 222.604 128.209C222.595 127.659 222.472 127.117 222.242 126.617C220.754 123.643 214.812 122.807 211.891 123.265C211.698 123.298 209.635 123.858 208.502 124.193C209.304 123.382 210.11 122.589 210.9 121.751C213.168 119.326 215.386 116.793 217.617 114.288C218.251 113.478 218.981 112.761 219.667 111.992C219.92 112.374 222.908 116.875 225.021 118.196C226.9 119.366 229.62 120.341 231.81 119.512C232.331 119.329 232.808 119.04 233.21 118.663C233.613 118.286 233.932 117.828 234.147 117.32C234.362 116.812 234.468 116.265 234.459 115.713C234.45 115.161 234.325 114.618 234.093 114.117C232.597 111.153 226.664 110.306 223.724 110.766C223.513 110.802 220.532 111.614 219.791 111.855C221.305 110.178 222.822 108.519 224.387 106.949C226.494 104.821 228.733 102.828 231.089 100.98C231.215 101.162 234.312 105.865 236.475 107.208C238.346 108.389 241.073 109.354 243.263 108.524C243.784 108.342 244.261 108.053 244.664 107.676C245.066 107.298 245.385 106.841 245.6 106.333C245.815 105.825 245.922 105.277 245.912 104.726C245.903 104.174 245.779 103.63 245.547 103.13C244.051 100.166 238.117 99.3189 235.188 99.7874C234.995 99.8202 232.722 100.434 231.653 100.752L231.567 100.584C233.996 98.788 236.583 97.2166 239.297 95.8893C240.773 95.1372 242.226 94.5006 243.657 93.9136C244.147 94.8494 246.42 99.1083 248.236 100.531C250.052 101.953 252.576 103.177 254.84 102.573C255.376 102.449 255.879 102.213 256.319 101.883C256.758 101.553 257.124 101.134 257.393 100.654C257.661 100.175 257.827 99.6443 257.879 99.0969C257.931 98.5496 257.869 97.9974 257.695 97.4756C256.537 94.3582 250.733 92.8757 247.768 93.0481C247.61 93.0579 245.917 93.2729 244.792 93.5129C245.438 93.2654 246.108 92.9868 246.738 92.7601C249.1 91.8815 251.292 91.2209 253.261 90.6531C254.378 90.3391 255.388 90.0755 256.355 89.8453C257.268 90.5607 261.19 93.1639 263.451 93.6122C265.712 94.0605 268.515 93.9454 270.259 92.3814C270.678 92.0236 271.018 91.5819 271.257 91.0849C271.496 90.5878 271.628 90.0463 271.645 89.4951C271.662 88.944 271.564 88.3953 271.356 87.8845C271.149 87.3736 270.837 86.9118 270.44 86.5287C267.982 84.3016 262.136 85.6502 259.566 87.1361C259.347 87.266 256.108 89.6687 256.16 89.7094L256.212 89.75C255.288 89.9468 254.302 90.1793 253.228 90.4599C251.245 90.9826 248.999 91.5841 246.652 92.4419C244.077 93.3069 241.554 94.322 239.097 95.4817C236.335 96.7658 233.692 98.2934 231.201 100.046C231.201 100.046 231.152 100.109 231.136 100.129C231.738 99.3615 233.288 97.1264 233.419 96.8944C234.84 94.29 236.052 88.4247 233.769 86.0167C233.376 85.6295 232.907 85.3287 232.391 85.1338C231.875 84.9388 231.324 84.8539 230.773 84.8845C230.222 84.9152 229.684 85.0607 229.193 85.3117C228.702 85.5627 228.269 85.9137 227.921 86.3421C226.391 88.1241 226.386 91.0167 226.855 93.1756C227.386 95.618 230.628 99.9658 230.887 100.319C228.397 102.163 226.035 104.172 223.815 106.333C222.512 107.59 221.243 108.89 219.976 110.208C220.496 109.544 220.897 108.903 220.941 108.804C222.362 106.2 223.574 100.334 221.291 97.9264C220.897 97.5221 220.421 97.2069 219.895 97.0019C219.369 96.7969 218.805 96.707 218.241 96.7381C217.678 96.7692 217.127 96.9207 216.627 97.1823C216.126 97.444 215.688 97.8097 215.341 98.255C213.819 100.027 213.814 102.919 214.274 105.088C214.735 107.258 217.448 111.041 218.168 112.024C217.738 112.574 217.213 113.05 216.731 113.56C214.448 116.025 212.184 118.487 209.888 120.841C209.079 121.681 208.245 122.468 207.43 123.253C207.885 122.672 208.18 122.166 208.259 122.044C209.68 119.44 210.9 113.564 208.599 111.158C208.206 110.773 207.736 110.474 207.221 110.281C206.706 110.088 206.156 110.004 205.607 110.036C205.057 110.067 204.52 110.213 204.03 110.463C203.541 110.714 203.108 111.064 202.762 111.492C201.24 113.263 201.234 116.156 201.703 118.315C202.172 120.474 204.591 123.926 205.456 125.089C204.593 125.87 203.722 126.661 202.842 127.378C202.233 127.856 201.674 128.355 201.035 128.809L199.179 130.151C197.964 130.975 196.726 131.83 195.564 132.628C194.738 133.17 193.934 133.662 193.132 134.172C193.943 133.351 195.51 131.715 195.624 131.569C197.128 129.437 198.058 126.954 198.325 124.359C198.506 124.13 198.665 123.884 198.799 123.625C199.063 123.141 199.222 122.606 199.267 122.056C199.312 121.506 199.241 120.953 199.059 120.432C198.877 119.911 198.589 119.434 198.211 119.032C197.834 118.629 197.377 118.31 196.869 118.095C193.767 116.903 188.805 120.267 186.945 122.577C186.839 122.712 185.803 124.312 185.178 125.346C185.445 124.684 185.7 124.08 186.008 123.367C186.577 122.021 187.096 120.653 187.628 119.161C187.88 118.454 188.13 117.729 188.38 117.004C188.63 116.279 188.844 115.492 189.071 114.732C189.578 112.952 190.004 111.126 190.399 109.275C191.575 109.761 195.799 111.446 198.025 111.382C200.252 111.318 203.043 110.641 204.407 108.728C204.741 108.29 204.98 107.786 205.107 107.25C205.235 106.713 205.249 106.156 205.149 105.614C205.048 105.072 204.836 104.556 204.525 104.101C204.213 103.646 203.81 103.261 203.341 102.971C200.446 101.323 195.05 103.894 192.851 105.888C192.737 106.034 191.298 107.636 190.544 108.535C190.765 107.419 190.997 106.311 191.187 105.17C191.738 101.902 192.206 98.5679 192.666 95.2445L193.099 92.2344C193.514 92.4092 198.493 94.5179 200.973 94.4513C203.453 94.3848 205.999 93.6999 207.373 91.796C207.706 91.3561 207.943 90.8515 208.069 90.3145C208.195 89.7776 208.208 89.2202 208.106 88.6782C208.004 88.1362 207.789 87.6215 207.476 87.1673C207.164 86.713 206.759 86.3292 206.289 86.0406C203.413 84.3901 197.998 86.9633 195.809 88.9662C195.671 89.1426 193.611 91.4304 193.123 92.053C193.463 89.824 193.829 87.5824 194.252 85.4185C194.838 82.48 195.606 79.5803 196.549 76.736C196.715 76.8661 201.927 79.0403 204.473 78.9751C206.7 78.9111 209.499 78.2237 210.863 76.3116C211.195 75.8726 211.431 75.3692 211.557 74.8335C211.684 74.2978 211.697 73.7417 211.596 73.2008C211.494 72.6598 211.282 72.1459 210.971 71.692C210.659 71.238 210.257 70.8539 209.789 70.5643C206.913 68.9138 201.498 71.4871 199.299 73.4818C199.185 73.6271 197.614 75.3767 196.902 76.2424L196.746 76.1205C197.785 73.289 199.075 70.5558 200.599 67.9532C201.418 66.5017 202.279 65.167 203.158 63.896C204.083 64.4033 208.315 66.6967 210.62 66.8954C212.926 67.0942 215.695 66.7014 217.267 64.9519C217.646 64.5511 217.937 64.0753 218.122 63.5552C218.306 63.0351 218.38 62.482 218.338 61.9318C218.296 61.3815 218.139 60.8461 217.877 60.3601C217.616 59.8741 217.256 59.4481 216.82 59.1097C214.132 57.1546 208.453 59.1027 206.075 60.8563C205.977 60.9809 204.72 62.0725 203.843 62.8926C204.274 62.3427 204.649 61.715 205.045 61.188C206.525 59.1492 208.02 57.3901 209.332 55.8224C210.047 54.9092 210.793 54.1707 211.457 53.4516C212.624 53.4788 217.327 53.5459 219.426 52.6618C221.525 51.7777 223.845 50.1626 224.423 47.886C224.575 47.3571 224.616 46.8022 224.541 46.2569C224.467 45.7116 224.279 45.1878 223.991 44.7191C223.702 44.2504 223.319 43.8471 222.866 43.5349C222.412 43.2228 221.899 43.0087 221.358 42.9064C218.067 42.4048 213.949 46.7641 212.603 49.4439C212.449 49.6411 211.121 53.4736 211.137 53.4528C210.48 54.143 209.781 54.8852 209.044 55.6977C207.68 57.2248 206.146 58.9698 204.625 60.9762C202.95 63.1174 201.403 65.3557 199.993 67.6794C198.404 70.2788 197.042 73.0107 195.924 75.8448L195.859 75.9278C195.919 74.9534 195.992 72.2311 195.976 72.0171C195.729 69.0613 193.504 63.5008 190.269 62.7577C189.728 62.6522 189.172 62.6606 188.635 62.7826C188.098 62.9045 187.593 63.1371 187.151 63.4657C186.709 63.7942 186.341 64.2114 186.069 64.6905C185.798 65.1696 185.63 65.7001 185.576 66.2479C185.469 68.5424 187.067 70.9492 188.645 72.5039Z" fill="#B7EB8F"/>
<path d="M170.195 206.055L110.963 206.019C107.542 206.018 104.261 204.658 101.842 202.238C99.4234 199.818 98.0646 196.537 98.0646 193.116L98.092 44.5829C98.092 42.8879 98.4261 41.2095 99.0751 39.6437C99.7242 38.0779 100.675 36.6554 101.875 35.4575C103.074 34.2595 104.497 33.3097 106.064 32.6623C107.63 32.0149 109.309 31.6826 111.004 31.6844L170.241 31.7163C173.662 31.7187 176.943 33.0797 179.362 35.5001C181.78 37.9204 183.139 41.2021 183.139 44.6239L183.107 193.139C183.11 194.835 182.777 196.515 182.129 198.083C181.481 199.651 180.53 201.076 179.331 202.276C178.131 203.476 176.707 204.427 175.139 205.076C173.572 205.724 171.892 206.057 170.195 206.055Z" fill="#263238"/>
<path d="M170.172 36.9904H158.69C157.934 37.0072 157.215 37.3236 156.691 37.8701C156.168 38.4167 155.882 39.1487 155.898 39.9054V41.9868C155.907 42.3612 155.841 42.7337 155.706 43.0828C155.57 43.432 155.367 43.751 155.108 44.0217C154.85 44.2924 154.54 44.5095 154.197 44.6605C153.854 44.8114 153.485 44.8934 153.111 44.9017H130.721C129.965 44.8838 129.247 44.5669 128.724 44.0204C128.202 43.474 127.917 42.7427 127.933 41.9868V39.878C127.949 39.1221 127.665 38.3908 127.142 37.8444C126.62 37.298 125.902 36.981 125.146 36.9631H111.059C109.871 36.9625 108.696 37.1958 107.599 37.6496C106.502 38.1034 105.505 38.7688 104.665 39.6079C103.825 40.447 103.158 41.4433 102.703 42.5399C102.248 43.6366 102.014 44.8121 102.013 45.9993L101.986 190.957C101.986 193.353 102.937 195.651 104.631 197.347C106.324 199.042 108.622 199.995 111.018 199.998L170.14 200.03C171.327 200.031 172.503 199.798 173.599 199.345C174.696 198.891 175.693 198.226 176.533 197.387C177.372 196.549 178.038 195.553 178.493 194.456C178.947 193.36 179.181 192.185 179.181 190.998L179.208 46.0358C179.21 44.8482 178.978 43.6719 178.524 42.5743C178.071 41.4766 177.406 40.4792 176.566 39.639C175.727 38.7988 174.73 38.1324 173.633 37.6779C172.536 37.2235 171.36 36.9898 170.172 36.9904Z" fill="white"/>
<path d="M243.928 93.3549C243.928 93.3549 247.093 90.8109 247.243 90.6611C249.303 88.5237 252.025 83.1884 250.398 80.222C250.122 79.7439 249.749 79.3289 249.303 79.0036C248.857 78.6783 248.348 78.45 247.808 78.3334C247.269 78.2168 246.711 78.2144 246.17 78.3263C245.63 78.4383 245.119 78.6622 244.67 78.9836C242.725 80.2902 241.957 83.0877 241.84 85.2896C241.758 87.938 243.928 93.3549 243.928 93.3549Z" fill="#B7EB8F"/>
<path d="M128.438 74.9888C128.214 74.9888 128.035 74.9255 127.901 74.7989C127.774 74.6648 127.71 74.4898 127.71 74.2737V68.2402H125.672C125.224 68.2402 125 68.0428 125 67.648C125 67.2533 125.224 67.0559 125.672 67.0559H131.193C131.641 67.0559 131.865 67.2533 131.865 67.648C131.865 68.0428 131.641 68.2402 131.193 68.2402H129.155V74.2737C129.155 74.4898 129.088 74.6648 128.953 74.7989C128.827 74.9255 128.655 74.9888 128.438 74.9888Z" fill="#262626"/>
<path d="M134.219 75.0223C133.659 75.0223 133.166 74.9069 132.741 74.676C132.323 74.4451 131.998 74.1136 131.766 73.6816C131.535 73.2495 131.419 72.7467 131.419 72.1732C131.419 71.5996 131.535 71.1006 131.766 70.676C131.998 70.2439 132.323 69.9125 132.741 69.6816C133.166 69.4507 133.659 69.3352 134.219 69.3352C134.779 69.3352 135.268 69.4507 135.686 69.6816C136.112 69.9125 136.436 70.2439 136.66 70.676C136.892 71.1006 137.008 71.5996 137.008 72.1732C137.008 72.7467 136.892 73.2495 136.66 73.6816C136.436 74.1136 136.112 74.4451 135.686 74.676C135.268 74.9069 134.779 75.0223 134.219 75.0223ZM134.208 73.9385C134.663 73.9385 135.01 73.7896 135.249 73.4916C135.488 73.1937 135.608 72.7542 135.608 72.1732C135.608 71.5996 135.488 71.1639 135.249 70.8659C135.01 70.5605 134.667 70.4078 134.219 70.4078C133.771 70.4078 133.424 70.5605 133.177 70.8659C132.938 71.1639 132.819 71.5996 132.819 72.1732C132.819 72.7542 132.938 73.1937 133.177 73.4916C133.416 73.7896 133.76 73.9385 134.208 73.9385Z" fill="#262626"/>
<path d="M142.733 67C142.942 67 143.114 67.0596 143.248 67.1788C143.382 67.298 143.45 67.4544 143.45 67.648V74.3296C143.45 74.5307 143.386 74.6909 143.259 74.8101C143.132 74.9292 142.964 74.9888 142.755 74.9888C142.546 74.9888 142.378 74.9292 142.251 74.8101C142.124 74.6909 142.061 74.5307 142.061 74.3296V74.0503C141.897 74.3557 141.658 74.594 141.344 74.7654C141.038 74.9367 140.687 75.0223 140.291 75.0223C139.821 75.0223 139.399 74.9032 139.026 74.6648C138.66 74.4264 138.372 74.0912 138.163 73.6592C137.962 73.2197 137.861 72.7169 137.861 72.1508C137.861 71.5847 137.962 71.0894 138.163 70.6648C138.372 70.2402 138.66 69.9125 139.026 69.6816C139.392 69.4507 139.813 69.3352 140.291 69.3352C140.687 69.3352 141.038 69.4171 141.344 69.581C141.65 69.7449 141.885 69.9758 142.05 70.2737V67.6257C142.05 67.4395 142.109 67.2905 142.229 67.1788C142.356 67.0596 142.524 67 142.733 67ZM140.661 73.9385C141.109 73.9385 141.452 73.7858 141.691 73.4804C141.938 73.175 142.061 72.7393 142.061 72.1732C142.061 71.6071 141.938 71.175 141.691 70.8771C141.452 70.5717 141.113 70.419 140.672 70.419C140.224 70.419 139.877 70.568 139.631 70.8659C139.384 71.1639 139.261 71.5922 139.261 72.1508C139.261 72.7169 139.384 73.1564 139.631 73.4693C139.877 73.7821 140.22 73.9385 140.661 73.9385Z" fill="#262626"/>
<path d="M147.264 69.3352C148.026 69.3352 148.589 69.5251 148.955 69.905C149.328 70.2775 149.515 70.8473 149.515 71.6145V74.3408C149.515 74.5419 149.455 74.702 149.336 74.8212C149.216 74.933 149.052 74.9888 148.843 74.9888C148.649 74.9888 148.488 74.9292 148.361 74.8101C148.242 74.6909 148.182 74.5345 148.182 74.3408V74.095C148.055 74.3855 147.854 74.6127 147.578 74.7765C147.309 74.9404 146.995 75.0223 146.637 75.0223C146.271 75.0223 145.939 74.9479 145.64 74.7989C145.341 74.6499 145.106 74.4451 144.934 74.1844C144.763 73.9236 144.677 73.6331 144.677 73.3128C144.677 72.9106 144.778 72.594 144.979 72.3631C145.188 72.1322 145.524 71.9646 145.987 71.8603C146.45 71.7561 147.088 71.7039 147.902 71.7039H148.182V71.4469C148.182 71.0819 148.104 70.8175 147.947 70.6536C147.79 70.4823 147.536 70.3966 147.186 70.3966C146.969 70.3966 146.749 70.4302 146.525 70.4972C146.301 70.5568 146.036 70.6462 145.73 70.7654C145.535 70.8622 145.394 70.9106 145.304 70.9106C145.17 70.9106 145.058 70.8622 144.968 70.7654C144.886 70.6685 144.845 70.5419 144.845 70.3855C144.845 70.2588 144.875 70.1508 144.934 70.0615C145.002 69.9646 145.11 69.8752 145.259 69.7933C145.521 69.6518 145.83 69.54 146.189 69.4581C146.555 69.3762 146.913 69.3352 147.264 69.3352ZM146.917 74.0168C147.29 74.0168 147.592 73.8939 147.824 73.648C148.063 73.3948 148.182 73.0708 148.182 72.676V72.4413H147.981C147.48 72.4413 147.092 72.4637 146.816 72.5084C146.54 72.5531 146.342 72.6313 146.222 72.743C146.103 72.8547 146.043 73.0074 146.043 73.2011C146.043 73.4395 146.125 73.6369 146.29 73.7933C146.461 73.9423 146.67 74.0168 146.917 74.0168Z" fill="#262626"/>
<path d="M154.757 69.7598C154.817 69.6257 154.895 69.5289 154.992 69.4693C155.097 69.4022 155.209 69.3687 155.328 69.3687C155.5 69.3687 155.653 69.4283 155.787 69.5475C155.929 69.6592 156 69.8007 156 69.9721C156 70.054 155.978 70.1397 155.933 70.229L152.875 76.6201C152.748 76.8734 152.551 77 152.282 77C152.11 77 151.957 76.9441 151.823 76.8324C151.696 76.7281 151.632 76.594 151.632 76.4302C151.632 76.3482 151.655 76.2551 151.699 76.1508L152.461 74.5531L150.378 70.229C150.341 70.1546 150.322 70.0689 150.322 69.9721C150.322 69.8007 150.393 69.6555 150.535 69.5363C150.684 69.4171 150.852 69.3575 151.039 69.3575C151.166 69.3575 151.281 69.3911 151.386 69.4581C151.49 69.5177 151.572 69.6145 151.632 69.7486L153.2 73.2011L154.757 69.7598Z" fill="#262626"/>
<path fill-rule="evenodd" clip-rule="evenodd" d="M139.54 127.762C148.499 127.762 155.762 120.499 155.762 111.54C155.762 102.58 148.499 95.3175 139.54 95.3175C130.58 95.3175 123.317 102.58 123.317 111.54C123.317 120.499 130.58 127.762 139.54 127.762ZM139.54 130.079C149.779 130.079 158.079 121.779 158.079 111.54C158.079 101.3 149.779 93 139.54 93C129.3 93 121 101.3 121 111.54C121 121.779 129.3 130.079 139.54 130.079Z" fill="#F0F0F0"/>
<path fill-rule="evenodd" clip-rule="evenodd" d="M135.051 129.528C135.747 129.701 136.421 129.225 136.546 128.52C136.67 127.814 136.197 127.146 135.504 126.964C133.497 126.439 131.608 125.527 129.944 124.273C127.935 122.759 126.312 120.791 125.209 118.529C124.106 116.268 123.554 113.777 123.598 111.261C123.634 109.179 124.078 107.128 124.9 105.224C125.184 104.566 124.949 103.782 124.316 103.445C123.683 103.109 122.893 103.347 122.601 104.002C121.592 106.271 121.046 108.724 121.003 111.216C120.952 114.141 121.594 117.037 122.876 119.667C124.159 122.297 126.046 124.585 128.382 126.346C130.373 127.846 132.641 128.927 135.051 129.528Z" fill="#389E0D"/>
<path d="M121.134 155.571C121.134 154.931 121.652 154.413 122.292 154.413H159.372C160.012 154.413 160.53 154.931 160.53 155.571C160.53 156.211 160.012 156.73 159.372 156.73H122.292C121.652 156.73 121.134 156.211 121.134 155.571Z" fill="#F0F0F0"/>
<path d="M121.134 155.571C121.134 154.931 121.652 154.413 122.292 154.413H142.487C143.127 154.413 143.646 154.931 143.646 155.571C143.646 156.211 143.127 156.73 142.487 156.73H122.292C121.652 156.73 121.134 156.211 121.134 155.571Z" fill="#F0F0F0"/>
<path d="M121.134 155.571C121.134 154.931 121.652 154.413 122.292 154.413H126.541C127.181 154.413 127.7 154.931 127.7 155.571C127.7 156.211 127.181 156.73 126.541 156.73H122.292C121.652 156.73 121.134 156.211 121.134 155.571Z" fill="#3DAD06"/>
<path d="M121.134 146.302C121.134 145.662 121.652 145.143 122.292 145.143H159.372C160.012 145.143 160.53 145.662 160.53 146.302C160.53 146.942 160.012 147.46 159.372 147.46H122.292C121.652 147.46 121.134 146.942 121.134 146.302Z" fill="#F0F0F0"/>
<path d="M121.134 146.302C121.134 145.662 121.652 145.143 122.292 145.143H134.749C135.389 145.143 135.907 145.662 135.907 146.302C135.907 146.942 135.389 147.46 134.749 147.46H122.292C121.652 147.46 121.134 146.942 121.134 146.302Z" fill="#F0F0F0"/>
<path d="M121.134 146.302C121.134 145.662 121.652 145.143 122.292 145.143H138.36C139 145.143 139.519 145.662 139.519 146.302C139.519 146.942 139 147.46 138.36 147.46H122.292C121.652 147.46 121.134 146.942 121.134 146.302Z" fill="#3DAD06"/>
<path d="M121 164.841C121 164.201 121.519 163.683 122.159 163.683H159.238C159.878 163.683 160.397 164.201 160.397 164.841C160.397 165.481 159.878 166 159.238 166H122.159C121.519 166 121 165.481 121 164.841Z" fill="#F0F0F0"/>
<path d="M121 164.841C121 164.201 121.519 163.683 122.159 163.683H128.283C128.923 163.683 129.442 164.201 129.442 164.841C129.442 165.481 128.923 166 128.283 166H122.159C121.519 166 121 165.481 121 164.841Z" fill="#F0F0F0"/>
<path d="M121 164.841C121 164.201 121.519 163.683 122.159 163.683H129.034C129.674 163.683 130.193 164.201 130.193 164.841C130.193 165.481 129.674 166 129.034 166H122.159C121.519 166 121 165.481 121 164.841Z" fill="#3DAD06"/>
</svg>
