<svg width="14" height="16" viewBox="0 0 14 16" fill="none" xmlns="http://www.w3.org/2000/svg">
<path d="M10.8793 1.20291C9.125 -0.0743556 7.87645 -0.0465688 7.40222 0.0303082C7.26884 0.0516114 7.15677 0.128488 7.07804 0.236857L2.79886 6.14064L0.70281 9.03325C0.446245 9.38707 0.298048 9.80757 0.274893 10.2438L0.000728905 15.4529C-0.0187219 15.8281 0.354548 16.0994 0.704662 15.9651L5.57292 14.1034C5.98324 13.946 6.33984 13.6727 6.59733 13.3171L8.30529 10.9598L12.9698 4.52344C13.0522 4.40952 13.0856 4.27058 13.0624 4.13165C12.9846 3.64445 12.6113 2.46258 10.8793 1.20291ZM5.58774 13.0623L3.69545 13.7931C3.62136 13.8218 3.53892 13.7987 3.49076 13.7357C3.24716 13.4254 2.95725 13.1179 2.49506 12.7817C2.03287 12.4464 1.65127 12.2649 1.2817 12.1278C1.2076 12.1 1.16037 12.0296 1.165 11.9499L1.278 9.92521L1.7865 9.2259C1.7865 9.2259 2.92483 9.06937 4.4105 10.1503C5.89432 11.2303 6.09716 12.3621 6.09716 12.3621L5.58774 13.0623Z" fill="white"/>
</svg>
