<svg width="18" height="19" viewBox="0 0 18 19" fill="none" xmlns="http://www.w3.org/2000/svg">
<path
        d="M0.40625 1.64941L0.40625 17.4619C0.40625 17.8422 0.713477 18.1494 1.09375 18.1494H16.9062C17.2865 18.1494 17.5938 17.8422 17.5938 17.4619V1.64941C17.5938 1.26914 17.2865 0.961914 16.9062 0.961914H1.09375C0.713477 0.961914 0.40625 1.26914 0.40625 1.64941ZM16.0469 2.50879V16.6025H1.95312L1.95313 2.50879L16.0469 2.50879ZM12.6738 13.251H14.3281C14.4227 13.251 14.5 13.1736 14.5 13.0791V12.0479C14.5 11.9533 14.4227 11.876 14.3281 11.876H12.6738C12.7447 12.093 12.7812 12.3229 12.7812 12.5635C12.7812 12.8041 12.7426 13.034 12.6738 13.251ZM8.41992 11.876H3.67188C3.57734 11.876 3.5 11.9533 3.5 12.0479V13.0791C3.5 13.1736 3.57734 13.251 3.67188 13.251H8.41992C8.34902 13.034 8.3125 12.8041 8.3125 12.5635C8.3125 12.3229 8.35117 12.093 8.41992 11.876ZM12.6738 13.251C12.7447 13.034 12.7812 12.8041 12.7812 12.5635C12.7812 12.3229 12.7426 12.093 12.6738 11.876C12.3838 10.9779 11.5416 10.3291 10.5469 10.3291C9.55215 10.3291 8.70996 10.9779 8.41992 11.876C8.34902 12.093 8.3125 12.3229 8.3125 12.5635C8.3125 12.8041 8.35117 13.034 8.41992 13.251C8.70996 14.149 9.55215 14.7979 10.5469 14.7979C11.5416 14.7979 12.3838 14.149 12.6738 13.251ZM10.1881 13.2488C10.1752 13.2424 10.1623 13.2338 10.1494 13.2273H10.1473L10.1086 13.2016C10.1043 13.1994 10.1021 13.1973 10.0979 13.1951C10.0871 13.1887 10.0785 13.1801 10.0678 13.1736C10.0656 13.1715 10.0613 13.1693 10.0592 13.1672C10.0463 13.1564 10.0355 13.1479 10.0248 13.1371L10.0184 13.1307L9.99258 13.1049L9.98398 13.0963C9.97324 13.0855 9.96465 13.0748 9.95391 13.0619C9.94316 13.049 9.93457 13.0383 9.92598 13.0254C9.92383 13.0211 9.92168 13.0189 9.91953 13.0146C9.91309 13.0039 9.90449 12.9953 9.89805 12.9846C9.8959 12.9824 9.89375 12.9781 9.8916 12.976C9.88301 12.9631 9.87656 12.9502 9.86797 12.9352C9.86582 12.933 9.86582 12.9287 9.86367 12.9266C9.85723 12.9158 9.85293 12.9051 9.84649 12.8922L9.84004 12.8793C9.83359 12.8643 9.82715 12.8514 9.82285 12.8363C9.81641 12.8213 9.81211 12.8063 9.80781 12.7912C9.80566 12.7869 9.80567 12.7826 9.80352 12.7783C9.79922 12.7654 9.79707 12.7547 9.79492 12.7418C9.79492 12.7375 9.79277 12.7354 9.79277 12.7311C9.78848 12.716 9.78633 12.6988 9.78418 12.6838C9.78418 12.6795 9.78418 12.6773 9.78203 12.673C9.77988 12.6602 9.77988 12.6473 9.77773 12.6344V12.6215C9.77773 12.6043 9.77559 12.5893 9.77559 12.5721C9.77559 12.5549 9.77559 12.5398 9.77773 12.5227V12.5098C9.77773 12.4969 9.77988 12.484 9.78203 12.4711C9.78203 12.4668 9.78203 12.4646 9.78418 12.4604C9.78633 12.4453 9.78848 12.4281 9.79277 12.4131C9.79277 12.4088 9.79492 12.4066 9.79492 12.4023C9.79707 12.3895 9.80137 12.3766 9.80352 12.3658C9.80567 12.3615 9.80566 12.3572 9.80781 12.3529C9.81211 12.3379 9.81641 12.3229 9.82285 12.3078C9.82715 12.2928 9.83359 12.2799 9.84004 12.2648L9.84649 12.252C9.85078 12.2412 9.85723 12.2283 9.86367 12.2176C9.86582 12.2154 9.86582 12.2111 9.86797 12.209C9.87441 12.1961 9.88301 12.1811 9.8916 12.1682C9.89375 12.166 9.8959 12.1617 9.89805 12.1596C9.90449 12.1488 9.91094 12.1381 9.91953 12.1295C9.92168 12.1252 9.92383 12.123 9.92598 12.1187C9.93457 12.1059 9.94531 12.093 9.95391 12.0822C9.9625 12.0715 9.97324 12.0586 9.98398 12.0479L9.99258 12.0393L10.0184 12.0135L10.0248 12.007C10.0355 11.9963 10.0484 11.9855 10.0592 11.977C10.0613 11.9748 10.0656 11.9727 10.0678 11.9705C10.0764 11.9619 10.0871 11.9555 10.0979 11.949C10.1021 11.9469 10.1043 11.9447 10.1086 11.9426L10.1473 11.9168C10.1473 11.9168 10.1494 11.9168 10.1494 11.9146C10.2696 11.843 10.4069 11.8052 10.5469 11.8051C10.6758 11.8051 10.7982 11.8373 10.9057 11.8932C10.9186 11.8996 10.9314 11.9082 10.9443 11.9146C10.9443 11.9146 10.9465 11.9146 10.9465 11.9168L10.9852 11.9426C10.9895 11.9447 10.9916 11.9469 10.9959 11.949C11.0066 11.9555 11.0152 11.9641 11.026 11.9705C11.0281 11.9727 11.0324 11.9748 11.0346 11.977C11.0475 11.9877 11.0582 11.9963 11.0689 12.007L11.0754 12.0135L11.1012 12.0393L11.1098 12.0479C11.1205 12.0586 11.1291 12.0693 11.1398 12.0822C11.1506 12.0951 11.1592 12.1059 11.1678 12.1187C11.1699 12.123 11.1721 12.1252 11.1742 12.1295C11.1807 12.1402 11.1893 12.1488 11.1957 12.1596C11.1979 12.1617 11.2 12.166 11.2021 12.1682C11.2107 12.1811 11.2172 12.1939 11.2258 12.209C11.2279 12.2111 11.2279 12.2154 11.2301 12.2176C11.2365 12.2283 11.2408 12.2391 11.2473 12.252L11.2537 12.2648C11.2602 12.2799 11.2666 12.2928 11.2709 12.3078C11.2773 12.3229 11.2816 12.3379 11.2859 12.3529C11.2881 12.3572 11.2881 12.3615 11.2902 12.3658C11.2945 12.3787 11.2967 12.3895 11.2988 12.4023C11.2988 12.4066 11.301 12.4088 11.301 12.4131C11.3053 12.4281 11.3074 12.4453 11.3096 12.4604C11.3096 12.4646 11.3096 12.4668 11.3117 12.4711C11.3139 12.484 11.3139 12.4969 11.316 12.5098V12.5227C11.316 12.5398 11.3182 12.5549 11.3182 12.5721C11.3182 12.5893 11.3182 12.6043 11.316 12.6215V12.6344C11.316 12.6473 11.3139 12.6602 11.3117 12.673C11.3117 12.6773 11.3117 12.6795 11.3096 12.6838C11.3074 12.6988 11.3053 12.716 11.301 12.7311C11.301 12.7354 11.2988 12.7375 11.2988 12.7418C11.2967 12.7547 11.2924 12.7676 11.2902 12.7783C11.2881 12.7826 11.2881 12.7869 11.2859 12.7912C11.2816 12.8063 11.2773 12.8213 11.2709 12.8363C11.2666 12.8514 11.2602 12.8643 11.2537 12.8793L11.2473 12.8922C11.243 12.9029 11.2365 12.9158 11.2301 12.9266C11.2279 12.9287 11.2279 12.933 11.2258 12.9352C11.2193 12.948 11.2107 12.9631 11.2021 12.976C11.2 12.9781 11.1979 12.9824 11.1957 12.9846C11.1893 12.9953 11.1828 13.0061 11.1742 13.0146C11.1721 13.0189 11.1699 13.0211 11.1678 13.0254C11.1592 13.0383 11.1484 13.0512 11.1398 13.0619C11.1312 13.0727 11.1205 13.0855 11.1098 13.0963L11.1012 13.1049L11.0754 13.1307L11.0689 13.1371C11.0582 13.1479 11.0453 13.1586 11.0346 13.1672C11.0324 13.1693 11.0281 13.1715 11.026 13.1736C11.0174 13.1822 11.0066 13.1887 10.9959 13.1951C10.9916 13.1973 10.9895 13.1994 10.9852 13.2016L10.9465 13.2273H10.9443C10.9314 13.2359 10.9186 13.2424 10.9057 13.2488C10.7982 13.3047 10.6758 13.3369 10.5469 13.3369C10.418 13.3369 10.2955 13.3047 10.1881 13.2488ZM9.58008 7.23535H14.3281C14.4227 7.23535 14.5 7.15801 14.5 7.06348V6.03223C14.5 5.9377 14.4227 5.86035 14.3281 5.86035H9.58008C9.65098 6.07734 9.6875 6.30723 9.6875 6.54785C9.6875 6.78848 9.64883 7.01836 9.58008 7.23535ZM5.32617 5.86035H3.67188C3.57734 5.86035 3.5 5.9377 3.5 6.03223V7.06348C3.5 7.15801 3.57734 7.23535 3.67188 7.23535H5.32617C5.25527 7.01836 5.21875 6.78848 5.21875 6.54785C5.21875 6.30723 5.25742 6.07734 5.32617 5.86035ZM9.58008 7.23535C9.65098 7.01836 9.6875 6.78848 9.6875 6.54785C9.6875 6.30723 9.64883 6.07734 9.58008 5.86035C9.29004 4.96231 8.44785 4.31348 7.45313 4.31348C6.4584 4.31348 5.61621 4.96231 5.32617 5.86035C5.25527 6.07734 5.21875 6.30723 5.21875 6.54785C5.21875 6.78848 5.25742 7.01836 5.32617 7.23535C5.61621 8.1334 6.4584 8.78223 7.45313 8.78223C8.44785 8.78223 9.29004 8.1334 9.58008 7.23535ZM7.09434 7.2332C7.08145 7.22676 7.06855 7.21816 7.05566 7.21172H7.05352L7.01484 7.18594C7.01055 7.18379 7.0084 7.18164 7.0041 7.17949C6.99336 7.17305 6.98477 7.16445 6.97402 7.15801C6.97188 7.15586 6.96758 7.15371 6.96543 7.15156C6.95254 7.14082 6.9418 7.13223 6.93106 7.12148L6.92461 7.11504L6.89883 7.08926L6.89023 7.08066C6.87949 7.06992 6.8709 7.05918 6.86016 7.04629C6.84941 7.0334 6.84082 7.02266 6.83223 7.00977C6.83008 7.00547 6.82793 7.00332 6.82578 6.99902C6.81934 6.98828 6.81074 6.97969 6.8043 6.96894C6.80215 6.9668 6.8 6.9625 6.79785 6.96035C6.78926 6.94746 6.78281 6.93457 6.77422 6.91953C6.77207 6.91738 6.77207 6.91309 6.76992 6.91094C6.76348 6.9002 6.75918 6.88945 6.75273 6.87656L6.74629 6.86367C6.73984 6.84863 6.7334 6.83574 6.7291 6.8207C6.72266 6.80566 6.71836 6.79062 6.71406 6.77559C6.71191 6.77129 6.71191 6.76699 6.70977 6.7627C6.70547 6.7498 6.70332 6.73906 6.70117 6.72617C6.70117 6.72188 6.69902 6.71973 6.69902 6.71543C6.69473 6.70039 6.69258 6.6832 6.69043 6.66816C6.69043 6.66387 6.69043 6.66172 6.68828 6.65742C6.68613 6.64453 6.68613 6.63164 6.68398 6.61875V6.60586C6.68398 6.58867 6.68184 6.57363 6.68184 6.55645C6.68184 6.53926 6.68184 6.52422 6.68398 6.50703V6.49414C6.68398 6.48125 6.68613 6.46836 6.68828 6.45547C6.68828 6.45117 6.68828 6.44902 6.69043 6.44473C6.69258 6.42969 6.69473 6.4125 6.69902 6.39746C6.69902 6.39316 6.70117 6.39102 6.70117 6.38672C6.70332 6.37383 6.70762 6.36094 6.70977 6.35019C6.71191 6.3459 6.71191 6.3416 6.71406 6.33731C6.71836 6.32227 6.72266 6.30723 6.7291 6.29219C6.7334 6.27715 6.73984 6.26426 6.74629 6.24922L6.75273 6.23633C6.75703 6.22559 6.76348 6.2127 6.76992 6.20195C6.77207 6.19981 6.77207 6.19551 6.77422 6.19336C6.78066 6.18047 6.78926 6.16543 6.79785 6.15254C6.8 6.15039 6.80215 6.14609 6.8043 6.14395C6.81074 6.1332 6.81719 6.12246 6.82578 6.11387C6.82793 6.10957 6.83008 6.10742 6.83223 6.10312C6.84082 6.09023 6.85156 6.07734 6.86016 6.0666C6.86875 6.05586 6.87949 6.04297 6.89023 6.03223L6.89883 6.02363L6.92461 5.99785L6.93106 5.99141C6.9418 5.98066 6.95469 5.96992 6.96543 5.96133C6.96758 5.95918 6.97188 5.95703 6.97402 5.95488C6.98262 5.94629 6.99336 5.93984 7.0041 5.9334C7.0084 5.93125 7.01055 5.9291 7.01484 5.92695L7.05352 5.90117H7.05566C7.17587 5.82954 7.31319 5.79168 7.45313 5.7916C7.58203 5.7916 7.70449 5.82383 7.81191 5.87969C7.8248 5.88613 7.8377 5.89473 7.85059 5.90117H7.85273L7.89141 5.92695C7.8957 5.9291 7.89785 5.93125 7.90215 5.9334C7.91289 5.93984 7.92148 5.94844 7.93223 5.95488C7.93437 5.95703 7.93867 5.95918 7.94082 5.96133C7.95371 5.97207 7.96445 5.98066 7.97519 5.99141L7.98164 5.99785L8.00742 6.02363L8.01602 6.03223C8.02676 6.04297 8.03535 6.05371 8.04609 6.0666C8.05684 6.07949 8.06543 6.09023 8.07402 6.10312C8.07617 6.10742 8.07832 6.10957 8.08047 6.11387C8.08691 6.12461 8.09551 6.1332 8.10195 6.14395C8.1041 6.14609 8.10625 6.15039 8.1084 6.15254C8.11699 6.16543 8.12344 6.17832 8.13203 6.19336C8.13418 6.19551 8.13418 6.19981 8.13633 6.20195C8.14277 6.2127 8.14707 6.22344 8.15352 6.23633L8.15996 6.24922C8.16641 6.26426 8.17285 6.27715 8.17715 6.29219C8.18359 6.30723 8.18789 6.32227 8.19219 6.33731C8.19434 6.3416 8.19434 6.3459 8.19648 6.35019C8.20078 6.36309 8.20293 6.37383 8.20508 6.38672C8.20508 6.39102 8.20723 6.39316 8.20723 6.39746C8.21152 6.4125 8.21367 6.42969 8.21582 6.44473C8.21582 6.44902 8.21582 6.45117 8.21797 6.45547C8.22012 6.46836 8.22012 6.48125 8.22227 6.49414V6.50703C8.22227 6.52422 8.22441 6.53926 8.22441 6.55645C8.22441 6.57363 8.22441 6.58867 8.22227 6.60586V6.61875C8.22227 6.63164 8.22012 6.64453 8.21797 6.65742C8.21797 6.66172 8.21797 6.66387 8.21582 6.66816C8.21367 6.6832 8.21152 6.70039 8.20723 6.71543C8.20723 6.71973 8.20508 6.72188 8.20508 6.72617C8.20293 6.73906 8.19863 6.75195 8.19648 6.7627C8.19434 6.76699 8.19434 6.77129 8.19219 6.77559C8.18789 6.79062 8.18359 6.80566 8.17715 6.8207C8.17285 6.83574 8.16641 6.84863 8.15996 6.86367L8.15352 6.87656C8.14922 6.8873 8.14277 6.9002 8.13633 6.91094C8.13418 6.91309 8.13418 6.91738 8.13203 6.91953C8.12559 6.93242 8.11699 6.94746 8.1084 6.96035C8.10625 6.9625 8.1041 6.9668 8.10195 6.96894C8.09551 6.97969 8.08906 6.99043 8.08047 6.99902C8.07832 7.00332 8.07617 7.00547 8.07402 7.00977C8.06543 7.02266 8.05469 7.03555 8.04609 7.04629C8.0375 7.05703 8.02676 7.06992 8.01602 7.08066L8.00742 7.08926L7.98164 7.11504L7.97519 7.12148C7.96445 7.13223 7.95156 7.14297 7.94082 7.15156C7.93867 7.15371 7.93437 7.15586 7.93223 7.15801C7.92363 7.1666 7.91289 7.17305 7.90215 7.17949C7.89785 7.18164 7.8957 7.18379 7.89141 7.18594L7.85273 7.21172H7.85059C7.8377 7.22031 7.8248 7.22676 7.81191 7.2332C7.70449 7.28906 7.58203 7.32129 7.45313 7.32129C7.32422 7.32129 7.20176 7.28906 7.09434 7.2332Z" fill="#bfbfbf"/>
</svg>
