<svg width="240" height="240" viewBox="0 0 240 240" fill="none" xmlns="http://www.w3.org/2000/svg">
<path opacity="0.5" d="M57.4883 222.263C69.7586 235.212 99.8831 230.471 112.928 222.263C155.281 195.618 229.521 151.273 232.88 87.0244C234.31 59.7136 210.227 45.3773 200.161 41.1668C176.031 31.0669 149.515 28.0312 123.321 26.8617C95.9888 25.6401 66.6494 26.5914 42.0517 39.9245C32.7294 44.9614 23.9323 51.4539 17.9115 60.2958C11.792 69.2781 8.27211 79.9706 7.34144 90.7671C5.83366 108.181 10.5182 125.641 17.6048 141.62C24.6914 157.599 34.1436 172.398 42.816 187.571C48.4728 197.474 47.1626 211.347 57.4883 222.263Z" fill="#D9F7BE"/>
<path d="M71.3731 109.038H40.429V198.853H71.3731V109.038Z" fill="#E0E0E0"/>
<path d="M23.8235 198.857H57.7013L57.7013 109.043H23.8235L23.8235 198.857Z" fill="#F5F5F5"/>
<path d="M44.733 179.499H36.1209C36.0064 179.499 35.8929 179.477 35.7871 179.433C35.6813 179.39 35.5852 179.325 35.5045 179.244C35.4237 179.163 35.3599 179.067 35.3167 178.961C35.2735 178.855 35.2518 178.741 35.2528 178.627V178.309H45.597V178.627C45.5981 178.741 45.5765 178.854 45.5336 178.96C45.4906 179.065 45.4271 179.162 45.3468 179.243C45.2665 179.324 45.1709 179.388 45.0655 179.432C44.9601 179.476 44.8471 179.499 44.733 179.499Z" fill="#E0E0E0"/>
<path d="M25.648 178.317C25.648 178.317 25.648 178.426 25.648 178.643V179.603C25.648 180.459 25.648 181.709 25.648 183.308C25.648 186.523 25.6239 191.177 25.6118 196.859V196.928H25.6801L55.8687 196.948H55.9732V196.872C55.9732 190.309 55.9732 184.052 55.9732 178.357V178.277H55.8929L34.1114 178.297H27.8944H26.2468H26.2669H27.9306L34.1636 178.325L55.8929 178.385L55.8165 178.305C55.8165 184 55.8165 190.257 55.8165 196.819L55.9009 196.735H25.7123L25.7766 196.803C25.7766 191.141 25.7525 186.511 25.7404 183.296C25.7404 181.689 25.7404 180.435 25.7404 179.575C25.7404 179.149 25.7404 178.823 25.7404 178.598C25.7404 178.373 25.648 178.317 25.648 178.317Z" fill="#E0E0E0"/>
<path d="M35.6587 185.273H44.6486V182.846H35.6587V185.273Z" fill="#E0E0E0"/>
<path d="M44.5239 156.286H35.9118C35.7983 156.286 35.686 156.264 35.5812 156.221C35.4763 156.177 35.3811 156.114 35.3008 156.033C35.2206 155.953 35.157 155.858 35.1136 155.753C35.0701 155.648 35.0478 155.536 35.0478 155.422V155.105H45.3879V155.422C45.3879 155.652 45.2969 155.871 45.1349 156.033C44.9728 156.195 44.7531 156.286 44.5239 156.286Z" fill="#E0E0E0"/>
<path d="M25.1136 155.101C25.1136 155.101 25.1136 155.209 25.1136 155.426C25.1136 155.643 25.1136 155.969 25.1136 156.391C25.1136 157.243 25.1136 158.493 25.1136 160.096C25.1136 163.311 25.0935 167.961 25.0774 173.647V173.712H25.1457L55.3383 173.732H55.4388V173.647C55.4388 167.085 55.4388 160.824 55.4388 155.129V155.049H55.3102L33.5288 155.069H27.3118H25.6641H25.2623H25.6923H27.356L33.5931 155.093L55.3223 155.153L55.2419 155.073C55.2419 160.767 55.2419 167.029 55.2419 173.591L55.3102 173.563H25.1136L25.1819 173.631C25.1819 167.965 25.1537 163.339 25.1457 160.12C25.1457 158.513 25.1457 157.259 25.1457 156.399C25.1457 155.977 25.1457 155.652 25.1457 155.422C25.1457 155.193 25.1136 155.101 25.1136 155.101Z" fill="#E0E0E0"/>
<path d="M35.723 161.917H44.7129V159.489H35.723V161.917Z" fill="#E0E0E0"/>
<path d="M44.4155 112.671H35.8034C35.5771 112.667 35.3614 112.574 35.2028 112.413C35.0442 112.251 34.9554 112.034 34.9555 111.807V111.49H45.2795V111.807C45.2795 112.037 45.1885 112.256 45.0265 112.418C44.8644 112.58 44.6447 112.671 44.4155 112.671Z" fill="#E0E0E0"/>
<path d="M25.3305 111.49C25.3305 111.49 25.3305 111.594 25.3305 111.811C25.3305 112.028 25.3305 112.358 25.3305 112.776C25.3305 113.632 25.3305 114.882 25.3305 116.481C25.3305 119.696 25.3104 124.35 25.2943 130.032V130.101H25.3626H55.5553H55.6597V130.012C55.6597 123.45 55.6597 117.192 55.6597 111.498V111.418H55.5794H33.7979H27.581H25.9333H25.5113H25.9494H27.6131L33.8502 111.446L55.5794 111.502L55.499 111.426C55.499 117.12 55.499 123.377 55.499 129.94L55.5834 129.855H25.3908L25.4591 129.924C25.4591 124.257 25.4309 119.632 25.4229 116.417C25.4229 114.809 25.4229 113.551 25.4229 112.695C25.4229 112.27 25.4229 111.944 25.4229 111.719C25.4229 111.494 25.3305 111.49 25.3305 111.49Z" fill="#E0E0E0"/>
<path d="M35.7753 117.868H44.7651V115.44H35.7753V117.868Z" fill="#E0E0E0"/>
<path d="M44.4155 134.075H35.8034C35.5763 134.071 35.3601 133.977 35.2014 133.815C35.0427 133.653 34.9544 133.434 34.9554 133.207V132.89H45.2795V133.207C45.2801 133.321 45.2581 133.434 45.2149 133.539C45.1717 133.644 45.1082 133.74 45.0279 133.821C44.9476 133.901 44.8522 133.965 44.7471 134.009C44.642 134.053 44.5293 134.075 44.4155 134.075Z" fill="#E0E0E0"/>
<path d="M25.3305 132.89C25.3305 132.89 25.3305 132.998 25.3305 133.215C25.3305 133.432 25.3305 133.758 25.3305 134.18C25.3305 135.032 25.3305 136.281 25.3305 137.885C25.3305 141.1 25.3104 145.753 25.2943 151.436V151.504H25.3626H55.5553H55.6597V151.42C55.6597 144.857 55.6597 138.596 55.6597 132.902V132.821H55.5794H33.7979H27.581H25.9333H25.3305H25.4792H25.9092H27.5729L33.81 132.845L55.5392 132.906L55.4588 132.825C55.4588 138.52 55.4588 144.781 55.4588 151.343L55.5432 151.255H25.3506L25.4189 151.323C25.4189 145.657 25.3908 141.031 25.3827 137.812C25.3827 136.205 25.3827 134.951 25.3827 134.091C25.3827 133.669 25.3827 133.344 25.3827 133.119C25.3827 132.894 25.3305 132.89 25.3305 132.89Z" fill="#E0E0E0"/>
<path d="M35.7753 139.271H44.7651V136.844H35.7753V139.271Z" fill="#E0E0E0"/>
<path d="M150.228 49.035H135.717V77.805H150.228V49.035Z" fill="#F5F5F5"/>
<path d="M150.228 79.8143H135.717V107.612H150.228V79.8143Z" fill="#F5F5F5"/>
<path d="M150.228 108.11H135.717V133.159H150.228V108.11Z" fill="#F5F5F5"/>
<path d="M140.334 187.223V199.279H157.964H177.403V187.223H140.334Z" fill="#F5F5F5"/>
<path d="M138.779 183.855V187.223H178.701V183.855H157.964H138.779Z" fill="#E0E0E0"/>
<path d="M158.74 199.279H177.403V187.223H178.701V183.855H157.964V186.913L158.74 199.279Z" fill="#E0E0E0"/>
<path d="M153.037 189.168H145.518V190.98H153.037V189.168Z" fill="#E0E0E0"/>
<path d="M154.207 193.251H144.554V197.081H154.207V193.251Z" fill="white"/>
<path d="M146.037 171.815V183.871H163.667H183.105V171.815H146.037Z" fill="#F5F5F5"/>
<path d="M144.482 168.447V171.815H184.404V168.447H163.667H144.482Z" fill="#E0E0E0"/>
<path d="M164.442 183.871H183.105V171.815H184.403V168.447H163.667V171.505L164.442 183.871Z" fill="#E0E0E0"/>
<path d="M158.74 173.76H151.221V175.572H158.74V173.76Z" fill="#E0E0E0"/>
<path d="M159.909 177.843H150.256V181.673H159.909V177.843Z" fill="white"/>
<path d="M201.266 198.845C201.266 198.901 162.007 198.949 113.586 198.949C65.1641 198.949 25.8972 198.901 25.8972 198.845C25.8972 198.788 65.148 198.736 113.586 198.736C162.023 198.736 201.266 198.784 201.266 198.845Z" fill="#263238"/>
<path d="M170.39 180.616L173.139 198.692H189.121L192.831 180.877L170.39 180.616Z" fill="#B7EB8F"/>
<path d="M190.596 192.198C190.596 192.25 186.501 192.294 181.45 192.294C176.398 192.294 172.307 192.25 172.307 192.198C172.307 192.146 176.398 192.105 181.45 192.105C186.501 192.105 190.596 192.146 190.596 192.198Z" fill="#FAFAFA"/>
<path d="M190.657 191.31C190.657 191.362 186.537 191.402 181.45 191.402C176.362 191.402 172.243 191.362 172.243 191.31C172.243 191.257 176.366 191.217 181.45 191.217C186.533 191.217 190.657 191.245 190.657 191.31Z" fill="#FAFAFA"/>
<path d="M190.628 190.305C190.628 190.357 186.505 190.401 181.422 190.401C176.338 190.401 172.211 190.357 172.211 190.305C172.211 190.253 176.334 190.213 181.422 190.213C186.509 190.213 190.628 190.253 190.628 190.305Z" fill="#FAFAFA"/>
<path d="M174.976 197.675C174.754 196.931 174.59 196.17 174.485 195.401C174.325 194.639 174.223 193.867 174.18 193.09C174.57 194.594 174.839 196.128 174.984 197.675H174.976Z" fill="#FAFAFA"/>
<path d="M176.065 197.466C175.954 196.737 175.89 196.001 175.872 195.264C175.789 194.524 175.756 193.779 175.771 193.034C175.941 193.76 176.038 194.502 176.061 195.248C176.137 195.985 176.138 196.729 176.065 197.466Z" fill="#FAFAFA"/>
<path d="M178.046 197.466C177.832 196.723 177.697 195.959 177.644 195.188C177.525 194.424 177.485 193.649 177.523 192.877C177.671 193.634 177.774 194.399 177.833 195.168C177.947 195.929 178.018 196.697 178.046 197.466Z" fill="#FAFAFA"/>
<path d="M179.436 197.563C179.282 196.801 179.208 196.025 179.215 195.248C179.16 194.473 179.183 193.695 179.284 192.925C179.371 193.695 179.41 194.469 179.4 195.244C179.458 196.015 179.47 196.79 179.436 197.563Z" fill="#FAFAFA"/>
<path d="M181.9 197.466C181.78 196.741 181.724 196.007 181.731 195.272C181.675 194.539 181.682 193.802 181.751 193.07C181.86 193.796 181.91 194.53 181.9 195.264C181.961 195.997 181.961 196.733 181.9 197.466Z" fill="#FAFAFA"/>
<path d="M183.696 197.563C183.582 196.051 183.594 194.532 183.732 193.022C183.846 194.534 183.834 196.053 183.696 197.563Z" fill="#FAFAFA"/>
<path d="M185.384 197.322C185.413 195.735 185.566 194.154 185.842 192.592C185.813 194.178 185.66 195.759 185.384 197.322Z" fill="#FAFAFA"/>
<path d="M187.558 197.085C187.627 195.724 187.919 194.384 188.422 193.118C188.323 193.786 188.189 194.449 188.02 195.103C187.904 195.772 187.75 196.433 187.558 197.085Z" fill="#FAFAFA"/>
<path d="M186.019 144.946C186.017 144.976 186.01 145.006 185.999 145.034L185.923 145.291C185.85 145.528 185.75 145.854 185.621 146.264C185.493 146.674 185.32 147.204 185.151 147.811C184.982 148.418 184.749 149.101 184.576 149.873C184.403 150.644 184.15 151.48 183.953 152.388C183.756 153.297 183.552 154.273 183.335 155.302C182.953 157.359 182.603 159.642 182.358 162.045C182.113 164.449 182.016 166.759 181.984 168.853C181.984 169.902 181.984 170.899 182.012 171.831C182.04 172.763 182.077 173.631 182.125 174.419C182.173 175.207 182.233 175.926 182.282 176.553C182.33 177.18 182.386 177.722 182.438 178.16C182.491 178.598 182.515 178.928 182.543 179.177V179.442C182.546 179.472 182.546 179.501 182.543 179.531C182.543 179.531 182.543 179.503 182.523 179.442C182.503 179.382 182.499 179.286 182.479 179.181C182.446 178.936 182.398 178.594 182.342 178.168C182.286 177.742 182.209 177.188 182.153 176.561C182.097 175.934 182.012 175.219 181.968 174.427C181.924 173.635 181.856 172.763 181.831 171.831C181.807 170.899 181.791 169.898 181.787 168.849C181.807 166.747 181.912 164.428 182.145 162.017C182.378 159.606 182.748 157.319 183.142 155.258C183.355 154.229 183.543 153.248 183.777 152.344C184.01 151.44 184.211 150.592 184.424 149.824C184.637 149.057 184.846 148.374 185.026 147.771C185.207 147.168 185.38 146.65 185.529 146.232C185.677 145.814 185.782 145.5 185.866 145.267L185.955 145.014C185.973 144.989 185.995 144.966 186.019 144.946Z" fill="#455A64"/>
<path d="M183.134 156.138C183.573 154.836 184.451 153.726 185.617 152.999C185.8 152.855 186.015 152.757 186.244 152.715C186.473 152.673 186.709 152.688 186.931 152.758C187.49 153.027 187.534 153.811 187.369 154.41C187.081 155.421 186.44 156.296 185.561 156.873C184.781 157.451 183.805 157.698 182.844 157.56" fill="#455A64"/>
<path d="M182.165 163.697C182.567 162.138 183.821 159.919 185.115 158.951C185.311 158.788 185.538 158.666 185.782 158.593C185.906 158.56 186.035 158.557 186.161 158.584C186.286 158.612 186.402 158.668 186.501 158.75C186.612 158.896 186.685 159.067 186.713 159.248C186.741 159.429 186.724 159.614 186.662 159.787C186.397 160.925 185.82 161.966 184.997 162.795C184.174 163.624 183.136 164.208 182 164.481" fill="#455A64"/>
<path d="M181.9 170.348C182.541 168.859 183.568 167.567 184.874 166.607C185.014 166.478 185.178 166.379 185.357 166.316C185.535 166.252 185.725 166.226 185.915 166.237C186.477 166.337 186.718 167.041 186.686 167.599C186.582 168.777 185.682 169.721 184.757 170.453C183.905 171.041 182.979 171.517 182.004 171.867" fill="#455A64"/>
<path d="M182.045 175.13C182.668 173.997 183.532 173.013 184.576 172.249C184.801 172.08 185.06 171.963 185.336 171.907C185.475 171.883 185.617 171.896 185.749 171.947C185.881 171.997 185.996 172.082 186.083 172.193C186.337 172.566 186.083 173.069 185.822 173.43C184.927 174.674 183.661 175.601 182.205 176.079" fill="#455A64"/>
<path d="M181.92 173.189C180.83 171.851 179.62 170.616 178.303 169.5C178.098 169.327 177.837 169.142 177.584 169.227C177.487 169.267 177.404 169.334 177.345 169.42C177.285 169.507 177.252 169.608 177.25 169.713C177.249 169.923 177.296 170.13 177.387 170.32C177.82 171.281 178.464 172.133 179.271 172.812C180.078 173.491 181.027 173.98 182.049 174.242" fill="#455A64"/>
<path d="M182.036 166.964L179.191 163.516C178.941 163.169 178.627 162.872 178.267 162.64C178.085 162.531 177.876 162.474 177.664 162.474C177.452 162.474 177.244 162.531 177.061 162.64C176.894 162.775 176.768 162.953 176.698 163.156C176.627 163.358 176.613 163.576 176.659 163.785C176.76 164.2 176.95 164.588 177.214 164.923C177.767 165.774 178.468 166.52 179.284 167.125C180.12 167.7 180.891 168.073 181.884 167.929" fill="#455A64"/>
<path d="M182.43 159.96C181.872 158.299 180.885 156.816 179.569 155.66C179.361 155.453 179.104 155.303 178.821 155.226C178.532 155.204 178.244 155.283 178.006 155.45C177.769 155.618 177.597 155.862 177.519 156.142C177.428 156.457 177.404 156.787 177.448 157.111C177.493 157.436 177.604 157.748 177.777 158.027C178.125 158.58 178.58 159.06 179.115 159.437C180.074 160.169 181.141 160.746 182.278 161.149" fill="#455A64"/>
<path d="M183.568 153.711C183.294 151.701 182.245 150.025 181.032 148.402C180.779 148.056 180.421 147.695 179.999 147.759C179.864 147.786 179.739 147.847 179.635 147.937C179.531 148.026 179.451 148.14 179.404 148.269C179.31 148.526 179.272 148.8 179.292 149.073C179.344 150.289 179.753 151.464 180.468 152.45C181.182 153.436 182.171 154.19 183.31 154.619" fill="#455A64"/>
<path d="M184.363 150.52C184.232 149.49 184.197 148.45 184.259 147.413C184.326 146.37 184.683 145.366 185.292 144.516C185.553 144.15 185.91 143.865 186.324 143.692C186.532 143.609 186.758 143.581 186.979 143.611C187.201 143.64 187.411 143.726 187.59 143.861C187.742 144.002 187.86 144.176 187.935 144.37C188.01 144.563 188.041 144.771 188.024 144.978C187.991 145.395 187.883 145.804 187.707 146.183C186.947 148.008 185.698 150.025 184.363 150.536" fill="#455A64"/>
<path d="M171.974 152.915C171.98 153 171.98 153.086 171.974 153.172C171.974 153.357 171.974 153.598 171.974 153.899C171.974 154.201 171.974 154.603 171.974 155.053C171.974 155.503 171.974 156.017 172.03 156.58C172.078 157.713 172.187 159.055 172.359 160.542C172.532 162.029 172.797 163.653 173.163 165.341C173.529 167.029 173.943 168.62 174.369 170.055C174.795 171.489 175.245 172.759 175.655 173.816C175.848 174.347 176.057 174.817 176.217 175.235C176.378 175.653 176.539 176.01 176.667 176.3L176.953 176.971C176.986 177.048 177.016 177.127 177.041 177.208C176.991 177.14 176.949 177.065 176.917 176.987L176.599 176.328C176.462 176.043 176.298 175.693 176.121 175.275C175.944 174.857 175.719 174.395 175.534 173.864C175.108 172.811 174.654 171.538 174.2 170.107C173.746 168.676 173.336 167.077 172.974 165.381C172.613 163.685 172.375 162.053 172.199 160.558C172.022 159.063 171.941 157.717 171.909 156.584C171.881 156.017 171.885 155.503 171.881 155.053C171.877 154.603 171.881 154.213 171.881 153.895C171.881 153.578 171.901 153.353 171.909 153.164C171.92 153.079 171.942 152.995 171.974 152.915Z" fill="#263238"/>
<path d="M172.42 161.157C172.438 160.176 172.796 159.232 173.432 158.485C173.526 158.347 173.652 158.235 173.799 158.157C173.946 158.079 174.11 158.039 174.276 158.039C174.714 158.103 174.915 158.625 174.927 159.067C174.953 159.819 174.704 160.555 174.228 161.137C173.822 161.697 173.211 162.074 172.528 162.186" fill="#263238"/>
<path d="M173.384 166.51C173.328 165.361 173.698 163.584 174.373 162.648C174.469 162.489 174.598 162.353 174.751 162.246C174.827 162.196 174.915 162.166 175.006 162.158C175.097 162.149 175.189 162.163 175.273 162.198C175.379 162.274 175.465 162.375 175.523 162.492C175.581 162.609 175.61 162.739 175.606 162.869C175.675 163.701 175.511 164.536 175.132 165.28C174.753 166.024 174.174 166.647 173.461 167.081" fill="#263238"/>
<path d="M174.634 171.099C174.744 169.949 175.16 168.848 175.84 167.913C175.906 167.795 175.996 167.692 176.104 167.609C176.212 167.527 176.335 167.468 176.467 167.434C176.868 167.382 177.194 167.796 177.27 168.198C177.455 169.022 177.045 169.858 176.571 170.553C176.118 171.137 175.591 171.66 175.004 172.108" fill="#263238"/>
<path d="M175.767 174.322C175.945 173.416 176.321 172.559 176.868 171.815C176.984 171.648 177.137 171.51 177.314 171.413C177.403 171.365 177.502 171.343 177.602 171.349C177.702 171.355 177.799 171.388 177.881 171.445C178.134 171.642 178.078 172.04 177.97 172.341C177.63 173.381 176.969 174.286 176.081 174.925" fill="#263238"/>
<path d="M175.261 173.028C174.23 172.352 173.139 171.772 172.002 171.296C171.92 171.245 171.827 171.216 171.731 171.21C171.634 171.204 171.538 171.223 171.451 171.264C171.396 171.314 171.356 171.377 171.334 171.448C171.313 171.519 171.312 171.595 171.331 171.666C171.372 171.816 171.45 171.954 171.556 172.068C172.057 172.63 172.679 173.072 173.374 173.361C174.07 173.65 174.822 173.778 175.574 173.736" fill="#263238"/>
<path d="M173.999 168.765L171.318 167.016C171.077 166.835 170.805 166.699 170.515 166.615C170.366 166.576 170.21 166.579 170.063 166.624C169.916 166.669 169.785 166.753 169.683 166.868C169.601 166.996 169.558 167.146 169.558 167.298C169.558 167.45 169.601 167.599 169.683 167.728C169.842 167.989 170.054 168.214 170.306 168.387C170.866 168.848 171.504 169.205 172.191 169.44C172.498 169.57 172.828 169.637 173.161 169.637C173.495 169.637 173.825 169.57 174.132 169.44" fill="#263238"/>
<path d="M172.761 163.918C172.025 162.907 171.033 162.11 169.888 161.607C169.703 161.509 169.495 161.462 169.285 161.471C169.083 161.519 168.904 161.635 168.778 161.8C168.653 161.964 168.587 162.168 168.594 162.375C168.601 162.609 168.656 162.839 168.756 163.051C168.856 163.263 169 163.451 169.177 163.605C169.531 163.905 169.94 164.133 170.382 164.276C171.191 164.57 172.042 164.733 172.902 164.758" fill="#263238"/>
<path d="M172.191 159.409C171.572 158.103 170.499 157.187 169.321 156.343C169.213 156.236 169.078 156.159 168.93 156.121C168.783 156.083 168.628 156.085 168.481 156.126C168.396 156.174 168.325 156.243 168.273 156.325C168.221 156.408 168.19 156.503 168.184 156.6C168.176 156.796 168.208 156.992 168.28 157.175C168.577 157.994 169.109 158.707 169.81 159.225C170.511 159.742 171.349 160.041 172.219 160.084" fill="#263238"/>
<path d="M172.046 157.086C171.733 156.413 171.486 155.712 171.306 154.992C171.127 154.269 171.155 153.51 171.387 152.802C171.48 152.489 171.663 152.209 171.913 151.999C172.036 151.897 172.183 151.828 172.34 151.8C172.497 151.772 172.659 151.785 172.809 151.838C172.943 151.902 173.061 151.995 173.154 152.11C173.247 152.226 173.313 152.361 173.348 152.505C173.41 152.794 173.422 153.092 173.384 153.385C173.26 154.792 172.834 156.435 172.046 157.066" fill="#263238"/>
<path d="M192.176 152.742C192.194 152.825 192.202 152.91 192.2 152.995C192.2 153.18 192.2 153.421 192.228 153.723C192.256 154.024 192.248 154.43 192.228 154.88C192.208 155.33 192.228 155.844 192.2 156.411C192.168 157.544 192.071 158.895 191.91 160.386C191.75 161.877 191.484 163.508 191.135 165.208C190.785 166.908 190.331 168.499 189.909 169.934C189.487 171.369 189.001 172.639 188.575 173.692C188.374 174.222 188.173 174.692 187.988 175.106C187.803 175.52 187.647 175.874 187.51 176.159C187.373 176.444 187.273 176.649 187.192 176.814C187.159 176.893 187.117 176.969 187.068 177.039C187.093 176.957 187.122 176.877 187.156 176.798L187.442 176.127C187.57 175.838 187.727 175.484 187.892 175.066C188.056 174.648 188.261 174.178 188.454 173.643C188.856 172.59 189.302 171.313 189.74 169.886C190.178 168.459 190.592 166.86 190.946 165.172C191.3 163.484 191.549 161.852 191.75 160.37C191.951 158.887 192.031 157.556 192.079 156.411C192.119 155.844 192.119 155.334 192.135 154.884C192.152 154.434 192.135 154.044 192.135 153.731C192.135 153.417 192.135 153.184 192.135 152.999C192.142 152.912 192.155 152.826 192.176 152.742Z" fill="#455A64"/>
<path d="M191.73 160.98C191.711 160 191.353 159.057 190.717 158.312C190.623 158.174 190.498 158.061 190.351 157.982C190.204 157.904 190.04 157.863 189.873 157.862C189.435 157.926 189.234 158.453 189.222 158.895C189.196 159.645 189.445 160.38 189.921 160.96C190.327 161.521 190.938 161.9 191.621 162.013" fill="#455A64"/>
<path d="M190.765 166.329C190.821 165.176 190.452 163.4 189.777 162.463C189.681 162.303 189.552 162.166 189.399 162.061C189.323 162.01 189.235 161.979 189.144 161.971C189.052 161.963 188.961 161.977 188.876 162.013C188.771 162.089 188.686 162.189 188.628 162.306C188.569 162.422 188.54 162.55 188.543 162.68C188.478 163.512 188.647 164.346 189.029 165.088C189.412 165.83 189.993 166.45 190.709 166.88" fill="#455A64"/>
<path d="M189.535 170.923C189.425 169.772 189.009 168.671 188.33 167.736C188.263 167.618 188.173 167.516 188.065 167.434C187.957 167.353 187.834 167.294 187.703 167.262C187.301 167.209 186.976 167.623 186.899 168.021C186.714 168.845 187.124 169.681 187.598 170.38C188.04 170.969 188.556 171.499 189.134 171.955" fill="#455A64"/>
<path d="M188.382 174.15C188.205 173.243 187.829 172.386 187.281 171.642C187.166 171.475 187.013 171.337 186.835 171.24C186.746 171.194 186.647 171.172 186.547 171.178C186.447 171.183 186.351 171.216 186.268 171.272C186.015 171.473 186.071 171.867 186.18 172.173C186.518 173.212 187.18 174.116 188.069 174.753" fill="#455A64"/>
<path d="M188.888 172.852C189.92 172.176 191.011 171.596 192.148 171.12C192.23 171.07 192.323 171.042 192.419 171.037C192.515 171.032 192.611 171.051 192.698 171.091C192.753 171.141 192.794 171.204 192.815 171.275C192.836 171.346 192.838 171.422 192.819 171.493C192.773 171.636 192.696 171.766 192.594 171.875C192.091 172.436 191.469 172.877 190.774 173.166C190.078 173.455 189.327 173.583 188.575 173.543" fill="#455A64"/>
<path d="M190.15 168.588L192.831 166.84C193.073 166.659 193.345 166.523 193.634 166.438C193.783 166.401 193.939 166.404 194.085 166.449C194.232 166.494 194.364 166.577 194.466 166.691C194.549 166.82 194.592 166.97 194.592 167.123C194.592 167.276 194.549 167.426 194.466 167.555C194.309 167.816 194.096 168.039 193.843 168.21C193.285 168.673 192.646 169.03 191.959 169.263C191.652 169.393 191.322 169.46 190.988 169.46C190.655 169.46 190.325 169.393 190.018 169.263" fill="#455A64"/>
<path d="M191.388 163.733C192.124 162.723 193.116 161.926 194.261 161.426C194.447 161.328 194.655 161.281 194.864 161.29C195.066 161.338 195.245 161.454 195.371 161.619C195.497 161.784 195.562 161.987 195.555 162.194C195.549 162.428 195.494 162.657 195.393 162.868C195.293 163.079 195.15 163.267 194.973 163.42C194.618 163.72 194.209 163.949 193.767 164.095C192.958 164.387 192.107 164.55 191.247 164.577" fill="#455A64"/>
<path d="M191.947 159.236C192.565 157.926 193.638 157.014 194.816 156.166C195.061 155.989 195.383 155.816 195.656 155.953C195.741 156.001 195.813 156.069 195.865 156.152C195.917 156.235 195.947 156.33 195.953 156.427C195.961 156.622 195.928 156.816 195.857 156.998C195.561 157.811 195.032 158.52 194.337 159.035C193.642 159.551 192.811 159.852 191.947 159.899" fill="#455A64"/>
<path d="M192.103 156.893C192.415 156.22 192.662 155.519 192.843 154.8C193.022 154.075 192.994 153.315 192.762 152.605C192.668 152.292 192.485 152.013 192.236 151.802C192.112 151.701 191.965 151.634 191.808 151.607C191.651 151.579 191.49 151.592 191.34 151.645C191.206 151.709 191.088 151.802 190.995 151.918C190.902 152.033 190.836 152.168 190.801 152.312C190.739 152.6 190.727 152.896 190.765 153.188C190.89 154.595 191.316 156.242 192.103 156.873" fill="#455A64"/>
<path d="M168.558 177.035V180.419C168.558 180.772 168.698 181.11 168.947 181.359C169.197 181.609 169.535 181.749 169.888 181.749H193.028C193.381 181.749 193.719 181.609 193.97 181.36C194.22 181.11 194.361 180.772 194.362 180.419V177.035H168.558Z" fill="#B7EB8F"/>
<g opacity="0.4">
<path opacity="0.4" d="M170.563 181.749L170.756 182.826L192.107 184.345L192.65 181.749H170.563Z" fill="black"/>
</g>
<path d="M81.1465 62.4575C79.9409 60.5727 80.829 57.3176 80.178 55.1796C79.5269 53.0416 79.6153 51.7195 78.2208 49.9914C76.8067 48.3835 74.9484 47.2299 72.88 46.676C71.4515 46.3774 69.9757 46.3876 68.5514 46.7057C67.1271 47.0238 65.7872 47.6426 64.6215 48.5206C63.4159 49.3926 62.2103 50.3732 61.4708 51.6713C60.5586 53.2506 60.4179 55.0349 60.4621 56.8956L60.3456 56.775C59.4533 56.133 58.3826 55.786 57.2833 55.7824C56.7679 55.7556 56.2557 55.8784 55.8085 56.1361C55.5882 56.2675 55.4084 56.457 55.2886 56.6838C55.1688 56.9106 55.1137 57.166 55.1293 57.422C55.2338 58.2258 56.1219 58.6277 56.8815 58.9009C56.4316 59.106 56.077 59.4751 55.8899 59.9327C55.7029 60.3904 55.6975 60.9021 55.8749 61.3636C56.0523 61.8251 56.3992 62.2014 56.8446 62.4159C57.29 62.6304 57.8006 62.6668 58.2719 62.5178C59.353 62.2164 59.9276 61.1032 60.6068 60.1588C60.722 61.7022 60.5462 63.2536 60.0884 64.7321C59.4776 66.4521 58.2197 68.0475 58.3603 69.864C58.4246 70.6677 58.7622 71.4956 58.6216 72.3034C58.3724 73.5532 57.0141 74.2524 56.3952 75.3576C55.5472 76.8204 56.13 78.7896 57.3316 79.9791C58.5332 81.1687 60.209 81.7433 61.8446 82.1693C65.7226 83.182 70.1352 83.5035 73.4707 81.2812L82.8183 71.7488C83.2081 69.3496 83.2684 65.8091 81.1465 62.4575Z" fill="#263238"/>
<path d="M78.3495 193.367V193.825C78.3495 193.825 86.2623 196.743 86.3869 198.226L70.8505 198.596L70.9389 193.42C72.1055 193.943 73.3712 194.209 74.6499 194.2C75.9286 194.191 77.1903 193.907 78.3495 193.367Z" fill="#B7EB8F"/>
<g opacity="0.6">
<path opacity="0.6" d="M72.5666 195.035C72.4212 195.087 72.3 195.191 72.2259 195.326C72.1518 195.462 72.1301 195.62 72.1647 195.77C72.208 195.92 72.3072 196.048 72.4419 196.126C72.5766 196.205 72.7364 196.229 72.8881 196.192C73.0449 196.14 73.1767 196.031 73.2583 195.887C73.3399 195.743 73.3655 195.574 73.3301 195.413C73.2683 195.261 73.15 195.139 73.0002 195.072C72.8504 195.006 72.6806 194.999 72.5264 195.055" fill="white"/>
</g>
<g opacity="0.6">
<path opacity="0.6" d="M70.8666 198.596V197.35L85.7359 197.45C85.7359 197.45 86.4351 197.736 86.3668 198.226L70.8666 198.596Z" fill="white"/>
</g>
<path d="M78.4178 193.87C78.4178 193.946 78.04 193.99 77.6743 194.239C77.3086 194.488 77.1157 194.818 77.0434 194.79C76.9711 194.762 77.0755 194.32 77.5256 194.022C77.9757 193.725 78.4339 193.797 78.4178 193.87Z" fill="#263238"/>
<path d="M80.0655 194.505C80.0856 194.577 79.7601 194.714 79.5069 195.043C79.2537 195.373 79.1934 195.71 79.105 195.706C79.0166 195.702 78.9684 195.28 79.2899 194.878C79.6114 194.476 80.0615 194.432 80.0655 194.505Z" fill="#263238"/>
<path d="M81.03 196.434C80.9617 196.434 80.8452 196.076 81.03 195.654C81.2149 195.232 81.5685 195.059 81.6007 195.123C81.6328 195.188 81.4198 195.413 81.2711 195.758C81.1224 196.104 81.1104 196.426 81.03 196.434Z" fill="#263238"/>
<path d="M61.3865 112.145L87.2148 118.012L86.7285 121.284L79.3381 179.591L74.2303 179.475L73.7039 183.779L65.6102 183.899C65.6102 183.899 64.4045 169.355 64.0871 164.163C63.7696 158.971 63.6008 150.054 62.6283 144.54C61.6557 139.026 55.1334 122.63 61.3865 112.145Z" fill="#263238"/>
<path d="M78.8759 180.961C78.8156 181.42 77.6703 194.247 77.6703 194.247H71.807L70.7782 181.014L78.8759 180.961Z" fill="#EB996E"/>
<path d="M73.7039 183.413C73.6477 183.871 72.4983 196.699 72.4983 196.699H66.639L65.6102 183.465L73.7039 183.413Z" fill="#FFBE9D"/>
<path d="M80.2463 177.2L79.4868 181.339L73.8003 181.271L73.9249 177.268L80.2463 177.2Z" fill="#455A64"/>
<path d="M76.7903 122.449C76.7949 122.498 76.7949 122.548 76.7903 122.598C76.7903 122.706 76.7903 122.851 76.7903 123.036C76.7903 123.438 76.7581 124 76.734 124.72C76.6737 126.198 76.5893 128.312 76.4808 130.92C76.2477 136.165 75.9262 143.378 75.5726 151.372C75.2189 159.365 74.8492 166.583 74.6001 171.827C74.4674 174.431 74.3589 176.545 74.2826 178.024C74.2424 178.743 74.2102 179.31 74.1861 179.708L74.154 180.146C74.1581 180.195 74.1581 180.245 74.154 180.294C74.1496 180.244 74.1496 180.192 74.154 180.142C74.154 180.033 74.154 179.889 74.154 179.704C74.154 179.302 74.1861 178.743 74.2102 178.02C74.2705 176.541 74.3549 174.427 74.4634 171.819C74.6965 166.575 75.018 159.361 75.3717 151.368C75.7253 143.374 76.095 136.161 76.3442 130.916C76.4768 128.312 76.5853 126.194 76.6617 124.72C76.7019 124 76.734 123.434 76.7581 123.036C76.7581 122.851 76.7822 122.706 76.7903 122.598C76.7857 122.548 76.7857 122.498 76.7903 122.449Z" fill="#455A64"/>
<path d="M74.809 180.961L74.0495 185.101H65.1359L64.505 181.098L74.809 180.961Z" fill="#455A64"/>
<path d="M66.623 194.786C66.623 194.786 70.7502 197.716 72.7475 195.188L73.2699 196.417L75.6169 205.17C75.6971 205.444 75.6744 205.738 75.553 205.996C75.4316 206.255 75.2199 206.46 74.9578 206.573C74.7561 206.654 74.5351 206.676 74.3213 206.636C74.1075 206.595 73.9099 206.494 73.7522 206.344C72.0563 204.736 65.8393 198.76 65.8996 197.949L65.9237 195.803C65.9267 195.585 65.9943 195.372 66.1181 195.193C66.2419 195.013 66.4162 194.874 66.619 194.794L66.623 194.786Z" fill="#B7EB8F"/>
<g opacity="0.6">
<path opacity="0.6" d="M74.7527 206.625L65.9115 197.193V197.675C65.8984 197.867 65.9275 198.059 65.997 198.238C66.0664 198.418 66.1745 198.579 66.3134 198.712C67.0327 199.677 69.014 201.839 73.7159 206.348C73.8495 206.478 74.0137 206.573 74.1934 206.623C74.3731 206.674 74.5627 206.679 74.7447 206.637L74.7527 206.625Z" fill="white"/>
</g>
<g opacity="0.6">
<path opacity="0.6" d="M67.1975 195.795C67.3336 195.895 67.4284 196.041 67.4639 196.206C67.4994 196.371 67.4733 196.544 67.3904 196.691C67.296 196.831 67.1514 196.93 66.9863 196.968C66.8212 197.005 66.648 196.978 66.5023 196.892C66.3577 196.785 66.2576 196.629 66.2212 196.453C66.1849 196.277 66.2149 196.094 66.3054 195.939C66.419 195.804 66.5807 195.717 66.7566 195.697C66.9325 195.678 67.1092 195.727 67.2498 195.835" fill="white"/>
</g>
<path d="M72.1887 201.794C72.253 201.827 72.4982 201.244 73.1572 200.93C73.5625 200.768 73.9946 200.684 74.4312 200.681C74.4312 200.653 74.3026 200.569 74.0293 200.533C73.6879 200.495 73.3428 200.558 73.0367 200.713C72.7292 200.864 72.4712 201.1 72.2932 201.393C72.1887 201.622 72.1887 201.786 72.1887 201.794Z" fill="#263238"/>
<path d="M72.9925 203.277C73.3079 203.094 73.6355 202.933 73.9731 202.795C74.3301 202.725 74.6912 202.676 75.0541 202.65C75.0863 202.594 74.5518 202.361 73.9008 202.562C73.2497 202.763 72.9403 203.245 72.9925 203.277Z" fill="#263238"/>
<path d="M70.726 199.902C70.7782 199.954 71.3207 199.391 72.1848 199.058C72.7211 198.88 73.2707 198.746 73.8284 198.656C73.8284 198.596 73.0247 198.443 72.0964 198.817C71.168 199.19 70.6697 199.87 70.726 199.902Z" fill="#263238"/>
<path d="M70.5291 197.237C70.5572 197.302 71.168 197.044 71.9637 197.012C72.7595 196.98 73.3944 197.169 73.4185 197.101C73.4426 197.032 72.8117 196.723 71.9557 196.767C71.0997 196.811 70.4929 197.185 70.5291 197.237Z" fill="#263238"/>
<path d="M72.4179 196.988C72.4286 196.851 72.4079 196.714 72.3576 196.586C72.2502 196.214 72.0699 195.867 71.8271 195.566C71.668 195.332 71.4385 195.156 71.1721 195.063C71.0804 195.042 70.9846 195.049 70.8971 195.084C70.8096 195.118 70.7345 195.178 70.6818 195.256C70.5924 195.416 70.5638 195.603 70.6014 195.783C70.6942 196.145 70.9102 196.463 71.2124 196.683C71.5146 196.903 71.884 197.011 72.2571 196.988C72.6227 196.955 72.9703 196.814 73.2562 196.584C73.5422 196.354 73.7538 196.044 73.8646 195.694C73.8921 195.605 73.9001 195.512 73.8884 195.419C73.8766 195.327 73.8452 195.239 73.7963 195.16C73.7379 195.085 73.6577 195.031 73.5669 195.004C73.4762 194.978 73.3793 194.98 73.29 195.011C73.0328 195.121 72.8095 195.297 72.6429 195.521C72.3914 195.812 72.194 196.146 72.0602 196.506C71.9963 196.63 71.9633 196.768 71.9638 196.908C72.1659 196.444 72.4369 196.013 72.7675 195.63C72.921 195.443 73.1184 195.296 73.3422 195.204C73.3905 195.185 73.4435 195.182 73.4935 195.196C73.5434 195.21 73.5876 195.239 73.6195 195.28C73.6472 195.334 73.6637 195.394 73.6678 195.455C73.672 195.515 73.6637 195.576 73.6436 195.634C73.5386 195.934 73.3494 196.198 73.0986 196.394C72.8478 196.59 72.5459 196.71 72.229 196.739C71.9141 196.758 71.602 196.67 71.3436 196.489C71.0852 196.308 70.8958 196.045 70.8064 195.742C70.7772 195.618 70.7913 195.488 70.8466 195.373C70.8744 195.328 70.9152 195.294 70.9634 195.274C71.0116 195.254 71.0648 195.249 71.1158 195.26C71.3386 195.336 71.5342 195.476 71.6784 195.662C72.0035 196.055 72.254 196.505 72.4179 196.988Z" fill="#263238"/>
<path d="M114.309 76.4748C114.309 76.4748 116.475 73.3804 116.945 73.1192C117.415 72.858 121.402 72.0703 121.707 72.219C122.013 72.3677 126.454 73.8667 125.847 74.3248C125.24 74.783 122.145 73.7019 122.145 73.7019L121.687 73.8466C121.687 73.8466 124.368 74.7146 124.902 75.1406C125.437 75.5666 125.099 76.1574 124.605 76.0247C124.111 75.8921 121.792 75.0562 121.635 75.1326C121.478 75.2089 124.135 76.1855 124.4 76.4065C124.762 76.7039 124.693 77.4152 124.195 77.3027C123.902 77.2344 121.422 76.1614 121.422 76.1614C122.142 76.5642 122.84 77.0055 123.512 77.4835C123.773 77.8251 123.46 78.231 123.03 78.0662C122.736 77.9497 121.394 77.0334 121 76.8606C121 76.8606 120.598 76.9008 120.136 77.6202C119.674 78.3395 117.403 79.8264 117.403 79.8264L115.872 80.7307L113.3 77.1701L114.309 76.4748Z" fill="#FFBE9D"/>
<path d="M115.346 76.6878C115.483 76.8229 115.659 76.9114 115.85 76.941C116.04 76.9705 116.235 76.9396 116.407 76.8526C116.76 76.7079 117.058 76.4507 117.403 76.2739C118.432 75.7675 119.746 76.1292 120.751 75.5746C120.892 75.4943 121.04 75.3576 120.992 75.2009C120.944 75.0442 120.775 75.016 120.626 75L116.853 74.5016" fill="#FFBE9D"/>
<path d="M116.853 74.5016C116.986 74.4828 117.121 74.4828 117.255 74.5016L118.372 74.6182L120.028 74.8111L120.502 74.8713C120.6 74.8677 120.697 74.8836 120.789 74.9181C120.881 74.9526 120.965 75.005 121.036 75.0723C121.073 75.1248 121.092 75.1872 121.092 75.2511C121.092 75.3151 121.073 75.3774 121.036 75.43C120.98 75.5197 120.903 75.5942 120.811 75.647C120.646 75.7366 120.473 75.8094 120.293 75.864C119.62 75.9932 118.939 76.0765 118.255 76.1131C117.971 76.1489 117.693 76.2275 117.432 76.3462C117.186 76.4587 116.977 76.6115 116.768 76.7481C116.609 76.862 116.426 76.9398 116.233 76.9759C116.04 77.0119 115.841 77.0055 115.651 76.9571C115.382 76.8566 115.314 76.6918 115.326 76.6959C115.431 76.7754 115.549 76.8353 115.675 76.8727C115.853 76.9023 116.034 76.8947 116.209 76.8505C116.383 76.8062 116.546 76.7262 116.688 76.6155C116.902 76.4701 117.123 76.3359 117.351 76.2136C117.628 76.0805 117.923 75.991 118.227 75.9484C118.902 75.9003 119.572 75.8131 120.237 75.6871C120.4 75.6379 120.557 75.572 120.707 75.4902C120.843 75.4139 120.924 75.2893 120.864 75.229C120.803 75.1687 120.638 75.1285 120.462 75.1085L119.983 75.0401L118.336 74.799C117.87 74.7307 117.488 74.6664 117.227 74.6182C117.098 74.5947 116.972 74.5556 116.853 74.5016Z" fill="#EB996E"/>
<path d="M125.835 74.3369C125.555 74.4273 125.26 74.4614 124.967 74.4374C124.649 74.4306 124.333 74.3942 124.022 74.3289C123.677 74.2364 123.307 74.1199 122.913 74.0033L122.081 73.7462H122.133C121.454 73.905 120.764 74.0084 120.068 74.0556C120.722 73.8279 121.394 73.6558 122.077 73.5412H122.101H122.129L122.957 73.7863L124.05 74.1239C124.349 74.1979 124.652 74.249 124.959 74.2766C125.501 74.3289 125.831 74.3007 125.835 74.3369Z" fill="#EB996E"/>
<path d="M81.3113 70.9169C81.3113 70.9169 86.1659 70.6557 88.6053 71.8533C91.0446 73.0509 101.791 80.4413 101.791 80.4413L112.802 76.3623L116.7 81.6469L107.152 88.5993C106.026 89.3607 104.728 89.8271 103.376 89.9556C102.023 90.0841 100.66 89.8706 99.4116 89.3347L87.058 84.4278L81.3113 70.9169Z" fill="#B7EB8F"/>
<path d="M102.426 85.6294C102.265 85.4183 102.14 85.182 102.056 84.9302C101.82 84.3332 101.665 83.7075 101.594 83.0695C101.524 82.4325 101.542 81.7889 101.646 81.1566C101.674 80.8913 101.745 80.6321 101.855 80.389C101.745 81.2714 101.72 82.1624 101.783 83.0494C101.913 83.9282 102.128 84.7923 102.426 85.6294Z" fill="#263238"/>
<g opacity="0.3">
<path opacity="0.3" d="M101.755 80.5137C101.3 80.9155 101.204 81.5706 101.168 82.1734C101.114 83.0739 101.137 83.9773 101.236 84.874C101.262 85.3685 101.392 85.8519 101.618 86.2926C101.657 86.376 101.713 86.4504 101.782 86.5112C101.851 86.5721 101.932 86.618 102.02 86.6462C102.333 86.7186 102.615 86.381 102.623 86.0555C102.599 85.735 102.498 85.4249 102.329 85.1513C101.656 83.7997 101.459 82.2604 101.771 80.7829" fill="black"/>
</g>
<path d="M64.2036 72.8419C63.9665 72.9222 61.3584 74.6181 59.3048 75.9684C58.6043 76.4301 58.0906 77.1255 57.855 77.9307C57.6195 78.7359 57.6776 79.5985 58.0188 80.3649L63.1146 91.8182L64.8989 98.7586L59.1159 113.957L59.5178 115.645L87.2188 118.012L88.5691 114.829L86.9616 100.362V82.1974L82.5411 70.8767L74.9296 70.9732L64.2036 72.8419Z" fill="#B7EB8F"/>
<g opacity="0.3">
<path opacity="0.3" d="M85.8846 71.7287C86.0537 71.7262 86.2199 71.7732 86.3627 71.8639C86.5054 71.9546 86.6186 72.085 86.6883 72.2391C86.8232 72.5555 86.8929 72.8958 86.8933 73.2398C87.2188 78.1587 87.0299 84.1707 86.9535 89.2222L87.2992 104.803C85.8203 102.046 85.6917 98.7747 85.555 95.6722C85.4559 92.8618 85.3528 90.0487 85.2456 87.2329C85.0728 82.5712 85.3018 77.9095 85.129 73.2478C85.121 72.637 85.2617 71.8051 85.8846 71.7287Z" fill="black"/>
</g>
<g opacity="0.3">
<path opacity="0.3" d="M61.6477 107.154C61.7963 106.663 62.1821 105.751 62.1821 105.751C63.5807 103.465 64.6456 99.6869 64.4768 97.0145C64.4768 97.0145 63.8218 94.2536 63.1145 91.6656L62.371 89.9737L62.4192 89.9978C63.6691 90.5725 64.4286 92.2845 64.6054 93.6468C64.7823 95.0091 64.947 96.5684 65.9838 97.5048C66.663 98.1237 67.6155 98.3567 68.3549 98.9033C68.7873 99.2269 69.137 99.6484 69.3751 100.133C69.6133 100.618 69.7333 101.152 69.7253 101.692C69.7253 102.142 69.6328 102.669 69.9584 102.986C70.3602 103.364 70.9671 103.167 71.4694 102.986C71.9717 102.805 72.6509 102.697 72.9282 103.155C73.0099 103.343 73.0254 103.553 72.9721 103.751C72.9188 103.949 72.7999 104.123 72.6348 104.244C72.298 104.476 71.9433 104.68 71.5739 104.855C70.7018 105.381 70.2035 106.346 69.4681 107.049C68.0093 108.456 65.8191 108.701 63.8017 108.87C63.2069 108.922 62.5318 108.942 62.1098 108.52C61.919 108.353 61.7757 108.139 61.6945 107.899C61.6134 107.659 61.5972 107.402 61.6477 107.154Z" fill="black"/>
</g>
<path d="M59.3289 118.145C59.3289 118.109 59.8232 118.253 60.6148 118.382C61.6481 118.544 62.6987 118.564 63.7374 118.442C64.777 118.315 65.794 118.045 66.7595 117.639C67.4989 117.329 67.9329 117.076 67.9651 117.108C67.9972 117.14 67.8727 117.193 67.6798 117.317C67.409 117.488 67.127 117.641 66.8358 117.775C64.8897 118.678 62.7067 118.939 60.6028 118.519C60.2879 118.457 59.9777 118.374 59.6745 118.27C59.5536 118.246 59.437 118.204 59.3289 118.145Z" fill="#455A64"/>
<path d="M77.0113 103.107L76.8667 102.886C76.8667 102.886 77.7106 104.043 77.369 104.976C77.3205 105.113 77.2439 105.239 77.144 105.345C77.1448 105.607 77.0774 105.864 76.9484 106.091C76.8194 106.319 76.6332 106.509 76.4084 106.642C76.1836 106.776 75.9278 106.848 75.6663 106.853C75.4049 106.857 75.1468 106.793 74.9176 106.667C74.7968 106.622 74.6932 106.539 74.6212 106.432C74.5492 106.325 74.5123 106.198 74.5157 106.069C74.5543 105.939 74.6248 105.822 74.7207 105.727C74.7676 105.674 74.8093 105.616 74.8453 105.554L73.8124 105.353C73.8124 105.353 71.3088 105.201 70.6336 103.862C70.5251 103.649 65.1561 104.071 65.1561 104.071L65.558 98.0152L74.5439 99.2208C74.5439 99.2208 80.9055 99.9562 81.5244 99.9522C81.6222 99.939 81.7218 99.9496 81.8148 99.983C81.9077 100.016 81.9912 100.072 82.0582 100.144C82.1252 100.217 82.1738 100.304 82.1998 100.4C82.2258 100.495 82.2284 100.595 82.2075 100.692C82.1834 101.094 81.874 101.262 81.2591 101.286C81.0502 101.286 77.2404 101.419 77.2404 101.419C77.5619 101.893 77.9718 102.657 77.4695 102.934L77.0113 103.107Z" fill="#FFBE9D"/>
<path d="M75.1867 103.822C75.1867 103.794 75.3595 103.79 75.6408 103.822C76.014 103.853 76.374 103.975 76.6897 104.176C76.8547 104.278 76.9931 104.419 77.0936 104.585C77.1942 104.751 77.2541 104.939 77.2684 105.132C77.2684 105.434 77.1519 105.59 77.1318 105.578C77.1117 105.566 77.1639 105.402 77.1318 105.148C77.1015 104.984 77.0372 104.827 76.9431 104.689C76.849 104.551 76.7271 104.433 76.5852 104.345C76.29 104.162 75.9649 104.033 75.6248 103.963C75.3475 103.899 75.1787 103.85 75.1867 103.822Z" fill="#EB996E"/>
<path d="M75.2631 101.929C75.2631 101.905 75.472 101.901 75.7815 102.006C76.1907 102.144 76.5585 102.383 76.8505 102.701C77.1414 103.018 77.3462 103.404 77.4452 103.822C77.5216 104.144 77.5015 104.349 77.4774 104.349C77.3172 103.8 77.0509 103.288 76.6937 102.842C76.282 102.446 75.7957 102.136 75.2631 101.929Z" fill="#EB996E"/>
<path d="M75.9945 100.969C75.9945 100.913 76.3602 100.889 76.7661 101.049C77.172 101.21 77.4292 101.451 77.393 101.507C77.3568 101.564 77.0675 101.387 76.6897 101.242C76.312 101.098 75.9905 101.025 75.9945 100.969Z" fill="#EB996E"/>
<path d="M75.9302 105.876C75.8819 105.904 75.7252 105.719 75.46 105.635C75.1947 105.55 74.9576 105.602 74.9335 105.546C74.9094 105.49 75.1747 105.321 75.5243 105.438C75.8739 105.554 75.9905 105.86 75.9302 105.876Z" fill="#EB996E"/>
<path d="M62.5037 89.7808L59.9317 96.5805L69.5164 98.0353L69.0422 106.157L55.8688 105.598C52.5735 105.462 49.7925 102.886 49.6478 99.5704C49.6478 99.4298 49.6478 99.2851 49.6478 99.1364C49.7001 96.7252 53.9157 85.7782 55.8487 80.1238C56.4569 78.4147 57.6384 76.9691 59.1923 76.0328L62.5037 89.7808Z" fill="#B7EB8F"/>
<path d="M69.0423 106.157C69.0266 105.951 69.0266 105.744 69.0423 105.538C69.0624 105.108 69.0825 104.534 69.1146 103.83C69.191 102.347 69.2955 100.33 69.416 98.0313L69.5044 98.1398L67.4951 97.8504C64.7181 97.4486 62.2105 97.0708 60.394 96.7895L58.248 96.4439L57.6653 96.3394C57.5962 96.3316 57.5285 96.314 57.4644 96.2871C57.5324 96.2791 57.6012 96.2791 57.6693 96.2871L58.2601 96.3514L60.4141 96.6287C62.2386 96.8739 64.7503 97.2275 67.5232 97.6334L69.5326 97.9228H69.625V98.0152C69.4763 100.31 69.3437 102.327 69.2513 103.81C69.195 104.509 69.1508 105.084 69.1186 105.514C69.1149 105.73 69.0893 105.946 69.0423 106.157Z" fill="#263238"/>
<path d="M59.3811 79.3322C59.3811 79.3322 59.4896 79.4085 59.6584 79.5773C59.8962 79.8153 60.1178 80.0691 60.3215 80.3368C61.6884 82.1166 62.4716 84.2754 62.5639 86.5176C62.5884 86.8534 62.5884 87.1905 62.5639 87.5263C62.563 87.65 62.5454 87.773 62.5117 87.892C62.4715 87.892 62.5117 87.3656 62.4353 86.5257C62.2645 84.3289 61.499 82.2201 60.221 80.4252C59.7307 79.738 59.353 79.3563 59.3811 79.3322Z" fill="#263238"/>
<path d="M86.8048 82.8285C86.7733 82.4836 86.7733 82.1365 86.8048 81.7916C86.8289 81.1527 86.8571 80.2685 86.8611 79.296C86.8651 78.3235 86.837 77.4394 86.8169 76.8004C86.789 76.4553 86.789 76.1086 86.8169 75.7635C86.9067 76.0994 86.9567 76.4448 86.9656 76.7923C87.0259 77.4313 87.0701 78.3154 87.0701 79.296C87.0701 80.2766 87.0138 81.1607 86.9535 81.7997C86.943 82.1471 86.8931 82.4922 86.8048 82.8285Z" fill="#263238"/>
<path d="M64.9552 110.272C65.1807 110.339 65.401 110.422 65.6143 110.521C66.0161 110.698 66.639 110.943 67.3905 111.237C69.3543 111.995 71.3587 112.643 73.3945 113.178C75.4325 113.705 77.4988 114.115 79.5833 114.407C80.3871 114.52 81.0341 114.6 81.4842 114.653C81.718 114.67 81.9503 114.703 82.1794 114.753C81.9449 114.767 81.7095 114.76 81.4761 114.733C81.022 114.709 80.371 114.649 79.5632 114.556C77.4643 114.303 75.3847 113.909 73.3382 113.379C71.2856 112.847 69.2716 112.175 67.3102 111.369C66.5627 111.06 65.9639 110.795 65.554 110.594C65.3457 110.504 65.1454 110.396 64.9552 110.272Z" fill="#263238"/>
<path d="M82.3843 85.8183C82.3843 85.8978 82.4078 85.9755 82.452 86.0416C82.4962 86.1077 82.5589 86.1592 82.6324 86.1896C82.7058 86.22 82.7866 86.228 82.8646 86.2125C82.9425 86.197 83.0141 86.1587 83.0703 86.1025C83.1265 86.0463 83.1648 85.9747 83.1803 85.8967C83.1958 85.8188 83.1879 85.738 83.1574 85.6645C83.127 85.5911 83.0755 85.5283 83.0094 85.4842C82.9433 85.44 82.8656 85.4164 82.7861 85.4164C82.6796 85.4164 82.5773 85.4588 82.502 85.5341C82.4266 85.6095 82.3843 85.7117 82.3843 85.8183Z" fill="#263238"/>
<path d="M109.703 82.8284C109.703 82.9079 109.727 82.9856 109.771 83.0517C109.815 83.1177 109.878 83.1692 109.952 83.1997C110.025 83.2301 110.106 83.238 110.184 83.2225C110.262 83.207 110.333 83.1688 110.39 83.1126C110.446 83.0563 110.484 82.9847 110.5 82.9068C110.515 82.8288 110.507 82.748 110.477 82.6746C110.446 82.6012 110.395 82.5384 110.329 82.4942C110.263 82.4501 110.185 82.4265 110.105 82.4265C109.999 82.4265 109.897 82.4689 109.821 82.5442C109.746 82.6196 109.703 82.7218 109.703 82.8284Z" fill="#263238"/>
<path d="M97.0164 81.3214C96.9978 81.3815 96.9935 81.4452 97.0039 81.5073C97.0144 81.5694 97.0393 81.6282 97.0766 81.6789C97.114 81.7296 97.1627 81.7708 97.2189 81.7992C97.2752 81.8276 97.3372 81.8424 97.4002 81.8424C97.4632 81.8424 97.5253 81.8276 97.5815 81.7992C97.6377 81.7708 97.6865 81.7296 97.7238 81.6789C97.7611 81.6282 97.7861 81.5694 97.7965 81.5073C97.807 81.4452 97.8027 81.3815 97.784 81.3214C97.7586 81.2395 97.7076 81.1679 97.6385 81.117C97.5695 81.0661 97.486 81.0387 97.4002 81.0387C97.3145 81.0387 97.2309 81.0661 97.1619 81.117C97.0928 81.1679 97.0419 81.2395 97.0164 81.3214Z" fill="#263238"/>
<path d="M90.4297 75.7635C90.4297 75.843 90.4533 75.9207 90.4974 75.9868C90.5416 76.0529 90.6043 76.1044 90.6778 76.1348C90.7512 76.1652 90.832 76.1732 90.91 76.1577C90.9879 76.1422 91.0595 76.1039 91.1157 76.0477C91.1719 75.9915 91.2102 75.9199 91.2257 75.8419C91.2412 75.7639 91.2333 75.6831 91.2028 75.6097C91.1724 75.5363 91.1209 75.4735 91.0548 75.4294C90.9887 75.3852 90.911 75.3616 90.8316 75.3616C90.725 75.3616 90.6228 75.404 90.5474 75.4793C90.472 75.5547 90.4297 75.6569 90.4297 75.7635Z" fill="#263238"/>
<path d="M81.4801 91.6535C81.4801 91.733 81.5037 91.8107 81.5478 91.8768C81.592 91.9429 81.6548 91.9944 81.7282 92.0248C81.8016 92.0552 81.8824 92.0632 81.9604 92.0477C82.0383 92.0322 82.1099 91.9939 82.1661 91.9377C82.2223 91.8815 82.2606 91.8099 82.2761 91.7319C82.2916 91.654 82.2837 91.5732 82.2533 91.4997C82.2228 91.4263 82.1713 91.3635 82.1052 91.3194C82.0392 91.2752 81.9615 91.2516 81.882 91.2516C81.7754 91.2516 81.6732 91.294 81.5978 91.3694C81.5224 91.4447 81.4801 91.5469 81.4801 91.6535Z" fill="#263238"/>
<path d="M104.66 81.7072C104.66 81.7867 104.684 81.8644 104.728 81.9304C104.772 81.9965 104.835 82.048 104.908 82.0785C104.982 82.1089 105.062 82.1168 105.14 82.1013C105.218 82.0858 105.29 82.0475 105.346 81.9913C105.402 81.9351 105.441 81.8635 105.456 81.7856C105.472 81.7076 105.464 81.6268 105.433 81.5534C105.403 81.48 105.351 81.4172 105.285 81.373C105.219 81.3289 105.141 81.3053 105.062 81.3053C104.955 81.3053 104.853 81.3476 104.778 81.423C104.702 81.4984 104.66 81.6006 104.66 81.7072Z" fill="#263238"/>
<path d="M99.0058 87.892C98.9871 87.9521 98.9828 88.0158 98.9933 88.0779C99.0037 88.14 99.0286 88.1988 99.066 88.2495C99.1033 88.3002 99.1521 88.3414 99.2083 88.3698C99.2645 88.3983 99.3266 88.4131 99.3895 88.4131C99.4525 88.4131 99.5146 88.3983 99.5708 88.3698C99.627 88.3414 99.6758 88.3002 99.7131 88.2495C99.7505 88.1988 99.7754 88.14 99.7858 88.0779C99.7963 88.0158 99.792 87.9521 99.7733 87.892C99.7479 87.8101 99.6969 87.7385 99.6279 87.6876C99.5588 87.6367 99.4753 87.6093 99.3895 87.6093C99.3038 87.6093 99.2203 87.6367 99.1512 87.6876C99.0822 87.7385 99.0312 87.8101 99.0058 87.892Z" fill="#263238"/>
<path d="M73.7441 87.1244C73.7441 87.2039 73.7677 87.2816 73.8118 87.3477C73.856 87.4138 73.9187 87.4653 73.9922 87.4957C74.0656 87.5261 74.1464 87.5341 74.2244 87.5186C74.3023 87.5031 74.3739 87.4648 74.4301 87.4086C74.4863 87.3524 74.5246 87.2808 74.5401 87.2028C74.5556 87.1248 74.5477 87.044 74.5172 86.9706C74.4868 86.8972 74.4353 86.8344 74.3692 86.7903C74.3031 86.7461 74.2254 86.7225 74.146 86.7225C74.0394 86.7225 73.9372 86.7649 73.8618 86.8402C73.7864 86.9156 73.7441 87.0178 73.7441 87.1244Z" fill="#263238"/>
<path d="M72.2209 81.7072C72.434 81.7072 72.6067 81.5345 72.6067 81.3214C72.6067 81.1083 72.434 80.9356 72.2209 80.9356C72.0078 80.9356 71.8351 81.1083 71.8351 81.3214C71.8351 81.5345 72.0078 81.7072 72.2209 81.7072Z" fill="#263238"/>
<path d="M79.0769 78.9061C79.0769 78.9856 79.1005 79.0633 79.1446 79.1294C79.1888 79.1955 79.2516 79.247 79.325 79.2774C79.3984 79.3078 79.4792 79.3158 79.5572 79.3003C79.6351 79.2848 79.7067 79.2465 79.7629 79.1903C79.8191 79.1341 79.8574 79.0625 79.8729 78.9845C79.8884 78.9066 79.8805 78.8258 79.8501 78.7524C79.8196 78.6789 79.7681 78.6162 79.702 78.572C79.636 78.5278 79.5583 78.5043 79.4788 78.5043C79.3722 78.5043 79.27 78.5466 79.1946 78.622C79.1192 78.6973 79.0769 78.7996 79.0769 78.9061Z" fill="#263238"/>
<path d="M91.8805 81.7072C91.8805 81.7867 91.9041 81.8644 91.9482 81.9304C91.9924 81.9965 92.0551 82.048 92.1286 82.0785C92.202 82.1089 92.2828 82.1168 92.3608 82.1013C92.4387 82.0858 92.5103 82.0475 92.5665 81.9913C92.6227 81.9351 92.661 81.8635 92.6765 81.7856C92.692 81.7076 92.6841 81.6268 92.6536 81.5534C92.6232 81.48 92.5717 81.4172 92.5056 81.373C92.4395 81.3289 92.3618 81.3053 92.2824 81.3053C92.1758 81.3053 92.0736 81.3476 91.9982 81.423C91.9228 81.4984 91.8805 81.6006 91.8805 81.7072Z" fill="#263238"/>
<path d="M80.9255 74.2283C81.1385 74.2283 81.3113 74.0556 81.3113 73.8425C81.3113 73.6295 81.1385 73.4567 80.9255 73.4567C80.7124 73.4567 80.5397 73.6295 80.5397 73.8425C80.5397 74.0556 80.7124 74.2283 80.9255 74.2283Z" fill="#263238"/>
<path d="M67.1976 83.2142C67.4106 83.2142 67.5834 83.0415 67.5834 82.8284C67.5834 82.6154 67.4106 82.4426 67.1976 82.4426C66.9845 82.4426 66.8118 82.6154 66.8118 82.8284C66.8118 83.0415 66.9845 83.2142 67.1976 83.2142Z" fill="#263238"/>
<path d="M73.7441 94.4746C73.7441 94.5541 73.7677 94.6318 73.8118 94.6979C73.856 94.764 73.9187 94.8155 73.9922 94.8459C74.0656 94.8763 74.1464 94.8843 74.2244 94.8688C74.3023 94.8533 74.3739 94.815 74.4301 94.7588C74.4863 94.7026 74.5246 94.631 74.5401 94.553C74.5556 94.4751 74.5477 94.3943 74.5172 94.3208C74.4868 94.2474 74.4353 94.1846 74.3692 94.1405C74.3031 94.0963 74.2254 94.0728 74.146 94.0728C74.0394 94.0728 73.9372 94.1151 73.8618 94.1905C73.7864 94.2658 73.7441 94.368 73.7441 94.4746Z" fill="#263238"/>
<path d="M84.7392 114.669C84.9523 114.669 85.125 114.496 85.125 114.283C85.125 114.07 84.9523 113.897 84.7392 113.897C84.5262 113.897 84.3535 114.07 84.3535 114.283C84.3535 114.496 84.5262 114.669 84.7392 114.669Z" fill="#263238"/>
<path d="M74.5157 109.682C74.7287 109.682 74.9015 109.509 74.9015 109.296C74.9015 109.083 74.7287 108.91 74.5157 108.91C74.3026 108.91 74.1299 109.083 74.1299 109.296C74.1299 109.509 74.3026 109.682 74.5157 109.682Z" fill="#263238"/>
<path d="M63.1105 113.576C63.1105 113.655 63.134 113.733 63.1782 113.799C63.2224 113.865 63.2851 113.916 63.3586 113.947C63.432 113.977 63.5128 113.985 63.5907 113.97C63.6687 113.954 63.7403 113.916 63.7965 113.86C63.8527 113.804 63.891 113.732 63.9065 113.654C63.922 113.576 63.914 113.495 63.8836 113.422C63.8532 113.348 63.8017 113.286 63.7356 113.241C63.6695 113.197 63.5918 113.174 63.5123 113.174C63.4058 113.174 63.3035 113.216 63.2282 113.291C63.1528 113.367 63.1105 113.469 63.1105 113.576Z" fill="#263238"/>
<path d="M77.2484 105.518C77.2484 105.598 77.2719 105.675 77.3161 105.741C77.3602 105.807 77.423 105.859 77.4964 105.889C77.5699 105.92 77.6507 105.928 77.7286 105.912C77.8066 105.897 77.8782 105.858 77.9344 105.802C77.9906 105.746 78.0289 105.674 78.0444 105.596C78.0599 105.519 78.0519 105.438 78.0215 105.364C77.9911 105.291 77.9396 105.228 77.8735 105.184C77.8074 105.14 77.7297 105.116 77.6502 105.116C77.5436 105.116 77.4414 105.159 77.3661 105.234C77.2907 105.309 77.2484 105.411 77.2484 105.518Z" fill="#263238"/>
<path d="M57.2432 82.3663C57.4563 82.3663 57.629 82.1935 57.629 81.9805C57.629 81.7674 57.4563 81.5947 57.2432 81.5947C57.0301 81.5947 56.8574 81.7674 56.8574 81.9805C56.8574 82.1935 57.0301 82.3663 57.2432 82.3663Z" fill="#263238"/>
<path d="M56.8574 101.226C56.8574 101.306 56.881 101.383 56.9252 101.449C56.9693 101.515 57.0321 101.567 57.1055 101.597C57.1789 101.628 57.2597 101.636 57.3377 101.62C57.4157 101.605 57.4873 101.566 57.5435 101.51C57.5997 101.454 57.6379 101.382 57.6534 101.304C57.669 101.227 57.661 101.146 57.6306 101.072C57.6002 100.999 57.5486 100.936 57.4826 100.892C57.4165 100.848 57.3388 100.824 57.2593 100.824C57.1527 100.824 57.0505 100.867 56.9751 100.942C56.8998 101.017 56.8574 101.12 56.8574 101.226Z" fill="#263238"/>
<path d="M63.1105 103.553C63.1105 103.632 63.134 103.71 63.1782 103.776C63.2224 103.842 63.2851 103.894 63.3586 103.924C63.432 103.955 63.5128 103.963 63.5907 103.947C63.6687 103.932 63.7403 103.893 63.7965 103.837C63.8527 103.781 63.891 103.709 63.9065 103.631C63.922 103.553 63.914 103.473 63.8836 103.399C63.8532 103.326 63.8017 103.263 63.7356 103.219C63.6695 103.175 63.5918 103.151 63.5123 103.151C63.4058 103.151 63.3035 103.193 63.2282 103.269C63.1528 103.344 63.1105 103.446 63.1105 103.553Z" fill="#263238"/>
<path d="M66.4299 99.1123C66.4554 99.1942 66.5064 99.2658 66.5754 99.3166C66.6445 99.3675 66.728 99.3949 66.8137 99.3949C66.8995 99.3949 66.983 99.3675 67.0521 99.3166C67.1211 99.2658 67.1721 99.1942 67.1975 99.1123C67.2162 99.0521 67.2205 98.9884 67.21 98.9263C67.1996 98.8642 67.1747 98.8054 67.1373 98.7547C67.1 98.704 67.0512 98.6628 66.995 98.6344C66.9388 98.606 66.8767 98.5912 66.8137 98.5912C66.7508 98.5912 66.6887 98.606 66.6325 98.6344C66.5763 98.6628 66.5275 98.704 66.4902 98.7547C66.4528 98.8054 66.4279 98.8642 66.4174 98.9263C66.407 98.9884 66.4113 99.0521 66.4299 99.1123Z" fill="#263238"/>
<path d="M58.9592 87.1244C58.9592 87.2039 58.9828 87.2816 59.027 87.3477C59.0711 87.4138 59.1339 87.4653 59.2073 87.4957C59.2807 87.5261 59.3615 87.5341 59.4395 87.5186C59.5175 87.5031 59.5891 87.4648 59.6453 87.4086C59.7015 87.3524 59.7397 87.2808 59.7552 87.2028C59.7708 87.1248 59.7628 87.044 59.7324 86.9706C59.702 86.8972 59.6505 86.8344 59.5844 86.7903C59.5183 86.7461 59.4406 86.7225 59.3611 86.7225C59.2545 86.7225 59.1523 86.7649 59.0769 86.8402C59.0016 86.9156 58.9592 87.0178 58.9592 87.1244Z" fill="#263238"/>
<path d="M84.7392 108.11C84.9523 108.11 85.125 107.937 85.125 107.724C85.125 107.511 84.9523 107.339 84.7392 107.339C84.5262 107.339 84.3535 107.511 84.3535 107.724C84.3535 107.937 84.5262 108.11 84.7392 108.11Z" fill="#263238"/>
<path d="M54.1086 93.1244C54.3216 93.1244 54.4944 92.9517 54.4944 92.7386C54.4944 92.5255 54.3216 92.3528 54.1086 92.3528C53.8955 92.3528 53.7228 92.5255 53.7228 92.7386C53.7228 92.9517 53.8955 93.1244 54.1086 93.1244Z" fill="#263238"/>
<path d="M51.6693 99.1123C51.6693 99.1917 51.6929 99.2694 51.737 99.3355C51.7812 99.4016 51.844 99.4531 51.9174 99.4835C51.9908 99.514 52.0716 99.5219 52.1496 99.5064C52.2275 99.4909 52.2991 99.4526 52.3553 99.3964C52.4116 99.3402 52.4498 99.2686 52.4653 99.1907C52.4808 99.1127 52.4729 99.0319 52.4425 98.9585C52.412 98.885 52.3605 98.8223 52.2944 98.7781C52.2284 98.734 52.1507 98.7104 52.0712 98.7104C51.9646 98.7104 51.8624 98.7527 51.787 98.8281C51.7117 98.9035 51.6693 99.0057 51.6693 99.1123Z" fill="#263238"/>
<path d="M66.4299 89.608C66.4554 89.6899 66.5064 89.7615 66.5754 89.8124C66.6445 89.8632 66.728 89.8907 66.8137 89.8907C66.8995 89.8907 66.983 89.8632 67.0521 89.8124C67.1211 89.7615 67.1721 89.6899 67.1975 89.608C67.2162 89.5478 67.2205 89.4841 67.21 89.422C67.1996 89.3599 67.1747 89.3012 67.1373 89.2505C67.1 89.1997 67.0512 89.1585 66.995 89.1301C66.9388 89.1017 66.8767 89.0869 66.8137 89.0869C66.7508 89.0869 66.6887 89.1017 66.6325 89.1301C66.5763 89.1585 66.5275 89.1997 66.4902 89.2505C66.4528 89.3012 66.4279 89.3599 66.4174 89.422C66.407 89.4841 66.4113 89.5478 66.4299 89.608Z" fill="#263238"/>
<g opacity="0.3">
<path opacity="0.3" d="M68.5359 75.2049C68.2988 74.4654 67.9732 74.3167 67.27 73.9792C66.3988 73.5503 65.5779 73.026 64.8226 72.4159L61.3383 74.6302C60.9365 76.1131 60.9003 77.8452 61.6116 79.1834C62.3229 80.5216 63.8581 81.5183 65.3691 81.2812C66.3367 81.0952 67.1941 80.5404 67.7602 79.734C68.3203 78.9342 68.7001 78.0224 68.8734 77.0615C68.994 76.5592 68.6886 75.6911 68.5359 75.2049Z" fill="black"/>
</g>
<path d="M78.6187 54.3478C78.1807 51.7235 76.099 48.6653 73.4948 49.2159L65.4976 52.1375C65.1191 52.2207 64.7855 52.4425 64.5624 52.7594C64.3392 53.0762 64.2428 53.4651 64.292 53.8494L67.2096 73.5653H67.1533C67.1533 73.5653 69.5846 78.9624 74.8451 76.7119C75.886 76.2618 76.2597 75.0361 76.3521 73.8024H76.4084C76.4084 73.6577 76.3843 73.5251 76.3722 73.4005C76.3861 72.4875 76.3039 71.5756 76.1271 70.6798C75.9824 69.0723 75.9141 68.4213 75.9181 68.4374C75.9221 68.4535 79.2336 67.5292 79.4787 63.0563C79.5631 60.838 79.0849 57.2613 78.6187 54.3478Z" fill="#FFBE9D"/>
<path d="M77.7789 57.4582C77.7949 57.6049 77.753 57.7521 77.6622 57.8684C77.5714 57.9847 77.4388 58.061 77.2926 58.0811C77.2215 58.0937 77.1487 58.0921 77.0783 58.0762C77.0079 58.0603 76.9413 58.0305 76.8826 57.9886C76.8238 57.9467 76.774 57.8935 76.7361 57.8321C76.6981 57.7707 76.6728 57.7023 76.6617 57.631C76.6445 57.4847 76.6854 57.3375 76.7756 57.2211C76.8657 57.1046 76.998 57.0281 77.1439 57.0081C77.2153 56.9949 77.2885 56.9961 77.3594 57.0117C77.4303 57.0273 77.4973 57.057 77.5565 57.0989C77.6157 57.1409 77.6659 57.1943 77.7041 57.256C77.7423 57.3177 77.7677 57.3865 77.7789 57.4582Z" fill="#263238"/>
<path d="M78.0119 56.2928C77.9517 56.3732 77.4895 56.1039 76.8827 56.1682C76.2758 56.2325 75.8619 56.5701 75.7896 56.5138C75.7173 56.4576 75.7896 56.341 75.9905 56.1803C76.2335 55.9714 76.5355 55.8436 76.8545 55.8146C77.1714 55.7808 77.4908 55.8484 77.7668 56.0075C77.9677 56.1321 78.0441 56.2566 78.0119 56.2928Z" fill="#263238"/>
<path d="M72.0562 58.1696C72.0723 58.3167 72.0306 58.4644 71.9398 58.5814C71.8491 58.6983 71.7165 58.7755 71.5699 58.7965C71.4989 58.8091 71.426 58.8075 71.3556 58.7916C71.2852 58.7757 71.2186 58.7459 71.1599 58.704C71.1011 58.6621 71.0513 58.6089 71.0134 58.5475C70.9755 58.4861 70.9502 58.4177 70.939 58.3464C70.9218 58.1997 70.9625 58.052 71.0526 57.9349C71.1427 57.8178 71.275 57.7405 71.4212 57.7195C71.4926 57.7062 71.5659 57.7075 71.6367 57.7231C71.7076 57.7387 71.7746 57.7683 71.8338 57.8103C71.893 57.8523 71.9432 57.9057 71.9814 57.9674C72.0196 58.0291 72.045 58.0979 72.0562 58.1696Z" fill="#263238"/>
<path d="M72.0562 57.0202C71.9919 57.1006 71.5338 56.8313 70.927 56.8956C70.3201 56.9599 69.9062 57.2975 69.8299 57.2412C69.7535 57.185 69.854 57.0724 70.0308 56.9077C70.2762 56.7003 70.579 56.5727 70.8988 56.542C71.2144 56.508 71.5326 56.5755 71.8071 56.7349C72.008 56.8595 72.0844 56.984 72.0562 57.0202Z" fill="#263238"/>
<path d="M74.7206 61.3002C75.03 61.1651 75.3555 61.0705 75.6891 61.0188C75.8418 60.9867 75.9865 60.9425 76.0026 60.834C75.9982 60.672 75.945 60.5151 75.8499 60.3839C75.6677 60.0222 75.4748 59.6444 75.2712 59.2506C74.4674 57.6431 73.8566 56.3009 73.9249 56.2687C73.9932 56.2366 74.7005 57.5185 75.5083 59.1341C75.7052 59.5359 75.9101 59.9137 76.0709 60.2754C76.1869 60.4536 76.2367 60.667 76.2115 60.8782C76.1943 60.9346 76.1648 60.9866 76.1252 61.0303C76.0856 61.0741 76.0369 61.1086 75.9825 61.1314C75.8979 61.1618 75.8103 61.1834 75.7213 61.1957C75.3932 61.2714 75.0572 61.3065 74.7206 61.3002Z" fill="#263238"/>
<path d="M75.882 68.4414C73.8129 68.6855 71.7166 68.3517 69.8257 67.4769C69.8257 67.4769 71.5659 70.3503 75.9302 69.4862L75.882 68.4414Z" fill="#EB996E"/>
<path d="M74.6 62.7871C74.4696 62.654 74.3075 62.5561 74.129 62.5027C73.9505 62.4493 73.7613 62.442 73.5792 62.4817C73.4463 62.5085 73.32 62.5614 73.2075 62.6373C73.0951 62.7132 72.9988 62.8105 72.9241 62.9237C72.8531 63.033 72.8177 63.1616 72.8227 63.2919C72.8278 63.4221 72.873 63.5476 72.9523 63.6511C73.0593 63.7484 73.1928 63.8118 73.3359 63.8333C73.4789 63.8548 73.6251 63.8333 73.756 63.7717C74.0317 63.6402 74.2788 63.4559 74.4834 63.2291C74.5477 63.174 74.6009 63.1072 74.6401 63.0322C74.6587 62.9965 74.6663 62.9561 74.662 62.9161C74.6577 62.876 74.6417 62.8382 74.616 62.8072" fill="#EB996E"/>
<path d="M72.9926 61.903C73.089 61.903 73.1573 62.546 73.7722 62.9559C74.3871 63.3658 75.0783 63.2211 75.0903 63.3135C75.1024 63.406 74.9497 63.4542 74.6523 63.4944C74.2672 63.5405 73.8782 63.4479 73.5552 63.2332C73.243 63.0279 73.0225 62.7095 72.9403 62.345C72.876 62.0758 72.9323 61.903 72.9926 61.903Z" fill="#263238"/>
<path d="M72.2169 55.9312C72.1767 56.1 71.5618 56.0879 70.8585 56.2446C70.1553 56.4014 69.5967 56.6465 69.4882 56.5179C69.4399 56.4536 69.5243 56.2888 69.7373 56.116C70.0254 55.8847 70.3642 55.725 70.7259 55.6499C71.0855 55.5662 71.4595 55.5662 71.819 55.6499C72.0923 55.7342 72.237 55.8508 72.2169 55.9312Z" fill="#263238"/>
<path d="M77.61 54.5608C77.5136 54.7095 77.0836 54.609 76.5772 54.6532C76.0709 54.6974 75.6609 54.8421 75.5444 54.7095C75.4962 54.6411 75.5444 54.4965 75.7212 54.3478C75.9502 54.1626 76.2311 54.0531 76.525 54.0343C76.8207 54.0099 77.1168 54.0772 77.3729 54.2272C77.5739 54.3518 77.6502 54.4884 77.61 54.5608Z" fill="#263238"/>
<path d="M74.4835 48.0986C75.6955 48.2787 76.8085 48.871 77.635 49.7757C78.4614 50.6805 78.9507 51.8424 79.0206 53.0658L76.521 53.1903L76.0026 51.8883C76.308 52.692 75.7293 53.6324 74.9537 54.0262C74.1781 54.4201 73.2658 54.4281 72.3937 54.396L72.233 53.2788C72.1912 53.6561 72.0492 54.0154 71.8217 54.3193C71.5941 54.6232 71.2893 54.8606 70.939 55.0068C70.2367 55.2901 69.4897 55.4466 68.7327 55.469C67.9745 55.4877 67.2264 55.6472 66.5264 55.9391C66.2348 55.242 66.1161 54.4846 66.1805 53.7317C66.2449 52.9787 66.4904 52.2525 66.8961 51.615C67.7301 50.3428 68.9648 49.3854 70.4045 48.8943C71.8375 48.4118 73.3461 48.1926 74.8572 48.2473" fill="#263238"/>
<path d="M62.0537 75.1044C62.2948 73.8184 62.7288 72.5244 62.5319 71.2344C62.347 70.0288 61.6437 68.8232 62.0938 67.714C62.2474 67.3838 62.4862 67.1006 62.7858 66.8936C63.0853 66.6866 63.4347 66.5634 63.7978 66.5365C62.1099 63.7797 61.8527 60.2914 61.9733 57.0162C61.976 55.9512 62.122 54.8915 62.4073 53.8655C62.7011 52.8333 63.3429 51.9346 64.2238 51.3216C64.6661 51.024 65.1811 50.8525 65.7136 50.8256C66.246 50.7987 66.7758 50.9174 67.2458 51.1689L67.9411 51.2252C68.5268 52.9017 68.4448 54.7394 67.712 56.3571C67.4428 56.9478 67.0811 57.5265 67.0409 58.1736C66.9645 59.556 68.359 60.6692 68.359 62.0476C68.359 63.1367 67.8647 64.1695 67.3664 65.138C67.0489 65.7488 66.9324 66.1065 67.4749 66.8218C67.8004 67.2518 70.1674 73.0991 68.3872 76.3703C68.1538 77.508 67.4956 78.514 66.5466 79.1834C65.341 79.947 63.621 79.8907 62.6766 78.8458C61.8005 77.8653 61.8085 76.3904 62.0537 75.1044Z" fill="#263238"/>
<path d="M38.512 35.5361C38.512 35.5361 38.512 35.6045 38.512 35.725C38.512 35.8456 38.512 36.0385 38.512 36.2595C38.512 36.7377 38.512 37.4089 38.5361 38.2689C38.5361 39.9929 38.5602 42.4202 38.5803 45.3298L38.4919 45.2373H48.2654C48.2896 45.2132 48.0685 45.4342 48.161 45.3378V42.6734C48.161 41.8134 48.161 40.9694 48.161 40.1496C48.161 38.506 48.161 36.9588 48.161 35.5361L48.2534 35.6286L41.2447 35.5803L39.2354 35.5562H38.7049H38.516C38.5721 35.5495 38.6288 35.5495 38.6848 35.5562H39.1992L41.1724 35.5321L48.2896 35.4879H48.378V35.5803C48.378 37.003 48.378 38.5502 48.378 40.1938C48.378 40.9976 48.378 41.8576 48.378 42.7176V45.3539C48.4704 45.2614 48.2494 45.4825 48.2735 45.4624H38.5H38.4316V45.374C38.4517 42.4403 38.4678 39.9929 38.4758 38.2568C38.4758 37.4209 38.4959 36.7538 38.5 36.2796C38.5 36.0666 38.5 35.8978 38.5 35.7652C38.4936 35.6887 38.4976 35.6116 38.512 35.5361Z" fill="#263238"/>
<path d="M50.3229 33.3539C50.4595 33.4624 48.3135 36.2715 45.5808 39.6272L43.9331 41.6044L43.7362 41.8415L43.5071 41.6405C41.2044 39.595 39.617 38.0679 39.7054 37.9674C39.7938 37.867 41.538 39.2132 43.8969 41.1824L43.4951 41.2186L45.1026 39.2092C47.8473 35.8737 50.1903 33.2414 50.3229 33.3539Z" fill="#B7EB8F"/>
<path d="M43.5756 26.4779C43.4955 26.4681 43.4145 26.4681 43.3344 26.4779H42.6151C42.4584 26.4779 42.2815 26.4779 42.0886 26.502L41.4577 26.5905L40.7223 26.6949L39.9185 26.8999C38.5017 27.2566 37.1534 27.8446 35.9279 28.64C34.2948 29.6855 32.8918 31.0529 31.8047 32.6587C30.4987 34.6231 29.6942 36.8778 29.4618 39.2253C29.406 39.8667 29.3926 40.5111 29.4216 41.1543C29.4458 41.4798 29.4216 41.8093 29.4859 42.1389C29.5502 42.4684 29.5864 42.7979 29.6387 43.1315C29.8894 44.4989 30.3404 45.8219 30.9769 47.0578C31.6497 48.352 32.5066 49.5419 33.5207 50.5902C34.6111 51.6619 35.861 52.558 37.226 53.2466C38.6356 53.9665 40.1602 54.4343 41.731 54.6291C42.1302 54.689 42.5329 54.7225 42.9366 54.7295C43.3377 54.7594 43.7402 54.7674 44.1422 54.7536C44.9531 54.7173 45.7596 54.6138 46.5534 54.4442C48.2798 54.0706 49.9218 53.3797 51.396 52.4067H51.2473L56.1783 54.3839L56.4716 54.5005L56.3872 54.1991C55.8889 52.3906 55.4053 50.6331 54.9365 48.9265L54.9124 49.0591C56.2513 47.2845 57.1531 45.2193 57.5446 43.031C57.7335 42.0138 57.7983 40.9775 57.7375 39.9447C57.7257 39.4477 57.6787 38.9521 57.5969 38.4617C57.5607 38.2166 57.5205 37.9795 57.4843 37.7384C57.4482 37.4973 57.3678 37.2722 57.3115 37.0391C56.4853 33.8079 54.5402 30.9744 51.822 29.0419C50.8151 28.3176 49.7129 27.736 48.5467 27.3138L47.8113 27.0486L47.112 26.8798L46.469 26.7191C46.2641 26.6829 46.0672 26.6588 45.8823 26.6306C45.5086 26.5824 45.179 26.5181 44.8937 26.5061L44.1703 26.4779H43.7243C43.6749 26.4719 43.6249 26.4719 43.5756 26.4779C43.6246 26.4878 43.6743 26.4945 43.7243 26.498L44.1663 26.5302L44.8857 26.5824C45.171 26.5824 45.4965 26.6748 45.8662 26.7311C48.5414 27.1932 51.0248 28.4219 53.0151 30.2681C55.0055 32.1143 56.417 34.4986 57.0785 37.1316C57.1307 37.3566 57.203 37.5857 57.2432 37.8188L57.3517 38.526C57.4293 39.0073 57.4723 39.4934 57.4803 39.9808C57.5366 40.9939 57.4691 42.0101 57.2794 43.0069C56.888 45.1484 55.9987 47.1678 54.6833 48.9024L54.6391 48.9586V49.031C55.1053 50.7349 55.5848 52.4938 56.0778 54.3076L56.2868 54.1187L51.3598 52.1334L51.2835 52.1053L51.2111 52.1495C49.7727 53.1095 48.1669 53.7911 46.4771 54.1589C45.6954 54.3269 44.9009 54.4277 44.102 54.4603C43.7005 54.483 43.298 54.483 42.8964 54.4603C42.5034 54.4531 42.1114 54.4195 41.7229 54.3598C40.1818 54.1742 38.6854 53.7185 37.3023 53.0135C35.9715 52.3408 34.7518 51.4679 33.6855 50.4255C32.6853 49.4023 31.8368 48.2411 31.1658 46.9774C30.539 45.7682 30.0922 44.4739 29.8396 43.1355C29.7914 42.806 29.7391 42.4845 29.6909 42.163C29.6427 41.8415 29.6467 41.512 29.6226 41.1945C29.5929 40.5635 29.6036 39.9313 29.6547 39.3017C29.8422 37.1806 30.5135 35.1307 31.6171 33.3096C32.7206 31.4885 34.2269 29.9447 36.0204 28.7967C37.2257 28.0003 38.5514 27.4032 39.9467 27.0285L40.7504 26.8115L41.4818 26.6909L42.1047 26.5864C42.2976 26.5663 42.4744 26.5623 42.6312 26.5503L43.3425 26.498C43.4205 26.4954 43.4983 26.4887 43.5756 26.4779Z" fill="#455A64"/>
<path d="M173.782 50.8635C174.943 52.8517 179.176 55.7838 179.176 55.7838C179.176 55.7838 180.257 52.4049 180.275 52.2122C180.794 49.6637 180.153 44.3896 177.565 42.9974C177.13 42.7831 176.654 42.662 176.169 42.6417C175.685 42.6215 175.201 42.7026 174.749 42.8799C174.297 43.0572 173.888 43.3267 173.546 43.6713C173.204 44.0159 172.938 44.428 172.765 44.8812C171.963 46.735 172.791 49.1861 173.782 50.8635Z" fill="#B7EB8F"/>
<path d="M166.452 63.974C168.039 65.5127 172.535 67.1288 172.89 67.2596C171.958 69.8333 171.199 72.4663 170.617 75.1411C170.266 76.6833 169.969 78.2685 169.68 79.8446C169.707 79.1123 169.738 78.4126 169.693 78.3767C169.459 75.7706 167.503 70.8551 164.648 70.1995C164.17 70.1053 163.678 70.1121 163.202 70.2197C162.727 70.3273 162.28 70.5332 161.889 70.8242C161.498 71.1152 161.173 71.4847 160.934 71.9091C160.694 72.3335 160.547 72.8033 160.5 73.2883C160.243 75.3327 161.654 77.4726 163.045 78.828C164.436 80.1835 168.271 81.681 169.294 82.0538L168.977 83.8736C168.496 86.8067 168.03 89.7216 167.482 92.5719C167.298 93.5801 167.068 94.5524 166.84 95.5411C166.868 94.8833 166.875 94.3274 166.865 94.2457C166.648 91.6376 164.675 86.7241 161.82 86.0685C161.344 85.9754 160.853 85.9828 160.379 86.0904C159.905 86.198 159.459 86.4033 159.069 86.6932C158.68 86.9831 158.355 87.3512 158.115 87.7739C157.876 88.1966 157.727 88.6647 157.679 89.1481C157.424 91.2088 158.834 93.3325 160.234 94.6951C161.634 96.0577 165.086 97.4029 166.292 97.8447C166.024 98.8465 165.773 99.8463 165.457 100.796C165.246 101.443 165.083 102.084 164.821 102.721C164.559 103.357 164.354 103.995 164.116 104.621C163.623 105.816 163.125 107.036 162.619 108.191C162.269 108.996 161.914 109.751 161.567 110.514C161.77 109.52 162.128 107.555 162.14 107.388C162.312 104.774 161.114 99.6252 158.39 98.5395C157.932 98.3753 157.445 98.3086 156.959 98.3438C156.474 98.3789 156.002 98.5151 155.573 98.7436C155.143 98.972 154.766 99.2877 154.466 99.6704C154.166 100.053 153.949 100.494 153.829 100.966C153.267 102.948 154.328 105.271 155.512 106.834C156.806 108.557 160.827 110.762 161.333 111.04C160.757 112.303 160.185 113.524 159.619 114.661C157.995 117.999 156.496 120.799 155.308 122.956L156.896 124.097C158.069 121.883 159.566 118.934 161.185 115.415C161.775 114.134 162.395 112.758 163.009 111.333C164.438 111.699 165.889 111.977 167.352 112.164C167.902 114.417 168.762 116.582 169.906 118.598C168.72 119.338 167.57 120.033 166.473 120.68C163.342 122.527 160.59 124.021 158.424 125.146L160.159 126.401C162.176 125.278 164.623 123.871 167.365 122.162C168.569 121.436 169.836 120.611 171.133 119.766C171.516 120.183 174.62 123.576 176.596 124.429C178.397 125.205 180.9 125.688 182.706 124.665C183.135 124.436 183.511 124.12 183.811 123.736C184.111 123.353 184.327 122.912 184.446 122.44C184.565 121.969 184.584 121.477 184.502 120.998C184.42 120.519 184.239 120.062 183.97 119.656C182.27 117.261 176.948 117.303 174.481 118.133C174.329 118.176 172.788 118.861 171.832 119.308C172.353 118.963 172.86 118.637 173.41 118.255C174.475 117.537 175.528 116.796 176.657 115.996C177.187 115.584 177.726 115.179 178.256 114.767C178.786 114.354 179.34 113.873 179.882 113.426C181.112 112.365 182.325 111.232 183.508 110.061C184.135 110.995 186.423 114.28 188.091 115.32C189.758 116.36 192.148 117.213 194.088 116.472C194.546 116.31 194.965 116.055 195.318 115.722C195.672 115.39 195.952 114.987 196.141 114.54C196.33 114.093 196.423 113.611 196.415 113.126C196.408 112.64 196.299 112.162 196.096 111.721C194.783 109.097 189.54 108.359 186.963 108.763C186.792 108.792 184.972 109.286 183.972 109.582C184.68 108.866 185.391 108.167 186.088 107.428C188.09 105.287 190.047 103.053 192.015 100.842C192.575 100.128 193.218 99.4946 193.824 98.8163C194.047 99.1537 196.683 103.125 198.548 104.29C200.206 105.323 202.606 106.183 204.538 105.451C204.998 105.291 205.419 105.036 205.774 104.703C206.129 104.37 206.41 103.966 206.6 103.518C206.79 103.069 206.884 102.586 206.875 102.1C206.867 101.613 206.758 101.133 206.553 100.691C205.233 98.0765 199.997 97.3289 197.404 97.7351C197.217 97.7661 194.587 98.4833 193.933 98.6953C195.269 97.2157 196.608 95.7524 197.989 94.3668C199.848 92.4895 201.823 90.7305 203.902 89.1001C204.013 89.2607 206.745 93.4107 208.654 94.5955C210.305 95.6376 212.712 96.4886 214.644 95.7567C215.104 95.5961 215.524 95.3411 215.88 95.008C216.235 94.675 216.516 94.2714 216.706 93.8231C216.896 93.3748 216.99 92.8917 216.981 92.405C216.973 91.9182 216.864 91.4386 216.659 90.9968C215.339 88.3818 210.103 87.6343 207.519 88.0477C207.348 88.0767 205.343 88.6185 204.4 88.8988L204.324 88.7507C206.467 87.1659 208.75 85.7794 211.144 84.6082C212.447 83.9446 213.729 83.3829 214.992 82.865C215.423 83.6907 217.429 87.4485 219.031 88.7037C220.634 89.9589 222.861 91.0387 224.859 90.506C225.332 90.3958 225.776 90.1883 226.164 89.8968C226.551 89.6052 226.874 89.236 227.111 88.8128C227.348 88.3895 227.494 87.9214 227.54 87.4385C227.586 86.9555 227.531 86.4683 227.378 86.0079C226.356 83.2573 221.235 81.9491 218.619 82.1012C218.479 82.1099 216.986 82.2996 215.993 82.5114C216.563 82.293 217.154 82.0472 217.71 81.8471C219.794 81.0719 221.729 80.489 223.465 79.9881C224.451 79.7109 225.342 79.4784 226.196 79.2753C227.001 79.9065 230.462 82.2034 232.457 82.599C234.452 82.9946 236.925 82.893 238.464 81.513C238.834 81.1973 239.134 80.8076 239.345 80.369C239.555 79.9304 239.672 79.4526 239.687 78.9663C239.702 78.48 239.615 77.9959 239.432 77.5451C239.249 77.0943 238.973 76.6869 238.623 76.3488C236.454 74.3838 231.297 75.5737 229.029 76.8848C228.835 76.9994 225.978 79.1195 226.024 79.1553L226.069 79.1912C225.254 79.3648 224.384 79.5699 223.436 79.8176C221.686 80.2787 219.705 80.8095 217.634 81.5664C215.362 82.3297 213.136 83.2253 210.968 84.2486C208.53 85.3816 206.199 86.7295 204.001 88.2762C204.001 88.2762 203.958 88.3312 203.943 88.3495C204.474 87.6719 205.842 85.6997 205.958 85.4951C207.211 83.1971 208.281 78.0218 206.267 75.8971C205.92 75.5554 205.506 75.2901 205.05 75.118C204.595 74.946 204.109 74.8711 203.623 74.8981C203.137 74.9252 202.662 75.0535 202.229 75.275C201.796 75.4965 201.413 75.8062 201.107 76.1842C199.757 77.7566 199.752 80.3088 200.166 82.2138C200.635 84.3688 203.495 88.2051 203.724 88.517C201.527 90.1437 199.442 91.9165 197.484 93.8234C196.334 94.9323 195.214 96.0791 194.096 97.2422C194.555 96.6562 194.909 96.0913 194.948 96.0037C196.202 93.7057 197.271 88.5304 195.257 86.4057C194.909 86.0489 194.489 85.7708 194.025 85.5899C193.561 85.409 193.063 85.3297 192.566 85.3571C192.068 85.3846 191.583 85.5182 191.141 85.7491C190.7 85.98 190.313 86.3027 190.007 86.6956C188.664 88.2588 188.659 90.8111 189.066 92.7251C189.472 94.6392 191.866 97.9771 192.501 98.8444C192.121 99.3296 191.659 99.7503 191.233 100.2C189.219 102.375 187.221 104.548 185.195 106.625C184.482 107.366 183.746 108.06 183.026 108.752C183.428 108.24 183.688 107.794 183.758 107.686C185.012 105.388 186.089 100.203 184.058 98.0806C183.711 97.7409 183.297 97.4774 182.842 97.3068C182.387 97.1362 181.902 97.0625 181.417 97.0902C180.933 97.1179 180.459 97.2464 180.027 97.4677C179.595 97.6889 179.213 97.9979 178.907 98.375C177.564 99.9382 177.56 102.49 177.973 104.395C178.387 106.3 180.522 109.347 181.284 110.372C180.523 111.061 179.754 111.759 178.978 112.392C178.441 112.814 177.948 113.255 177.383 113.655L175.746 114.84C174.674 115.566 173.581 116.32 172.557 117.025C171.828 117.503 171.118 117.937 170.411 118.387C171.126 117.662 172.509 116.219 172.609 116.091C173.936 114.209 174.757 112.018 174.993 109.728C175.152 109.526 175.292 109.309 175.411 109.081C175.644 108.653 175.784 108.182 175.824 107.697C175.863 107.211 175.801 106.723 175.64 106.264C175.48 105.804 175.225 105.383 174.892 105.028C174.56 104.673 174.156 104.391 173.708 104.201C170.971 103.15 166.592 106.118 164.951 108.156C164.858 108.275 163.944 109.687 163.392 110.599C163.628 110.015 163.853 109.483 164.124 108.853C164.626 107.665 165.084 106.458 165.554 105.142C165.777 104.518 165.997 103.879 166.218 103.239C166.438 102.599 166.627 101.905 166.828 101.234C167.275 99.6638 167.651 98.0524 167.999 96.4194C169.037 96.8484 172.763 98.3343 174.728 98.2778C176.693 98.2214 179.156 97.624 180.359 95.9369C180.654 95.5497 180.864 95.1052 180.977 94.6319C181.09 94.1586 181.102 93.667 181.014 93.1886C180.925 92.7102 180.737 92.2556 180.463 91.8539C180.188 91.4523 179.833 91.1126 179.419 90.8566C176.864 89.4023 172.103 91.6708 170.163 93.4308C170.062 93.559 168.793 94.9726 168.127 95.7659C168.322 94.7812 168.526 93.8036 168.694 92.7974C169.18 89.9132 169.593 86.9717 169.999 84.0393L170.381 81.3833C170.748 81.5376 175.141 83.3981 177.329 83.3394C179.517 83.2807 181.764 82.6764 182.976 80.9964C183.27 80.6083 183.479 80.1631 183.59 79.6893C183.702 79.2155 183.713 78.7237 183.623 78.2455C183.533 77.7672 183.343 77.3131 183.067 76.9123C182.791 76.5115 182.434 76.1728 182.02 75.9181C179.482 74.4618 174.704 76.7323 172.773 78.4996C172.651 78.6552 170.833 80.6738 170.403 81.2232C170.703 79.2565 171.026 77.2786 171.398 75.3693C171.916 72.7764 172.593 70.2179 173.425 67.7082C173.572 67.823 178.171 69.7414 180.417 69.6839C182.382 69.6275 184.852 69.0209 186.055 67.3337C186.348 66.9464 186.557 66.5022 186.668 66.0296C186.78 65.5569 186.791 65.0662 186.702 64.5889C186.613 64.1116 186.425 63.6582 186.15 63.2576C185.876 62.857 185.521 62.5181 185.108 62.2626C182.57 60.8063 177.792 63.0768 175.852 64.8369C175.752 64.9651 174.365 66.5088 173.737 67.2727L173.6 67.1651C174.516 64.6668 175.654 62.2551 176.999 59.9587C177.722 58.6779 178.482 57.5003 179.257 56.3789C180.073 56.8264 183.807 58.85 185.841 59.0254C187.876 59.2007 190.319 58.8542 191.706 57.3105C192.041 56.9568 192.298 56.5371 192.46 56.0781C192.623 55.6192 192.688 55.1312 192.651 54.6457C192.614 54.1601 192.475 53.6878 192.245 53.2589C192.014 52.8301 191.696 52.4542 191.312 52.1556C188.94 50.4306 183.929 52.1494 181.831 53.6968C181.744 53.8066 180.635 54.7699 179.862 55.4935C180.242 55.0082 180.572 54.4544 180.922 53.9894C182.227 52.1904 183.547 50.6384 184.704 49.255C185.335 48.4493 185.994 47.7977 186.579 47.1632C187.609 47.1872 191.759 47.2464 193.611 46.4663C195.463 45.6862 197.51 44.2611 198.02 42.2523C198.155 41.7856 198.19 41.2961 198.124 40.8149C198.059 40.3337 197.893 39.8716 197.639 39.458C197.384 39.0444 197.046 38.6886 196.646 38.4132C196.246 38.1377 195.793 37.9489 195.316 37.8586C192.412 37.416 188.779 41.2624 187.591 43.627C187.455 43.8009 186.283 47.1826 186.298 47.1642C185.717 47.7733 185.101 48.4281 184.451 49.145C183.247 50.4925 181.893 52.0322 180.551 53.8025C179.073 55.6918 177.709 57.6668 176.464 59.7171C175.062 62.0107 173.861 64.4212 172.874 66.9219L172.817 66.9951C172.87 66.1354 172.934 63.7333 172.92 63.5445C172.702 60.9364 170.739 56.0301 167.884 55.3745C167.407 55.2813 166.916 55.2888 166.443 55.3964C165.969 55.5039 165.523 55.7092 165.133 55.9991C164.743 56.289 164.418 56.6571 164.179 57.0798C163.94 57.5026 163.791 57.9706 163.743 58.4541C163.649 60.4786 165.059 62.6022 166.452 63.974Z" fill="#B7EB8F"/>
<path d="M150.172 181.813L97.9086 181.781C94.8898 181.78 91.995 180.58 89.8608 178.445C87.7265 176.31 86.5276 173.415 86.5276 170.396L86.5517 39.3379C86.5517 37.8423 86.8465 36.3613 87.4192 34.9798C87.9919 33.5982 88.8313 32.343 89.8894 31.286C90.9475 30.229 92.2035 29.391 93.5857 28.8197C94.9679 28.2485 96.4492 27.9553 97.9448 27.9569L150.212 27.985C153.231 27.9871 156.126 29.188 158.26 31.3236C160.394 33.4592 161.593 36.3549 161.593 39.374L161.565 170.416C161.567 171.913 161.274 173.396 160.702 174.779C160.13 176.163 159.291 177.42 158.233 178.479C157.175 179.537 155.918 180.377 154.535 180.949C153.152 181.521 151.669 181.815 150.172 181.813Z" fill="#263238"/>
<path d="M150.152 32.6387H140.021C139.353 32.6534 138.719 32.9326 138.257 33.4149C137.795 33.8971 137.543 34.543 137.557 35.2107V37.0472C137.565 37.3776 137.507 37.7062 137.388 38.0143C137.268 38.3224 137.089 38.6039 136.86 38.8428C136.632 39.0816 136.359 39.2731 136.056 39.4063C135.754 39.5396 135.428 39.6119 135.098 39.6192H115.342C114.675 39.6034 114.041 39.3237 113.58 38.8416C113.119 38.3595 112.868 37.7142 112.882 37.0472V35.1865C112.896 34.5196 112.645 33.8743 112.184 33.3922C111.723 32.91 111.09 32.6304 110.423 32.6146H97.993C96.9454 32.614 95.908 32.8198 94.94 33.2203C93.972 33.6207 93.0923 34.2078 92.3511 34.9482C91.61 35.6886 91.022 36.5677 90.6206 37.5353C90.2192 38.5029 90.0124 39.5401 90.0118 40.5877L89.9877 168.491C89.9877 170.606 90.8271 172.634 92.3213 174.129C93.8156 175.625 95.8426 176.466 97.9569 176.469L150.124 176.497C151.171 176.498 152.208 176.292 153.176 175.892C154.144 175.492 155.023 174.906 155.764 174.165C156.505 173.425 157.093 172.547 157.494 171.579C157.895 170.612 158.101 169.575 158.101 168.528L158.125 40.6199C158.127 39.572 157.922 38.5341 157.522 37.5656C157.122 36.5971 156.534 35.7169 155.794 34.9756C155.053 34.2343 154.174 33.6463 153.206 33.2453C152.238 32.8443 151.2 32.6381 150.152 32.6387Z" fill="white"/>
<path d="M215.23 82.372C215.23 82.372 218.023 80.1273 218.156 79.9951C219.973 78.1091 222.375 73.4015 220.939 70.7841C220.696 70.3623 220.367 69.9961 219.973 69.7091C219.58 69.4221 219.13 69.2206 218.654 69.1177C218.178 69.0148 217.686 69.0127 217.209 69.1115C216.732 69.2103 216.281 69.4078 215.885 69.6914C214.169 70.8443 213.492 73.3126 213.388 75.2556C213.316 77.5923 215.23 82.372 215.23 82.372Z" fill="#B7EB8F"/>
<path d="M113.328 66.1666C113.13 66.1666 112.972 66.1108 112.854 65.999C112.742 65.8807 112.686 65.7263 112.686 65.5357V60.212H110.887C110.492 60.212 110.294 60.0378 110.294 59.6895C110.294 59.3411 110.492 59.167 110.887 59.167H115.759C116.154 59.167 116.352 59.3411 116.352 59.6895C116.352 60.0378 116.154 60.212 115.759 60.212H113.96V65.5357C113.96 65.7263 113.901 65.8807 113.782 65.999C113.67 66.1108 113.519 66.1666 113.328 66.1666Z" fill="#262626"/>
<path d="M118.428 66.1962C117.934 66.1962 117.5 66.0943 117.124 65.8906C116.755 65.6869 116.469 65.3944 116.264 65.0132C116.06 64.632 115.958 64.1883 115.958 63.6823C115.958 63.1762 116.06 62.7358 116.264 62.3612C116.469 61.98 116.755 61.6875 117.124 61.4838C117.5 61.28 117.934 61.1781 118.428 61.1781C118.923 61.1781 119.354 61.28 119.723 61.4838C120.099 61.6875 120.385 61.98 120.583 62.3612C120.787 62.7358 120.889 63.1762 120.889 63.6823C120.889 64.1883 120.787 64.632 120.583 65.0132C120.385 65.3944 120.099 65.6869 119.723 65.8906C119.354 66.0943 118.923 66.1962 118.428 66.1962ZM118.419 65.2399C118.82 65.2399 119.127 65.1085 119.338 64.8456C119.548 64.5827 119.654 64.1949 119.654 63.6823C119.654 63.1762 119.548 62.7917 119.338 62.5288C119.127 62.2593 118.824 62.1246 118.428 62.1246C118.033 62.1246 117.727 62.2593 117.509 62.5288C117.299 62.7917 117.193 63.1762 117.193 63.6823C117.193 64.1949 117.299 64.5827 117.509 64.8456C117.72 65.1085 118.023 65.2399 118.419 65.2399Z" fill="#262626"/>
<path d="M125.941 59.1177C126.125 59.1177 126.277 59.1703 126.395 59.2754C126.514 59.3806 126.573 59.5186 126.573 59.6895V65.585C126.573 65.7624 126.517 65.9037 126.405 66.0089C126.293 66.1141 126.145 66.1666 125.96 66.1666C125.776 66.1666 125.628 66.1141 125.516 66.0089C125.404 65.9037 125.348 65.7624 125.348 65.585V65.3385C125.203 65.608 124.992 65.8183 124.715 65.9695C124.445 66.1206 124.136 66.1962 123.786 66.1962C123.371 66.1962 122.999 66.0911 122.67 65.8807C122.347 65.6704 122.093 65.3747 121.909 64.9935C121.731 64.6057 121.642 64.162 121.642 63.6625C121.642 63.163 121.731 62.726 121.909 62.3513C122.093 61.9767 122.347 61.6875 122.67 61.4838C122.993 61.28 123.365 61.1781 123.786 61.1781C124.136 61.1781 124.445 61.2504 124.715 61.395C124.985 61.5396 125.193 61.7434 125.338 62.0063V59.6698C125.338 59.5055 125.391 59.374 125.496 59.2754C125.608 59.1703 125.756 59.1177 125.941 59.1177ZM124.113 65.2399C124.508 65.2399 124.811 65.1052 125.022 64.8357C125.239 64.5662 125.348 64.1818 125.348 63.6823C125.348 63.1827 125.239 62.8015 125.022 62.5386C124.811 62.2692 124.511 62.1344 124.122 62.1344C123.727 62.1344 123.421 62.2659 123.203 62.5288C122.986 62.7917 122.877 63.1696 122.877 63.6625C122.877 64.162 122.986 64.5498 123.203 64.8259C123.421 65.1019 123.724 65.2399 124.113 65.2399Z" fill="#262626"/>
<path d="M129.939 61.1781C130.611 61.1781 131.108 61.3457 131.431 61.6809C131.76 62.0096 131.925 62.5124 131.925 63.1893V65.5948C131.925 65.7723 131.872 65.9136 131.767 66.0188C131.662 66.1173 131.517 66.1666 131.332 66.1666C131.161 66.1666 131.019 66.1141 130.907 66.0089C130.802 65.9037 130.749 65.7657 130.749 65.5948V65.3779C130.637 65.6343 130.459 65.8347 130.215 65.9793C129.978 66.1239 129.702 66.1962 129.385 66.1962C129.063 66.1962 128.769 66.1305 128.506 65.999C128.242 65.8676 128.035 65.6869 127.883 65.4568C127.732 65.2268 127.656 64.9705 127.656 64.6878C127.656 64.3329 127.745 64.0536 127.923 63.8498C128.107 63.6461 128.404 63.4982 128.812 63.4062C129.221 63.3142 129.784 63.2682 130.502 63.2682H130.749V63.0414C130.749 62.7194 130.68 62.4861 130.542 62.3415C130.403 62.1903 130.179 62.1147 129.87 62.1147C129.679 62.1147 129.484 62.1443 129.287 62.2034C129.089 62.256 128.855 62.3349 128.585 62.4401C128.414 62.5255 128.288 62.5682 128.209 62.5682C128.091 62.5682 127.992 62.5255 127.913 62.4401C127.841 62.3546 127.804 62.2429 127.804 62.1049C127.804 61.9931 127.831 61.8978 127.883 61.819C127.943 61.7335 128.038 61.6546 128.17 61.5823C128.4 61.4575 128.674 61.3589 128.99 61.2866C129.313 61.2143 129.629 61.1781 129.939 61.1781ZM129.632 65.3089C129.962 65.3089 130.229 65.2005 130.433 64.9836C130.644 64.7601 130.749 64.4742 130.749 64.1259V63.9189H130.571C130.13 63.9189 129.787 63.9386 129.544 63.978C129.3 64.0174 129.125 64.0865 129.02 64.185C128.914 64.2836 128.862 64.4184 128.862 64.5893C128.862 64.7996 128.934 64.9737 129.079 65.1118C129.231 65.2432 129.415 65.3089 129.632 65.3089Z" fill="#262626"/>
<path d="M136.55 61.5528C136.603 61.4345 136.672 61.349 136.758 61.2964C136.85 61.2373 136.949 61.2077 137.054 61.2077C137.206 61.2077 137.341 61.2603 137.459 61.3655C137.584 61.464 137.647 61.5889 137.647 61.7401C137.647 61.8124 137.627 61.888 137.588 61.9668L134.89 67.606C134.778 67.8295 134.603 67.9412 134.366 67.9412C134.215 67.9412 134.08 67.8919 133.961 67.7933C133.849 67.7013 133.793 67.583 133.793 67.4384C133.793 67.3661 133.813 67.284 133.852 67.1919L134.524 65.7822L132.686 61.9668C132.653 61.9011 132.637 61.8255 132.637 61.7401C132.637 61.5889 132.7 61.4608 132.825 61.3556C132.956 61.2504 133.105 61.1979 133.269 61.1979C133.381 61.1979 133.483 61.2274 133.576 61.2866C133.668 61.3392 133.74 61.4246 133.793 61.5429L135.177 64.5893L136.55 61.5528Z" fill="#262626"/>
<path fill-rule="evenodd" clip-rule="evenodd" d="M123.123 112.731C131.029 112.731 137.437 106.323 137.437 98.4174C137.437 90.5121 131.029 84.1037 123.123 84.1037C115.218 84.1037 108.81 90.5121 108.81 98.4174C108.81 106.323 115.218 112.731 123.123 112.731ZM123.123 114.776C132.158 114.776 139.482 107.452 139.482 98.4174C139.482 89.3828 132.158 82.0588 123.123 82.0588C114.089 82.0588 106.765 89.3828 106.765 98.4174C106.765 107.452 114.089 114.776 123.123 114.776Z" fill="#F0F0F0"/>
<path fill-rule="evenodd" clip-rule="evenodd" d="M119.163 114.289C119.776 114.442 120.372 114.022 120.481 113.4C120.591 112.777 120.174 112.188 119.562 112.027C117.791 111.564 116.124 110.759 114.657 109.653C112.884 108.317 111.452 106.58 110.479 104.585C109.505 102.589 109.018 100.392 109.057 98.1718C109.089 96.3345 109.481 94.525 110.206 92.8445C110.456 92.2638 110.249 91.572 109.691 91.2751C109.132 90.9782 108.435 91.1888 108.178 91.7665C107.287 93.7686 106.806 95.9331 106.767 98.1319C106.722 100.713 107.289 103.268 108.42 105.588C109.552 107.909 111.217 109.928 113.278 111.482C115.035 112.805 117.037 113.759 119.163 114.289Z" fill="#389E0D"/>
<path d="M106.883 137.269C106.883 136.704 107.34 136.247 107.905 136.247H140.622C141.187 136.247 141.645 136.704 141.645 137.269C141.645 137.834 141.187 138.291 140.622 138.291H107.905C107.34 138.291 106.883 137.834 106.883 137.269Z" fill="#F0F0F0"/>
<path d="M106.883 137.269C106.883 136.704 107.34 136.247 107.905 136.247H125.724C126.289 136.247 126.747 136.704 126.747 137.269C126.747 137.834 126.289 138.291 125.724 138.291H107.905C107.34 138.291 106.883 137.834 106.883 137.269Z" fill="#F0F0F0"/>
<path d="M106.883 137.269C106.883 136.704 107.34 136.247 107.905 136.247H111.654C112.219 136.247 112.676 136.704 112.676 137.269C112.676 137.834 112.219 138.291 111.654 138.291H107.905C107.34 138.291 106.883 137.834 106.883 137.269Z" fill="#3DAD06"/>
<path d="M106.883 129.09C106.883 128.525 107.34 128.067 107.905 128.067H140.622C141.187 128.067 141.645 128.525 141.645 129.09C141.645 129.654 141.187 130.112 140.622 130.112H107.905C107.34 130.112 106.883 129.654 106.883 129.09Z" fill="#F0F0F0"/>
<path d="M106.883 129.09C106.883 128.525 107.34 128.067 107.905 128.067H118.896C119.461 128.067 119.918 128.525 119.918 129.09C119.918 129.654 119.461 130.112 118.896 130.112H107.905C107.34 130.112 106.883 129.654 106.883 129.09Z" fill="#F0F0F0"/>
<path d="M106.883 129.09C106.883 128.525 107.34 128.067 107.905 128.067H122.082C122.647 128.067 123.105 128.525 123.105 129.09C123.105 129.654 122.647 130.112 122.082 130.112H107.905C107.34 130.112 106.883 129.654 106.883 129.09Z" fill="#3DAD06"/>
<path d="M106.765 145.448C106.765 144.884 107.222 144.426 107.787 144.426H140.504C141.069 144.426 141.527 144.884 141.527 145.448C141.527 146.013 141.069 146.471 140.504 146.471H107.787C107.222 146.471 106.765 146.013 106.765 145.448Z" fill="#F0F0F0"/>
<path d="M106.765 145.448C106.765 144.884 107.222 144.426 107.787 144.426H113.191C113.756 144.426 114.214 144.884 114.214 145.448C114.214 146.013 113.756 146.471 113.191 146.471H107.787C107.222 146.471 106.765 146.013 106.765 145.448Z" fill="#F0F0F0"/>
<path d="M106.765 145.448C106.765 144.884 107.222 144.426 107.787 144.426H113.853C114.418 144.426 114.876 144.884 114.876 145.448C114.876 146.013 114.418 146.471 113.853 146.471H107.787C107.222 146.471 106.765 146.013 106.765 145.448Z" fill="#3DAD06"/>
</svg>
