<svg width="240" height="240" viewBox="0 0 240 240" fill="none" xmlns="http://www.w3.org/2000/svg">
<path opacity="0.5" d="M18.0201 164.065C18.0201 164.065 32.0961 200.659 71.5451 214.608C110.994 228.556 154.384 215.494 189.827 205.829C225.27 196.163 245.037 167.323 238.721 136.281C232.406 105.239 202.921 105.709 176.814 76.9386C150.706 48.1679 148.126 36.6266 110.511 26.417C72.8961 16.2074 29.829 45.419 17.2963 89.6238C4.76368 133.829 18.0201 164.065 18.0201 164.065Z" fill="#D9F7BE"/>
<path d="M196.734 49.0718H158.173V92.2088H196.734V49.0718Z" fill="#E0E0E0"/>
<path d="M194.122 49.0718H155.562V92.2088H194.122V49.0718Z" fill="#FAFAFA"/>
<path d="M194.133 92.2204H155.548V49.0563H194.133V92.2204ZM155.573 92.1933H194.108V49.0834H155.573V92.1933Z" fill="#E0E0E0"/>
<path d="M188.939 54.8704H160.745V86.4102H188.939V54.8704Z" fill="#FAFAFA"/>
<path d="M160.745 86.6156C160.546 86.9341 160.312 87.2256 160.048 87.4838C159.6 87.9955 158.964 88.6854 158.242 89.4219C157.52 90.1583 156.88 90.8405 156.4 91.3134C156.157 91.5901 155.884 91.8347 155.587 92.0421C155.786 91.7268 156.017 91.4369 156.277 91.1778C156.729 90.67 157.361 89.9762 158.083 89.2397C158.805 88.5033 159.448 87.8211 159.929 87.3443C160.173 87.0678 160.447 86.8232 160.745 86.6156Z" fill="#E0E0E0"/>
<path d="M188.939 86.5381C189.234 86.7535 189.504 87.0045 189.745 87.2862C190.222 87.7707 190.865 88.449 191.551 89.2242C192.237 89.9994 192.873 90.6855 193.317 91.201C193.575 91.4621 193.802 91.7563 193.992 92.077C193.699 91.8615 193.429 91.6119 193.187 91.3328C192.714 90.8483 192.067 90.17 191.381 89.3948C190.695 88.6195 190.059 87.9296 189.618 87.4141C189.357 87.1555 189.129 86.861 188.939 86.5381Z" fill="#E0E0E0"/>
<path d="M188.86 54.9519C189.061 54.6352 189.295 54.3439 189.557 54.0836C190.005 53.5758 190.641 52.8859 191.363 52.1456C192.085 51.4052 192.725 50.7308 193.205 50.254C193.45 49.9784 193.724 49.7339 194.021 49.5253C193.823 49.8418 193.59 50.1319 193.328 50.3897C192.876 50.9013 192.244 51.5913 191.522 52.3277C190.8 53.0642 190.157 53.7503 189.676 54.2231C189.434 54.5026 189.16 54.7475 188.86 54.9519Z" fill="#E0E0E0"/>
<path d="M160.669 55.0293C160.373 54.8167 160.101 54.5668 159.86 54.2851C159.383 53.8006 158.74 53.1223 158.054 52.3471C157.368 51.5719 156.732 50.8897 156.288 50.3742C156.031 50.1121 155.804 49.818 155.612 49.4982C155.907 49.7121 156.177 49.9619 156.418 50.2424C156.891 50.723 157.538 51.4052 158.224 52.1804C158.91 52.9556 159.546 53.6456 159.99 54.1611C160.247 54.4215 160.475 54.7128 160.669 55.0293Z" fill="#E0E0E0"/>
<path d="M188.86 86.4063C188.86 86.4063 188.86 86.352 188.86 86.2551C188.86 86.1582 188.86 86.0032 188.86 85.8133C188.86 85.4256 188.86 84.8481 188.86 84.1117C188.86 82.6155 188.86 80.4449 188.831 77.6851C188.831 72.1617 188.799 64.2893 188.777 54.8704L188.885 54.9867H160.774L160.897 54.8549C160.897 66.4289 160.897 77.2587 160.897 86.3908L160.788 86.2784L181.145 86.3365L186.863 86.3675H188.376H188.766H188.903C188.862 86.3713 188.821 86.3713 188.78 86.3675H188.401H186.91L181.214 86.3985L160.788 86.4567H160.68V86.3404C160.68 77.2083 160.68 66.3785 160.662 54.8045V54.6689H160.792H188.903H189.012V54.7852C188.99 64.2351 188.972 72.1307 188.957 77.6735C188.957 80.4216 188.936 82.5884 188.929 84.0729C188.929 84.8016 188.929 85.3636 188.929 85.7551C188.929 85.9373 188.929 86.0768 188.929 86.1815C188.916 86.2596 188.893 86.3353 188.86 86.4063Z" fill="#E0E0E0"/>
<path d="M175.666 67.2429C175.158 66.4357 174.457 65.79 173.637 65.3735C172.816 64.9571 171.907 64.7852 171.003 64.876C170.1 64.9668 169.235 65.3168 168.501 65.8895C167.767 66.4621 167.19 67.2362 166.831 68.1305C166.55 68.8925 166.412 69.7065 166.424 70.5259C166.437 71.3453 166.599 72.154 166.903 72.9059C167.524 74.409 168.534 75.6887 169.814 76.592C173.112 79.0029 177.891 78.8944 180.957 76.154C182.138 75.1679 182.941 73.7518 183.215 72.1733C183.34 71.2568 183.224 70.3209 182.879 69.4718C182.534 68.6227 181.974 67.8944 181.263 67.3696C180.551 66.8448 179.717 66.5446 178.855 66.503C177.993 66.4614 177.137 66.6802 176.384 67.1344" fill="#E0E0E0"/>
<path d="M175.68 67.239C175.571 66.81 175.325 66.4361 174.983 66.1835C174.642 65.931 174.229 65.8161 173.817 65.8591L174.918 67.2662C174.616 67.3126 174.331 67.4449 174.093 67.6494C173.855 67.8539 173.672 68.1231 173.564 68.429C173.51 68.5724 173.495 68.774 173.621 68.8476C173.667 68.8625 173.716 68.8675 173.763 68.8622C173.811 68.8568 173.857 68.8413 173.9 68.8166L175.24 68.2197C175.332 69.0226 175.606 69.7891 176.038 70.4523C176.345 69.7483 176.517 68.985 176.543 68.2081L178.024 68.9096C177.906 68.4559 177.663 68.0509 177.327 67.7468C177.766 67.6552 178.186 67.4792 178.566 67.2274C178.682 67.1499 178.808 67.0181 178.754 66.8863C178.7 66.7545 178.595 66.7545 178.49 66.7468C177.512 66.6449 176.529 66.8639 175.669 67.3747" fill="#EBEBEB"/>
<path d="M175.583 67.8321C175.814 66.2243 175.691 64.5806 175.221 63.0335C175.583 62.9482 176.009 62.8939 176.236 63.1924C176.353 63.3824 176.405 63.6095 176.385 63.8358C176.402 65.3522 176.132 66.8566 175.594 68.2584" fill="#EBEBEB"/>
<path d="M168.391 73.588C168.303 73.5184 168.225 73.4347 168.16 73.34C167.969 73.0922 167.803 72.8232 167.665 72.5376C167.195 71.5899 167.029 70.5025 167.192 69.4432C167.355 68.3839 167.839 67.4118 168.568 66.677C168.789 66.4543 169.031 66.258 169.291 66.0917C169.379 66.0225 169.478 65.97 169.583 65.9366C169.26 66.1913 168.952 66.4684 168.662 66.7661C167.979 67.502 167.527 68.4484 167.369 69.4733C167.211 70.4983 167.355 71.5506 167.781 72.4834C167.962 72.8652 168.166 73.2342 168.391 73.588Z" fill="white"/>
<path d="M169.876 74.7974C169.876 74.84 169.627 74.7974 169.392 74.6036C169.157 74.4098 169.031 74.216 169.067 74.1772C169.103 74.1385 169.269 74.2974 169.486 74.464C169.703 74.6307 169.894 74.7509 169.876 74.7974Z" fill="white"/>
<path d="M109.684 36.5056H55.9789V96.5849H109.684V36.5056Z" fill="#E0E0E0"/>
<path d="M106.047 36.5058H52.3419V96.5852H106.047V36.5058Z" fill="#FAFAFA"/>
<path d="M106.065 96.6004H52.3237V36.4861H106.065V96.6004ZM52.367 96.5655H106.029V36.521H52.367V96.5655Z" fill="#E0E0E0"/>
<path d="M98.8266 44.5794H59.5619V88.5032H98.8266V44.5794Z" fill="#FAFAFA"/>
<path d="M59.5619 88.7978C59.2827 89.2388 58.9579 89.6444 58.5939 90.0072C57.9655 90.7165 57.0842 91.6778 56.0981 92.7204C55.1121 93.7631 54.2019 94.6934 53.5301 95.3523C52.8583 96.0112 52.4465 96.4066 52.3959 96.3678C52.6731 95.9275 52.9967 95.523 53.3603 95.1624C53.9888 94.4531 54.8701 93.4918 55.8633 92.4491C56.8566 91.4065 57.7632 90.4684 58.4314 89.8056C59.0996 89.1428 59.5294 88.7591 59.5619 88.7978Z" fill="#E0E0E0"/>
<path d="M98.8266 88.7048C99.238 89.0053 99.616 89.3551 99.9535 89.7475C100.614 90.4181 101.51 91.3638 102.482 92.4259C103.453 93.4879 104.32 94.4569 104.938 95.1779C105.297 95.5415 105.613 95.9501 105.881 96.395C105.471 96.098 105.095 95.7506 104.761 95.3601C104.096 94.6895 103.201 93.7399 102.233 92.6778C101.265 91.6158 100.387 90.6351 99.7729 89.9181C99.1589 89.201 98.7905 88.7242 98.8266 88.7048Z" fill="#E0E0E0"/>
<path d="M98.7183 44.6996C98.9949 44.2576 99.3185 43.8518 99.6827 43.4902C100.308 42.777 101.189 41.8158 102.179 40.777C103.168 39.7382 104.075 38.804 104.743 38.1412C105.082 37.7563 105.463 37.4167 105.877 37.1296C105.913 37.1645 105.541 37.6218 104.913 38.3312C104.284 39.0405 103.403 40.0056 102.413 41.0444C101.424 42.0832 100.513 43.0251 99.8416 43.684C99.1698 44.343 98.7508 44.7383 98.7183 44.6996Z" fill="#E0E0E0"/>
<path d="M59.4535 44.8042C59.0405 44.5076 58.6622 44.1589 58.3266 43.7654C57.6657 43.091 56.7699 42.1491 55.7983 41.0871C54.8267 40.025 53.9563 39.0521 53.3422 38.335C52.9842 37.9698 52.6667 37.5614 52.3959 37.1179C52.4321 37.0792 52.8583 37.4784 53.5192 38.149C54.1802 38.8195 55.0796 39.7731 56.0475 40.8351C57.0155 41.8972 57.8896 42.8739 58.5072 43.5949C58.8658 43.9567 59.1835 44.3626 59.4535 44.8042Z" fill="#E0E0E0"/>
<path d="M98.7182 88.5071C98.7182 88.5071 98.7182 88.4296 98.7182 88.2939C98.7182 88.1583 98.7182 87.9412 98.7182 87.6815C98.7182 87.1259 98.7182 86.3352 98.7182 85.3093C98.7182 83.2279 98.6966 80.2006 98.6785 76.3556C98.6785 68.6615 98.6316 57.7038 98.6027 44.5716L98.7508 44.7344L59.598 44.7577L59.7713 44.5716C59.7713 60.6962 59.7533 75.778 59.7461 88.4994L59.598 88.3366L87.9512 88.4218L95.9154 88.4606L98.0212 88.48H98.5665C98.6291 88.475 98.6918 88.475 98.7544 88.48C98.6978 88.4837 98.6411 88.4837 98.5846 88.48H98.0537L95.9768 88.4994L88.0307 88.542L59.5835 88.6234H59.4354V88.4645C59.4354 75.7432 59.4174 60.6613 59.4102 44.5368V44.3507H59.5871L98.7399 44.374H98.8952V44.5368C98.8663 57.7155 98.8374 68.7003 98.8194 76.4176C98.8194 80.2472 98.7905 83.2628 98.7796 85.3326C98.7796 86.3481 98.7796 87.1311 98.7616 87.6582C98.7616 87.9102 98.7616 88.1079 98.7616 88.2513C98.7561 88.338 98.7416 88.4238 98.7182 88.5071Z" fill="#E0E0E0"/>
<path d="M79.0263 52.851C78.8926 53.3355 76.5919 57.2271 73.2762 58.5489C69.9605 59.8706 67.4972 61.3358 68.4146 63.0761C69.332 64.8165 73.4098 63.8707 73.4098 63.8707C73.4098 63.8707 65.1422 73.5144 72.9258 79.0262C82.4142 85.7435 92.3324 61.6885 92.3324 61.6885L79.0263 52.851Z" fill="#EBEBEB"/>
<path d="M90.7686 64.9909C90.7433 65.0374 87.6154 63.0529 83.7832 60.5218C79.951 57.9907 76.8628 55.9364 76.8881 55.8705C76.9134 55.8046 80.0413 57.8085 83.8771 60.3396C87.7129 62.8707 90.7938 64.9444 90.7686 64.9909Z" fill="#E0E0E0"/>
<path d="M89.3021 67.8747C89.2732 67.9212 85.8961 65.7933 81.7533 63.1226C77.6105 60.452 74.2731 58.2504 74.2984 58.2039C74.3236 58.1574 77.7007 60.2853 81.8472 62.956C85.9936 65.6266 89.3274 67.8282 89.3021 67.8747Z" fill="#E0E0E0"/>
<path d="M87.5287 70.6074C87.4998 70.6539 83.7074 68.2585 79.0516 65.2584C74.3959 62.2583 70.6432 59.7853 70.6685 59.7427C70.6937 59.7001 74.4898 62.0916 79.1455 65.0917C83.8013 68.0918 87.554 70.5647 87.5287 70.6074Z" fill="#E0E0E0"/>
<path d="M85.3146 73.9757C85.2857 74.0222 82.3457 72.0958 78.7446 69.6771C75.1436 67.2584 72.2432 65.2584 72.2721 65.2157C72.301 65.1731 75.2375 67.0956 78.8421 69.5143C82.4468 71.933 85.3399 73.9447 85.3146 73.9757Z" fill="#E0E0E0"/>
<path d="M82.7068 77.2587C82.6815 77.3014 79.9437 75.406 76.5919 73.0222C73.2401 70.6384 70.5492 68.6693 70.5745 68.6267C70.5998 68.584 73.3412 70.4795 76.693 72.8632C80.0449 75.247 82.7393 77.2122 82.7068 77.2587Z" fill="#E0E0E0"/>
<path d="M79.3911 79.5223C79.2458 79.4695 79.1064 79.3993 78.9757 79.313C78.7157 79.1696 78.34 78.9487 77.8921 78.6735C76.9747 78.1192 75.725 77.3207 74.3706 76.3905C73.0161 75.4602 71.8206 74.5726 70.9682 73.9098C70.542 73.5764 70.2025 73.3051 69.9713 73.1113C69.8399 73.0206 69.7187 72.9139 69.6101 72.7935C69.7478 72.8644 69.8785 72.9501 70.0002 73.0493L71.0332 73.7974C71.9037 74.433 73.1064 75.3013 74.4573 76.2277C75.8081 77.1541 77.047 77.9719 77.9463 78.5533L79.0299 79.251C79.1587 79.3279 79.2797 79.4188 79.3911 79.5223Z" fill="#E0E0E0"/>
<path d="M71.6075 64.0878C70.9501 63.9101 70.3283 63.6054 69.7727 63.1885C69.1868 62.8232 68.6668 62.348 68.2376 61.7854C68.2737 61.7427 68.9383 62.3939 69.8702 63.0257C70.802 63.6575 71.6292 64.0374 71.6075 64.0878Z" fill="#E0E0E0"/>
<path d="M91.7148 61.1846C91.6818 61.2585 91.6419 61.3286 91.5957 61.3939L91.2345 61.9675C90.913 62.4676 90.4362 63.1808 89.8403 64.0606C88.6484 65.8126 86.9508 68.208 85.0473 70.805C83.1439 73.402 81.3307 75.6966 79.9907 77.3401C79.3297 78.1618 78.7915 78.8208 78.4123 79.2781L77.9825 79.7898C77.9344 79.8541 77.8799 79.9126 77.8199 79.9642C77.8597 79.8937 77.9056 79.8276 77.9572 79.7665L78.369 79.2278L79.9076 77.2548C81.2043 75.592 82.9813 73.278 84.8992 70.6887C86.8171 68.0995 88.5111 65.7157 89.7319 63.9831L91.1767 61.9288L91.574 61.3745C91.6164 61.3075 91.6635 61.244 91.7148 61.1846Z" fill="#E0E0E0"/>
<path d="M89.024 59.1303C89.0637 59.1652 85.7733 63.7816 81.663 69.4407C77.5527 75.0998 74.1972 79.6658 74.1611 79.6309C74.125 79.596 77.4118 74.9796 81.5221 69.3205C85.6325 63.6614 88.9843 59.0993 89.024 59.1303Z" fill="#E0E0E0"/>
<path d="M85.2712 56.8472C85.2457 56.928 85.2105 57.0049 85.1665 57.0759L84.827 57.7155C84.5308 58.2659 84.0829 59.0566 83.505 60.0101C82.3528 61.9482 80.6408 64.487 78.6181 67.208C76.5955 69.929 74.692 72.3206 73.3159 74.0532L71.6761 76.0959L71.221 76.6463C71.1723 76.7136 71.1166 76.7747 71.0549 76.8285C71.096 76.7556 71.1431 76.6868 71.1957 76.623L71.6219 76.0494L73.2184 73.9679C74.5728 72.212 76.4691 69.8089 78.4773 67.0879C80.4855 64.3668 82.2228 61.828 83.3967 59.9365C83.989 58.9907 84.4513 58.2155 84.7692 57.6767L85.1304 57.0565C85.1724 56.9831 85.2194 56.9131 85.2712 56.8472Z" fill="#E0E0E0"/>
<path d="M82.1939 54.9557C82.2336 54.9867 79.4236 58.9791 75.9201 63.8707C72.4165 68.7623 69.5415 72.7004 69.5018 72.6694C69.462 72.6384 72.2721 68.646 75.7756 63.7544C79.2791 58.8628 82.1542 54.9247 82.1939 54.9557Z" fill="#E0E0E0"/>
<path d="M79.8787 53.3355C79.7913 53.5208 79.6924 53.6995 79.5825 53.8704C79.4814 54.041 79.3586 54.258 79.1997 54.4712C79.0407 54.6844 78.8746 54.9673 78.6579 55.2464C78.1742 55.9031 77.6531 56.5271 77.0975 57.1147C76.4172 57.8309 75.6932 58.4977 74.9304 59.1109C74.1567 59.7123 73.3471 60.2587 72.5068 60.7466C71.8182 61.1393 71.1077 61.4862 70.3795 61.7854C70.0724 61.9249 69.7835 62.0179 69.5343 62.111C69.2851 62.204 69.0647 62.2699 68.8841 62.3203C68.7008 62.3865 68.5122 62.4345 68.3207 62.4637C68.4957 62.3774 68.6769 62.3061 68.8625 62.2505C69.0394 62.1885 69.2562 62.111 69.4982 62.0102C69.7401 61.9094 70.0291 61.8048 70.3325 61.6614C71.0483 61.3441 71.7476 60.9857 72.4274 60.5877C73.258 60.097 74.059 59.5507 74.8257 58.952C75.5851 58.3454 76.3088 57.6891 76.9928 56.9868C77.5497 56.4097 78.0766 55.8003 78.5712 55.1611C78.7915 54.8937 78.9649 54.634 79.131 54.4131C79.2972 54.1921 79.4272 53.9983 79.5356 53.8355C79.637 53.659 79.7517 53.4918 79.8787 53.3355Z" fill="#E0E0E0"/>
<path d="M69.7221 169.599C69.5668 169.638 70.7298 175.925 70.7298 175.925H73.7168L75.0352 169.847C73.3229 169.22 71.4787 169.133 69.7221 169.599Z" fill="#E0E0E0"/>
<path d="M67.9234 204.987C67.9234 204.987 63.5313 191.809 64.1454 188.208C64.7594 184.607 66.0813 183.871 67.1324 182.739C68.1834 181.607 69.0683 180.665 69.332 179.533C69.5957 178.401 69.332 173.874 69.332 173.874C69.332 173.874 68.541 172.556 68.8047 172.083C69.0683 171.61 75.5697 172.083 75.5697 172.083C75.5331 172.66 75.3508 173.215 75.0424 173.688C75.0424 173.688 74.8654 178.967 75.1291 179.533C75.3927 180.099 79.4344 184.909 80.0485 187.359C80.6625 189.809 77.6213 204.987 77.6213 204.987H67.9234Z" fill="#F5F5F5"/>
<path d="M67.9234 204.987C67.9812 204.984 68.039 204.984 68.0968 204.987H68.5916H70.4987L77.6213 204.953L77.5635 205.003C77.9247 203.065 78.3437 200.91 78.7554 198.514C79.1672 196.119 79.5934 193.51 79.8932 190.712C79.9618 190.01 80.0268 189.297 80.0413 188.576C80.0572 188.218 80.0366 187.859 79.9799 187.506C79.8924 187.154 79.7713 186.812 79.6187 186.487C78.9465 185.144 78.1619 183.87 77.2746 182.681C76.8303 182.06 76.3716 181.444 75.9057 180.82C75.6709 180.51 75.4361 180.2 75.2086 179.874C75.1486 179.79 75.0932 179.702 75.0424 179.611C75.0049 179.506 74.9794 179.397 74.9666 179.285C74.9377 179.08 74.9268 178.878 74.916 178.673C74.851 177.041 74.8943 175.386 74.9413 173.711V173.684V173.657C75.0159 173.532 75.0835 173.403 75.1436 173.269C75.3162 172.907 75.4217 172.512 75.4542 172.107L75.5409 172.207C74.0564 172.107 72.5936 172.029 71.1597 172.002C70.4554 171.975 69.7503 172.004 69.0503 172.091C68.9863 172.104 68.9243 172.126 68.8661 172.157C68.8324 172.221 68.8173 172.293 68.8228 172.366C68.8338 172.541 68.8691 172.714 68.9275 172.878C69.0513 173.216 69.2049 173.54 69.3862 173.847V173.87V173.893C69.4512 175.099 69.4946 176.285 69.4982 177.452C69.5067 178.033 69.4862 178.614 69.4368 179.192C69.3703 179.77 69.1691 180.321 68.8517 180.793C68.5504 181.247 68.2159 181.675 67.8512 182.072C67.49 182.46 67.1288 182.847 66.7676 183.215C66.4 183.559 66.0537 183.928 65.731 184.32C65.4446 184.702 65.2021 185.12 65.0086 185.564C64.6232 186.448 64.3569 187.387 64.2176 188.351C64.1725 188.811 64.1725 189.275 64.2176 189.735C64.2465 190.192 64.3043 190.638 64.3657 191.08C64.6258 192.828 65.0014 194.425 65.3517 195.871C66.0741 198.755 66.7532 201.026 67.2227 202.584C67.4575 203.359 67.6417 203.956 67.7681 204.371C67.8295 204.569 67.8765 204.72 67.909 204.832C67.9415 204.945 67.9523 204.991 67.9523 204.991L67.8945 204.836C67.8584 204.728 67.8042 204.577 67.7392 204.383C67.6019 203.995 67.4069 203.383 67.1613 202.608C66.6737 201.057 65.9766 198.786 65.2398 195.902C64.8262 194.322 64.4887 192.72 64.2285 191.103C64.167 190.661 64.1057 190.212 64.0731 189.747C64.0263 189.275 64.0263 188.8 64.0731 188.328C64.2089 187.346 64.4766 186.39 64.8678 185.491C65.0799 185.022 65.3456 184.583 65.6588 184.184C65.9871 183.787 66.3382 183.411 66.7098 183.06C67.071 182.704 67.4322 182.316 67.7934 181.925C68.1524 181.535 68.4799 181.114 68.7722 180.665C69.0754 180.218 69.2669 179.695 69.3284 179.146C69.3751 178.575 69.3944 178.002 69.3862 177.428C69.3862 176.266 69.332 175.103 69.267 173.882V173.928C69.0787 173.61 68.9202 173.272 68.7939 172.921C68.7242 172.737 68.6839 172.541 68.6747 172.343C68.6673 172.227 68.6952 172.111 68.7541 172.014C68.8371 171.935 68.9405 171.887 69.0503 171.874C69.762 171.781 70.4794 171.75 71.1958 171.781C72.6405 171.804 74.0853 171.882 75.5878 171.983H75.6817V172.076C75.6545 172.518 75.5413 172.95 75.3494 173.343C75.285 173.476 75.2138 173.606 75.1363 173.731L75.1544 173.68C75.1074 175.351 75.0641 177.006 75.1291 178.622C75.1353 178.821 75.151 179.019 75.1761 179.215C75.186 179.307 75.2054 179.396 75.2339 179.483C75.2795 179.564 75.3302 179.642 75.3856 179.715C75.6059 180.037 75.8443 180.347 76.0754 180.657C76.5414 181.281 77.0001 181.898 77.4443 182.522C78.3394 183.722 79.129 185.01 79.8029 186.367C79.9561 186.706 80.0772 187.06 80.1641 187.425C80.2219 187.794 80.2424 188.168 80.2255 188.541C80.2255 189.274 80.146 189.991 80.0738 190.692C79.7668 193.503 79.3225 196.119 78.9107 198.507C78.499 200.894 78.0764 203.073 77.6935 204.991V205.046H77.643L70.4915 205.015H68.5952H68.1076L67.9234 204.987Z" fill="#E0E0E0"/>
<path d="M76.7797 203.623C77.894 199.212 78.6326 194.701 78.9866 190.146C79.0227 189.627 79.0227 189.026 78.6579 188.681C78.21 188.262 77.5238 188.487 76.9567 188.681C75.2897 189.246 73.5161 189.348 71.8025 188.975C70.1375 188.607 68.4868 187.789 66.8073 188.084C66.5973 188.106 66.3935 188.173 66.2076 188.28C66.0216 188.387 65.8572 188.532 65.7237 188.708C65.4492 189.142 65.5143 189.716 65.5937 190.231C66.2511 194.662 67.5983 199.759 68.6927 203.623H76.7797Z" fill="#E0E0E0"/>
<path d="M77.8849 189.223C77.7951 189.367 77.6882 189.497 77.5671 189.611C77.2549 189.919 76.9204 190.201 76.5666 190.452C75.3985 191.312 74.0556 191.86 72.6499 192.049C71.2443 192.239 69.8169 192.065 68.4868 191.541C68.0871 191.386 67.6994 191.196 67.3274 190.975C67.1861 190.902 67.0538 190.809 66.9337 190.7C66.9518 190.665 67.5188 191.045 68.5302 191.406C69.8441 191.882 71.2414 192.033 72.6175 191.848C73.9935 191.663 75.3127 191.146 76.4763 190.336C77.3973 189.716 77.8596 189.196 77.8849 189.223Z" fill="white"/>
<path d="M151.145 117.64C150.02 117.774 148.885 117.774 147.76 117.64C148.885 117.505 150.02 117.505 151.145 117.64Z" fill="#FAFAFA"/>
<path d="M201.176 205.484C201.176 205.542 164.635 205.588 119.57 205.588C74.5042 205.588 37.9412 205.542 37.9412 205.484C37.9412 205.425 74.4717 205.375 119.548 205.375C164.624 205.375 201.176 205.429 201.176 205.484Z" fill="#263238"/>
<path d="M168.518 183.603C170.277 182.246 172.068 180.87 174.105 180.076C176.142 179.281 178.497 179.126 180.426 180.192C182.041 181.084 183.204 182.75 183.872 184.564C184.696 186.817 184.835 189.292 184.269 191.634C183.962 192.898 183.352 194.204 182.232 194.716C181.112 195.227 179.823 194.786 178.711 194.251C175.06 192.49 171.897 189.743 169.533 186.278C169.771 186.074 170.059 185.95 170.362 185.921C170.665 185.892 170.97 185.959 171.238 186.115C171.766 186.435 172.247 186.839 172.664 187.312C174.077 188.686 175.78 189.668 177.627 190.173C178.992 190.561 180.831 190.386 181.289 188.956C181.589 188.022 181.112 187.018 180.65 186.169C180.123 185.188 179.52 184.138 178.53 183.746C177.786 183.456 176.966 183.595 176.186 183.746L167.669 185.316L168.196 185.15" fill="#455A64"/>
<path d="M147.255 60.328C141.638 58.6457 133.317 60.9869 130.138 66.2312C126.96 71.4756 128.361 79.2588 128.112 85.507C127.863 91.7553 128.112 98.1043 126.7 104.178C125.811 108.054 124.11 111.93 120.982 114.082C117.406 116.523 112.046 116.764 110.352 120.934C108.94 124.423 111.132 128.687 109.706 132.175C109.077 133.726 107.802 134.888 107.253 136.458C106.495 138.637 107.325 141.172 108.817 142.858C110.309 144.544 112.35 145.532 114.383 146.346C120.578 148.781 127.163 149.868 133.754 149.544C138.547 149.304 143.69 148.086 146.832 144.199C149.299 141.144 150.112 136.958 150.56 132.958C153.312 108.217 153.81 81.0185 147.255 60.3667" fill="#263238"/>
<path d="M115.936 135.408C115.983 135.381 115.727 134.915 115.47 133.989C115.135 132.679 115.063 131.308 115.261 129.966C115.56 127.976 116.252 126.079 117.291 124.4C118.443 122.493 120.111 120.702 121.943 118.938C123.774 117.175 125.598 115.543 127.068 113.841C128.394 112.352 129.497 110.653 130.34 108.802C130.903 107.549 131.253 106.199 131.373 104.814C131.398 104.438 131.398 104.061 131.373 103.686C131.373 103.426 131.344 103.298 131.326 103.298C131.218 103.267 131.507 105.546 130.055 108.663C129.19 110.454 128.083 112.098 126.772 113.543C125.327 115.206 123.496 116.814 121.65 118.582C119.804 120.349 118.121 122.183 116.955 124.159C115.899 125.896 115.216 127.861 114.954 129.915C114.78 131.3 114.904 132.71 115.315 134.036C115.43 134.393 115.575 134.738 115.748 135.067C115.795 135.189 115.859 135.304 115.936 135.408Z" fill="#455A64"/>
<path d="M130.062 179.719L128.184 205.049L184.612 205.348L169.273 182.2L130.062 179.719Z" fill="#263238"/>
<path d="M85.4518 118.795C85.6107 118.942 82.1469 138.776 80.3952 148.707C80.1026 150.368 80.2501 152.084 80.8209 153.66C81.3917 155.236 82.3629 156.608 83.6242 157.622C84.9274 158.667 86.4851 159.285 88.1088 159.401C89.7325 159.517 91.3526 159.125 92.7731 158.273L116.268 145.152L109.074 128.985L94.2648 138.005L95.24 121.186L85.4518 118.795Z" fill="#FFBE9D"/>
<path d="M93.4738 103.023C93.3077 102.314 92.4734 101.992 91.8088 102.17C91.1607 102.414 90.583 102.835 90.1329 103.391L88.233 104.628C87.8745 104.883 87.5793 105.228 87.3729 105.633C87.1665 106.039 87.0551 106.492 87.0483 106.953C87.0389 107.875 87.1719 108.792 87.442 109.667C87.6407 110.442 87.9224 111.322 88.6195 111.605C89.396 111.915 90.2557 111.271 90.6205 110.473C90.9853 109.674 91.0214 108.764 91.2128 107.899C91.4435 106.862 91.9003 105.899 92.5456 105.089C93.026 104.48 93.6581 103.798 93.4738 103.023Z" fill="#EB996E"/>
<path d="M77.6899 103.822C77.6311 103.624 77.6187 103.414 77.6535 103.21C77.6884 103.005 77.7696 102.814 77.8899 102.651C78.0102 102.489 78.166 102.361 78.3434 102.278C78.5208 102.196 78.7144 102.161 78.9071 102.178C82.7646 102.519 91.9279 103.895 97.3638 105.574C105.072 107.953 110.146 109.492 110.146 109.492L126.515 109.105C126.515 109.105 124.55 115.159 118.313 115.19C113.592 115.213 108.64 111.957 108.64 111.957C108.64 111.957 87.6623 104.291 78.8529 104.705C78.5957 104.717 78.3419 104.638 78.1314 104.478C77.9209 104.319 77.7656 104.09 77.6899 103.825V103.822Z" fill="#455A64"/>
<path d="M123.456 109.155C123.658 109.771 122.99 110.318 122.394 110.434C121.798 110.55 121.116 110.519 120.686 110.977C120.533 111.173 120.422 111.403 120.36 111.65C120.297 111.896 120.285 112.155 120.325 112.407C120.41 112.909 120.466 113.417 120.494 113.926C120.504 114.273 120.391 114.61 120.18 114.872C119.75 115.341 118.959 115.182 118.544 114.702C118.163 114.179 117.956 113.535 117.955 112.872C117.95 112.403 117.885 111.936 117.764 111.485C117.7 111.259 117.58 111.056 117.418 110.896C117.256 110.737 117.058 110.627 116.843 110.578C116.326 110.508 115.871 110.926 115.376 111.112C115.117 111.191 114.845 111.209 114.578 111.164C114.312 111.119 114.058 111.013 113.834 110.853C113.609 110.693 113.42 110.482 113.278 110.236C113.137 109.99 113.047 109.714 113.014 109.426L123.456 109.155Z" fill="#B7EB8F"/>
<path d="M83.5881 102.856C83.3314 103.01 83.066 103.146 82.7935 103.263C81.4723 103.839 80.042 104.068 78.6218 103.93C78.3291 103.904 78.0383 103.858 77.7513 103.791C77.7513 103.791 77.8344 103.791 77.9825 103.825C78.1306 103.86 78.3437 103.876 78.6218 103.899C79.3278 103.96 80.0379 103.934 80.7384 103.822C81.4379 103.708 82.1236 103.512 82.7827 103.236C83.0355 103.128 83.2378 103.035 83.375 102.961L83.5881 102.856Z" fill="#263238"/>
<path d="M90.7686 103.969H90.7L90.5049 103.946C90.3351 103.922 90.0895 103.899 89.7825 103.88C88.9882 103.829 88.1911 103.873 87.4059 104.011C86.6214 104.155 85.8537 104.389 85.116 104.709C84.8343 104.837 84.6067 104.946 84.455 105.027L84.278 105.116L84.213 105.143C84.213 105.143 84.2311 105.143 84.2708 105.101L84.4406 104.996C84.5923 104.907 84.8017 104.791 85.0979 104.659C85.8337 104.319 86.605 104.076 87.3951 103.934C88.1851 103.795 88.9878 103.757 89.7861 103.822C90.0932 103.849 90.3388 103.884 90.5085 103.915L90.7036 103.953L90.7686 103.969Z" fill="#263238"/>
<path d="M96.1357 106.888L95.3809 106.647L94.4996 106.36C94.3085 106.314 94.1349 106.208 94.0011 106.054C93.9677 106.008 93.9452 105.954 93.9358 105.897C93.9263 105.839 93.9302 105.78 93.9469 105.725C93.9666 105.667 93.9988 105.615 94.0409 105.573C94.083 105.531 94.1337 105.501 94.1889 105.484C94.4244 105.407 94.6759 105.407 94.9113 105.484C95.1533 105.535 95.4061 105.593 95.6626 105.67C96.2089 105.835 96.7398 106.055 97.2482 106.325C97.5155 106.469 97.7864 106.628 98.05 106.806C98.1901 106.887 98.3131 106.998 98.4112 107.132C98.4364 107.169 98.4522 107.213 98.4572 107.26C98.4623 107.306 98.4564 107.352 98.4401 107.395C98.4018 107.477 98.3379 107.542 98.2595 107.577C97.6263 107.839 96.9407 107.921 96.2694 107.814C94.8788 107.624 93.705 106.907 92.6575 106.318C91.7451 105.738 90.7546 105.313 89.721 105.058C89.0209 104.9 88.2952 104.929 87.6081 105.143C87.4224 105.206 87.2423 105.286 87.0699 105.384C86.9543 105.453 86.8929 105.484 86.8929 105.484L87.041 105.372C87.2116 105.272 87.3906 105.189 87.5756 105.124C88.2662 104.902 88.9974 104.869 89.703 105.027C90.7398 105.279 91.734 105.701 92.6503 106.279C93.7013 106.868 94.8752 107.581 96.2622 107.771C96.926 107.876 97.6039 107.796 98.2306 107.539C98.303 107.509 98.3623 107.451 98.3968 107.376C98.4095 107.338 98.4139 107.298 98.4095 107.258C98.4051 107.219 98.3921 107.181 98.3715 107.147C98.2723 107.018 98.1493 106.913 98.0103 106.837C97.7526 106.661 97.4861 106.501 97.2121 106.357C96.7049 106.086 96.1753 105.866 95.6301 105.701C95.3772 105.624 95.1244 105.562 94.8824 105.508C94.6571 105.438 94.4179 105.438 94.1926 105.508C94.1415 105.525 94.0946 105.554 94.0552 105.593C94.0159 105.631 93.9851 105.679 93.965 105.732C93.9488 105.784 93.9446 105.838 93.9528 105.892C93.961 105.945 93.9813 105.996 94.012 106.039C94.1427 106.189 94.3125 106.295 94.4996 106.341L95.3809 106.632L96.1357 106.888Z" fill="#263238"/>
<path d="M99.9427 106.535C100.008 106.654 100.052 106.786 100.073 106.922C100.132 107.239 100.095 107.568 99.968 107.86C99.8341 108.15 99.6195 108.387 99.354 108.539C99.2418 108.604 99.1193 108.646 98.9928 108.663C99.1072 108.622 99.2184 108.572 99.3251 108.512C99.5866 108.363 99.7971 108.129 99.9263 107.843C100.056 107.557 100.097 107.235 100.044 106.922C100.02 106.791 99.986 106.661 99.9427 106.535Z" fill="#263238"/>
<path d="M106.589 108.399C106.589 108.399 106.227 108.399 105.664 108.36C105.1 108.322 104.306 108.233 103.432 108.221C102.692 108.192 101.955 108.324 101.265 108.608C101.14 108.657 101.019 108.717 100.903 108.787C100.816 108.831 100.734 108.886 100.658 108.95L100.452 109.097L100.647 108.938C100.722 108.871 100.805 108.814 100.893 108.767C101.008 108.695 101.129 108.632 101.254 108.581C101.953 108.29 102.701 108.158 103.45 108.194C104.328 108.194 105.111 108.306 105.682 108.349C105.967 108.372 106.198 108.391 106.357 108.399H106.589Z" fill="#263238"/>
<path d="M113.52 114.248C113.52 114.248 113.39 114.128 113.159 113.903C113.043 113.791 112.899 113.655 112.725 113.516C112.552 113.376 112.364 113.19 112.133 113.016C111.611 112.591 111.064 112.203 110.497 111.853C109.107 111.001 107.604 110.384 106.04 110.023C105.403 109.872 104.757 109.766 104.107 109.705C103.829 109.667 103.576 109.663 103.356 109.651C103.136 109.64 102.944 109.651 102.789 109.651H102.305H102.789C102.944 109.651 103.15 109.651 103.356 109.651C103.562 109.651 103.829 109.651 104.107 109.698C104.759 109.757 105.407 109.86 106.047 110.008C106.829 110.189 107.599 110.427 108.351 110.721C109.096 111.035 109.821 111.404 110.518 111.826C111.086 112.175 111.633 112.564 112.154 112.988C112.382 113.159 112.57 113.341 112.743 113.492C112.917 113.644 113.057 113.775 113.169 113.88C113.408 114.12 113.52 114.248 113.52 114.248Z" fill="#263238"/>
<path d="M118.255 114.38C118.14 114.447 118.019 114.5 117.894 114.539C117.558 114.648 117.207 114.694 116.857 114.675C116.337 114.639 115.828 114.497 115.358 114.256C114.788 113.952 114.262 113.561 113.798 113.093C113.296 112.605 112.859 112.101 112.454 111.651C112.1 111.241 111.725 110.853 111.331 110.488C111.065 110.246 110.783 110.026 110.486 109.829C110.381 109.764 110.298 109.709 110.24 109.678L110.157 109.636C110.588 109.859 110.99 110.142 111.353 110.477C111.747 110.837 112.125 111.219 112.483 111.62C112.891 112.07 113.328 112.574 113.827 113.058C114.288 113.524 114.81 113.916 115.376 114.221C115.842 114.463 116.348 114.605 116.864 114.64C117.211 114.665 117.56 114.624 117.894 114.52C117.985 114.492 118.075 114.457 118.161 114.415L118.255 114.38Z" fill="#263238"/>
<path d="M124.457 112.516H124.334C124.251 112.516 124.135 112.516 123.991 112.516C123.613 112.516 123.237 112.558 122.867 112.64C122.494 112.726 122.131 112.856 121.784 113.027C121.654 113.089 121.545 113.147 121.477 113.19C121.44 113.214 121.401 113.233 121.361 113.248C121.492 113.154 121.63 113.071 121.773 113C122.459 112.644 123.215 112.47 123.976 112.492C124.137 112.489 124.297 112.496 124.457 112.516Z" fill="#263238"/>
<path d="M79.3839 114.066L79.2105 110.442C79.1913 110.051 79.2915 109.665 79.4958 109.341L79.5175 109.306C80.0994 108.38 80.8577 107.596 81.7424 107.008L89.0204 102.166C89.1276 102.095 89.2496 102.052 89.3756 102.043C89.5017 102.033 89.628 102.056 89.7436 102.111C89.8593 102.166 89.9608 102.25 90.0393 102.356C90.1178 102.462 90.171 102.587 90.1942 102.721C90.2845 103.36 90.0209 104.818 89.4935 105.399C88.558 106.313 87.5335 107.116 86.4379 107.795L93.7375 106.275C93.9076 106.775 93.9045 107.325 93.7288 107.823C93.5531 108.321 93.2165 108.734 92.7803 108.988L95.7818 108.306C95.7818 108.306 96.7642 109.806 95.4206 110.795C94.077 111.783 91.6896 112.64 91.6896 112.64C91.6896 112.64 95.4134 114.326 95.3267 115.671C95.24 117.016 95.1895 121.326 95.1895 121.326L85.1846 120.551L79.3839 114.066Z" fill="#FFBE9D"/>
<path d="M86.7015 107.558L86.6329 107.601L86.4234 107.713C86.2428 107.814 85.9792 107.953 85.6613 108.136C85.3435 108.318 84.9823 108.566 84.5777 108.849C84.1732 109.132 83.7217 109.423 83.2919 109.779C83.0816 109.952 82.9131 110.177 82.8007 110.434C82.7043 110.679 82.6599 110.944 82.6707 111.209C82.6999 111.66 82.78 112.105 82.9091 112.535C82.992 112.831 83.0488 113.135 83.0788 113.442C83.0912 113.554 83.0912 113.667 83.0788 113.779C83.0788 113.779 83.0788 113.659 83.0535 113.442C83.0151 113.14 82.9523 112.841 82.8657 112.551C82.7266 112.117 82.6404 111.666 82.6093 111.209C82.5963 110.935 82.6407 110.661 82.7393 110.407C82.8571 110.139 83.0314 109.904 83.2486 109.721C83.4627 109.544 83.6858 109.379 83.9168 109.229L84.5489 108.791C84.9498 108.512 85.3182 108.267 85.6324 108.089C85.9467 107.911 86.2212 107.779 86.409 107.702L86.6221 107.601L86.7015 107.558Z" fill="#EB996E"/>
<path d="M87.3806 115.694C87.3806 115.694 87.3481 115.655 87.2903 115.574L87.0411 115.229L86.6438 114.686C86.4628 114.448 86.3088 114.188 86.1851 113.911C86.0484 113.531 86.0191 113.116 86.1007 112.719C86.1822 112.321 86.3711 111.958 86.6438 111.674C86.9772 111.362 87.3568 111.112 87.7671 110.934C88.1788 110.725 88.6122 110.523 89.0601 110.326C90.5958 109.667 92.1734 109.127 93.7809 108.709C94.3949 108.543 94.8969 108.426 95.2437 108.349L95.641 108.264L95.7818 108.236C95.7369 108.253 95.6911 108.268 95.6446 108.279L95.2473 108.38C94.9041 108.469 94.4057 108.593 93.8025 108.767C92.2059 109.202 90.6374 109.749 89.1071 110.403C88.6628 110.601 88.2294 110.791 87.8176 111.008C87.4137 111.183 87.0391 111.428 86.7088 111.733C86.4445 112.005 86.2606 112.355 86.1797 112.739C86.0988 113.123 86.1245 113.523 86.2537 113.892C86.3726 114.167 86.5204 114.427 86.6943 114.667C86.8388 114.872 86.9688 115.054 87.0844 115.217C87.2 115.38 87.2686 115.489 87.3228 115.574C87.377 115.659 87.3806 115.694 87.3806 115.694Z" fill="#EB996E"/>
<path d="M95.1245 110.88C95.0722 110.921 95.0166 110.958 94.9583 110.988L94.4924 111.252C94.0987 111.473 93.5497 111.768 92.9248 112.058C92.3921 112.306 91.8471 112.522 91.2922 112.706C91.0791 112.775 90.9058 112.826 90.783 112.857C90.7217 112.878 90.6589 112.893 90.5952 112.903C90.652 112.87 90.7127 112.845 90.7757 112.83L91.2742 112.651C91.6968 112.496 92.2711 112.264 92.8959 111.985C93.5208 111.705 94.0698 111.407 94.4707 111.209L94.9439 110.969C95.0011 110.933 95.0616 110.903 95.1245 110.88Z" fill="#EB996E"/>
<path d="M116.597 93.5925C116.597 93.5925 116.474 93.7708 116.312 94.1313C116.088 94.6443 115.975 95.2046 115.979 95.7709C115.984 96.6115 116.261 97.4243 116.763 98.0694C117.075 98.4352 117.404 98.7832 117.749 99.1121C118.128 99.4696 118.428 99.9131 118.627 100.411C118.792 100.928 118.777 101.493 118.584 102C118.405 102.464 118.161 102.897 117.861 103.283C117.587 103.67 117.294 103.984 117.031 104.294C116.785 104.583 116.56 104.891 116.359 105.217C116.133 105.519 115.971 105.871 115.885 106.247C115.8 106.623 115.793 107.015 115.864 107.395C115.864 107.395 115.864 107.341 115.828 107.24C115.794 107.088 115.779 106.932 115.784 106.775C115.82 106.203 116.003 105.652 116.315 105.186C116.515 104.857 116.739 104.544 116.984 104.252C117.247 103.934 117.536 103.608 117.807 103.236C118.099 102.855 118.337 102.429 118.511 101.973C118.7 101.478 118.714 100.927 118.551 100.422C118.358 99.9352 118.064 99.5018 117.691 99.1547C117.347 98.8219 117.019 98.47 116.709 98.1004C116.197 97.4432 115.919 96.6121 115.925 95.7554C115.925 95.1812 116.049 94.6148 116.286 94.1003C116.372 93.9191 116.476 93.7488 116.597 93.5925Z" fill="#263238"/>
<path d="M119.909 93.4065C119.909 93.4065 119.786 93.5887 119.624 93.9491C119.402 94.4611 119.289 95.0201 119.295 95.5849C119.296 96.4274 119.573 97.2428 120.079 97.8873C120.361 98.2439 120.715 98.5694 121.061 98.9299C121.442 99.2838 121.742 99.7267 121.939 100.225C122.104 100.744 122.09 101.309 121.899 101.818C121.719 102.281 121.475 102.714 121.177 103.101C120.899 103.488 120.606 103.798 120.346 104.112C120.1 104.4 119.875 104.707 119.671 105.031C119.365 105.487 119.178 106.022 119.129 106.581C119.124 106.788 119.141 106.995 119.18 107.198C119.163 107.147 119.15 107.095 119.14 107.043C119.108 106.891 119.094 106.736 119.1 106.581C119.135 106.008 119.318 105.457 119.627 104.988C119.83 104.661 120.054 104.35 120.299 104.058C120.559 103.74 120.848 103.415 121.123 103.042C121.414 102.661 121.65 102.235 121.823 101.779C122.012 101.285 122.027 100.734 121.867 100.228C121.672 99.7437 121.378 99.312 121.007 98.9648C120.646 98.6043 120.31 98.2787 120.021 97.9105C119.509 97.2519 119.231 96.4195 119.237 95.5616C119.239 94.9889 119.363 94.4242 119.599 93.9104C119.686 93.7316 119.79 93.5628 119.909 93.4065Z" fill="#263238"/>
<path d="M93.9614 150.521C93.9397 150.521 94.0445 147.586 94.1962 143.97C94.3479 140.354 94.4851 137.423 94.5032 137.427C94.5212 137.431 94.4201 140.358 94.272 143.974C94.1239 147.59 93.9795 150.521 93.9614 150.521Z" fill="#EB996E"/>
<path d="M87.6804 122.865C86.991 122.153 86.3375 121.403 85.7228 120.617C86.4122 121.328 87.0657 122.078 87.6804 122.865Z" fill="#EB996E"/>
<path d="M129.845 178.89L126.905 205.348H167.947L161.11 186.53L170.519 184.134C170.519 184.134 169.887 182.239 169.28 182.196C168.673 182.153 129.845 178.89 129.845 178.89Z" fill="#455A64"/>
<path d="M108.774 128.311C108.774 128.311 124.691 117.248 128.878 115.74C131.453 114.814 139.186 114.667 139.186 114.667L124.691 141.249L116.453 145.551L108.774 128.311Z" fill="#B7EB8F"/>
<path d="M188.564 146.9C183.702 134.303 175.836 120.07 173.506 117.632C171.176 115.194 156.891 113.225 156.891 113.225L138.16 115.407L123.142 137.501L129.719 171.955L129.495 172.413C129.003 173.429 128.777 174.569 128.841 175.712C128.905 176.856 129.255 177.959 129.856 178.905L169.284 182.215L169.334 149.59L188.564 146.9Z" fill="#B7EB8F"/>
<path d="M163.891 165.366C163.835 165.465 163.771 165.558 163.7 165.645C163.562 165.82 163.378 166.091 163.104 166.42C162.353 167.341 161.538 168.199 160.666 168.986C157.779 171.607 154.354 173.457 150.673 174.384C146.991 175.311 143.158 175.289 139.486 174.32C138.377 174.03 137.291 173.652 136.235 173.188C135.874 173.029 135.578 172.874 135.383 172.8C135.282 172.756 135.186 172.703 135.094 172.642C135.198 172.674 135.301 172.714 135.401 172.762C135.599 172.843 135.881 172.986 136.26 173.13C140.298 174.812 144.681 175.306 148.956 174.561C153.23 173.815 157.242 171.857 160.575 168.889C161.452 168.116 162.277 167.278 163.046 166.382C163.328 166.072 163.519 165.808 163.667 165.641C163.735 165.544 163.81 165.452 163.891 165.366Z" fill="#263238"/>
<path d="M169.323 148.362C169.29 148.26 169.266 148.155 169.251 148.048L169.078 147.148C168.93 146.342 168.716 145.21 168.471 143.827C167.976 141.001 167.297 137.129 166.549 132.853C166.455 132.319 166.365 131.788 166.275 131.264C166.185 130.741 166.073 130.229 166.022 129.714C165.898 128.727 165.864 127.73 165.921 126.737C165.98 125.84 166.107 124.949 166.3 124.074C166.482 123.315 166.715 122.572 166.997 121.849C167.407 120.804 167.937 119.818 168.576 118.915C168.792 118.586 168.995 118.361 169.117 118.198C169.176 118.111 169.245 118.033 169.323 117.965C169.323 117.965 169.265 118.055 169.146 118.225C169.027 118.396 168.839 118.613 168.637 118.962C168.024 119.874 167.515 120.862 167.12 121.903C166.847 122.621 166.624 123.36 166.452 124.113C166.265 124.979 166.144 125.861 166.091 126.749C166.039 127.73 166.077 128.714 166.203 129.687C166.253 130.198 166.372 130.702 166.455 131.237C166.539 131.772 166.636 132.288 166.73 132.826C167.452 137.09 168.117 140.966 168.597 143.811C168.828 145.203 169.013 146.338 169.143 147.145L169.284 148.052C169.305 148.154 169.318 148.257 169.323 148.362Z" fill="#263238"/>
<path d="M125.078 147.621C125.018 147.437 124.973 147.248 124.944 147.055C124.872 146.648 124.774 146.121 124.655 145.505C124.42 144.187 124.106 142.358 123.77 140.338C123.434 138.319 123.142 136.485 122.94 135.16C122.846 134.52 122.766 133.997 122.708 133.586C122.674 133.394 122.653 133.2 122.647 133.005C122.708 133.188 122.752 133.378 122.781 133.57C122.853 133.958 122.95 134.501 123.07 135.121C123.304 136.443 123.619 138.272 123.954 140.292C124.29 142.311 124.583 144.141 124.785 145.47C124.879 146.106 124.959 146.633 125.016 147.044C125.051 147.234 125.072 147.427 125.078 147.621Z" fill="#263238"/>
<path d="M170.678 129.516C170.782 128.766 170.948 128.026 171.173 127.307C171.339 126.57 171.567 125.85 171.852 125.156C171.745 125.906 171.578 126.645 171.353 127.365C171.189 128.102 170.963 128.823 170.678 129.516Z" fill="#FAFAFA"/>
<path d="M172.791 137.292C172.236 137.024 171.708 136.695 171.216 136.311C170.69 135.977 170.197 135.587 169.742 135.148C170.823 135.747 171.845 136.463 172.791 137.284V137.292Z" fill="#FAFAFA"/>
<path d="M176.778 134.288C176.694 133.617 176.708 132.937 176.822 132.272C176.873 131.598 177.02 130.937 177.259 130.311C177.313 130.311 177.139 131.202 177.009 132.299C176.879 133.396 176.832 134.288 176.778 134.288Z" fill="#FAFAFA"/>
<path d="M177.576 141.807C177.329 141.22 177.117 140.617 176.941 140.001C176.702 139.409 176.495 138.802 176.323 138.183C176.667 138.72 176.934 139.309 177.114 139.931C177.353 140.529 177.509 141.161 177.576 141.807Z" fill="#FAFAFA"/>
<path d="M174.485 146.458C173.499 145.669 172.589 144.776 171.769 143.792C172.757 144.579 173.667 145.472 174.485 146.458Z" fill="#FAFAFA"/>
<path d="M183.951 141.032C183.991 141.075 183.424 141.749 182.868 142.687C182.312 143.625 181.943 144.451 181.893 144.427C182.054 143.76 182.331 143.132 182.709 142.575C183.031 141.983 183.452 141.46 183.951 141.032Z" fill="#FAFAFA"/>
<path d="M173.629 121.958C173.238 121.716 172.882 121.416 172.57 121.066C172.215 120.766 171.901 120.416 171.635 120.024C172.025 120.269 172.382 120.571 172.697 120.919C173.051 121.217 173.364 121.567 173.629 121.958Z" fill="#FAFAFA"/>
<path d="M161.984 122.26C161.115 122.964 160.175 123.559 159.181 124.035C159.595 123.656 160.048 123.329 160.532 123.062C160.986 122.736 161.473 122.467 161.984 122.26Z" fill="#FAFAFA"/>
<path d="M159.947 133.202C159.565 132.797 159.228 132.346 158.943 131.857C158.607 131.408 158.322 130.917 158.094 130.396C158.812 131.25 159.434 132.192 159.947 133.202Z" fill="#FAFAFA"/>
<path d="M164.357 136.768C163.942 137.958 163.273 139.027 162.403 139.889C162.363 139.846 162.862 139.199 163.396 138.338C163.931 137.478 164.306 136.737 164.357 136.768Z" fill="#FAFAFA"/>
<path d="M153.641 137.567C153.586 137.586 153.279 136.718 152.785 135.722C152.29 134.726 151.78 133.974 151.824 133.935C152.707 134.959 153.329 136.21 153.63 137.567H153.641Z" fill="#FAFAFA"/>
<path d="M155.876 145.009C156.076 144.375 156.335 143.765 156.649 143.187C156.904 142.576 157.218 141.996 157.585 141.454C157.385 142.089 157.127 142.7 156.815 143.28C156.558 143.889 156.243 144.468 155.876 145.009Z" fill="#FAFAFA"/>
<path d="M163.356 150.59C163.146 149.902 162.994 149.195 162.901 148.478C162.751 147.774 162.662 147.056 162.634 146.334C162.845 147.021 162.997 147.727 163.089 148.443C163.24 149.148 163.329 149.867 163.356 150.59Z" fill="#FAFAFA"/>
<path d="M149.772 146.501C149.31 146.102 148.874 145.668 148.468 145.203C148.018 144.785 147.594 144.337 147.197 143.862C147.716 144.184 148.188 144.587 148.598 145.055C149.051 145.476 149.446 145.962 149.772 146.501Z" fill="#FAFAFA"/>
<path d="M143.748 135.726C142.935 136.688 142.031 137.558 141.049 138.319C141.862 137.356 142.766 136.487 143.748 135.726Z" fill="#FAFAFA"/>
<path d="M141.378 132.586C140.977 132.11 140.624 131.59 140.323 131.036C139.973 130.512 139.672 129.95 139.428 129.361C140.182 130.365 140.835 131.451 141.378 132.601V132.586Z" fill="#FAFAFA"/>
<path d="M132.19 137.997C131.704 137.415 131.266 136.79 130.878 136.129C130.442 135.507 130.056 134.846 129.726 134.152C130.212 134.732 130.649 135.355 131.034 136.016C131.473 136.638 131.86 137.301 132.19 137.997Z" fill="#FAFAFA"/>
<path d="M134.909 144.466C134.909 144.524 133.725 144.544 132.269 144.625C130.813 144.707 129.636 144.807 129.629 144.749C129.876 144.664 130.132 144.612 130.391 144.594C130.868 144.528 131.529 144.462 132.258 144.424C132.988 144.385 133.652 144.381 134.133 144.393C134.394 144.381 134.655 144.406 134.909 144.466Z" fill="#FAFAFA"/>
<path d="M135.578 125.702C135.628 125.702 135.422 126.675 135.234 127.869C135.047 129.063 134.945 130.043 134.891 130.039C134.873 128.561 135.105 127.091 135.578 125.702Z" fill="#FAFAFA"/>
<path d="M131.919 120.016C132.326 119.322 132.785 118.665 133.291 118.051C133.749 117.393 134.256 116.778 134.808 116.21C134.401 116.903 133.942 117.561 133.436 118.175C132.978 118.832 132.47 119.448 131.919 120.016Z" fill="#FAFAFA"/>
<path d="M128.249 125.318C128.209 125.357 127.357 124.427 126.23 123.38C125.103 122.334 124.142 121.52 124.175 121.473C124.418 121.592 124.645 121.746 124.85 121.931C125.251 122.241 125.789 122.706 126.356 123.229C126.924 123.752 127.404 124.283 127.743 124.671C127.938 124.862 128.108 125.08 128.249 125.318Z" fill="#FAFAFA"/>
<path d="M122.141 127.163C122.167 127.218 121.094 127.834 119.906 128.803C118.717 129.772 117.872 130.71 117.829 130.667C117.972 130.423 118.145 130.201 118.345 130.008C118.795 129.515 119.278 129.058 119.79 128.64C120.304 128.223 120.846 127.847 121.412 127.516C121.638 127.362 121.884 127.243 122.141 127.163Z" fill="#FAFAFA"/>
<path d="M113.946 132.605C113.895 132.605 113.903 131.555 113.856 130.26C113.809 128.966 113.729 127.935 113.783 127.935C113.956 128.696 114.043 129.477 114.043 130.26C114.102 131.043 114.069 131.831 113.946 132.605Z" fill="#FAFAFA"/>
<path d="M119.989 138.342C118.826 137.45 117.738 136.45 116.738 135.354C117.335 135.773 117.897 136.247 118.417 136.772C118.985 137.242 119.511 137.768 119.989 138.342Z" fill="#FAFAFA"/>
<path d="M129.542 130.125C128.866 130.385 128.17 130.582 127.462 130.714C126.766 130.912 126.055 131.042 125.338 131.101C126.015 130.841 126.713 130.644 127.422 130.512C128.117 130.316 128.826 130.186 129.542 130.125Z" fill="#FAFAFA"/>
<path d="M148.277 132.784C147.954 132.564 147.666 132.289 147.424 131.97C147.136 131.696 146.892 131.372 146.702 131.012C147.025 131.235 147.313 131.511 147.554 131.83C147.842 132.104 148.086 132.426 148.277 132.784Z" fill="#FAFAFA"/>
<path d="M156.682 127.547C156.367 127.988 156.003 128.385 155.598 128.729C155.232 129.124 154.824 129.47 154.381 129.76C155.063 128.924 155.838 128.181 156.689 127.547H156.682Z" fill="#FAFAFA"/>
<path d="M163.869 129.683C163.819 129.683 164.028 128.791 164.231 127.694C164.433 126.597 164.498 125.694 164.552 125.698C164.605 126.379 164.558 127.064 164.415 127.729C164.327 128.407 164.143 129.065 163.869 129.683Z" fill="#FAFAFA"/>
<path d="M126.942 142.152C126.713 141.881 126.533 141.567 126.411 141.226C126.234 140.913 126.112 140.569 126.049 140.21C126.282 140.48 126.466 140.794 126.591 141.137C126.763 141.45 126.882 141.794 126.942 142.152Z" fill="#FAFAFA"/>
<path d="M139.883 142.695C139.652 142.295 139.473 141.864 139.352 141.412C139.171 140.982 139.05 140.526 138.991 140.059C139.222 140.458 139.4 140.89 139.518 141.342C139.701 141.771 139.824 142.227 139.883 142.695Z" fill="#FAFAFA"/>
<path d="M146.941 138.881C146.901 138.842 147.11 138.516 147.41 138.152C147.71 137.788 147.981 137.52 148.02 137.555C148.06 137.59 147.847 137.919 147.551 138.284C147.255 138.648 146.998 138.916 146.941 138.881Z" fill="#FAFAFA"/>
<path d="M132.439 163.157C132.075 162.62 131.802 162.019 131.63 161.381C131.401 160.764 131.279 160.108 131.269 159.443C131.323 159.443 131.489 160.296 131.818 161.316C132.146 162.335 132.489 163.126 132.439 163.157Z" fill="#FAFAFA"/>
<path d="M137.947 163.599C138.037 163.024 138.187 162.462 138.395 161.924C138.542 161.365 138.751 160.826 139.016 160.319C138.926 160.892 138.777 161.453 138.572 161.99C138.422 162.55 138.212 163.09 137.947 163.599Z" fill="#FAFAFA"/>
<path d="M136.34 170.316C135.992 169.825 135.697 169.295 135.458 168.734C135.162 168.203 134.919 167.639 134.736 167.052C135.081 167.545 135.376 168.076 135.614 168.638C135.91 169.168 136.153 169.731 136.34 170.316Z" fill="#FAFAFA"/>
<path d="M146.543 168.386C145.919 168.283 145.311 168.087 144.737 167.804C144.143 167.584 143.582 167.272 143.072 166.878C143.664 167.089 144.244 167.336 144.809 167.618C145.401 167.836 145.98 168.092 146.543 168.386Z" fill="#FAFAFA"/>
<path d="M143.242 164.401C143.217 164.351 143.856 163.905 144.578 163.269C145.301 162.633 145.843 162.056 145.882 162.106C145.196 163.099 144.288 163.891 143.242 164.409V164.401Z" fill="#FAFAFA"/>
<path d="M151.744 167.234C151.712 167.281 151.054 166.847 150.191 166.397C149.328 165.947 148.591 165.696 148.606 165.641C149.766 165.861 150.85 166.411 151.744 167.234Z" fill="#FAFAFA"/>
<path d="M153.557 170.878C153.521 170.835 154.016 170.293 154.562 169.56C155.107 168.827 155.49 168.192 155.537 168.223C155.347 168.762 155.065 169.259 154.706 169.688C154.396 170.158 154.007 170.562 153.557 170.878Z" fill="#FAFAFA"/>
<path d="M135.01 177.917C134.41 177.609 133.838 177.24 133.302 176.816C132.73 176.45 132.191 176.025 131.695 175.549C132.295 175.856 132.868 176.225 133.403 176.649C133.976 177.016 134.514 177.44 135.01 177.917Z" fill="#FAFAFA"/>
<path d="M141.92 176.087C141.942 176.142 141.198 176.494 140.356 177.083C139.514 177.673 138.911 178.246 138.872 178.215C139.673 177.203 140.733 176.464 141.92 176.087Z" fill="#FAFAFA"/>
<path d="M148.1 179.018C147.795 178.691 147.534 178.321 147.323 177.917C147.063 177.549 146.854 177.141 146.706 176.707C147.275 177.405 147.744 178.189 148.1 179.033V179.018Z" fill="#FAFAFA"/>
<path d="M155.548 176.378C155.569 176.432 154.869 176.789 154.074 177.343C153.279 177.897 152.683 178.428 152.629 178.386C152.999 177.897 153.449 177.486 153.958 177.173C154.436 176.802 154.976 176.532 155.548 176.378Z" fill="#FAFAFA"/>
<path d="M158.99 172.909C158.939 172.936 158.726 172.521 158.322 172.184C157.917 171.847 157.516 171.676 157.531 171.622C157.87 171.617 158.197 171.756 158.441 172.01C158.727 172.22 158.925 172.543 158.99 172.909Z" fill="#FAFAFA"/>
<path d="M162.891 176.901C162.512 177.223 162.097 177.491 161.655 177.7C161.24 177.964 160.796 178.173 160.333 178.32C160.71 177.996 161.126 177.728 161.569 177.521C161.982 177.254 162.427 177.045 162.891 176.901Z" fill="#FAFAFA"/>
<path d="M166.405 179.018C166.351 179.018 166.549 178.13 166.679 177.037C166.809 175.944 166.824 175.041 166.882 175.041C166.981 175.71 166.975 176.393 166.864 177.06C166.815 177.736 166.66 178.398 166.405 179.018Z" fill="#FAFAFA"/>
<path d="M165.849 172.289C165.816 172.339 165.087 171.808 164.086 171.386C163.086 170.963 162.219 170.812 162.226 170.75C162.891 170.754 163.548 170.907 164.155 171.2C164.785 171.429 165.363 171.8 165.849 172.289Z" fill="#FAFAFA"/>
<path d="M158.018 151.997C156.935 151.402 155.913 150.689 154.966 149.869C156.047 150.467 157.07 151.18 158.018 151.997Z" fill="#FAFAFA"/>
<g opacity="0.3">
<path opacity="0.3" d="M139.699 174.405C139.583 174.163 139.548 173.886 139.599 173.62C139.649 173.354 139.782 173.114 139.977 172.94C140.377 172.604 140.861 172.4 141.367 172.355C143.953 171.921 146.724 172.672 149.147 171.614C150.773 170.901 152.037 169.448 152.99 167.874C153.944 166.3 154.699 164.579 155.642 162.99C156.487 161.56 157.567 160.195 159.04 159.583C160.514 158.971 162.432 159.362 163.23 160.823C164.028 162.285 163.494 164.079 162.746 165.521C160.633 169.591 156.826 172.471 152.676 173.843C148.526 175.215 144.058 175.18 139.775 174.366" fill="black"/>
</g>
<path d="M190.915 162.416L186.884 146.982L170.291 149.284L172.234 157.47L147.417 150.366L141.942 158.164L179.614 177.254C181.34 178.044 183.251 178.25 185.089 177.844C186.928 177.438 188.608 176.44 189.904 174.983C192.215 172.362 191.937 165.862 190.915 162.416Z" fill="#FFBE9D"/>
<path d="M122.329 147.621C121.773 147.462 121.101 147.335 120.689 147.761C120.527 147.967 120.431 148.223 120.417 148.493C120.402 148.762 120.47 149.029 120.61 149.253C120.866 149.714 121.061 149.78 121.74 150.028L128.347 151.637L130.875 149.513L122.329 147.621Z" fill="#EB996E"/>
<path d="M142.949 158.536C134.877 156.416 127.386 153.614 119.411 151.986C119.013 151.904 118.566 151.792 118.356 151.416C118.071 150.904 118.439 150.211 118.948 149.978C119.48 149.801 120.047 149.781 120.588 149.92C124.855 150.557 129.193 150.399 133.41 149.455C136.145 148.838 138.828 147.904 141.588 147.517C144.347 147.129 145.091 148.679 147.417 150.346" fill="#FFBE9D"/>
<path d="M147.417 150.366C146.746 149.101 145.769 148.055 144.59 147.336C143.411 146.617 142.073 146.252 140.717 146.28C139.067 146.338 137.488 146.982 135.895 147.443C134.302 147.904 132.562 148.191 131.023 147.54C130.434 147.292 129.885 146.908 129.257 146.815C128.628 146.722 127.877 147.052 127.765 147.718C127.678 148.222 127.982 148.703 128.31 149.079C129.466 150.389 133.147 151.846 136.047 151.691" fill="#FFBE9D"/>
<path d="M136.047 151.695C136.047 151.664 135.603 151.695 134.815 151.61C133.708 151.485 132.617 151.224 131.565 150.835C130.833 150.574 130.128 150.237 129.459 149.827C129.09 149.608 128.749 149.337 128.448 149.021C128.287 148.873 128.155 148.693 128.061 148.49C127.966 148.286 127.911 148.065 127.899 147.838C127.937 147.612 128.044 147.406 128.203 147.251C128.361 147.096 128.563 147.002 128.776 146.982C129.252 146.923 129.732 147.027 130.149 147.28C130.62 147.543 131.115 147.752 131.626 147.904C132.16 148.041 132.71 148.098 133.259 148.075C135.494 147.993 137.42 146.997 139.247 146.621C140.106 146.413 140.991 146.363 141.866 146.474C142.626 146.583 143.366 146.814 144.062 147.16C145.075 147.665 145.974 148.399 146.698 149.311C147.204 149.962 147.421 150.385 147.421 150.369C147.388 150.26 147.34 150.155 147.28 150.059C147.133 149.769 146.961 149.494 146.767 149.238C146.064 148.273 145.163 147.496 144.134 146.966C143.423 146.596 142.663 146.346 141.88 146.226C140.981 146.099 140.068 146.14 139.182 146.346C137.311 146.734 135.39 147.695 133.237 147.773C132.712 147.793 132.188 147.738 131.677 147.61C131.183 147.462 130.705 147.261 130.25 147.009C129.78 146.735 129.242 146.626 128.711 146.699C128.445 146.747 128.196 146.87 127.989 147.055C127.884 147.152 127.798 147.271 127.736 147.404C127.674 147.537 127.637 147.682 127.628 147.831C127.638 148.097 127.7 148.358 127.809 148.597C127.917 148.836 128.071 149.049 128.26 149.222C128.583 149.554 128.948 149.836 129.343 150.059C130.032 150.47 130.758 150.804 131.511 151.056C132.587 151.433 133.703 151.666 134.833 151.749C135.14 151.769 135.448 151.769 135.754 151.749C135.854 151.744 135.952 151.726 136.047 151.695Z" fill="#EB996E"/>
<path d="M179.624 159.932C179.624 159.932 179.596 159.932 179.541 159.905L179.307 159.816L178.454 159.482C177.732 159.203 176.728 158.835 175.612 158.459C174.496 158.083 173.473 157.773 172.722 157.564L171.844 157.319L171.602 157.253C171.548 157.253 171.519 157.226 171.523 157.222H171.606L171.852 157.273C172.061 157.319 172.365 157.393 172.737 157.49C173.484 157.691 174.506 157.99 175.626 158.366C176.746 158.742 177.746 159.122 178.465 159.412C178.826 159.56 179.112 159.684 179.31 159.773L179.538 159.878L179.624 159.932Z" fill="#EB996E"/>
<path d="M148.443 128.097C150.718 127.993 152.866 126.949 154.441 125.185C156.016 123.42 156.895 121.071 156.895 118.628V107.388L157.473 71.4717L156.725 69.4484L139.099 63.4792C133.681 63.0257 130.041 71.0221 129.849 76.8517C129.636 83.3325 129.614 91.2514 130.452 96.0539C132.135 105.713 139.099 106.744 139.099 106.744L139.236 118.76C139.253 120.027 139.506 121.278 139.981 122.439C140.455 123.6 141.142 124.646 142.001 125.517C142.859 126.387 143.872 127.064 144.978 127.508C146.085 127.951 147.263 128.152 148.443 128.097Z" fill="#FFBE9D"/>
<path d="M132.19 83.1503C132.195 83.4753 132.319 83.7851 132.534 84.0138C132.749 84.2426 133.039 84.3722 133.342 84.3752C133.49 84.3824 133.638 84.358 133.777 84.3032C133.916 84.2485 134.044 84.1645 134.152 84.0563C134.261 83.948 134.348 83.8177 134.409 83.6728C134.471 83.5279 134.504 83.3714 134.508 83.2124C134.502 82.8881 134.378 82.5793 134.163 82.3513C133.948 82.1234 133.658 81.9943 133.356 81.9914C133.208 81.983 133.06 82.0066 132.921 82.0608C132.781 82.1149 132.654 82.1984 132.545 82.3065C132.436 82.4145 132.349 82.5449 132.288 82.6898C132.227 82.8347 132.193 82.9913 132.19 83.1503Z" fill="#263238"/>
<path d="M131.55 80.8596C131.698 81.0185 132.562 80.2936 133.808 80.2588C135.054 80.2239 135.975 80.8673 136.119 80.7006C136.184 80.627 136.029 80.3363 135.621 80.0378C135.072 79.6514 134.424 79.4577 133.768 79.4835C133.114 79.4966 132.481 79.7344 131.962 80.1619C131.601 80.4913 131.467 80.7898 131.55 80.8596Z" fill="#263238"/>
<path d="M144.286 83.1503C144.291 83.4746 144.414 83.7839 144.629 84.0125C144.843 84.2411 145.132 84.3712 145.434 84.3752C145.583 84.3835 145.731 84.3598 145.871 84.3055C146.01 84.2511 146.138 84.1672 146.247 84.0588C146.356 83.9503 146.443 83.8195 146.504 83.6741C146.565 83.5287 146.598 83.3717 146.601 83.2124C146.596 82.8881 146.473 82.5787 146.259 82.3505C146.044 82.1223 145.755 81.9934 145.452 81.9914C145.304 81.983 145.156 82.0066 145.017 82.0608C144.878 82.1149 144.75 82.1984 144.641 82.3065C144.532 82.4145 144.445 82.5449 144.384 82.6898C144.323 82.8347 144.289 82.9913 144.286 83.1503Z" fill="#263238"/>
<path d="M143.823 80.7472C143.972 80.9022 144.835 80.1813 146.081 80.1464C147.327 80.1115 148.248 80.7549 148.392 80.5882C148.454 80.5146 148.302 80.2239 147.894 79.9254C147.345 79.5395 146.697 79.3459 146.041 79.3712C145.387 79.3842 144.754 79.622 144.235 80.0495C143.874 80.3789 143.748 80.6735 143.823 80.7472Z" fill="#263238"/>
<path d="M139.551 90.8095C139.551 90.7359 138.774 90.6118 137.513 90.4762C137.196 90.4529 136.892 90.3948 136.831 90.1622C136.794 89.8098 136.86 89.4538 137.019 89.1428C137.297 88.3056 137.586 87.4296 137.893 86.5109C139.106 82.7628 139.977 79.689 139.836 79.6348C139.695 79.5805 138.593 82.5806 137.383 86.3249L136.546 88.9723C136.437 89.3599 136.239 89.8095 136.415 90.3173C136.464 90.437 136.538 90.5431 136.632 90.6271C136.725 90.7112 136.835 90.7709 136.954 90.8018C137.131 90.8496 137.313 90.8718 137.495 90.8677C138.763 90.9025 139.547 90.887 139.551 90.8095Z" fill="#263238"/>
<path d="M139.095 106.682C143.355 106.625 147.516 105.301 151.116 102.856C151.116 102.856 148.349 109.609 139.276 108.969L139.095 106.682Z" fill="#EB996E"/>
<path d="M143.365 75.5261C143.498 75.8866 144.741 75.6773 146.207 75.8246C147.674 75.9719 148.873 76.3633 149.061 76.03C149.14 75.8711 148.927 75.5339 148.439 75.1966C147.792 74.7831 147.065 74.5333 146.314 74.4662C145.563 74.399 144.808 74.5162 144.105 74.809C143.571 75.0416 143.311 75.3362 143.365 75.5261Z" fill="#263238"/>
<path d="M131.911 76.968C132.139 77.2664 132.995 76.9254 134.024 76.8788C135.054 76.8323 135.939 77.03 136.13 76.7044C136.213 76.5455 136.069 76.247 135.679 75.9718C135.16 75.6303 134.555 75.473 133.949 75.5222C133.342 75.5524 132.759 75.784 132.28 76.185C131.922 76.5067 131.828 76.8246 131.911 76.968Z" fill="#263238"/>
<path d="M135.989 64.142C136.408 67.179 137.53 70.055 139.251 72.5074C140.972 74.9598 143.238 76.9104 145.842 78.1812C145.686 77.406 145.532 76.6308 145.38 75.8556C147.612 79.8169 152.351 83.1349 155.4 84.476C156.342 84.8907 157.549 84.5186 158.405 83.9295C159.604 83.1077 159.676 81.2627 159.423 79.7588C158.639 75.0532 156.039 70.8438 152.651 67.7429C149.263 64.642 145.131 62.5722 140.858 61.1846C139.728 60.8163 139.11 60.5644 137.99 60.9714C136.871 61.3784 135.404 62.7466 135.946 63.8707" fill="#263238"/>
<path d="M153.969 77.3478C156.555 87.29 153.135 98.3407 154.016 108.62C154.211 110.911 154.988 113.562 156.786 114.822C157.675 115.442 157.87 115.051 158.892 115.268C161.504 115.81 163.97 114.636 166.578 115.178C168.933 115.671 172.679 117.117 174.163 115.089C175.648 113.062 173.936 110.678 172.484 108.694C171.032 106.709 169.081 105.011 168.366 102.604C167.593 100.019 168.428 97.2438 168.789 94.5538C170.024 85.3714 166.983 76.0687 161.926 68.5375C160.164 65.9134 157.505 63.4288 155.114 61.4559C152.723 59.483 147.316 57.8201 144.304 57.9674C141.292 58.1147 136.275 60.6807 135.047 64.3048" fill="#263238"/>
<path d="M143.968 71.6732C143.95 71.7081 144.148 71.8515 144.531 72.088L145.214 72.5144L144.632 71.9174C143.217 70.5033 142.008 68.8687 141.046 67.0685C139.24 63.7311 138.965 60.5334 138.821 60.5721C138.774 60.5721 138.774 61.3706 139.012 62.6303C139.335 64.2637 139.893 65.833 140.667 67.2816C141.628 69.14 142.936 70.7657 144.51 72.057L144.614 71.8864C144.206 71.7236 143.982 71.65 143.968 71.6732Z" fill="#455A64"/>
<path d="M160.362 113.039C160.38 112.826 160.38 112.612 160.362 112.399C160.362 111.981 160.362 111.364 160.38 110.57C160.5 108.333 160.807 106.112 161.298 103.934C161.854 101.159 162.775 97.9066 163.328 94.1623C163.614 92.2002 163.703 90.2105 163.591 88.228C163.494 86.0749 162.992 83.9652 162.114 82.0263C161.201 80.1022 159.863 78.4469 158.217 77.2044C156.664 75.968 155.042 75.0144 153.561 74.0222C150.925 72.2816 148.498 70.1987 146.337 67.8204C144.888 66.2104 143.56 64.4802 142.364 62.6458C141.942 61.9947 141.62 61.483 141.407 61.1303C141.304 60.9438 141.183 60.7697 141.046 60.6109C141.121 60.8092 141.213 60.9999 141.32 61.1807C141.505 61.5683 141.808 62.0799 142.209 62.7311C143.362 64.6173 144.669 66.3905 146.113 68.0297C148.259 70.4685 150.686 72.6023 153.337 74.3788C154.825 75.3865 156.436 76.3478 157.95 77.561C159.537 78.7615 160.828 80.3577 161.713 82.2123C162.563 84.0917 163.054 86.1343 163.158 88.2203C163.271 90.1708 163.192 92.1287 162.923 94.0615C162.399 97.7593 161.507 101.039 160.987 103.825C160.519 106.026 160.257 108.271 160.203 110.527C160.194 111.14 160.216 111.754 160.268 112.364C160.275 112.592 160.306 112.819 160.362 113.039Z" fill="#455A64"/>
<path d="M129.842 68.7623C129.521 71.2696 129.332 73.7944 129.278 76.3246C131.106 74.7431 132.952 73.1268 134.335 71.0841C135.718 69.0414 136.582 66.4871 136.22 63.9948C134.897 64.4125 133.699 65.197 132.748 66.2694C131.797 67.3418 131.126 68.6642 130.803 70.1035" fill="#263238"/>
<path d="M139.157 95.3522C139.467 94.7011 139.55 94.5344 140.078 94.2243C140.478 94.1159 140.89 94.0715 141.302 94.0925C141.703 94.1158 141.97 94.5421 142.119 94.9414C142.361 95.5187 142.395 96.1717 142.216 96.7748C142.007 97.3601 140.114 98.0616 139.095 96.5228" fill="#EB996E"/>
<path d="M140.714 97.5423C140.817 97.5351 140.921 97.5351 141.024 97.5423C141.298 97.5283 141.562 97.4271 141.783 97.2516C142.082 96.9594 142.276 96.5624 142.328 96.1314C142.37 95.8751 142.352 95.6115 142.274 95.365C142.197 95.1184 142.062 94.8968 141.884 94.7205C141.493 94.3915 141.008 94.2201 140.511 94.236C140.312 94.2443 140.116 94.298 139.937 94.3935C139.759 94.4891 139.601 94.6243 139.475 94.7903C139.306 95.0245 139.196 95.3004 139.153 95.5926C139.146 95.7044 139.126 95.8149 139.095 95.9221C139.066 95.8112 139.06 95.6947 139.077 95.581C139.097 95.2655 139.199 94.9622 139.37 94.705C139.494 94.5284 139.648 94.3796 139.825 94.267C140.032 94.1373 140.265 94.0629 140.504 94.0499C140.763 94.0393 141.022 94.0747 141.27 94.1546C141.536 94.2335 141.783 94.3752 141.992 94.5693C142.212 94.7732 142.369 95.0433 142.444 95.3446C142.518 95.6151 142.531 95.9006 142.483 96.1779C142.438 96.423 142.359 96.6595 142.249 96.8795C142.134 97.1218 141.955 97.3224 141.735 97.4562C141.515 97.59 141.262 97.6509 141.01 97.6314C140.906 97.628 140.804 97.5974 140.714 97.5423Z" fill="#263238"/>
<path d="M145.008 87.6544C145.041 87.697 144.921 87.8443 144.712 87.8715C144.503 87.8986 144.351 87.7784 144.38 87.7319C144.409 87.6854 144.539 87.6893 144.69 87.6699C144.842 87.6505 144.976 87.6079 145.008 87.6544Z" fill="#EB996E"/>
<path d="M146.998 87.542C146.948 87.542 146.879 87.4373 146.85 87.2862C146.821 87.135 146.832 86.9993 146.883 86.9877C146.933 86.9761 147.002 87.0885 147.034 87.2435C147.067 87.3986 147.063 87.542 146.998 87.542Z" fill="#EB996E"/>
<path d="M149.415 86.6815C149.415 86.7357 149.277 86.7512 149.137 86.7202C148.996 86.6892 148.887 86.6117 148.898 86.5574C148.909 86.5032 149.035 86.4876 149.176 86.5225C149.317 86.5574 149.425 86.6272 149.415 86.6815Z" fill="#EB996E"/>
<path d="M146.041 89.8094C145.99 89.8094 145.947 89.6854 145.947 89.5342C145.947 89.3831 145.99 89.259 146.041 89.259C146.092 89.259 146.135 89.3792 146.135 89.5342C146.135 89.6893 146.092 89.8094 146.041 89.8094Z" fill="#EB996E"/>
<path d="M148.212 88.7668C148.161 88.7668 148.118 88.7397 148.118 88.7048C148.118 88.6699 148.161 88.6428 148.212 88.6428C148.262 88.6428 148.306 88.6699 148.306 88.7048C148.306 88.7397 148.266 88.7668 148.212 88.7668Z" fill="#EB996E"/>
<path d="M132.666 88.0304C132.666 88.0846 132.486 88.1234 132.305 88.0304C132.125 87.9373 132.013 87.7629 132.052 87.728C132.092 87.6931 132.222 87.7707 132.381 87.8482C132.54 87.9257 132.67 87.9722 132.666 88.0304Z" fill="#EB996E"/>
<path d="M134.281 87.666C134.254 87.6555 134.232 87.6342 134.22 87.6066C134.208 87.5791 134.207 87.5475 134.216 87.5187C134.234 87.4528 134.284 87.4063 134.335 87.4218C134.362 87.4323 134.383 87.4536 134.396 87.4812C134.408 87.5087 134.409 87.5403 134.4 87.5691C134.398 87.5839 134.394 87.5982 134.387 87.6112C134.38 87.6241 134.37 87.6354 134.359 87.6444C134.348 87.6534 134.336 87.66 134.322 87.6637C134.309 87.6674 134.295 87.6682 134.281 87.666Z" fill="#EB996E"/>
<path d="M133.418 90.1777C133.367 90.1777 133.313 90.0924 133.298 89.9762C133.284 89.8599 133.298 89.7552 133.363 89.7475C133.428 89.7397 133.468 89.8289 133.486 89.949C133.504 90.0692 133.472 90.17 133.418 90.1777Z" fill="#EB996E"/>
<path d="M131.294 90.0537C131.25 90.0227 131.269 89.918 131.33 89.8133C131.391 89.7087 131.482 89.6544 131.525 89.6854C131.568 89.7164 131.55 89.825 131.489 89.9258C131.427 90.0265 131.337 90.0847 131.294 90.0537Z" fill="#EB996E"/>
<path d="M123.196 176.812V194.797C123.196 196.307 122.86 197.796 122.216 199.139C121.572 200.482 120.639 201.64 119.494 202.518C117.995 203.666 116.199 204.282 114.358 204.282H91.9641C90.2874 204.283 88.645 203.773 87.2289 202.809L86.456 202.274C85.1994 201.42 84.1639 200.239 83.4454 198.842C82.7269 197.444 82.3487 195.874 82.3456 194.278V176.812H123.196Z" fill="#263238"/>
<path d="M82.3456 181.142H70.9935V183.258L77.549 184.34C78.508 184.483 79.4176 184.884 80.1931 185.507C80.9686 186.129 81.5848 186.951 81.9844 187.898C82.2142 188.448 82.3371 189.043 82.3456 189.646C82.3456 189.646 84.6572 189.607 85.0509 186.642C85.0509 186.584 85.069 186.526 85.0762 186.467C85.2065 185.396 85.0187 184.307 84.5395 183.357C84.0603 182.406 83.3141 181.642 82.407 181.173L82.3456 181.142Z" fill="#455A64"/>
<path d="M123.196 181.157H134.555V183.281L128 184.363C127.038 184.505 126.125 184.907 125.347 185.532C124.57 186.156 123.952 186.982 123.554 187.933C123.324 188.483 123.201 189.078 123.192 189.681C123.192 189.681 120.884 189.642 120.487 186.681L120.465 186.502C120.335 185.431 120.523 184.342 121.002 183.392C121.481 182.441 122.227 181.677 123.135 181.208L123.196 181.157Z" fill="#455A64"/>
<path d="M123.196 181.157C123.143 181.199 123.088 181.237 123.03 181.27C122.865 181.365 122.706 181.471 122.553 181.588C121.972 182.023 121.487 182.591 121.134 183.25C120.581 184.268 120.378 185.461 120.559 186.623C120.634 187.332 120.896 188.005 121.314 188.561C121.794 189.151 122.471 189.515 123.2 189.572L123.113 189.661C123.122 188.945 123.287 188.24 123.593 187.603C123.904 186.922 124.337 186.313 124.868 185.812C125.427 185.284 126.072 184.872 126.772 184.599C127.496 184.346 128.243 184.176 129 184.091L134.552 183.181L134.476 183.274C134.476 182.549 134.476 181.843 134.476 181.157L134.563 181.25L126.382 181.215L124.045 181.188H123.42C123.348 181.197 123.275 181.197 123.203 181.188H123.416H124.034L126.364 181.161L134.563 181.126H134.649V181.219C134.649 181.905 134.649 182.611 134.649 183.336V183.421H134.573L129.022 184.34C128.277 184.423 127.542 184.591 126.83 184.84C126.155 185.1 125.533 185.495 124.995 186.002C124.488 186.461 124.076 187.026 123.782 187.662C123.488 188.299 123.319 188.994 123.286 189.704V189.801H123.203C122.819 189.772 122.444 189.66 122.1 189.473C121.757 189.286 121.451 189.027 121.202 188.712C120.77 188.132 120.501 187.431 120.429 186.692C120.253 185.499 120.474 184.278 121.054 183.243C121.422 182.576 121.927 182.01 122.531 181.588C122.689 181.475 122.855 181.376 123.026 181.289C123.079 181.239 123.136 181.195 123.196 181.157Z" fill="#263238"/>
<path d="M122.466 177.293C122.438 177.317 122.406 177.336 122.373 177.351L122.091 177.502L121.007 178.072L120.216 178.479C119.924 178.622 119.595 178.754 119.248 178.905C118.551 179.2 117.771 179.576 116.868 179.87L115.463 180.374C114.972 180.545 114.448 180.673 113.913 180.832C112.848 181.169 111.681 181.398 110.461 181.669C107.792 182.165 105.089 182.424 102.381 182.444C99.6722 182.426 96.9696 182.167 94.301 181.669C93.0802 181.401 91.9135 181.169 90.848 180.836C90.3135 180.673 89.7897 180.545 89.2985 180.374L87.8935 179.874C86.9905 179.58 86.2104 179.204 85.5097 178.913C85.1485 178.758 84.8379 178.626 84.5453 178.487L83.7543 178.08L82.6707 177.51L82.389 177.359L82.2987 177.301C82.3342 177.307 82.3683 177.321 82.3998 177.339L82.6888 177.471C82.9525 177.603 83.3245 177.781 83.794 178.006L84.5923 178.394C84.8848 178.529 85.2135 178.653 85.5602 178.804C86.2609 179.084 87.0411 179.452 87.9477 179.735L89.3527 180.223C89.8403 180.39 90.364 180.514 90.895 180.669C91.9605 180.998 93.1235 181.219 94.3443 181.483C97.003 181.972 99.6941 182.232 102.392 182.258C105.089 182.232 107.78 181.973 110.439 181.483C111.66 181.219 112.823 180.994 113.888 180.665C114.419 180.51 114.943 180.386 115.43 180.219L116.836 179.731C117.738 179.448 118.522 179.08 119.219 178.797C119.581 178.649 119.895 178.522 120.191 178.39L120.986 178.002L122.076 177.467L122.365 177.332L122.466 177.293Z" fill="#455A64"/>
<path d="M122.492 178.781C122.492 178.781 122.463 178.804 122.398 178.839L122.116 178.994L121.032 179.564L120.241 179.952C119.949 180.091 119.62 180.223 119.277 180.378C118.576 180.673 117.796 181.049 116.893 181.343L115.488 181.843C114.997 182.014 114.477 182.142 113.942 182.305C112.859 182.642 111.707 182.87 110.486 183.142C107.818 183.638 105.117 183.897 102.41 183.917C99.7011 183.897 96.9987 183.638 94.3298 183.142C93.1054 182.87 91.9387 182.642 90.8732 182.305C90.3387 182.146 89.815 182.018 89.3237 181.847L87.9187 181.347C87.0157 181.053 86.2356 180.677 85.5385 180.382C85.1773 180.231 84.8631 180.099 84.5705 179.956L83.7903 179.572L82.7068 179.002L82.425 178.851C82.36 178.816 82.3275 178.797 82.3311 178.793L82.4323 178.832L82.7212 178.967L83.8265 179.502L84.6247 179.89C84.9209 180.022 85.2459 180.149 85.5963 180.297C86.2934 180.58 87.0772 180.944 87.9801 181.231L89.3851 181.715C89.8727 181.882 90.3965 182.006 90.931 182.161C91.9929 182.491 93.1596 182.715 94.3768 182.979C97.0367 183.469 99.729 183.728 102.428 183.754C105.125 183.73 107.816 183.47 110.475 182.979C111.692 182.715 112.855 182.495 113.921 182.165C114.452 182.01 114.975 181.886 115.467 181.719L116.868 181.231C117.775 180.944 118.555 180.58 119.255 180.297C119.617 180.149 119.931 180.022 120.223 179.886L121.022 179.498L122.127 178.963L122.416 178.832L122.492 178.781Z" fill="#455A64"/>
<path d="M114.787 204.84C117.767 204.344 119.299 202.6 120.166 199.499C120.484 198.543 120.508 197.502 120.234 196.53C119.916 195.584 119.071 194.789 118.132 194.828C116.998 194.879 116.189 196.03 115.727 197.154C115.264 198.278 114.921 199.522 114.029 200.278C113.137 201.034 111.465 200.809 111.273 199.604C111.271 199.284 111.24 198.966 111.179 198.654C110.926 197.925 109.85 197.964 109.373 198.557C108.897 199.15 108.882 200.003 108.904 200.782C108.925 201.561 108.951 202.398 108.543 203.046C107.939 204.011 106.679 204.119 105.595 204.127L99.195 204.193C99.195 204.193 100.279 204.763 103.146 204.763C107.04 204.751 114.787 204.84 114.787 204.84Z" fill="#B7EB8F"/>
<path d="M102.41 204.181C100.268 204.22 97.9959 204.224 96.1683 203.018C95.0125 202.263 94.0445 201.045 92.7081 200.828C92.3248 200.743 91.9256 200.818 91.592 201.038C91.4294 201.15 91.3084 201.32 91.2498 201.518C91.1911 201.716 91.1985 201.93 91.2706 202.123C90.6782 201.883 90.2267 201.375 89.7175 200.96C89.2082 200.545 88.5472 200.247 87.9549 200.491C87.6529 200.648 87.4111 200.912 87.2707 201.238C87.1304 201.565 87.1003 201.934 87.1855 202.282C87.2866 202.624 87.4545 202.94 87.6781 203.207C87.9017 203.475 88.1758 203.688 88.4822 203.832C89.0976 204.119 89.7485 204.308 90.4145 204.394L105.826 204.708C105.823 204.29 102.41 204.181 102.41 204.181Z" fill="#B7EB8F"/>
<path d="M90.382 205.348L90.4145 204.437L114.787 204.84V205.348H90.382Z" fill="#455A64"/>
<path d="M113.231 194.797C112.943 194.279 112.78 193.691 112.757 193.088C112.734 192.485 112.852 191.885 113.101 191.344C113.321 190.875 113.773 190.409 114.239 190.568C114.704 190.727 114.798 191.344 114.788 191.84C114.762 192.921 114.036 195.107 113.231 194.789" fill="#B7EB8F"/>
<path d="M98.9603 162.35C98.9819 162.35 98.9386 162.537 98.9603 162.87C99.0021 163.34 99.1181 163.798 99.3034 164.226C99.5972 164.868 99.826 165.541 99.9861 166.234C100.099 167.127 99.8901 168.033 99.4009 168.765C98.9386 169.56 98.386 170.215 98.0248 170.901C97.8488 171.221 97.7116 171.563 97.6167 171.921C97.5437 172.231 97.523 172.552 97.5553 172.87C97.5912 173.338 97.7732 173.779 98.0718 174.122C98.1924 174.236 98.319 174.342 98.451 174.44C98.451 174.44 98.4077 174.44 98.3282 174.397C98.2174 174.34 98.1142 174.267 98.0212 174.18C97.6862 173.839 97.4739 173.382 97.4216 172.89C97.377 172.552 97.3929 172.209 97.4686 171.878C97.559 171.501 97.6962 171.138 97.8767 170.8C98.2379 170.091 98.7941 169.424 99.242 168.649C99.7083 167.958 99.9147 167.104 99.8199 166.258C99.6661 165.576 99.4533 164.912 99.1842 164.273C99.0047 163.828 98.9054 163.351 98.8917 162.866C98.8914 162.736 98.9047 162.606 98.9314 162.478C98.9345 162.434 98.9443 162.391 98.9603 162.35Z" fill="#263238"/>
<path d="M102.76 162.002C102.782 162.002 102.735 162.188 102.76 162.521C102.804 162.99 102.92 163.449 103.103 163.878C103.397 164.519 103.627 165.192 103.789 165.885C103.9 166.779 103.689 167.684 103.201 168.417C102.738 169.211 102.189 169.866 101.824 170.552C101.649 170.872 101.513 171.214 101.42 171.572C101.344 171.883 101.322 172.206 101.355 172.525C101.393 172.991 101.574 173.431 101.871 173.773C101.992 173.887 102.119 173.993 102.251 174.091C102.251 174.091 102.207 174.091 102.131 174.049C102.018 173.994 101.914 173.92 101.821 173.831C101.487 173.49 101.276 173.033 101.225 172.541C101.181 172.204 101.196 171.86 101.268 171.529C101.358 171.154 101.495 170.794 101.676 170.459C102.038 169.75 102.59 169.083 103.042 168.312C103.507 167.619 103.712 166.764 103.616 165.916C103.465 165.234 103.252 164.569 102.98 163.932C102.801 163.487 102.701 163.01 102.688 162.525C102.687 162.395 102.701 162.264 102.727 162.137C102.738 162.044 102.753 161.998 102.76 162.002Z" fill="#263238"/>
<path d="M106.545 161.661C106.567 161.661 106.524 161.847 106.545 162.18C106.595 162.652 106.717 163.111 106.906 163.54C107.199 164.181 107.428 164.852 107.589 165.544C107.7 166.438 107.489 167.343 107 168.075C106.538 168.87 105.989 169.525 105.628 170.211C105.451 170.53 105.314 170.873 105.22 171.231C105.145 171.542 105.124 171.865 105.158 172.184C105.195 172.65 105.375 173.089 105.671 173.432C105.792 173.547 105.92 173.653 106.054 173.75C106.054 173.75 106.007 173.75 105.931 173.707C105.819 173.651 105.714 173.578 105.621 173.49C105.287 173.149 105.076 172.692 105.025 172.2C104.981 171.862 104.995 171.519 105.068 171.188C105.16 170.815 105.297 170.457 105.476 170.122C105.837 169.409 106.393 168.742 106.841 167.971C107.306 167.278 107.512 166.423 107.419 165.575C107.266 164.893 107.052 164.229 106.78 163.591C106.602 163.145 106.503 162.668 106.487 162.184C106.488 162.053 106.502 161.923 106.531 161.796C106.524 161.703 106.545 161.661 106.545 161.661Z" fill="#263238"/>
<path d="M53.8118 205.487C53.8118 205.487 48.943 179.963 53.8118 165.781H59.2296C59.2296 165.781 63.3652 180.739 59.2296 205.487H53.8118Z" fill="#B7EB8F"/>
<g opacity="0.7">
<path opacity="0.7" d="M53.8118 205.487C53.8118 205.487 48.943 179.963 53.8118 165.781H59.2296C59.2296 165.781 63.3652 180.739 59.2296 205.487H53.8118Z" fill="white"/>
</g>
<path d="M57.8029 152.532C58.6989 150.887 59.9772 149.519 61.5129 148.561C63.0487 147.604 64.7894 147.091 66.5653 147.071C65.727 148.87 64.4223 150.37 62.8082 151.392C61.1942 152.414 59.3394 152.913 57.467 152.831" fill="#455A64"/>
<path d="M59.1429 141.893C57.9132 140.515 57.0377 138.819 56.6021 136.969C56.1666 135.12 56.1858 133.181 56.658 131.342C58.0396 132.7 59.0257 134.459 59.4973 136.405C59.969 138.351 59.9061 140.402 59.3163 142.311" fill="#455A64"/>
<path d="M54.2741 142.044C52.8196 141.414 51.5444 140.385 50.576 139.061C49.6076 137.737 48.9798 136.163 48.7552 134.497C50.3272 135.052 51.7136 136.088 52.7442 137.478C53.7748 138.868 54.4044 140.55 54.5559 142.319" fill="#455A64"/>
<path d="M52.9413 130.71C52.6947 129.512 52.7453 128.265 53.0882 127.095C53.4311 125.924 54.0542 124.87 54.8954 124.039C55.2324 125.285 55.223 126.608 54.8681 127.848C54.5132 129.088 53.8284 130.189 52.898 131.016" fill="#455A64"/>
<path d="M56.7012 162.494C56.8139 161.273 57.223 160.105 57.8879 159.106C58.5527 158.108 59.45 157.314 60.4901 156.804C60.4507 158.099 60.0594 159.353 59.3644 160.412C58.6694 161.471 57.701 162.289 56.5784 162.765" fill="#455A64"/>
<path d="M50.8067 120.027C50.8067 120.027 51.7819 123.938 52.9197 130.361L53.3531 132.884C53.5012 133.76 53.6276 134.679 53.7721 135.629C54.0718 137.52 54.3175 139.559 54.592 141.699C55.0868 145.99 55.5166 150.718 55.7803 155.699C56.0439 160.68 56.08 165.436 56.0223 169.758C55.9681 171.921 55.932 173.975 55.8272 175.894C55.7766 176.851 55.7478 177.781 55.69 178.669C55.6322 179.556 55.5708 180.413 55.513 181.227C55.0362 187.747 54.4655 191.743 54.4655 191.743C54.4655 191.743 54.4655 191.681 54.4655 191.557L54.5342 191.034C54.5847 190.545 54.6534 189.844 54.7437 188.94C54.7906 188.487 54.8448 187.983 54.899 187.429C54.9531 186.874 55.0001 186.266 55.0543 185.63C55.1554 184.336 55.2999 182.867 55.3902 181.239C55.4407 180.42 55.4949 179.567 55.5527 178.68C55.6069 177.789 55.6322 176.863 55.6755 175.905C55.7766 173.986 55.8055 171.936 55.8561 169.777C55.9031 165.459 55.8561 160.707 55.5997 155.73C55.3432 150.753 54.9098 146.04 54.4258 141.741C54.1585 139.602 53.9201 137.567 53.624 135.671C53.4831 134.726 53.3603 133.807 53.2158 132.927C53.0713 132.047 52.9305 131.21 52.7968 130.404C52.5404 128.795 52.2478 127.349 52.0167 126.078C51.8939 125.442 51.7819 124.849 51.6808 124.307C51.5796 123.764 51.4641 123.268 51.3702 122.822L50.9512 120.768C50.9042 120.539 50.8717 120.38 50.8428 120.233C50.8139 120.086 50.8067 120.027 50.8067 120.027Z" fill="#263238"/>
<path d="M62.7801 129.33C62.7748 129.378 62.7638 129.425 62.7476 129.47C62.7187 129.567 62.6826 129.698 62.632 129.857L62.1769 131.369L61.841 132.462C61.729 132.85 61.6062 133.299 61.4798 133.768C61.2234 134.71 60.9055 135.772 60.6166 136.97C60.4685 137.567 60.3096 138.191 60.147 138.842C59.9845 139.493 59.8436 140.175 59.6811 140.881C59.3488 142.288 59.0635 143.807 58.7492 145.404C58.1641 148.606 57.6259 152.149 57.2323 155.893C56.8386 159.637 56.6652 163.223 56.5857 166.486C56.5857 168.118 56.5388 169.669 56.5857 171.118C56.5857 171.843 56.5857 172.545 56.6255 173.219C56.6652 173.893 56.6796 174.537 56.7049 175.157C56.741 176.394 56.8386 177.506 56.8963 178.483C56.9325 178.971 56.9614 179.429 56.9903 179.847C57.0192 180.266 57.0661 180.646 57.095 181.01C57.1564 181.688 57.2034 182.219 57.2359 182.591C57.2359 182.766 57.2575 182.901 57.2684 183.006C57.2716 183.053 57.2716 183.099 57.2684 183.146C57.2561 183.1 57.2477 183.053 57.2431 183.006C57.2431 182.905 57.2142 182.77 57.1961 182.599C57.1528 182.212 57.095 181.696 57.0192 181.018L56.9 179.874C56.8638 179.456 56.8277 179.002 56.788 178.514C56.7194 177.533 56.6146 176.421 56.5677 175.184C56.5388 174.568 56.5063 173.921 56.4774 173.246C56.4485 172.572 56.4413 171.87 56.4232 171.145C56.3799 169.692 56.4232 168.137 56.4232 166.494C56.4918 163.226 56.6796 159.633 57.0553 155.881C57.4309 152.129 57.9944 148.583 58.5903 145.377C58.9118 143.78 59.2007 142.276 59.5402 140.854C59.7064 140.148 59.8509 139.462 60.017 138.811C60.1832 138.16 60.3457 137.54 60.501 136.943C60.7972 135.749 61.1222 134.687 61.3895 133.749C61.5268 133.28 61.6568 132.846 61.7724 132.443C61.888 132.039 62.018 131.667 62.1336 131.357C62.3467 130.714 62.4948 130.194 62.6248 129.853C62.6826 129.691 62.7259 129.563 62.7584 129.466C62.7607 129.42 62.7679 129.374 62.7801 129.33Z" fill="#263238"/>
<path d="M61.9927 132.218C60.808 131.148 60.7358 129.156 61.3173 127.617C61.8988 126.078 62.9932 124.842 63.907 123.5C64.8208 122.159 65.5974 120.555 65.3879 118.911C65.2996 118.531 65.274 118.138 65.3121 117.748C65.3879 117.361 65.7455 117 66.0958 117.117C66.4462 117.233 66.5329 117.613 66.5979 117.954C66.8004 119.015 66.8612 120.103 66.7785 121.183C67.0154 120.554 67.3824 119.992 67.8517 119.538C68.321 119.084 68.8803 118.75 69.4874 118.562C69.6179 119.194 69.5976 119.851 69.4284 120.473C69.2592 121.094 68.9465 121.66 68.5194 122.117C69.3032 121.768 70.1411 121.407 70.9755 121.582C71.8098 121.756 72.5539 122.702 72.2396 123.551C71.8785 124.512 70.6613 124.531 69.7113 124.714C68.6484 124.922 67.6887 125.527 67.0024 126.423C66.1428 127.547 65.7997 129.016 65.1026 130.264C64.4055 131.512 63.0727 132.59 61.7869 132.148" fill="#B7EB8F"/>
<path d="M51.8252 124.334C53.1363 123.458 53.4686 121.493 53.093 119.884C52.7173 118.275 51.7999 116.884 51.0703 115.419C50.3407 113.954 49.7809 112.248 50.2035 110.651C50.3433 110.281 50.4204 109.887 50.431 109.488C50.4057 109.101 50.1023 108.682 49.7375 108.744C49.3727 108.806 49.2391 109.171 49.1307 109.519C48.791 110.539 48.5891 111.605 48.5312 112.686C48.3793 112.028 48.0897 111.415 47.6841 110.894C47.2786 110.374 46.7678 109.959 46.1907 109.682C45.9787 110.289 45.9129 110.943 45.9994 111.584C46.0859 112.225 46.3219 112.832 46.6855 113.349C45.9631 112.884 45.1685 112.403 44.3233 112.45C43.4781 112.496 42.6149 113.322 42.8136 114.206C43.0375 115.213 44.2583 115.419 45.1649 115.756C46.1892 116.125 47.0599 116.868 47.6246 117.857C48.3253 119.097 48.477 120.605 49.0007 121.946C49.5244 123.287 50.7055 124.562 52.0383 124.311" fill="#B7EB8F"/>
<path d="M50.2758 143.524C50.3302 143.602 50.3751 143.686 50.4094 143.776L50.7706 144.513C50.9223 144.834 51.1029 145.23 51.2943 145.699C51.4857 146.168 51.7241 146.691 51.9481 147.288C52.172 147.885 52.4284 148.532 52.6704 149.245C52.9124 149.959 53.1617 150.718 53.4181 151.525C53.9021 153.145 54.3752 154.951 54.7762 156.866C55.1771 158.781 55.448 160.637 55.643 162.327C55.7297 163.172 55.82 163.978 55.8633 164.734C55.9067 165.49 55.9536 166.192 55.9789 166.835C56.0042 167.479 56.0078 168.06 56.015 168.572C56.0223 169.083 56.015 169.521 56.015 169.882C56.015 170.242 55.9789 170.49 55.9789 170.711C55.9789 170.932 55.9789 170.998 55.9572 170.998C55.9472 170.901 55.9472 170.804 55.9572 170.707C55.9572 170.502 55.9572 170.227 55.9572 169.882C55.9572 169.537 55.9572 169.083 55.9356 168.572C55.9139 168.06 55.9139 167.482 55.8706 166.843C55.8272 166.203 55.8019 165.498 55.7333 164.746C55.6647 163.994 55.5888 163.196 55.4985 162.351C55.2927 160.668 55.0073 158.823 54.6208 156.924C54.2344 155.025 53.7504 153.215 53.2772 151.594C53.028 150.788 52.7968 150.021 52.5549 149.315C52.3129 148.61 52.0781 147.951 51.8541 147.354C51.6302 146.757 51.4171 146.226 51.2329 145.757C51.0487 145.288 50.8717 144.885 50.7381 144.559L50.4202 143.803C50.3639 143.716 50.3155 143.622 50.2758 143.524Z" fill="#263238"/>
<path d="M51.1715 147.257C51.8253 146.687 51.8939 145.602 51.576 144.761C51.2582 143.92 50.6875 143.234 50.1999 142.493C49.7123 141.753 49.3042 140.873 49.4306 139.982C49.4813 139.773 49.4984 139.557 49.4812 139.342C49.4414 139.129 49.25 138.931 49.0586 138.989C48.8671 139.047 48.8166 139.257 48.7768 139.443C48.6583 140.019 48.6169 140.61 48.654 141.199C48.5315 140.855 48.3378 140.545 48.0876 140.293C47.8373 140.042 47.537 139.854 47.2093 139.745C47.1341 140.087 47.1404 140.444 47.2275 140.783C47.3146 141.121 47.4797 141.431 47.7077 141.683C47.2998 141.442 46.8357 141.333 46.3713 141.369C45.9198 141.454 45.5045 141.966 45.649 142.427C45.8368 142.958 46.5014 142.978 47.0179 143.086C47.5944 143.213 48.1118 143.552 48.4807 144.044C48.9394 144.664 49.1164 145.466 49.4848 146.152C49.8532 146.838 50.5683 147.443 51.2907 147.21" fill="#B7EB8F"/>
</svg>
