<svg width="240" height="240" viewBox="0 0 240 240" fill="none" xmlns="http://www.w3.org/2000/svg">
<path opacity="0.5" d="M57.4883 222.263C69.7586 235.212 99.8831 230.471 112.928 222.263C155.281 195.618 229.521 151.273 232.88 87.0244C234.31 59.7136 210.227 45.3773 200.161 41.1668C176.031 31.0669 149.515 28.0312 123.321 26.8617C95.9888 25.6401 66.6494 26.5914 42.0517 39.9245C32.7294 44.9614 23.9323 51.4539 17.9115 60.2958C11.792 69.2781 8.27211 79.9706 7.34144 90.7671C5.83366 108.181 10.5182 125.641 17.6048 141.62C24.6914 157.599 34.1436 172.398 42.816 187.571C48.4728 197.474 47.1626 211.347 57.4883 222.263Z" fill="#D9F7BE"/>
<path d="M30.2072 185.78V196.288H32.6311C32.504 195.182 32.504 194.066 32.6311 192.96C32.8613 191.725 35.4946 188.535 35.415 185.797L30.2072 185.78Z" fill="#EBEBEB"/>
<path d="M49.5984 185.78V196.288H52.0223C51.8952 195.182 51.8952 194.066 52.0223 192.96C52.2525 191.725 54.8858 188.535 54.8062 185.797L49.5984 185.78Z" fill="#E0E0E0"/>
<path d="M68.5793 185.78V196.288H66.1512C66.2761 195.182 66.2761 194.066 66.1512 192.96C65.9168 191.725 63.2878 188.535 63.3631 185.797L68.5793 185.78Z" fill="#EBEBEB"/>
<path d="M85.3584 185.78V196.288H82.9345C83.0593 195.182 83.0593 194.066 82.9345 192.96C82.7042 191.725 80.071 188.535 80.1505 185.797L85.3584 185.78Z" fill="#E0E0E0"/>
<path d="M86.631 133.966H28.5577V186.115H86.631V133.966Z" fill="#F5F5F5"/>
<path d="M70.9866 133.966L71.4178 186.115H86.6311V133.966H70.9866Z" fill="#E0E0E0"/>
<path d="M68.4538 137.805H31.17V151.075H68.4538V137.805Z" fill="#EBEBEB"/>
<path d="M68.4538 153.717H31.17V166.988H68.4538V153.717Z" fill="#EBEBEB"/>
<path d="M68.4538 169.633H31.17V182.904H68.4538V169.633Z" fill="#EBEBEB"/>
<path d="M45.4622 118.983L43.8547 133.907H64.46L66.168 118.983H45.4622Z" fill="#E0E0E0"/>
<path d="M46.3121 120.054L44.7464 133.112H63.3422L64.8451 120.054H46.3121Z" fill="white"/>
<path d="M49.4393 122.252L48.4765 130.918H60.2109L60.8137 122.252H49.4393Z" fill="#EBEBEB"/>
<path d="M65.4312 125.409L69.6887 133.966L64.46 133.907L65.4312 125.409Z" fill="#EBEBEB"/>
<path d="M51.1767 145.131C51.1775 145.401 51.0982 145.665 50.9487 145.89C50.7993 146.115 50.5864 146.291 50.3371 146.395C50.0878 146.499 49.8133 146.526 49.5483 146.474C49.2832 146.422 49.0397 146.292 48.8484 146.101C48.6571 145.911 48.5267 145.668 48.4737 145.403C48.4207 145.138 48.4475 144.863 48.5507 144.614C48.6538 144.364 48.8287 144.151 49.0533 144C49.2778 143.85 49.5418 143.77 49.8119 143.77C50.1732 143.77 50.5197 143.913 50.7755 144.168C51.0313 144.423 51.1756 144.769 51.1767 145.131Z" fill="#E0E0E0"/>
<path d="M51.1767 161.206C51.1767 161.476 51.0966 161.74 50.9467 161.965C50.7967 162.189 50.5836 162.364 50.3342 162.467C50.0848 162.57 49.8104 162.598 49.5457 162.545C49.2809 162.492 49.0378 162.362 48.8469 162.171C48.656 161.98 48.5261 161.737 48.4734 161.473C48.4207 161.208 48.4478 160.933 48.5511 160.684C48.6544 160.435 48.8293 160.222 49.0537 160.072C49.2781 159.922 49.542 159.842 49.8119 159.842C49.9913 159.841 50.169 159.876 50.3349 159.944C50.5007 160.013 50.6514 160.113 50.7782 160.24C50.905 160.367 51.0055 160.518 51.0739 160.683C51.1423 160.849 51.1772 161.027 51.1767 161.206Z" fill="#E0E0E0"/>
<path d="M51.1767 177.278C51.1767 177.548 51.0966 177.812 50.9467 178.036C50.7967 178.26 50.5836 178.435 50.3342 178.539C50.0848 178.642 49.8104 178.669 49.5457 178.616C49.2809 178.564 49.0378 178.434 48.8469 178.243C48.656 178.052 48.5261 177.809 48.4734 177.544C48.4207 177.279 48.4478 177.005 48.5511 176.756C48.6544 176.506 48.8293 176.293 49.0537 176.143C49.2781 175.993 49.542 175.913 49.8119 175.913C50.1739 175.913 50.521 176.057 50.777 176.313C51.0329 176.569 51.1767 176.916 51.1767 177.278Z" fill="#E0E0E0"/>
<path d="M68.3952 49.1917L35.4694 48.8735L36.3862 91.7838L69.312 91.9052L68.3952 49.1917Z" fill="#E0E0E0"/>
<path d="M66.2727 51.1049L37.4496 50.3597L38.2826 89.2762L67.0974 89.632L66.2727 51.1049Z" fill="#FAFAFA"/>
<path d="M61.3537 56.9197L42.2262 56.6016L42.8123 83.8046L61.9189 83.3943L61.3537 56.9197Z" fill="#EBEBEB"/>
<path d="M42.8123 83.8046L61.6217 69.4202L42.2262 56.6016L42.8123 83.8046Z" fill="#F5F5F5"/>
<path d="M210.083 26.8239L181.193 26.5435L182.001 64.1915L210.882 64.2961L210.083 26.8239Z" fill="#E0E0E0"/>
<path d="M208.216 28.5069L182.93 27.8496L183.663 61.9894L208.94 62.2992L208.216 28.5069Z" fill="#FAFAFA"/>
<path d="M203.9 33.6059L187.125 33.3254L187.636 57.1877L204.398 56.8318L203.9 33.6059Z" fill="#EBEBEB"/>
<path d="M187.636 57.1877L204.138 44.57L187.125 33.3254L187.636 57.1877Z" fill="#F5F5F5"/>
<path d="M177.722 168.365C177.601 168.733 181.909 185.11 181.909 185.11L184.864 184.495L180.799 168.365H177.722Z" fill="#EBEBEB"/>
<path d="M200.626 166.025L194.715 185.11H198.164L203.828 167.381L200.626 166.025Z" fill="#F5F5F5"/>
<path d="M206.043 163.069L199.269 185.11H202.719L209.246 164.426L206.043 163.069Z" fill="#EBEBEB"/>
<path d="M179.815 183.758L183.265 195.702H200.626L203.828 183.758H179.815Z" fill="#E0E0E0"/>
<path d="M188.77 183.758C188.755 183.717 188.742 183.675 188.732 183.633L188.64 183.269C188.561 182.934 188.452 182.461 188.31 181.858L187.116 176.642L183.219 159.247L183.324 159.335H180.284L180.389 159.201C181.934 166.046 183.319 172.179 184.312 176.608C184.797 178.814 185.191 180.593 185.467 181.841C185.593 182.448 185.697 182.921 185.768 183.26C185.798 183.415 185.823 183.536 185.84 183.629C185.846 183.672 185.846 183.715 185.84 183.758C185.825 183.717 185.812 183.675 185.802 183.633C185.777 183.541 185.748 183.419 185.71 183.269C185.626 182.934 185.513 182.461 185.367 181.858C185.078 180.602 184.663 178.839 184.148 176.642C183.131 172.212 181.729 166.088 180.163 159.247L180.129 159.117H183.395L183.416 159.201C184.919 166.046 186.271 172.179 187.246 176.608C187.719 178.814 188.104 180.593 188.372 181.841C188.498 182.448 188.594 182.921 188.665 183.26L188.737 183.629C188.755 183.67 188.766 183.714 188.77 183.758Z" fill="#E0E0E0"/>
<path d="M205.737 196.2C205.737 196.259 165.992 196.309 116.986 196.309C67.9807 196.309 28.2353 196.259 28.2353 196.2C28.2353 196.142 67.9723 196.091 117.007 196.091C166.042 196.091 205.737 196.142 205.737 196.2Z" fill="#263238"/>
<path d="M194.309 81.9374C194.213 81.897 194.113 81.8662 194.011 81.8453C193.712 81.778 193.402 81.778 193.103 81.8453C192.618 81.97 192.168 82.2018 191.784 82.5235C191.263 82.9749 190.811 83.5011 190.445 84.085C189.586 85.3995 188.912 87.2164 188.125 89.3347C187.215 91.7536 186.427 94.217 185.764 96.7153C185.641 96.9458 185.476 97.1515 185.279 97.3223C185.177 97.4153 185.056 97.4851 184.924 97.527C184.793 97.5689 184.654 97.5819 184.517 97.5651C184.248 97.4967 184.005 97.3512 183.818 97.1465C183.621 96.9665 183.437 96.7739 183.252 96.5772C182.889 96.1775 182.502 95.8 182.093 95.4468C181.698 95.0667 181.172 94.8524 180.623 94.8482C180.349 94.8949 180.088 94.9989 179.856 95.1532C179.625 95.3076 179.428 95.5089 179.279 95.7441C178.982 96.2526 178.822 96.8296 178.815 97.4186C178.744 98.6159 179.091 99.8258 179.3 101.077C179.51 102.329 179.773 103.614 180.016 104.925C180.142 105.582 180.263 106.243 180.389 106.913L180.577 107.926C180.635 108.103 180.654 108.291 180.633 108.475C180.612 108.66 180.551 108.839 180.456 108.998C180.393 109.082 180.306 109.145 180.207 109.179C180.107 109.212 180 109.215 179.899 109.186C179.718 109.134 179.549 109.047 179.401 108.931L178.564 108.295C177.994 107.864 177.401 107.465 176.789 107.097C176.175 106.716 175.506 106.433 174.804 106.26C174.457 106.179 174.096 106.179 173.749 106.26C173.404 106.348 173.099 106.552 172.887 106.838C172.484 107.459 172.286 108.191 172.322 108.931C172.323 109.693 172.397 110.453 172.544 111.2C172.846 112.737 173.273 114.246 173.82 115.713C173.98 116.088 174.102 116.478 174.185 116.877C174.205 116.99 174.201 117.106 174.175 117.217C174.148 117.329 174.099 117.434 174.03 117.526C173.993 117.569 173.952 117.61 173.908 117.647C173.861 117.69 173.805 117.723 173.745 117.743C173.617 117.763 173.487 117.733 173.381 117.66C173.033 117.437 172.709 117.178 172.414 116.889L171.518 116.052C170.931 115.484 170.294 114.971 169.613 114.52C169.274 114.297 168.903 114.128 168.512 114.018C168.327 113.96 168.131 113.943 167.938 113.966C167.746 113.99 167.56 114.055 167.394 114.156C167.071 114.39 166.846 114.736 166.762 115.127C166.661 115.527 166.611 115.937 166.612 116.349C166.615 117.196 166.721 118.039 166.926 118.861C167.339 120.531 167.95 122.146 168.747 123.671C169.539 125.235 170.444 126.739 171.455 128.172C171.961 128.898 172.506 129.597 173.088 130.265C173.649 130.96 174.218 131.651 174.788 132.358V132.383L174.687 132.341L177.35 131.956C178.232 131.851 179.108 131.7 179.974 131.504C181.683 131.12 183.361 130.615 184.998 129.993C186.613 129.396 188.151 128.61 189.582 127.653C190.285 127.187 190.927 126.638 191.495 126.016C191.775 125.711 192.016 125.372 192.211 125.007C192.411 124.661 192.476 124.255 192.395 123.864C192.342 123.677 192.248 123.504 192.122 123.356C191.996 123.208 191.839 123.088 191.663 123.006C191.299 122.828 190.911 122.704 190.512 122.637C189.704 122.515 188.887 122.466 188.071 122.491H186.848C186.428 122.507 186.007 122.48 185.593 122.411C185.464 122.395 185.347 122.329 185.266 122.227C185.235 122.17 185.217 122.107 185.212 122.043C185.205 121.986 185.205 121.928 185.212 121.871C185.224 121.758 185.259 121.648 185.315 121.548C185.37 121.448 185.445 121.36 185.534 121.289C185.863 121.051 186.215 120.845 186.585 120.674C187.978 119.958 189.31 119.127 190.566 118.191C191.174 117.738 191.735 117.225 192.24 116.659C192.763 116.136 193.109 115.463 193.228 114.733C193.263 114.378 193.175 114.022 192.977 113.725C192.777 113.43 192.51 113.186 192.199 113.013C191.567 112.666 190.885 112.421 190.177 112.289C189.477 112.148 188.77 112.046 188.058 111.983L187.003 111.883C186.815 111.872 186.631 111.822 186.463 111.736C186.37 111.688 186.293 111.612 186.243 111.52C186.193 111.427 186.172 111.322 186.183 111.217C186.221 111.036 186.297 110.864 186.406 110.714C186.515 110.564 186.654 110.439 186.815 110.346L187.652 109.727L189.264 108.5L192.379 106.135C193.379 105.352 194.447 104.69 195.2 103.753C195.586 103.314 195.851 102.783 195.971 102.212C196.019 101.937 196.009 101.656 195.942 101.385C195.874 101.114 195.749 100.861 195.577 100.642C195.394 100.44 195.157 100.295 194.895 100.223C194.632 100.145 194.361 100.1 194.087 100.09C193.547 100.075 193.008 100.095 192.471 100.148C192.203 100.148 191.935 100.186 191.671 100.19C191.396 100.211 191.121 100.151 190.88 100.018C190.764 99.9402 190.667 99.838 190.595 99.7188C190.523 99.5995 190.477 99.4661 190.461 99.3276C190.43 99.0674 190.446 98.8037 190.507 98.5489C191.706 96.2788 192.788 93.9496 193.752 91.5703C194.589 89.4771 195.313 87.6769 195.573 86.128C195.7 85.4518 195.728 84.7609 195.657 84.0767C195.602 83.5793 195.435 83.1009 195.167 82.6784C195.005 82.4199 194.784 82.2033 194.522 82.0463C194.433 81.9918 194.339 81.9455 194.242 81.9081C194.343 81.9354 194.44 81.9762 194.53 82.0295C194.8 82.1835 195.029 82.3986 195.2 82.6575C195.474 83.0834 195.647 83.5658 195.707 84.0683C195.788 84.7583 195.767 85.4567 195.644 86.1405C195.393 87.6937 194.681 89.4896 193.848 91.5828C192.905 93.9894 191.84 96.3466 190.658 98.6452C190.6 98.8806 190.586 99.1247 190.616 99.3653C190.628 99.4837 190.664 99.5984 190.723 99.7016C190.782 99.8048 190.863 99.8943 190.959 99.9639C191.178 100.08 191.425 100.13 191.671 100.11C191.931 100.11 192.194 100.085 192.462 100.064C193.006 100.01 193.553 99.9886 194.099 100.002C194.383 100.013 194.664 100.059 194.937 100.14C195.224 100.216 195.485 100.371 195.69 100.588C195.873 100.822 196.004 101.092 196.076 101.381C196.148 101.669 196.159 101.969 196.109 102.262C195.987 102.862 195.71 103.419 195.305 103.878C194.53 104.841 193.455 105.511 192.462 106.298L189.352 108.667L187.744 109.89L186.928 110.514C186.79 110.606 186.665 110.716 186.555 110.84C186.455 110.96 186.388 111.104 186.363 111.259C186.355 111.328 186.37 111.399 186.403 111.46C186.437 111.521 186.489 111.571 186.551 111.602C186.699 111.674 186.86 111.715 187.024 111.723L188.079 111.824C188.796 111.885 189.509 111.987 190.214 112.13C190.947 112.265 191.653 112.515 192.307 112.87C192.641 113.062 192.927 113.327 193.145 113.645C193.363 113.978 193.463 114.374 193.429 114.771C193.305 115.543 192.944 116.257 192.395 116.814C191.875 117.389 191.301 117.912 190.679 118.376C189.414 119.321 188.074 120.161 186.673 120.887C186.316 121.049 185.977 121.245 185.66 121.473C185.59 121.527 185.532 121.594 185.489 121.67C185.446 121.746 185.418 121.83 185.408 121.917C185.404 121.959 185.404 122.001 185.408 122.043C185.408 122.076 185.408 122.156 185.438 122.152C185.491 122.2 185.559 122.23 185.63 122.24C186.023 122.303 186.421 122.328 186.819 122.315H188.042C188.87 122.285 189.7 122.334 190.52 122.461C190.942 122.527 191.352 122.659 191.734 122.851C191.936 122.947 192.115 123.086 192.259 123.257C192.404 123.428 192.51 123.628 192.571 123.843C192.666 124.283 192.595 124.742 192.37 125.132C192.168 125.513 191.918 125.866 191.625 126.183C191.046 126.819 190.391 127.382 189.674 127.858C188.231 128.828 186.677 129.623 185.044 130.223C183.395 130.852 181.702 131.361 179.979 131.747C179.109 131.944 178.231 132.095 177.345 132.199L174.679 132.588H174.616L174.578 132.538H174.557L172.858 130.445C172.276 129.776 171.73 129.077 171.221 128.352C170.202 126.909 169.29 125.393 168.491 123.818C167.691 122.276 167.077 120.644 166.662 118.957C166.45 118.124 166.342 117.268 166.339 116.408C166.34 115.976 166.393 115.546 166.499 115.127C166.597 114.688 166.853 114.301 167.219 114.038C167.409 113.921 167.623 113.845 167.845 113.816C168.068 113.787 168.293 113.806 168.508 113.871C168.918 113.987 169.307 114.165 169.663 114.399C170.355 114.856 171.003 115.377 171.598 115.956L172.493 116.793C172.778 117.07 173.09 117.318 173.423 117.534C173.483 117.577 173.554 117.601 173.628 117.601C173.628 117.601 173.691 117.563 173.72 117.542L173.812 117.45C173.863 117.38 173.899 117.3 173.917 117.215C173.936 117.13 173.937 117.042 173.921 116.956C173.842 116.573 173.724 116.198 173.569 115.839C173.019 114.361 172.59 112.84 172.288 111.292C172.14 110.532 172.065 109.76 172.066 108.986C172.033 108.203 172.247 107.43 172.678 106.775C172.916 106.457 173.256 106.23 173.64 106.13C174.016 106.043 174.407 106.043 174.783 106.13C175.503 106.301 176.191 106.583 176.822 106.968C177.442 107.336 178.041 107.74 178.614 108.178L179.451 108.814C179.576 108.915 179.718 108.993 179.87 109.044C179.937 109.064 180.009 109.062 180.076 109.04C180.142 109.018 180.201 108.975 180.242 108.919C180.325 108.794 180.373 108.649 180.381 108.5C180.385 108.334 180.366 108.167 180.326 108.006C180.263 107.667 180.205 107.332 180.142 106.997C180.016 106.327 179.895 105.662 179.773 105.008C179.535 103.694 179.296 102.413 179.066 101.161C178.836 99.9095 178.513 98.6954 178.585 97.4605C178.597 96.8485 178.767 96.25 179.079 95.7231C179.24 95.4682 179.454 95.2505 179.705 95.0845C179.957 94.9185 180.242 94.8079 180.54 94.7603C180.836 94.7359 181.133 94.7954 181.398 94.9319C181.655 95.0565 181.895 95.2126 182.114 95.3966C182.528 95.7543 182.919 96.1374 183.286 96.5437C183.464 96.739 183.649 96.9274 183.838 97.1088C184.009 97.2893 184.226 97.4184 184.466 97.4814C184.585 97.4946 184.705 97.4824 184.818 97.4456C184.931 97.4088 185.036 97.3482 185.124 97.2679C185.307 97.1097 185.46 96.9197 185.576 96.7069C186.246 94.2044 187.046 91.7382 187.97 89.318C188.766 87.2039 189.452 85.3828 190.327 84.0683C190.701 83.4811 191.161 82.9533 191.692 82.5026C192.083 82.179 192.542 81.9498 193.036 81.8328C193.339 81.7613 193.654 81.7613 193.957 81.8328C194.079 81.8474 194.198 81.8828 194.309 81.9374Z" fill="#263238"/>
<path d="M192.111 87.6309C192.104 87.6787 192.089 87.7252 192.069 87.769L191.927 88.1625C191.788 88.5184 191.596 89.0249 191.353 89.6654C190.842 90.9841 190.118 92.8722 189.222 95.1956L182.269 113.465C179.564 120.582 177.086 127.058 175.252 131.713C174.34 134.041 173.578 135.921 173.059 137.218C172.799 137.855 172.594 138.353 172.447 138.705C172.376 138.868 172.326 138.993 172.284 139.094L172.221 139.219C172.229 139.173 172.243 139.128 172.263 139.085C172.297 138.985 172.347 138.855 172.406 138.692C172.544 138.332 172.736 137.83 172.979 137.185C173.49 135.866 174.214 133.982 175.11 131.659L182.063 113.398C184.768 106.26 187.242 99.809 189.08 95.1538C189.992 92.8261 190.754 90.9423 191.273 89.6487C191.533 89.0124 191.738 88.51 191.885 88.1583C191.956 87.9993 192.006 87.8695 192.048 87.7732L192.111 87.6309Z" fill="#263238"/>
<path d="M192.337 102.095C192.006 102.332 191.656 102.54 191.29 102.719L188.728 104.142C187.723 104.699 186.811 105.197 186.137 105.536C185.782 105.737 185.408 105.9 185.019 106.022C185.352 105.789 185.702 105.58 186.066 105.398L188.619 103.954C189.624 103.397 190.541 102.911 191.219 102.58C191.575 102.383 191.95 102.221 192.337 102.095Z" fill="#263238"/>
<path d="M184.68 105.754C184.626 105.779 183.629 103.878 182.457 101.509C181.285 99.1392 180.364 97.1968 180.427 97.1674C180.489 97.1381 181.477 99.0429 182.654 101.412C183.83 103.782 184.734 105.724 184.68 105.754Z" fill="#263238"/>
<path d="M181.021 116.902C180.687 116.655 180.378 116.374 180.1 116.065C179.556 115.52 178.844 114.746 178.07 113.85C177.295 112.954 176.667 112.109 176.223 111.481C175.963 111.156 175.737 110.806 175.549 110.434C175.837 110.733 176.103 111.052 176.345 111.389C176.822 111.991 177.479 112.816 178.237 113.708C178.995 114.599 179.698 115.382 180.209 115.956C180.503 116.25 180.774 116.567 181.021 116.902Z" fill="#263238"/>
<path d="M188.678 115.102C188.32 115.245 187.95 115.354 187.573 115.428C186.886 115.6 185.932 115.822 184.877 116.056C183.822 116.291 182.859 116.475 182.164 116.626C181.791 116.72 181.409 116.777 181.025 116.797C181.383 116.656 181.753 116.548 182.13 116.475C182.817 116.303 183.771 116.056 184.831 115.843C185.89 115.629 186.844 115.424 187.539 115.278C187.912 115.184 188.294 115.125 188.678 115.102Z" fill="#263238"/>
<path d="M186.698 125.358C186.233 125.519 185.757 125.647 185.274 125.739C184.387 125.945 183.181 126.217 181.808 126.501C180.435 126.786 179.217 127.037 178.325 127.205C177.847 127.319 177.362 127.396 176.872 127.435C177.337 127.273 177.812 127.145 178.296 127.054C179.179 126.849 180.389 126.577 181.762 126.292C183.135 126.007 184.349 125.756 185.241 125.589C185.72 125.474 186.207 125.397 186.698 125.358Z" fill="#263238"/>
<path d="M177.09 127.318C176.973 127.237 176.868 127.141 176.776 127.033C176.583 126.84 176.316 126.556 175.985 126.196C175.328 125.476 174.444 124.458 173.515 123.299C172.585 122.139 171.786 121.051 171.229 120.251C170.949 119.853 170.731 119.527 170.584 119.297C170.497 119.183 170.427 119.058 170.375 118.924C170.48 119.02 170.573 119.128 170.651 119.246L171.355 120.163C171.941 120.938 172.757 122.005 173.686 123.161C174.616 124.316 175.474 125.35 176.102 126.091C176.458 126.478 176.788 126.888 177.09 127.318Z" fill="#263238"/>
<path d="M172.904 155.362C165.636 149.501 164.581 139.483 165.494 130.604C165.649 129.122 165.59 127.544 166.386 126.288C167.181 125.032 168.897 124.257 170.183 124.973C171.25 125.568 171.639 126.886 172.184 127.988C172.912 129.459 174.041 130.696 175.441 131.554C176.353 132.111 177.505 132.492 178.472 132.04C179.803 131.42 180.075 129.662 180.167 128.184L180.682 119.92C180.774 118.438 180.875 116.931 181.431 115.562C181.988 114.193 183.106 112.958 184.525 112.657C185.944 112.356 187.64 113.293 187.836 114.75C187.85 115.365 187.822 115.981 187.753 116.592C187.753 117.208 187.991 117.907 188.561 118.116C189.13 118.325 189.758 117.953 190.235 117.551C191.864 116.165 193.028 114.315 194.129 112.469C195.23 110.622 196.297 108.73 197.796 107.198C199.295 105.666 201.291 104.506 203.418 104.531C205.545 104.556 207.705 106.017 208.098 108.132C208.492 110.246 207.131 112.284 205.691 113.879C203.553 116.251 201.083 118.3 198.357 119.962C197.825 120.202 197.384 120.607 197.101 121.118C196.712 122.081 197.578 123.123 198.528 123.516C199.604 123.956 200.81 123.935 201.953 124.14C203.096 124.345 204.31 124.948 204.67 126.066C205.172 127.619 203.799 129.114 202.485 130.068C199.865 131.972 196.938 133.414 193.831 134.33C192.714 134.652 191.546 134.92 190.616 135.623C189.687 136.327 189.067 137.62 189.528 138.696C189.988 139.772 191.324 140.203 192.458 140.069C193.593 139.935 194.673 139.387 195.786 139.052C197.88 138.424 200.483 138.746 201.647 140.588C202.422 141.803 202.388 143.414 201.861 144.775C201.272 146.096 200.425 147.286 199.37 148.275C195.887 151.921 191.498 154.576 186.652 155.969C181.829 157.28 177.442 157.422 172.87 155.387" fill="#B7EB8F"/>
<g opacity="0.1">
<path opacity="0.1" d="M172.904 155.362C165.636 149.501 164.581 139.483 165.494 130.604C165.649 129.122 165.59 127.544 166.386 126.288C167.181 125.032 168.897 124.257 170.183 124.973C171.25 125.568 171.639 126.886 172.184 127.988C172.912 129.459 174.041 130.696 175.441 131.554C176.353 132.111 177.505 132.492 178.472 132.04C179.803 131.42 180.075 129.662 180.167 128.184L180.682 119.92C180.774 118.438 180.875 116.931 181.431 115.562C181.988 114.193 183.106 112.958 184.525 112.657C185.944 112.356 187.64 113.293 187.836 114.75C187.85 115.365 187.822 115.981 187.753 116.592C187.753 117.208 187.991 117.907 188.561 118.116C189.13 118.325 189.758 117.953 190.235 117.551C191.864 116.165 193.028 114.315 194.129 112.469C195.23 110.622 196.297 108.73 197.796 107.198C199.295 105.666 201.291 104.506 203.418 104.531C205.545 104.556 207.705 106.017 208.098 108.132C208.492 110.246 207.131 112.284 205.691 113.879C203.553 116.251 201.083 118.3 198.357 119.962C197.825 120.202 197.384 120.607 197.101 121.118C196.712 122.081 197.578 123.123 198.528 123.516C199.604 123.956 200.81 123.935 201.953 124.14C203.096 124.345 204.31 124.948 204.67 126.066C205.172 127.619 203.799 129.114 202.485 130.068C199.865 131.972 196.938 133.414 193.831 134.33C192.714 134.652 191.546 134.92 190.616 135.623C189.687 136.327 189.067 137.62 189.528 138.696C189.988 139.772 191.324 140.203 192.458 140.069C193.593 139.935 194.673 139.387 195.786 139.052C197.88 138.424 200.483 138.746 201.647 140.588C202.422 141.803 202.388 143.414 201.861 144.775C201.272 146.096 200.425 147.286 199.37 148.275C195.887 151.921 191.498 154.576 186.652 155.969C181.829 157.28 177.442 157.422 172.87 155.387" fill="black"/>
</g>
<path d="M172.334 161.96C173.032 157.862 174.12 153.84 175.583 149.949C177.394 145.202 179.475 140.563 181.816 136.055L183.637 132.496C184.24 131.328 184.835 130.173 185.488 129.076C186.745 126.976 188.116 124.947 189.595 122.997C190.997 121.126 192.391 119.401 193.71 117.798C195.029 116.194 196.293 114.729 197.499 113.44C199.392 111.396 201.444 109.505 203.636 107.784C204.41 107.177 205.026 106.725 205.448 106.423L205.93 106.084C205.983 106.044 206.039 106.008 206.097 105.976C206.053 106.026 206.003 106.069 205.947 106.105L205.482 106.47C205.063 106.783 204.465 107.248 203.703 107.872C201.542 109.618 199.516 111.524 197.641 113.574C196.448 114.867 195.196 116.341 193.873 117.944C192.55 119.548 191.173 121.293 189.783 123.152C188.312 125.095 186.951 127.119 185.706 129.214C185.057 130.307 184.45 131.454 183.868 132.622L182.047 136.18C179.711 140.68 177.628 145.306 175.805 150.037C174.337 153.911 173.234 157.914 172.51 161.993" fill="#263238"/>
<path d="M185.567 129.063C185.508 128.855 185.473 128.64 185.463 128.423C185.417 128.004 185.362 127.41 185.308 126.665C185.203 125.183 185.124 123.123 185.044 120.858C184.965 118.593 184.856 116.538 184.726 115.056C184.663 114.319 184.609 113.72 184.563 113.306C184.525 113.092 184.512 112.874 184.525 112.657C184.593 112.862 184.641 113.074 184.667 113.289C184.743 113.708 184.831 114.298 184.919 115.039C185.099 116.517 185.237 118.572 185.337 120.846C185.438 123.119 185.475 125.107 185.521 126.656C185.551 127.355 185.572 127.941 185.593 128.414C185.605 128.631 185.597 128.848 185.567 129.063Z" fill="#263238"/>
<path d="M204.808 126.815C204.555 126.855 204.298 126.869 204.042 126.857C203.552 126.857 202.845 126.857 201.949 126.916C200.199 126.987 197.762 127.163 195.121 127.481C192.479 127.799 190.068 128.188 188.343 128.523C187.481 128.682 186.786 128.833 186.304 128.942C186.057 129.007 185.805 129.051 185.551 129.072C185.786 128.972 186.03 128.894 186.279 128.837C186.752 128.703 187.443 128.528 188.305 128.339C190.022 127.958 192.421 127.535 195.087 127.213C197.363 126.935 199.652 126.775 201.945 126.732C202.824 126.732 203.535 126.732 204.038 126.757C204.296 126.753 204.554 126.773 204.808 126.815Z" fill="#263238"/>
<path d="M175.842 149.606C175.793 149.533 175.755 149.452 175.729 149.367L175.449 148.656C175.21 148.04 174.888 147.136 174.507 146.018C173.741 143.778 172.778 140.651 171.761 137.189C170.743 133.727 169.814 130.591 169.094 128.339C168.742 127.242 168.449 126.342 168.236 125.672L168.006 124.948C167.973 124.865 167.952 124.778 167.943 124.689C167.99 124.763 168.028 124.843 168.056 124.927C168.131 125.12 168.223 125.346 168.332 125.639C168.571 126.254 168.893 127.159 169.278 128.276C170.044 130.516 171.007 133.643 172.02 137.11C173.033 140.576 173.971 143.703 174.691 145.955C175.043 147.052 175.332 147.952 175.528 148.622L175.759 149.346C175.799 149.429 175.827 149.516 175.842 149.606Z" fill="#263238"/>
<path d="M201.647 143.201C201.566 143.244 201.478 143.274 201.388 143.289L200.638 143.485L197.875 144.176C195.539 144.758 192.328 145.6 188.778 146.537C185.228 147.475 182.005 148.287 179.656 148.823C178.484 149.091 177.534 149.3 176.872 149.43L176.11 149.577C176.023 149.599 175.933 149.608 175.842 149.606C175.924 149.567 176.009 149.539 176.098 149.522L176.851 149.325L179.614 148.635C181.946 148.053 185.161 147.207 188.711 146.269C192.261 145.332 195.485 144.519 197.829 143.984C199.001 143.716 199.956 143.511 200.613 143.381L201.375 143.234C201.464 143.213 201.556 143.201 201.647 143.201Z" fill="#263238"/>
<path d="M174.595 39.7975H73.0712V178.91H174.595V39.7975Z" fill="#455A64"/>
<path d="M170.58 170.638H151.779H81.5277V45.4198H170.58V155.061V170.638Z" fill="#E0E0E0"/>
<path d="M169.173 168.315H150.54H80.9206V43.7662H169.173V152.821V168.315Z" fill="#EBEBEB"/>
<path d="M159.691 158.623L149.527 166.9H79.2754V44.0801H168.328V151.62L159.691 158.623Z" fill="#FAFAFA"/>
<path d="M159.691 158.611C159.691 158.611 159.871 158.456 160.236 158.159L161.864 156.827L168.307 151.582V151.607C168.307 133.94 168.273 94.6724 168.244 44.0676L168.34 44.168H80.0625H79.288L79.3968 44.0592C79.3968 90.2348 79.3968 132.831 79.3717 166.879L79.288 166.791L149.539 166.841H149.514L157.15 160.65L159.063 159.105C159.482 158.761 159.704 158.594 159.704 158.594L159.076 159.117L157.163 160.704L149.552 166.925L79.2754 166.984H79.1875V166.896C79.1875 132.848 79.1875 90.2516 79.1666 44.0759V43.9671H80.0499H168.328H168.428V44.0634C168.399 94.6849 168.374 133.936 168.366 151.603L161.898 156.823L160.261 158.192L159.691 158.611Z" fill="#263238"/>
<path d="M111.787 35.4981H136.131C137.702 35.4981 139.208 36.1222 140.319 37.2331C141.43 38.344 142.054 39.8508 142.054 41.4218V47.9902H105.608V41.673C105.609 40.0349 106.26 38.4643 107.419 37.3064C108.578 36.1485 110.149 35.4981 111.787 35.4981Z" fill="#B7EB8F"/>
<path d="M114.537 35.4981L113.206 28.7581H134.192L133.024 35.4981H114.537Z" fill="#B7EB8F"/>
<path d="M103.59 78.6512H88.5902V63.6472H103.59V78.6512ZM89.0088 78.2325H103.171V64.0659H89.0088V78.2325Z" fill="#B7EB8F"/>
<path d="M156.61 67.2727C156.61 67.3313 146.165 67.3815 133.288 67.3815C120.411 67.3815 109.961 67.3313 109.961 67.2727C109.961 67.2141 120.402 67.1638 133.288 67.1638C146.174 67.1638 156.61 67.2099 156.61 67.2727Z" fill="#263238"/>
<path d="M156.61 70.3873C156.61 70.4501 146.165 70.4961 133.288 70.4961C120.411 70.4961 109.961 70.4501 109.961 70.3873C109.961 70.3245 120.402 70.2784 133.288 70.2784C146.174 70.2784 156.61 70.3287 156.61 70.3873Z" fill="#263238"/>
<path d="M156.61 73.5061C156.61 73.5647 146.165 73.615 133.288 73.615C120.411 73.615 109.961 73.5647 109.961 73.5061C109.961 73.4475 120.402 73.3973 133.288 73.3973C146.174 73.3973 156.61 73.4475 156.61 73.5061Z" fill="#263238"/>
<path d="M156.61 76.625C156.61 76.6836 146.165 76.7338 133.288 76.7338C120.411 76.7338 109.961 76.6836 109.961 76.625C109.961 76.5664 120.402 76.5161 133.288 76.5161C146.174 76.5161 156.61 76.558 156.61 76.625Z" fill="#263238"/>
<path d="M103.59 101.772H88.5902V86.7686H103.59V101.772ZM89.0088 101.354H103.171V87.1872H89.0088V101.354Z" fill="#B7EB8F"/>
<path d="M91.5708 94.5803L93.5635 92.4411L96.8833 95.0953L104.482 87.7189L106.303 89.8665L96.7368 99.3026L91.5708 94.5803Z" fill="#B7EB8F"/>
<path d="M156.61 90.3939C156.61 90.4526 146.165 90.5028 133.288 90.5028C120.411 90.5028 109.961 90.4526 109.961 90.3939C109.961 90.3353 120.402 90.2851 133.288 90.2851C146.174 90.2851 156.61 90.3353 156.61 90.3939Z" fill="#263238"/>
<path d="M156.61 93.5128C156.61 93.5714 146.165 93.6216 133.288 93.6216C120.411 93.6216 109.961 93.5714 109.961 93.5128C109.961 93.4542 120.402 93.4039 133.288 93.4039C146.174 93.4039 156.61 93.45 156.61 93.5128Z" fill="#263238"/>
<path d="M156.61 96.6275C156.61 96.6903 146.165 96.7363 133.288 96.7363C120.411 96.7363 109.961 96.6903 109.961 96.6275C109.961 96.5647 120.402 96.5186 133.288 96.5186C146.174 96.5186 156.61 96.5689 156.61 96.6275Z" fill="#263238"/>
<path d="M156.61 99.7463C156.61 99.8049 146.165 99.8551 133.288 99.8551C120.411 99.8551 109.961 99.8049 109.961 99.7463C109.961 99.6877 120.402 99.6375 133.288 99.6375C146.174 99.6375 156.61 99.6877 156.61 99.7463Z" fill="#263238"/>
<path d="M103.59 124.149H88.5902V109.145H103.59V124.149ZM89.0088 123.73H103.171V109.563H89.0088V123.73Z" fill="#B7EB8F"/>
<path d="M91.5708 116.956L93.5635 114.817L96.8833 117.471L104.482 110.095L106.303 112.243L96.7368 121.679L91.5708 116.956Z" fill="#B7EB8F"/>
<path d="M156.61 112.77C156.61 112.829 146.165 112.879 133.288 112.879C120.411 112.879 109.961 112.829 109.961 112.77C109.961 112.711 120.402 112.661 133.288 112.661C146.174 112.661 156.61 112.707 156.61 112.77Z" fill="#263238"/>
<path d="M156.61 115.885C156.61 115.948 146.165 115.994 133.288 115.994C120.411 115.994 109.961 115.948 109.961 115.885C109.961 115.822 120.402 115.776 133.288 115.776C146.174 115.776 156.61 115.826 156.61 115.885Z" fill="#263238"/>
<path d="M156.61 119.004C156.61 119.066 146.165 119.112 133.288 119.112C120.411 119.112 109.961 119.066 109.961 119.004C109.961 118.941 120.402 118.895 133.288 118.895C146.174 118.895 156.61 118.945 156.61 119.004Z" fill="#263238"/>
<path d="M156.61 122.122C156.61 122.181 146.165 122.231 133.288 122.231C120.411 122.231 109.961 122.181 109.961 122.122C109.961 122.064 120.402 122.014 133.288 122.014C146.174 122.014 156.61 122.064 156.61 122.122Z" fill="#263238"/>
<path d="M103.59 145.754H88.5902V130.751H103.59V145.754ZM89.0088 145.336H103.171V131.169H89.0088V145.336Z" fill="#B7EB8F"/>
<path d="M91.5708 138.562L93.5635 136.423L96.8833 139.077L104.482 131.701L106.303 133.844L96.7368 143.28L91.5708 138.562Z" fill="#B7EB8F"/>
<path d="M156.61 134.372C156.61 134.435 146.165 134.481 133.288 134.481C120.411 134.481 109.961 134.435 109.961 134.372C109.961 134.309 120.402 134.263 133.288 134.263C146.174 134.263 156.61 134.33 156.61 134.372Z" fill="#263238"/>
<path d="M156.61 137.491C156.61 137.549 146.165 137.599 133.288 137.599C120.411 137.599 109.961 137.549 109.961 137.491C109.961 137.432 120.402 137.382 133.288 137.382C146.174 137.382 156.61 137.432 156.61 137.491Z" fill="#263238"/>
<path d="M156.61 140.609C156.61 140.668 146.165 140.718 133.288 140.718C120.411 140.718 109.961 140.668 109.961 140.609C109.961 140.551 120.402 140.501 133.288 140.501C146.174 140.501 156.61 140.547 156.61 140.609Z" fill="#263238"/>
<path d="M156.61 143.724C156.61 143.787 146.165 143.833 133.288 143.833C120.411 143.833 109.961 143.787 109.961 143.724C109.961 143.661 120.402 143.615 133.288 143.615C146.174 143.615 156.61 143.665 156.61 143.724Z" fill="#263238"/>
<path d="M152.319 146.567L142.557 166.787H149.527L152.319 146.567Z" fill="#E0E0E0"/>
<path d="M149.527 166.9L152.319 146.68L168.328 151.62L149.527 166.9Z" fill="#FAFAFA"/>
<path d="M149.527 166.9L154.911 162.466L168.261 151.536L168.299 151.72L162.115 149.819L152.307 146.776L152.436 146.692C151.599 152.553 150.883 157.598 150.377 161.173C149.87 164.652 149.611 166.448 149.539 166.9C149.538 166.869 149.538 166.838 149.539 166.808L149.577 166.531C149.611 166.268 149.657 165.899 149.719 165.43C149.849 164.447 150.033 163.036 150.268 161.244C150.754 157.64 151.432 152.57 152.223 146.646V146.529L152.336 146.562L162.17 149.593L168.349 151.502L168.541 151.561L168.387 151.687C162.982 156.045 158.256 159.854 154.873 162.571L150.925 165.74L149.87 166.577L149.602 166.791L149.527 166.9Z" fill="#263238"/>
<g opacity="0.3">
<path opacity="0.3" d="M132.74 28.7581L131.584 35.4981H133.024L134.192 28.7581H132.354" fill="black"/>
</g>
<path d="M71.2711 99.8425C71.7759 99.8806 72.2831 99.8166 72.7626 99.6543C73.242 99.492 73.6838 99.2348 74.0617 98.898C74.4395 98.5612 74.7456 98.1517 74.9617 97.694C75.1778 97.2362 75.2994 96.7397 75.3194 96.2339C75.3989 94.1826 75.4701 92.1103 75.4701 92.1103C75.4701 92.1103 78.5764 91.8215 78.8192 88.7612C79.062 85.701 78.9406 78.5925 78.9406 78.5925C77.2378 77.7334 75.3364 77.3449 73.433 77.4671C71.5297 77.5892 69.6936 78.2177 68.1146 79.2875L68.303 90.1051V95.9283C68.3072 97.8624 69.3245 99.696 71.2711 99.8425Z" fill="#FFBE9D"/>
<path d="M75.738 84.9935C75.5111 84.6674 75.1696 84.4388 74.7816 84.3535C74.3936 84.2681 73.9877 84.3322 73.6449 84.533C73.2969 84.7747 73.0462 85.1322 72.9373 85.5416C72.8284 85.9511 72.8685 86.3859 73.0504 86.7685C73.2089 87.0525 73.4247 87.3003 73.6842 87.4964C73.9436 87.6924 74.241 87.8323 74.5575 87.9072C74.838 87.9682 75.0868 88.1294 75.2571 88.3606C75.4274 88.5918 75.5076 88.8771 75.4827 89.1631C75.3538 89.9712 74.9763 90.7189 74.4026 91.3024C73.4543 92.2673 72.1921 92.8613 70.8442 92.9769C69.5338 93.1318 68.0351 92.8597 67.2732 91.7838C66.7164 91.0009 66.6787 89.9753 66.6578 89.0166C66.6104 86.7504 66.5629 84.4842 66.5155 82.2179C66.4662 81.4011 66.5182 80.5813 66.6704 79.7773C66.8307 78.9663 67.2912 78.2457 67.9598 77.7595C68.7091 77.2655 69.6553 77.2236 70.5051 76.9515C71.5726 76.604 72.4769 75.9007 73.4732 75.39C74.4696 74.8792 75.6878 74.5736 76.6883 75.076C77.4084 75.436 77.8898 76.1519 78.5848 76.5496C79.5811 77.1148 80.9333 76.9682 81.4148 78.4502C81.5842 78.9569 81.5842 79.505 81.4148 80.0117C80.7408 82.0002 78.2792 82.804 76.5041 81.9458C76.4707 82.2807 76.8014 83.0301 76.4455 84.0934C76.3325 84.4367 76.2948 84.9516 75.7632 84.9642" fill="#263238"/>
<path d="M67.2523 78.6511C67.7402 77.6789 68.0735 76.6365 68.2403 75.5616C68.3192 75.0232 68.273 74.4739 68.1053 73.9562C67.9376 73.4385 67.6529 72.9665 67.2732 72.5767C66.7128 72.0901 65.9887 71.8343 65.247 71.8608C64.5425 71.9009 63.8675 72.1578 63.3145 72.5961C62.7614 73.0345 62.3574 73.633 62.1575 74.3099C61.985 74.9922 62.0117 75.7097 62.2342 76.3774C62.4568 77.0452 62.866 77.6351 63.4134 78.0776C63.9731 78.5075 64.6365 78.7819 65.3363 78.873C66.0361 78.9642 66.7477 78.8689 67.3988 78.5967" fill="#263238"/>
<path d="M67.855 77.5418C67.8324 77.9176 67.6707 78.2716 67.4014 78.5347C67.132 78.7978 66.7744 78.9513 66.3982 78.9651C66.3982 78.9023 66.8503 78.7809 67.2354 78.379C67.6206 77.9772 67.7964 77.525 67.855 77.5418Z" fill="#B7EB8F"/>
<path d="M66.8462 78.2953C66.6062 78.5467 66.3225 78.7525 66.0089 78.9023C65.6737 79.0933 65.2976 79.201 64.9121 79.2163C64.6673 79.2295 64.4229 79.1839 64.1993 79.0834C63.9758 78.9829 63.7795 78.8304 63.6269 78.6386C63.4918 78.4366 63.4017 78.208 63.3627 77.9682C63.3237 77.7284 63.3367 77.483 63.4008 77.2487C63.498 76.8768 63.6735 76.5299 63.9157 76.2314C64.1162 75.9484 64.3624 75.7009 64.6442 75.4988C64.4578 75.7881 64.2566 76.0676 64.0413 76.3361C63.8312 76.6276 63.6804 76.9576 63.5976 77.3073C63.5453 77.5135 63.5366 77.7283 63.5719 77.938C63.6072 78.1477 63.6858 78.3478 63.8027 78.5255C63.9365 78.6889 64.1062 78.8193 64.2986 78.9064C64.4911 78.9935 64.701 79.0351 64.9121 79.0279C65.2698 79.0221 65.6217 78.9363 65.9419 78.7767C66.4862 78.4962 66.8253 78.2618 66.8462 78.2953Z" fill="#263238"/>
<path d="M61.6216 81.7658C61.6847 81.8721 61.734 81.9861 61.7681 82.1049C61.8767 82.4186 62.0304 82.7147 62.2245 82.984C62.3535 83.1788 62.5343 83.3337 62.7466 83.4313C62.9588 83.5289 63.1941 83.5654 63.4259 83.5366C63.7034 83.4583 63.956 83.3096 64.1592 83.1049C64.3623 82.9003 64.5092 82.6467 64.5856 82.3686C64.736 81.7831 64.8409 81.1869 64.8995 80.5852C64.9587 80.0693 65.1618 79.5804 65.4856 79.1744C65.7176 78.9074 66.0336 78.7273 66.3815 78.6637C66.5074 78.6329 66.6399 78.6447 66.7583 78.6972C66.7583 78.6972 66.6201 78.6972 66.3983 78.7474C66.0839 78.8344 65.8053 79.0191 65.6029 79.2749C65.3176 79.6683 65.1427 80.1308 65.0963 80.6145C65.048 81.2307 64.9457 81.8415 64.7907 82.4398C64.7043 82.7539 64.5359 83.0392 64.3026 83.2666C64.0694 83.494 63.7798 83.6551 63.4636 83.7334C63.1745 83.7796 62.8784 83.7233 62.6264 83.5743C62.4173 83.4474 62.2375 83.2776 62.0989 83.0761C61.9069 82.7882 61.7654 82.4696 61.6802 82.1342C61.6373 82.0163 61.6174 81.8912 61.6216 81.7658Z" fill="#263238"/>
<path d="M60.1103 107.592C60.1103 107.592 58.5404 119.071 60.1103 120.527C61.6802 121.984 63.1831 121.499 63.1831 121.499L66.168 118.987L66.7541 107.575L60.1103 107.592Z" fill="#FFBE9D"/>
<path d="M92.5338 75.369L94.5265 73.2298L97.8463 75.8839L105.445 68.5076L107.266 70.6552L97.6998 80.0912L92.5338 75.369Z" fill="#B7EB8F"/>
<path d="M101.894 75.9509L99.0058 77.8055C98.876 76.6626 98.0053 75.5323 98.0471 76.1058C98.089 76.6794 98.0471 79.6559 98.0471 79.6559L92.9021 90.4944C92.203 92.2108 90.7838 93.2909 89.7246 93.5462L84.9061 94.978L86.7858 101.337L93.484 99.1183C94.3389 98.835 95.1156 98.3554 95.7517 97.7178C96.3879 97.0802 96.8657 96.3024 97.1471 95.4468L101.752 81.4141C102.058 80.5103 102.304 79.5873 102.489 78.6511C102.69 77.4748 101.894 75.9509 101.894 75.9509Z" fill="#FFBE9D"/>
<path d="M78.229 194.496L78.1537 191.285L72.1337 191.382L72.1881 196.083L72.5649 196.104C74.2394 196.167 81.0255 196.317 82.1307 195.966C83.3615 195.568 78.229 194.496 78.229 194.496Z" fill="#B7EB8F"/>
<g opacity="0.5">
<path opacity="0.5" d="M74.3733 196.003C74.2718 195.502 73.9903 195.055 73.582 194.748C73.18 194.435 72.6746 194.285 72.1671 194.329L72.1922 196.003H74.3733Z" fill="white"/>
</g>
<g opacity="0.4">
<path opacity="0.4" d="M80.7198 195.112C80.7198 195.112 82.52 195.597 82.3023 195.899C82.0846 196.2 75.2106 196.317 72.1713 196.083V195.949L80.1923 195.895C80.1923 195.895 80.3891 195.133 80.7198 195.112Z" fill="white"/>
</g>
<path d="M72.1001 195.945H72.2048H72.502L73.5989 195.974C74.5241 195.995 75.8009 196.003 77.2117 195.974C78.6225 195.945 79.9035 195.907 80.8245 195.861L81.9214 195.798L82.2186 195.777H82.3191H82.2144H81.9172L80.8245 195.819C79.8993 195.849 78.6225 195.89 77.2117 195.911C75.8009 195.932 74.5241 195.911 73.5989 195.911H72.5062H72.0876L72.1001 195.945Z" fill="#263238"/>
<path d="M80.2174 195.987C80.2609 195.805 80.327 195.629 80.4141 195.463C80.5195 195.311 80.6417 195.17 80.7783 195.045C80.6002 195.128 80.4514 195.264 80.3513 195.433C80.2513 195.603 80.2046 195.799 80.2174 195.995V195.987Z" fill="#263238"/>
<path d="M78.4257 195.112C78.4257 195.112 78.5262 195.02 78.6141 194.881C78.702 194.743 78.7522 194.618 78.7355 194.609C78.7187 194.601 78.635 194.701 78.5513 194.84C78.4675 194.978 78.4089 195.103 78.4257 195.112Z" fill="#263238"/>
<path d="M77.9359 194.865C77.9359 194.865 78.0406 194.814 78.1452 194.718C78.2499 194.622 78.3169 194.534 78.3043 194.521C78.2918 194.509 78.1955 194.572 78.095 194.664C77.9945 194.756 77.9192 194.848 77.9359 194.865Z" fill="#263238"/>
<path d="M77.6177 194.3C77.7181 194.336 77.8258 194.348 77.9317 194.333C78.0378 194.345 78.1454 194.333 78.2456 194.295C78.1443 194.263 78.0375 194.252 77.9317 194.262C77.8255 194.25 77.718 194.263 77.6177 194.3Z" fill="#263238"/>
<path d="M77.5047 193.902C77.6104 193.967 77.7324 194 77.8564 193.998C77.9805 194.016 78.1071 193.997 78.2206 193.944C78.1008 193.932 77.9803 193.932 77.8605 193.944C77.7435 193.919 77.6243 193.905 77.5047 193.902Z" fill="#263238"/>
<path d="M78.6266 194.584C78.7539 194.608 78.8844 194.608 79.0117 194.584C79.154 194.565 79.2942 194.533 79.4304 194.488C79.5117 194.462 79.5903 194.429 79.6648 194.387C79.6884 194.375 79.7091 194.358 79.7257 194.337C79.7423 194.316 79.7543 194.292 79.7611 194.266C79.766 194.237 79.7628 194.207 79.7517 194.18C79.7406 194.152 79.7221 194.129 79.6983 194.111C79.5491 194.042 79.3808 194.026 79.2214 194.067C79.0621 194.107 78.9215 194.201 78.8233 194.333C78.767 194.411 78.7258 194.499 78.7019 194.593C78.6946 194.627 78.6946 194.663 78.7019 194.697C78.742 194.579 78.7999 194.467 78.8736 194.367C78.9599 194.264 79.0729 194.187 79.2001 194.145C79.3523 194.092 79.5192 194.101 79.6648 194.17C79.7234 194.216 79.7025 194.287 79.6355 194.329C79.5662 194.368 79.4933 194.4 79.4178 194.425C79.2813 194.472 79.1414 194.509 78.9992 194.534C78.7689 194.572 78.6266 194.572 78.6266 194.584Z" fill="#263238"/>
<path d="M78.7229 194.614C78.77 194.533 78.785 194.437 78.7648 194.346C78.749 194.245 78.7103 194.149 78.6518 194.065C78.6186 194.008 78.5717 193.961 78.5153 193.927C78.459 193.894 78.395 193.875 78.3294 193.873C78.3098 193.877 78.2912 193.884 78.2747 193.896C78.2581 193.907 78.244 193.921 78.2331 193.938C78.2222 193.955 78.2147 193.974 78.2111 193.993C78.2075 194.013 78.2079 194.033 78.2122 194.053C78.2215 194.114 78.2444 194.173 78.2792 194.224C78.33 194.31 78.3935 194.388 78.4676 194.454C78.5273 194.524 78.6036 194.577 78.6894 194.609C78.6894 194.609 78.6141 194.542 78.5052 194.421C78.4425 194.349 78.3865 194.272 78.3378 194.191C78.2834 194.111 78.2457 193.965 78.3378 193.944C78.4299 193.923 78.5345 194.027 78.5931 194.103C78.6492 194.178 78.6891 194.263 78.7104 194.354C78.7219 194.44 78.7261 194.527 78.7229 194.614Z" fill="#263238"/>
<path d="M72.2006 194.295C72.2006 194.295 72.3722 194.295 72.6443 194.295C72.9993 194.329 73.3374 194.462 73.6197 194.68C73.902 194.898 74.1168 195.191 74.2393 195.526C74.3356 195.782 74.3482 195.945 74.3607 195.945C74.369 195.905 74.369 195.863 74.3607 195.823C74.3471 195.714 74.3232 195.606 74.2896 195.501C74.1735 195.151 73.9549 194.845 73.6623 194.621C73.3696 194.397 73.0164 194.266 72.6485 194.245C72.5386 194.233 72.4277 194.233 72.3178 194.245C72.2758 194.254 72.2359 194.271 72.2006 194.295Z" fill="#263238"/>
<path d="M72.7867 191.784C72.7492 192.194 72.738 192.607 72.7532 193.019C72.7398 193.438 72.7524 193.857 72.7908 194.274C72.8289 193.857 72.8401 193.437 72.8243 193.019C72.8344 192.606 72.8218 192.194 72.7867 191.784Z" fill="#263238"/>
<path d="M75.1184 195.405C75.4088 195.465 75.7055 195.488 76.0017 195.476C76.2972 195.488 76.5931 195.46 76.8809 195.392C76.8809 195.371 76.4622 195.392 76.0017 195.392C75.5412 195.392 75.1226 195.384 75.1184 195.405Z" fill="#263238"/>
<path d="M73.942 195.417C73.942 195.417 73.9755 195.501 74.0132 195.593C74.0509 195.685 74.0802 195.761 74.1011 195.761C74.122 195.761 74.1304 195.664 74.0802 195.56C74.0299 195.455 73.9546 195.405 73.942 195.417Z" fill="#263238"/>
<path d="M73.4857 194.873C73.4857 194.873 73.5109 194.949 73.5781 195.012C73.6452 195.075 73.704 195.112 73.7166 195.1C73.7292 195.087 73.6914 195.02 73.6285 194.961C73.5655 194.902 73.5025 194.856 73.4857 194.873Z" fill="#263238"/>
<path d="M72.8452 194.614C72.8452 194.614 72.9331 194.614 73.0211 194.66C73.109 194.706 73.1718 194.735 73.1885 194.722C73.2053 194.71 73.155 194.626 73.042 194.593C72.929 194.559 72.841 194.614 72.8452 194.614Z" fill="#263238"/>
<path d="M72.393 194.517C72.393 194.517 72.4182 194.568 72.4686 194.584C72.519 194.601 72.5651 194.605 72.5735 194.584C72.5819 194.563 72.5441 194.534 72.4938 194.517C72.4434 194.5 72.3972 194.496 72.393 194.517Z" fill="#263238"/>
<path d="M56.9789 193.471L59.0219 190.988L54.3918 187.132L51.3692 190.733L51.6371 190.992C52.8554 192.127 57.9167 196.673 58.98 197.125C60.1731 197.632 56.9789 193.471 56.9789 193.471Z" fill="#B7EB8F"/>
<g opacity="0.5">
<path opacity="0.5" d="M53.0898 192.102C53.346 191.654 53.4279 191.128 53.3201 190.624C53.2174 190.126 52.9303 189.685 52.5163 189.389L51.4153 190.674L53.0898 192.102Z" fill="white"/>
</g>
<g opacity="0.4">
<path opacity="0.4" d="M58.4818 195.572C58.4818 195.572 59.5284 197.117 59.1684 197.201C58.8084 197.284 53.5084 192.88 51.3692 190.733L51.4613 190.636L57.5776 195.828C57.5776 195.828 58.2014 195.359 58.4818 195.572Z" fill="white"/>
</g>
<path d="M51.3901 190.574L51.4612 190.649L51.6789 190.854L52.4911 191.591C53.1777 192.206 54.1405 193.048 55.2248 193.952C56.3091 194.856 57.318 195.656 58.038 196.225L58.9088 196.891L59.1474 197.067L59.2353 197.125L59.1558 197.054L58.9255 196.866L58.0883 196.183C57.364 195.606 56.3719 194.802 55.2876 193.898C54.2033 192.993 53.2363 192.16 52.5413 191.553L51.7041 190.833L51.478 190.636L51.3901 190.574Z" fill="#263238"/>
<path d="M57.5147 195.899C57.6673 195.788 57.8333 195.696 58.0087 195.627C58.1898 195.581 58.3748 195.553 58.5613 195.543C58.3749 195.474 58.1701 195.474 57.9836 195.543C57.7894 195.601 57.6228 195.727 57.5147 195.899Z" fill="#263238"/>
<path d="M56.7277 194.065C56.7277 194.086 56.8659 194.065 57.0208 194.011C57.1757 193.956 57.3013 193.906 57.2929 193.885C57.2845 193.864 57.1547 193.885 56.9998 193.94C56.9012 193.961 56.8084 194.004 56.7277 194.065Z" fill="#263238"/>
<path d="M56.5183 193.554C56.5183 193.554 56.6314 193.588 56.7737 193.584C56.916 193.579 57.0249 193.559 57.0249 193.538C57.0249 193.517 56.9077 193.504 56.7695 193.508C56.6834 193.504 56.5974 193.52 56.5183 193.554Z" fill="#263238"/>
<path d="M56.644 192.939C56.644 192.939 56.7278 193.056 56.8617 193.169C56.9373 193.246 57.0268 193.307 57.1255 193.349C57.1255 193.349 57.0417 193.228 56.9078 193.115C56.7738 193.002 56.6608 192.905 56.644 192.939Z" fill="#263238"/>
<path d="M56.8198 192.545C56.8654 192.66 56.9349 192.764 57.0237 192.85C57.1125 192.936 57.2185 193.002 57.3347 193.044C57.2537 192.956 57.167 192.873 57.0752 192.797C56.937 192.663 56.8575 192.52 56.8198 192.545Z" fill="#263238"/>
<path d="M57.2218 193.776C57.3048 193.876 57.4056 193.96 57.519 194.023C57.6378 194.1 57.764 194.165 57.8958 194.216C57.9736 194.251 58.055 194.278 58.1386 194.295C58.1913 194.304 58.2454 194.292 58.2893 194.262C58.3124 194.244 58.3298 194.22 58.3395 194.192C58.3491 194.165 58.3506 194.135 58.3438 194.107C58.2792 193.954 58.163 193.828 58.0154 193.752C57.8678 193.675 57.6981 193.653 57.5358 193.688C57.4402 193.707 57.35 193.747 57.272 193.806C57.2427 193.824 57.2172 193.849 57.1967 193.877C57.3039 193.811 57.4214 193.765 57.5442 193.739C57.677 193.716 57.8137 193.732 57.9377 193.785C58.0869 193.842 58.2072 193.957 58.2726 194.103C58.2726 194.178 58.2265 194.22 58.147 194.207C58.0698 194.19 57.9942 194.166 57.9209 194.136C57.7919 194.088 57.6673 194.03 57.5483 193.96C57.3432 193.881 57.2302 193.776 57.2218 193.776Z" fill="#263238"/>
<path d="M57.2761 193.873C57.2761 193.873 57.385 193.839 57.4854 193.697C57.5394 193.61 57.5737 193.513 57.5859 193.412C57.5955 193.347 57.5895 193.28 57.5684 193.217C57.5473 193.155 57.5117 193.098 57.4645 193.052C57.4284 193.033 57.3861 193.028 57.3469 193.04C57.3077 193.052 57.2747 193.079 57.2552 193.115C57.2233 193.167 57.2033 193.226 57.1966 193.286C57.1844 193.385 57.1844 193.485 57.1966 193.584C57.1966 193.676 57.2196 193.766 57.2636 193.847C57.2636 193.847 57.2636 193.743 57.2636 193.584C57.2624 193.488 57.2708 193.393 57.2887 193.299C57.2887 193.203 57.364 193.069 57.4519 193.115C57.5399 193.161 57.544 193.307 57.544 193.404C57.5366 193.496 57.5095 193.586 57.4645 193.667C57.4095 193.743 57.3463 193.811 57.2761 193.873Z" fill="#263238"/>
<path d="M52.5414 189.389C52.5414 189.389 52.6837 189.485 52.8721 189.682C53.1173 189.941 53.2867 190.263 53.3619 190.611C53.4313 190.961 53.4023 191.324 53.2782 191.658C53.1819 191.918 53.0772 192.056 53.0898 192.077C53.1213 192.049 53.1481 192.016 53.1693 191.98C53.2317 191.89 53.2837 191.793 53.3242 191.691C53.469 191.351 53.5069 190.974 53.4331 190.611C53.3575 190.249 53.1752 189.918 52.9098 189.661C52.8307 189.584 52.7437 189.515 52.6502 189.456C52.6186 189.427 52.5816 189.404 52.5414 189.389Z" fill="#263238"/>
<path d="M54.6262 187.861C54.3288 188.149 54.0492 188.455 53.7889 188.778C53.5126 189.085 53.2527 189.406 53.0103 189.741C53.3095 189.455 53.5892 189.151 53.8475 188.828C54.1234 188.519 54.3833 188.196 54.6262 187.861Z" fill="#263238"/>
<path d="M54.0316 192.131C54.2106 192.366 54.4188 192.577 54.6512 192.759C54.8686 192.961 55.1122 193.133 55.3755 193.27C55.3755 193.27 55.0699 193.019 54.7015 192.705C54.3331 192.391 54.0484 192.102 54.0316 192.131Z" fill="#263238"/>
<path d="M53.1275 191.373C53.1275 191.373 53.0982 191.457 53.0731 191.553C53.0479 191.65 53.0103 191.721 53.027 191.733C53.0438 191.746 53.1107 191.683 53.1442 191.57C53.1777 191.457 53.1484 191.369 53.1275 191.373Z" fill="#263238"/>
<path d="M53.1401 190.662C53.1191 190.662 53.1107 190.737 53.1191 190.825C53.1275 190.913 53.1485 190.985 53.1695 190.985C53.1905 190.985 53.1989 190.909 53.1695 190.821C53.1401 190.733 53.1611 190.662 53.1401 190.662Z" fill="#263238"/>
<path d="M52.8135 190.059C52.8135 190.08 52.868 190.13 52.9142 190.21C52.9604 190.29 52.9814 190.369 53.0024 190.369C53.0233 190.369 53.0359 190.273 52.9772 190.172C52.9184 190.071 52.8219 190.042 52.8135 190.059Z" fill="#263238"/>
<path d="M52.5414 189.678C52.5414 189.678 52.5414 189.737 52.5414 189.783C52.5414 189.829 52.6043 189.858 52.6211 189.85C52.6379 189.842 52.6211 189.791 52.6211 189.745C52.6211 189.699 52.5582 189.669 52.5414 189.678Z" fill="#263238"/>
<path d="M69.5087 126.204C69.5087 126.204 67.5035 134.686 68.0728 136.364C68.6422 138.043 72.3136 139.01 72.3136 139.01L72.188 162.24L51.8758 187.359L59.3694 193.487C59.3694 193.487 81.3645 168.332 83.3028 163.764C85.2411 159.197 82.0469 125.815 82.0469 125.815L69.5087 126.204Z" fill="#263238"/>
<path d="M79.8825 122.746L80.8747 193.295L70.5469 193.358L65.36 135.887C64.2632 134.841 62.7184 133.049 62.9319 129.051L63.1831 124.408L79.8825 122.746Z" fill="#263238"/>
<path d="M68.9979 166.167C69.013 166.13 69.0327 166.095 69.0565 166.062C69.111 165.987 69.1738 165.891 69.2533 165.774L70.0194 164.689L72.8243 160.804V160.859C72.5982 158.41 72.3261 155.442 72.033 152.239C71.6563 148.053 71.3548 144.243 71.1748 141.484C71.0827 140.107 71.0241 138.993 70.9906 138.223C70.9906 137.855 70.9655 137.558 70.9613 137.331C70.9485 137.229 70.9485 137.125 70.9613 137.022C70.9816 137.124 70.9942 137.227 70.999 137.331C70.999 137.553 71.0409 137.851 71.0702 138.219C71.133 139.01 71.2167 140.115 71.3255 141.476C71.5432 144.226 71.8698 148.023 72.2465 152.218C72.527 155.433 72.8117 158.397 73.0001 160.859V160.888V160.913L70.1324 164.748L69.3245 165.807L69.1068 166.079C69.0189 166.146 68.9979 166.171 68.9979 166.167Z" fill="#455A64"/>
<path d="M72.1629 137.022C71.2388 136.972 70.3217 136.832 69.4251 136.603C68.5129 136.449 67.6183 136.205 66.7542 135.875C67.6693 135.992 68.5765 136.164 69.4711 136.39C70.3797 136.549 71.2784 136.76 72.1629 137.022Z" fill="#455A64"/>
<path d="M79.2378 161.123C78.3464 160.753 77.4081 160.508 76.4497 160.394C75.4841 160.355 74.5177 160.45 73.5779 160.675C73.8233 160.52 74.0961 160.413 74.3816 160.361C75.0641 160.183 75.7717 160.12 76.4748 160.176C77.1735 160.233 77.8581 160.404 78.501 160.683C78.771 160.784 79.0205 160.933 79.2378 161.123Z" fill="#455A64"/>
<path d="M82.8842 164.38C82.9303 164.417 80.025 168.319 76.3912 173.091C72.7574 177.864 69.7725 181.711 69.7265 181.678C69.6804 181.644 72.5858 177.738 76.2195 172.962C79.8533 168.185 82.8382 164.342 82.8842 164.38Z" fill="#455A64"/>
<path d="M81.4859 127.983C81.3668 128.289 81.1654 128.556 80.904 128.754C80.6049 129.016 80.2547 129.213 79.8757 129.333C79.4966 129.453 79.0968 129.494 78.7013 129.452C78.3058 129.411 77.9232 129.288 77.5775 129.091C77.2318 128.894 76.9305 128.628 76.6925 128.31C76.471 128.065 76.3255 127.761 76.2739 127.435C76.435 127.703 76.6111 127.961 76.8014 128.209C77.2799 128.789 77.967 129.158 78.7147 129.236C79.4625 129.315 80.2111 129.096 80.7994 128.628C81.0393 128.425 81.2685 128.21 81.4859 127.983Z" fill="#455A64"/>
<path d="M67.3653 91.6833C65.6635 90.0664 64.6601 87.849 64.5686 85.5033C64.4771 83.1576 65.3048 80.8688 66.8755 79.1242" fill="#263238"/>
<path d="M61.5588 98.2643C61.5588 98.2643 59.3149 100.801 58.8503 110.501C58.8503 110.501 65.2428 111.715 65.3601 111.368C65.4773 111.02 61.5588 98.2643 61.5588 98.2643Z" fill="#B7EB8F"/>
<g opacity="0.3">
<path opacity="0.3" d="M61.5588 98.2643C61.5588 98.2643 59.3149 100.801 58.8503 110.501C58.8503 110.501 65.2428 111.715 65.3601 111.368C65.4773 111.02 61.5588 98.2643 61.5588 98.2643Z" fill="black"/>
</g>
<path d="M62.597 126.518H82.2269L81.9087 123.449C81.9087 123.449 79.6648 111.786 79.6816 111.631L80.0332 110.89C80.4919 109.928 80.7372 108.878 80.7524 107.813C80.7676 106.747 80.5522 105.69 80.1211 104.715L89.7498 101.429L87.3971 93.5002C83.0349 94.2328 76.4413 95.0575 76.4413 95.0575L75.4617 95.1371C75.4617 95.1371 68.6547 95.4929 68.5082 95.5096C65.6614 95.8571 62.35 96.0748 61.1402 99.1225C60.4913 100.751 61.1067 103.196 62.1658 105.716L64.6776 113.461C65.6824 117.718 64.079 117.513 63.1957 121.8C63.0533 122.445 62.5845 125.924 62.597 126.518Z" fill="#B7EB8F"/>
<g opacity="0.3">
<path opacity="0.3" d="M62.597 126.518H82.2269L81.9087 123.449C81.9087 123.449 79.6648 111.786 79.6816 111.631L80.0332 110.89C80.4919 109.928 80.7372 108.878 80.7524 107.813C80.7676 106.747 80.5522 105.69 80.1211 104.715L89.7498 101.429L87.3971 93.5002C83.0349 94.2328 76.4413 95.0575 76.4413 95.0575L75.4617 95.1371C75.4617 95.1371 68.6547 95.4929 68.5082 95.5096C65.6614 95.8571 62.35 96.0748 61.1402 99.1225C60.4913 100.751 61.1067 103.196 62.1658 105.716L64.6776 113.461C65.6824 117.718 64.079 117.513 63.1957 121.8C63.0533 122.445 62.5845 125.924 62.597 126.518Z" fill="black"/>
</g>
<path d="M89.6409 101.559C89.5082 101.634 89.3678 101.694 89.2223 101.739C88.946 101.839 88.5399 101.978 88.0375 102.158C87.0328 102.497 85.6346 102.945 84.094 103.439C82.5534 103.933 81.1635 104.422 80.2007 104.824C79.7067 105.025 79.3173 105.201 79.0452 105.318C78.9132 105.391 78.7726 105.448 78.6266 105.486C78.7482 105.389 78.8802 105.306 79.0201 105.239C79.2838 105.101 79.6648 104.9 80.1504 104.682C81.4195 104.129 82.7178 103.645 84.0396 103.234C85.5843 102.74 86.97 102.313 88.004 102.011C88.5106 101.86 88.925 101.743 89.2097 101.664C89.3485 101.611 89.4934 101.576 89.6409 101.559Z" fill="#263238"/>
<path d="M88.5023 97.3349C88.5023 97.3935 82.6958 97.4438 75.5246 97.4438C68.3533 97.4438 62.5468 97.3935 62.5468 97.3349C62.5468 97.2763 68.3491 97.2261 75.5246 97.2261C82.7 97.2261 88.5023 97.2763 88.5023 97.3349Z" fill="#FAFAFA"/>
<path d="M89.0925 101.191C89.0925 101.249 82.6329 101.299 74.6662 101.299C66.6996 101.299 60.2442 101.249 60.2442 101.191C60.2442 101.132 66.6996 101.082 74.6662 101.082C82.6329 101.082 89.0925 101.132 89.0925 101.191Z" fill="#FAFAFA"/>
<path d="M61.8811 105.578C61.4887 105.684 61.0806 105.721 60.6755 105.687C60.2717 105.721 59.865 105.684 59.474 105.578C59.865 105.472 60.2717 105.435 60.6755 105.469C61.0806 105.435 61.4887 105.471 61.8811 105.578Z" fill="#FAFAFA"/>
<path d="M80.7197 105.712C80.7197 105.77 76.4957 105.821 71.2878 105.821C66.08 105.821 61.856 105.77 61.856 105.712C61.856 105.653 66.0758 105.603 71.2878 105.603C76.4999 105.603 80.7197 105.649 80.7197 105.712Z" fill="#FAFAFA"/>
<path d="M80.3011 110.229C80.3011 110.292 76.5082 110.338 71.8362 110.338C67.1643 110.338 63.3672 110.292 63.3672 110.229C63.3672 110.166 67.1559 110.12 71.8362 110.12C76.5166 110.12 80.3011 110.17 80.3011 110.229Z" fill="#FAFAFA"/>
<path d="M80.1839 114.419C80.1839 114.478 76.7511 114.528 72.5145 114.528C68.2779 114.528 64.8367 114.478 64.8367 114.419C64.8367 114.361 68.2737 114.311 72.5145 114.311C76.7553 114.311 80.1839 114.357 80.1839 114.419Z" fill="#FAFAFA"/>
<path d="M80.858 117.806C80.858 117.869 77.1824 117.915 72.6485 117.915C68.1147 117.915 64.4391 117.869 64.4391 117.806C64.4391 117.743 68.1147 117.697 72.6485 117.697C77.1824 117.697 80.858 117.748 80.858 117.806Z" fill="#FAFAFA"/>
<path d="M81.9213 122.127C81.9213 122.189 77.735 122.235 72.5815 122.235C67.4281 122.235 63.2418 122.189 63.2418 122.127C63.2418 122.064 67.4281 122.018 72.5815 122.018C77.735 122.018 81.9213 122.068 81.9213 122.127Z" fill="#FAFAFA"/>
<path d="M64.5479 113.097C64.4689 112.979 64.4095 112.848 64.3721 112.711L63.9534 111.64C63.606 110.735 63.1162 109.488 62.6138 108.094C62.1114 106.7 61.6886 105.427 61.4249 104.494C61.2951 104.025 61.1946 103.656 61.1402 103.38C61.0999 103.244 61.076 103.103 61.069 102.961C61.2627 103.447 61.4304 103.944 61.5714 104.448C61.8728 105.369 62.3124 106.633 62.8273 108.023C63.3422 109.413 63.7944 110.668 64.0832 111.589C64.2381 112.05 64.3553 112.427 64.4307 112.686C64.4871 112.817 64.5265 112.955 64.5479 113.097Z" fill="#263238"/>
</svg>
