<svg width="20" height="18" viewBox="0 0 20 18" fill="none" xmlns="http://www.w3.org/2000/svg">
<path d="M18.51 6.58617L13.0551 5.79339L10.6166 0.849837C10.55 0.714486 10.4405 0.604915 10.3051 0.538314C9.96565 0.370735 9.55315 0.510384 9.38342 0.849837L6.94495 5.79339L1.49006 6.58617C1.33967 6.60765 1.20217 6.67855 1.0969 6.78597C0.96963 6.91678 0.899499 7.09277 0.901916 7.27526C0.904333 7.45775 0.979101 7.63182 1.10979 7.75921L5.05647 11.6071L4.12405 17.0405C4.10218 17.1669 4.11617 17.2968 4.16442 17.4157C4.21267 17.5345 4.29326 17.6375 4.39705 17.7129C4.50083 17.7882 4.62366 17.833 4.75161 17.8422C4.87955 17.8513 5.00749 17.8244 5.12092 17.7645L10 15.1993L14.8791 17.7645C15.0123 17.8354 15.167 17.859 15.3153 17.8332C15.6891 17.7688 15.9405 17.4143 15.876 17.0405L14.9436 11.6071L18.8903 7.75921C18.9977 7.65394 19.0686 7.51644 19.0901 7.36605C19.1481 6.99007 18.886 6.64202 18.51 6.58617Z" fill="#BFBFBF"/>
</svg>
