<svg width="20" height="18" viewBox="0 0 20 18" fill="none" xmlns="http://www.w3.org/2000/svg">
<path d="M18.51 6.58613L13.0551 5.79336L10.6166 0.849807C10.55 0.714455 10.4405 0.604885 10.3051 0.538283C9.96565 0.370705 9.55315 0.510353 9.38342 0.849807L6.94495 5.79336L1.49006 6.58613C1.33967 6.60762 1.20217 6.67852 1.0969 6.78594C0.96963 6.91675 0.899499 7.09274 0.901916 7.27523C0.904333 7.45772 0.979101 7.63179 1.10979 7.75918L5.05647 11.607L4.12405 17.0404C4.10218 17.1668 4.11617 17.2968 4.16442 17.4157C4.21267 17.5345 4.29326 17.6375 4.39705 17.7128C4.50083 17.7882 4.62366 17.833 4.75161 17.8421C4.87955 17.8513 5.00749 17.8243 5.12092 17.7645L10 15.1992L14.8791 17.7645C15.0123 17.8354 15.167 17.859 15.3153 17.8332C15.6891 17.7688 15.9405 17.4143 15.876 17.0404L14.9436 11.607L18.8903 7.75918C18.9977 7.65391 19.0686 7.51641 19.0901 7.36602C19.1481 6.99004 18.886 6.64199 18.51 6.58613Z" fill="#FADB14"/>
</svg>
