<svg width="32" height="28" viewBox="0 0 32 28" fill="none" xmlns="http://www.w3.org/2000/svg">
<path d="M28.7235 7.4713C28.7374 7.75304 28.7426 8.03826 28.7426 8.32C28.7426 16.9983 22.1391 27.0017 10.0643 27.0017C6.35478 27.0017 2.90609 25.9148 2.07321e-08 24.0504C0.514783 24.1113 1.03652 24.1426 1.56522 24.1426C4.64348 24.1426 7.47304 23.0922 9.71826 21.3339C6.84696 21.28 4.42087 19.3843 3.58609 16.7757C3.98609 16.8504 4.39826 16.8904 4.82087 16.8904C5.42087 16.8904 6.00174 16.8122 6.5513 16.6626C3.54783 16.0574 1.28522 13.4052 1.28522 10.2226C1.28522 10.1948 1.28522 10.1687 1.28522 10.1409C2.17043 10.633 3.18435 10.9287 4.25913 10.9635C2.49739 9.78435 1.33739 7.77739 1.33739 5.49739C1.33739 4.29565 1.66087 3.16696 2.22783 2.19652C5.46435 6.17043 10.3043 8.78261 15.76 9.05739C15.6487 8.57565 15.5913 8.07652 15.5913 7.56C15.5913 3.93565 18.5287 0.99826 22.1548 0.99826C24.0435 0.99826 25.7496 1.79304 26.9478 3.06956C28.4417 2.77391 29.847 2.22783 31.1165 1.47652C30.6261 3.0087 29.5843 4.29565 28.2296 5.10783C29.5583 4.94783 30.8209 4.59826 32 4.07478C31.12 5.39304 30.007 6.54783 28.7235 7.4713Z" fill="white"/>
</svg>
