<svg width="32" height="32" viewBox="0 0 32 32" fill="none" xmlns="http://www.w3.org/2000/svg">
<path d="M32 28.4444V3.55556C32 1.6 30.3947 0 28.4356 0H3.56444C1.52 0 0 1.51644 0 3.55556V28.4444C0 30.4853 1.52 32 3.56444 32H28.4356C30.3947 32 32 30.4018 32 28.4444ZM25.216 18.8569C25.216 18.8569 27.2284 20.8427 27.7244 21.7636C27.7387 21.7831 27.744 21.8009 27.7493 21.808C27.9502 22.1458 28.0018 22.4124 27.9004 22.608C27.7333 22.9333 27.1644 23.0969 26.9707 23.1111C26.9707 23.1111 23.5164 23.1111 23.4169 23.1111C23.168 23.1111 22.6524 23.0471 22.0267 22.6151C21.5467 22.2809 21.072 21.728 20.6098 21.1893C19.92 20.3893 19.3227 19.696 18.7218 19.696C18.6453 19.696 18.5689 19.7084 18.4978 19.7333C18.0409 19.8791 17.4613 20.528 17.4613 22.2613C17.4613 22.8036 17.0347 23.1129 16.7324 23.1129C16.7324 23.1129 15.1822 23.1129 15.104 23.1129C14.5493 23.1129 11.6604 22.9191 9.10222 20.2187C5.96267 16.912 3.14311 10.2791 3.11822 10.2204C2.94044 9.792 3.30844 9.55911 3.70844 9.55911H7.29956C7.78133 9.55911 7.936 9.85067 8.04622 10.112C8.17067 10.4089 8.64 11.6071 9.408 12.9547C10.6578 15.1467 11.4276 16.0391 12.0409 16.0391C12.1547 16.0391 12.2649 16.0089 12.368 15.952C13.1698 15.5093 13.0204 12.6507 12.9849 12.0604C12.9849 11.9484 12.9831 10.7822 12.5742 10.2222C12.2791 9.81689 11.7796 9.66222 11.4773 9.60356C11.5573 9.488 11.7298 9.30844 11.9502 9.20178C12.4996 8.928 13.4898 8.88889 14.4747 8.88889H15.0222C16.0907 8.90311 16.368 8.97244 16.7538 9.07022C17.5342 9.25689 17.5502 9.76356 17.4809 11.488C17.4613 11.9787 17.44 12.5351 17.44 13.1876C17.44 13.328 17.4347 13.4827 17.4347 13.6427C17.4098 14.5244 17.3813 15.5218 18.0036 15.9307C18.0853 15.9804 18.176 16.0089 18.272 16.0089C18.4889 16.0089 19.1378 16.0089 20.896 12.992C21.6693 11.6604 22.2649 10.0889 22.3058 9.97156C22.3413 9.90756 22.4462 9.71911 22.5689 9.64622C22.6684 9.58756 22.7964 9.57689 22.864 9.57689H27.0862C27.5484 9.57689 27.8613 9.64622 27.92 9.82222C28.0213 10.1049 27.9004 10.9671 25.9716 13.5733C25.6444 14.0053 25.3618 14.3822 25.1129 14.7111C23.3636 17.0009 23.3636 17.1182 25.216 18.8569Z" fill="white"/>
</svg>
